v 0.714071284 -0.648581937 -4.267906784 0.345098 0.352941 0.317647
v 0.702328756 -0.642532784 -4.280048342 0.352941 0.352941 0.270588
v 0.657228375 -0.645585017 -4.302571455 0.486275 0.501961 0.349020
v 0.734104268 -0.644365805 -4.271856517 0.349020 0.356863 0.309804
v 0.669450578 -0.646590017 -4.304081521 0.243137 0.243137 0.098039
v 0.709727170 -0.644201975 -4.288096465 0.490196 0.517647 0.196078
v 0.690978416 -0.640047953 -4.294314791 0.388235 0.380392 0.270588
v 0.691490957 -0.643126275 -4.295690342 0.364706 0.372549 0.164706
v 0.736771661 -0.643683936 -4.280046216 0.478431 0.486275 0.262745
v 0.654091983 -0.643958340 -4.315774182 0.309804 0.305882 0.266667
v 0.663253042 -0.644215977 -4.314080183 0.560784 0.627451 0.368627
v 0.755715644 -0.642231362 -4.276651799 0.462745 0.478431 0.380392
v 0.661230624 -0.649070647 -4.318871615 0.427451 0.431373 0.172549
v 0.697212790 -0.634597356 -4.302286356 0.607843 0.686275 0.443137
v 0.688874305 -0.638134123 -4.309637546 0.384314 0.431373 0.129412
v 0.708456222 -0.633056930 -4.300344161 0.458824 0.494118 0.243137
v 0.720746128 -0.636010438 -4.296676362 0.400000 0.419608 0.129412
v 0.686344503 -0.636223298 -4.310864293 0.580392 0.647059 0.352941
v 0.779298296 -0.641663431 -4.282167292 0.200000 0.207843 0.184314
v 0.753187170 -0.637109863 -4.291941850 0.556863 0.552941 0.274510
v 0.652180342 -0.644749840 -4.337687837 0.207843 0.207843 0.117647
v 0.683208553 -0.636242872 -4.323856369 0.568627 0.600000 0.349020
v 0.675454145 -0.644975078 -4.330524239 0.360784 0.407843 0.121569
v 0.739441651 -0.632157299 -4.301466731 0.494118 0.509804 0.309804
v 0.775921319 -0.639673352 -4.290608941 0.545098 0.549020 0.384314
v 0.663290952 -0.640119362 -4.335882332 0.533333 0.556863 0.360784
v 0.677463386 -0.638231769 -4.330515975 0.478431 0.490196 0.164706
v 0.719629288 -0.628771363 -4.311975305 0.419608 0.435294 0.137255
v 0.790863260 -0.641794494 -4.289889893 0.501961 0.513725 0.427451
v 0.650598403 -0.640226942 -4.346156897 0.349020 0.352941 0.309804
v 0.701485227 -0.631294203 -4.323319408 0.509804 0.545098 0.235294
v 0.756965976 -0.633233302 -4.303118593 0.517647 0.509804 0.274510
v 0.711577465 -0.627679993 -4.320004728 0.490196 0.513725 0.152941
v 0.669396179 -0.644796418 -4.342947425 0.415686 0.431373 0.105882
v 0.685489006 -0.633499198 -4.333611326 0.478431 0.501961 0.278431
v 0.771459669 -0.635687386 -4.301450470 0.529412 0.525490 0.329412
v 0.736919857 -0.626004721 -4.312554243 0.439216 0.443137 0.188235
v 0.665386081 -0.639724995 -4.349133333 0.623529 0.619608 0.219608
v 0.653205994 -0.643672754 -4.356030408 0.200000 0.207843 0.121569
v 0.791674378 -0.638493446 -4.301245667 0.596078 0.607843 0.443137
v 0.806239853 -0.642890220 -4.297953281 0.392157 0.403922 0.270588
v 0.662757466 -0.635596958 -4.354921955 0.580392 0.615686 0.478431
v 0.730521213 -0.620625730 -4.325994429 0.462745 0.462745 0.149020
v 0.711443468 -0.616719765 -4.332718056 0.639216 0.682353 0.462745
v 0.702316304 -0.619570699 -4.338578857 0.474510 0.509804 0.243137
v 0.757996801 -0.622593270 -4.317970891 0.521569 0.533333 0.356863
v 0.664823739 -0.638349799 -4.361503176 0.360784 0.376471 0.078431
v 0.678773920 -0.630658168 -4.353510268 0.450980 0.458824 0.121569
v 0.719816633 -0.621964941 -4.334909183 0.349020 0.376471 0.090196
v 0.688536285 -0.623911372 -4.349556898 0.380392 0.396078 0.086275
v 0.754776808 -0.616559129 -4.320876983 0.560784 0.568627 0.227451
v 0.813484034 -0.643723005 -4.307008665 0.470588 0.494118 0.372549
v 0.722938956 -0.618147800 -4.335022036 0.498039 0.525490 0.258824
v 0.786263689 -0.630270993 -4.314506600 0.537255 0.521569 0.372549
v 0.792683254 -0.627936263 -4.312789413 0.588235 0.568627 0.215686
v 0.653614305 -0.633579533 -4.373024095 0.588235 0.623529 0.458824
v 0.759669569 -0.612639622 -4.324302291 0.576471 0.576471 0.243137
v 0.778501256 -0.620055173 -4.319863452 0.552941 0.529412 0.207843
v 0.767147712 -0.620282177 -4.324524297 0.533333 0.549020 0.458824
v 0.769202181 -0.616978440 -4.323538689 0.541176 0.529412 0.215686
v 0.706854589 -0.614600960 -4.349069247 0.435294 0.458824 0.168627
v 0.817558522 -0.648127634 -4.316772780 0.611765 0.666667 0.533333
v 0.807766183 -0.634432438 -4.316141042 0.588235 0.592157 0.227451
v 0.825318131 -0.647956735 -4.314991458 0.258824 0.278431 0.227451
v 0.755325950 -0.615231624 -4.332035823 0.486275 0.494118 0.298039
v 0.741221359 -0.613241636 -4.338260688 0.458824 0.478431 0.156863
v 0.696378590 -0.616061612 -4.357361496 0.498039 0.501961 0.172549
v 0.684594640 -0.621535615 -4.363989428 0.462745 0.462745 0.121569
v 0.752490634 -0.609182438 -4.332896649 0.501961 0.505882 0.180392
v 0.674390504 -0.627269759 -4.370682322 0.498039 0.494118 0.141176
v 0.805697557 -0.634201529 -4.322828557 0.588235 0.592157 0.427451
v 0.656781125 -0.635997276 -4.384024511 0.247059 0.258824 0.196078
v 0.718543375 -0.612730791 -4.353055959 0.400000 0.407843 0.141176
v 0.665393459 -0.628735373 -4.380485029 0.560784 0.560784 0.188235
v 0.781702595 -0.615674551 -4.330278470 0.549020 0.533333 0.192157
v 0.827830593 -0.651053812 -4.324743440 0.603922 0.643137 0.447059
v 0.836951463 -0.657630976 -4.323432619 0.360784 0.364706 0.333333
v 0.819072802 -0.642530797 -4.326436599 0.615686 0.643137 0.509804
v 0.652753177 -0.622954473 -4.387104159 0.549020 0.588235 0.325490
v 0.725565969 -0.608331419 -4.353430573 0.576471 0.584314 0.266667
v 0.678703097 -0.620804068 -4.377752217 0.392157 0.403922 0.078431
v 0.757757211 -0.610848979 -4.345921404 0.549020 0.556863 0.282353
v 0.711994423 -0.607793127 -4.364290188 0.447059 0.356863 0.180392
v 0.797102742 -0.617847400 -4.334833603 0.584314 0.564706 0.203922
v 0.717042670 -0.610484749 -4.364710820 0.545098 0.517647 0.176471
v 0.665261144 -0.623860740 -4.391842787 0.521569 0.513725 0.141176
v 0.726662421 -0.607637423 -4.362673529 0.435294 0.466667 0.211765
v 0.688402891 -0.613037369 -4.380897133 0.490196 0.505882 0.133333
v 0.820493411 -0.634225198 -4.336185861 0.603922 0.600000 0.200000
v 0.739922453 -0.605778512 -4.359916233 0.443137 0.470588 0.176471
v 0.653957836 -0.627259412 -4.402928562 0.172549 0.176471 0.109804
v 0.700072136 -0.607016363 -4.377927544 0.454902 0.462745 0.125490
v 0.770641615 -0.604864392 -4.349122906 0.490196 0.482353 0.156863
v 0.710691566 -0.604776643 -4.374137545 0.498039 0.494118 0.258824
v 0.831005242 -0.648757076 -4.341442712 0.576471 0.592157 0.400000
v 0.663548068 -0.621609152 -4.402337546 0.388235 0.392157 0.098039
v 0.845883194 -0.669459751 -4.349315335 0.392157 0.388235 0.219608
v 0.737065208 -0.604150625 -4.370092336 0.403922 0.435294 0.203922
v 0.793669404 -0.609137888 -4.349656951 0.564706 0.545098 0.192157
v 0.824879822 -0.634450964 -4.346813790 0.615686 0.603922 0.200000
v 0.838720640 -0.657443425 -4.350782865 0.584314 0.603922 0.388235
v 0.809056335 -0.618042237 -4.349178919 0.592157 0.592157 0.200000
v 0.724402732 -0.604177695 -4.378292950 0.482353 0.498039 0.176471
v 0.829008637 -0.642559811 -4.349921859 0.580392 0.576471 0.360784
v 0.658837633 -0.620913648 -4.410699240 0.368627 0.364706 0.082353
v 0.690065049 -0.604871232 -4.393480080 0.400000 0.415686 0.125490
v 0.774289012 -0.600864907 -4.359775581 0.486275 0.486275 0.156863
v 0.758065197 -0.599876724 -4.365917893 0.482353 0.525490 0.164706
v 0.748649468 -0.600123763 -4.371050554 0.494118 0.498039 0.180392
v 0.847680300 -0.676031048 -4.358931717 0.313725 0.329412 0.164706
v 0.657644131 -0.614009829 -4.417327015 0.454902 0.466667 0.121569
v 0.675395852 -0.606138563 -4.407968192 0.498039 0.474510 0.137255
v 0.800042365 -0.609176776 -4.359636275 0.572549 0.564706 0.180392
v 0.830897148 -0.642512611 -4.360739159 0.627451 0.666667 0.517647
v 0.737022719 -0.601279772 -4.384213835 0.423529 0.466667 0.207843
v 0.726026312 -0.600730669 -4.388847577 0.380392 0.403922 0.098039
v 0.697784504 -0.597595732 -4.400041965 0.439216 0.447059 0.172549
v 0.650927687 -0.610683777 -4.424930605 0.325490 0.337255 0.129412
v 0.813234988 -0.618169320 -4.362769816 0.596078 0.596078 0.200000
v 0.839884591 -0.659637201 -4.367441008 0.545098 0.549020 0.294118
v 0.717736249 -0.600866768 -4.396658282 0.384314 0.384314 0.141176
v 0.759559211 -0.599860164 -4.380214542 0.384314 0.403922 0.207843
v 0.796179590 -0.604641600 -4.368447997 0.572549 0.580392 0.196078
v 0.749044357 -0.597733633 -4.385558015 0.564706 0.552941 0.341176
v 0.752472080 -0.603330476 -4.386366163 0.368627 0.407843 0.196078
v 0.707500121 -0.595720564 -4.402254201 0.423529 0.439216 0.141176
v 0.786979447 -0.600310123 -4.372673800 0.552941 0.545098 0.180392
v 0.669388985 -0.603387644 -4.420897643 0.509804 0.560784 0.396078
v 0.673206309 -0.598795523 -4.418753501 0.411765 0.407843 0.145098
v 0.725832491 -0.597853606 -4.398336741 0.415686 0.415686 0.164706
v 0.659460939 -0.600155740 -4.426006840 0.392157 0.384314 0.098039
v 0.833640640 -0.646213644 -4.373631932 0.592157 0.603922 0.407843
v 0.775626414 -0.596632590 -4.379624224 0.505882 0.517647 0.168627
v 0.852447429 -0.687712438 -4.382589102 0.188235 0.180392 0.050980
v 0.734372358 -0.593803036 -4.399544563 0.450980 0.458824 0.196078
v 0.766070072 -0.594549963 -4.387658876 0.450980 0.486275 0.141176
v 0.829427002 -0.638314882 -4.379271510 0.576471 0.568627 0.329412
v 0.648153657 -0.590896981 -4.435326452 0.356863 0.360784 0.188235
v 0.707887901 -0.590271195 -4.411285834 0.392157 0.392157 0.156863
v 0.801449132 -0.604222132 -4.378850766 0.572549 0.584314 0.180392
v 0.821260347 -0.629340388 -4.380501879 0.600000 0.584314 0.368627
v 0.844087488 -0.667549975 -4.385275843 0.564706 0.572549 0.333333
v 0.660422472 -0.596900427 -4.434088624 0.462745 0.490196 0.345098
v 0.679866588 -0.591621039 -4.424849432 0.431373 0.423529 0.141176
v 0.772371920 -0.595662898 -4.391718478 0.454902 0.486275 0.258824
v 0.697511527 -0.587234537 -4.419349672 0.490196 0.490196 0.192157
v 0.817364928 -0.617255036 -4.383445111 0.623529 0.635294 0.211765
v 0.695002057 -0.589770843 -4.422881131 0.517647 0.494118 0.156863
v 0.650535676 -0.581295183 -4.439369849 0.364706 0.364706 0.207843
v 0.792422837 -0.595373556 -4.389320739 0.552941 0.568627 0.188235
v 0.851304179 -0.680909886 -4.396558763 0.541176 0.525490 0.290196
v 0.775584622 -0.589980729 -4.395376217 0.482353 0.501961 0.164706
v 0.806579050 -0.604002188 -4.388669161 0.572549 0.576471 0.176471
v 0.814920924 -0.610990596 -4.390906157 0.611765 0.627451 0.200000
v 0.819393074 -0.619314014 -4.392280569 0.592157 0.615686 0.403922
v 0.642356323 -0.562295907 -4.444026516 0.254902 0.266667 0.211765
v 0.677875304 -0.583770256 -4.437799827 0.537255 0.537255 0.380392
v 0.834304715 -0.637748202 -4.395007050 0.556863 0.545098 0.321569
v 0.747721852 -0.582744496 -4.411917657 0.494118 0.509804 0.172549
v 0.861361268 -0.702097481 -4.408556309 0.305882 0.313725 0.270588
v 0.840425348 -0.647082106 -4.398172758 0.596078 0.576471 0.333333
v 0.671002037 -0.577340104 -4.441781732 0.545098 0.541176 0.360784
v 0.659892292 -0.566200119 -4.445666864 0.462745 0.474510 0.286275
v 0.779562894 -0.587238720 -4.405660578 0.450980 0.486275 0.125490
v 0.680813795 -0.574528600 -4.440923882 0.454902 0.443137 0.101961
v 0.850312688 -0.666379471 -4.406056804 0.584314 0.564706 0.329412
v 0.739608603 -0.577873080 -4.419359954 0.478431 0.486275 0.180392
v 0.710574721 -0.577698874 -4.431340889 0.443137 0.427451 0.184314
v 0.761272470 -0.584508086 -4.414084619 0.450980 0.470588 0.117647
v 0.643477925 -0.552462513 -4.450056927 0.309804 0.321569 0.258824
v 0.818517352 -0.608796960 -4.401535618 0.627451 0.643137 0.211765
v 0.836824969 -0.635768965 -4.406035793 0.576471 0.568627 0.333333
v 0.861220568 -0.690210909 -4.415794363 0.600000 0.592157 0.360784
v 0.679052215 -0.569987920 -4.446692577 0.631373 0.631373 0.490196
v 0.845116723 -0.648916047 -4.408386411 0.588235 0.580392 0.345098
v 0.793361310 -0.588958200 -4.408956961 0.541176 0.576471 0.164706
v 0.656129828 -0.554894275 -4.452462594 0.572549 0.580392 0.419608
v 0.684021095 -0.564049845 -4.445572721 0.513725 0.505882 0.149020
v 0.849167938 -0.656736552 -4.412205271 0.572549 0.564706 0.321569
v 0.674900921 -0.558182773 -4.448306282 0.513725 0.509804 0.152941
v 0.859443828 -0.679343328 -4.418247420 0.603922 0.588235 0.337255
v 0.762577092 -0.579301362 -4.423366118 0.486275 0.517647 0.160784
v 0.751833288 -0.575144871 -4.426279322 0.478431 0.494118 0.156863
v 0.677398175 -0.560764316 -4.451237559 0.576471 0.580392 0.411765
v 0.842256110 -0.638983977 -4.414090572 0.576471 0.572549 0.321569
v 0.646672708 -0.540579878 -4.458273376 0.529412 0.537255 0.415686
v 0.774106485 -0.583835178 -4.422726423 0.447059 0.478431 0.121569
v 0.787779007 -0.584852151 -4.418036274 0.513725 0.560784 0.160784
v 0.808144454 -0.593841298 -4.413429638 0.556863 0.576471 0.156863
v 0.827906339 -0.617522829 -4.415697098 0.658824 0.705882 0.588235
v 0.669258754 -0.543581339 -4.456155291 0.564706 0.552941 0.196078
v 0.657455052 -0.540413879 -4.460303089 0.564706 0.560784 0.403922
v 0.742491302 -0.568573918 -4.436392917 0.478431 0.486275 0.152941
v 0.855104337 -0.658825550 -4.424713868 0.607843 0.592157 0.384314
v 0.767129262 -0.574936031 -4.431572476 0.454902 0.462745 0.141176
v 0.841217651 -0.632743141 -4.423699368 0.643137 0.678431 0.505882
v 0.870011717 -0.692284388 -4.433980952 0.600000 0.588235 0.356863
v 0.758366606 -0.569975040 -4.436114872 0.490196 0.501961 0.152941
v 0.789988826 -0.581896589 -4.427922832 0.498039 0.509804 0.137255
v 0.834020018 -0.621489770 -4.424489448 0.596078 0.619608 0.419608
v 0.818035600 -0.596378141 -4.424795760 0.603922 0.619608 0.196078
v 0.685696117 -0.539907894 -4.458214834 0.513725 0.513725 0.141176
v 0.701030504 -0.550396297 -4.455787971 0.505882 0.521569 0.141176
v 0.805404668 -0.586890888 -4.428198012 0.568627 0.584314 0.176471
v 0.780018800 -0.577737878 -4.435896084 0.529412 0.498039 0.215686
v 0.658975384 -0.526586362 -4.467048333 0.564706 0.556863 0.207843
v 0.728722203 -0.559701248 -4.450848005 0.470588 0.482353 0.149020
v 0.867177504 -0.677337359 -4.436815996 0.623529 0.600000 0.388235
v 0.674987766 -0.534677385 -4.464009634 0.529412 0.509804 0.164706
v 0.743665366 -0.561108600 -4.449416894 0.501961 0.494118 0.149020
v 0.650005495 -0.519566616 -4.472697027 0.603922 0.607843 0.482353
v 0.773101011 -0.570260761 -4.441983237 0.505882 0.541176 0.235294
v 0.875337861 -0.693205473 -4.444332637 0.596078 0.572549 0.333333
v 0.715905584 -0.550481085 -4.459395977 0.529412 0.537255 0.164706
v 0.702453654 -0.540440081 -4.461476506 0.596078 0.588235 0.270588
v 0.833414948 -0.614226321 -4.435059727 0.615686 0.639216 0.470588
v 0.670015594 -0.530265123 -4.471462765 0.588235 0.568627 0.447059
v 0.860390622 -0.657671033 -4.440790676 0.631373 0.607843 0.435294
v 0.754166421 -0.561345949 -4.450987707 0.498039 0.498039 0.149020
v 0.811359037 -0.585798086 -4.437202500 0.584314 0.603922 0.188235
v 0.855141898 -0.647081617 -4.441815287 0.627451 0.600000 0.396078
v 0.647057620 -0.510470972 -4.477767480 0.341176 0.364706 0.282353
v 0.884030653 -0.707597675 -4.452080730 0.545098 0.537255 0.447059
v 0.845122609 -0.628284547 -4.441803088 0.584314 0.603922 0.396078
v 0.851038024 -0.637914838 -4.443020703 0.568627 0.549020 0.305882
v 0.712209826 -0.540414247 -4.465992470 0.521569 0.521569 0.133333
v 0.770281303 -0.563514821 -4.452697445 0.513725 0.533333 0.207843
v 0.877573789 -0.687369459 -4.453485160 0.584314 0.541176 0.309804
v 0.838348635 -0.614999730 -4.445053792 0.662745 0.713725 0.580392
v 0.687030142 -0.524788396 -4.474007548 0.513725 0.470588 0.141176
v 0.655893996 -0.508924550 -4.481691653 0.639216 0.650980 0.525490
v 0.824616827 -0.591851437 -4.443831145 0.584314 0.572549 0.168627
v 0.702766623 -0.528611796 -4.471861367 0.505882 0.474510 0.125490
v 0.871292478 -0.669420665 -4.454089011 0.603922 0.576471 0.364706
v 0.865292200 -0.655247990 -4.452167254 0.584314 0.545098 0.290196
v 0.748363170 -0.552978743 -4.463180955 0.513725 0.533333 0.164706
v 0.726344469 -0.541961858 -4.469626095 0.521569 0.490196 0.125490
v 0.853087934 -0.634479807 -4.452340528 0.635294 0.615686 0.396078
v 0.668603078 -0.510391698 -4.483768929 0.541176 0.513725 0.200000
v 0.877950060 -0.679317082 -4.459474986 0.588235 0.529412 0.290196
v 0.792847841 -0.566941952 -4.454220654 0.709804 0.611765 0.415686
v 0.846986315 -0.624806495 -4.453494604 0.556863 0.564706 0.305882
v 0.697247600 -0.522279263 -4.478037358 0.552941 0.521569 0.200000
v 0.653544008 -0.498969770 -4.487645918 0.607843 0.615686 0.556863
v 0.883691829 -0.690220123 -4.462914331 0.627451 0.584314 0.368627
v 0.807906786 -0.574983282 -4.453466237 0.560784 0.592157 0.164706
v 0.779113171 -0.560950844 -4.460249743 0.490196 0.501961 0.137255
v 0.741376921 -0.546796839 -4.470959743 0.478431 0.458824 0.129412
v 0.714435309 -0.527793109 -4.475794624 0.529412 0.505882 0.137255
v 0.860150143 -0.641660982 -4.458784683 0.584314 0.552941 0.321569
v 0.830282704 -0.591173628 -4.454519298 0.596078 0.615686 0.184314
v 0.895399310 -0.705078100 -4.468374929 0.690196 0.690196 0.556863
v 0.820009549 -0.580651012 -4.456296764 0.560784 0.568627 0.152941
v 0.674113307 -0.507753633 -4.491526351 0.584314 0.580392 0.478431
v 0.652009045 -0.489887218 -4.495569863 0.227451 0.231373 0.203922
v 0.660794537 -0.497035034 -4.494700333 0.745098 0.745098 0.678431
v 0.799023788 -0.563708283 -4.462955856 0.811765 0.666667 0.513725
v 0.843140819 -0.611001060 -4.462288924 0.627451 0.654902 0.462745
v 0.767143603 -0.551847010 -4.472872911 0.505882 0.529412 0.141176
v 0.688380843 -0.507825051 -4.489716011 0.541176 0.509804 0.156863
v 0.728953219 -0.526570827 -4.480368117 0.600000 0.572549 0.388235
v 0.810720276 -0.570761131 -4.464160595 0.541176 0.545098 0.137255
v 0.751846064 -0.543126478 -4.479602021 0.509804 0.494118 0.149020
v 0.673943573 -0.499912778 -4.496240654 0.560784 0.525490 0.152941
v 0.850152987 -0.619676186 -4.468066746 0.556863 0.552941 0.317647
v 0.884749832 -0.680163860 -4.475470167 0.647059 0.611765 0.435294
v 0.788266358 -0.556017933 -4.470859978 0.545098 0.576471 0.356863
v 0.877753209 -0.666488282 -4.473945001 0.596078 0.545098 0.325490
v 0.834180564 -0.589570830 -4.464808368 0.639216 0.658824 0.207843
v 0.712028460 -0.514364215 -4.487489366 0.545098 0.501961 0.152941
v 0.664252851 -0.490600484 -4.498778121 0.580392 0.549020 0.176471
v 0.855667567 -0.628148192 -4.470426325 0.647059 0.623529 0.462745
v 0.797517648 -0.561471438 -4.471062610 0.411765 0.447059 0.058824
v 0.744836484 -0.534135564 -4.484556493 0.556863 0.537255 0.152941
v 0.700586097 -0.507657715 -4.493877785 0.541176 0.517647 0.160784
v 0.913672830 -0.707434087 -4.479096740 0.211765 0.219608 0.172549
v 0.826728290 -0.578372804 -4.469451398 0.596078 0.623529 0.188235
v 0.892889580 -0.691797133 -4.483006329 0.647059 0.623529 0.423529
v 0.867491495 -0.642752583 -4.477065684 0.541176 0.521569 0.298039
v 0.775097636 -0.548813416 -4.482709562 0.525490 0.549020 0.156863
v 0.877758728 -0.658970348 -4.480270876 0.615686 0.588235 0.392157
v 0.842866099 -0.600417363 -4.475405848 0.517647 0.509804 0.235294
v 0.658392387 -0.479245277 -4.509095653 0.439216 0.443137 0.372549
v 0.676759182 -0.492756989 -4.506795929 0.603922 0.564706 0.184314
v 0.903214752 -0.699398537 -4.489714050 0.694118 0.686275 0.494118
v 0.807123344 -0.560154492 -4.479842519 0.615686 0.600000 0.247059
v 0.863862486 -0.632190629 -4.482820698 0.564706 0.525490 0.309804
v 0.667611899 -0.485368511 -4.510609905 0.596078 0.592157 0.466667
v 0.822495143 -0.569790116 -4.478666264 0.556863 0.580392 0.160784
v 0.836853093 -0.585551477 -4.479185246 0.639216 0.666667 0.227451
v 0.763290308 -0.537742186 -4.492411230 0.537255 0.513725 0.133333
v 0.840686836 -0.593060940 -4.482627980 0.568627 0.580392 0.356863
v 0.872473826 -0.643457371 -4.487729096 0.607843 0.600000 0.396078
v 0.694467615 -0.499656132 -4.509771864 0.584314 0.545098 0.192157
v 0.744977286 -0.520022998 -4.497161324 0.533333 0.521569 0.141176
v 0.857945233 -0.617586104 -4.486582516 0.631373 0.588235 0.423529
v 0.774233875 -0.541211208 -4.493514263 0.545098 0.525490 0.152941
v 0.881918359 -0.655968856 -4.491813919 0.600000 0.600000 0.400000
v 0.754089796 -0.525190227 -4.497280022 0.549020 0.537255 0.152941
v 0.681485986 -0.503370804 -4.518728232 0.721569 0.709804 0.650980
v 0.713766544 -0.503155310 -4.506265364 0.529412 0.517647 0.152941
v 0.730205503 -0.509124026 -4.504126912 0.525490 0.505882 0.137255
v 0.791060512 -0.547643690 -4.493799610 0.545098 0.564706 0.152941
v 0.892768534 -0.673395216 -4.497199162 0.552941 0.537255 0.278431
v 0.803025132 -0.550579563 -4.493061391 0.588235 0.600000 0.439216
v 0.898885795 -0.688823080 -4.503281552 0.560784 0.545098 0.305882
v 0.665896967 -0.471878928 -4.521471361 0.600000 0.603922 0.498039
v 0.889031026 -0.663077410 -4.501057299 0.584314 0.556863 0.278431
v 0.848310788 -0.596502888 -4.494115259 0.701961 0.619608 0.462745
v 0.781006635 -0.536719868 -4.500930609 0.517647 0.509804 0.101961
v 0.765567297 -0.524335012 -4.503588892 0.521569 0.509804 0.125490
v 0.877329609 -0.640786773 -4.500638227 0.584314 0.584314 0.384314
v 0.857201248 -0.607677519 -4.497279578 0.596078 0.584314 0.356863
v 0.673795270 -0.474440550 -4.524681139 0.572549 0.541176 0.164706
v 0.724343968 -0.500128247 -4.513526569 0.525490 0.525490 0.152941
v 0.872345260 -0.631553341 -4.500644869 0.588235 0.576471 0.345098
v 0.793212045 -0.541928009 -4.502315892 0.517647 0.490196 0.098039
v 0.690391490 -0.484049443 -4.523752447 0.600000 0.556863 0.180392
v 0.738788284 -0.506919390 -4.512614984 0.521569 0.517647 0.149020
v 0.824092854 -0.560692304 -4.499198707 0.584314 0.607843 0.168627
v 0.806787138 -0.548235783 -4.502258048 0.525490 0.501961 0.168627
v 0.700910609 -0.486482227 -4.523313478 0.552941 0.521569 0.137255
v 0.841335538 -0.580974489 -4.500323526 0.588235 0.572549 0.141176
v 0.716782910 -0.493751819 -4.520471417 0.525490 0.498039 0.117647
v 0.678779899 -0.480866329 -4.531697898 0.690196 0.678431 0.619608
v 0.779470679 -0.526216378 -4.508854594 0.568627 0.545098 0.149020
v 0.868147629 -0.619364543 -4.506271430 0.600000 0.611765 0.352941
v 0.663983143 -0.460186587 -4.532651353 0.168627 0.176471 0.160784
v 0.893593833 -0.667229785 -4.513521267 0.576471 0.564706 0.313725
v 0.675444238 -0.472553608 -4.534066667 0.690196 0.694118 0.627451
v 0.816755495 -0.550663939 -4.505022877 0.686275 0.521569 0.396078
v 0.861657354 -0.607405407 -4.507063819 0.596078 0.611765 0.352941
v 0.771416622 -0.519127291 -4.512689560 0.556863 0.545098 0.164706
v 0.897477490 -0.676712917 -4.517490439 0.556863 0.537255 0.282353
v 0.909558145 -0.710545997 -4.525390278 0.164706 0.164706 0.082353
v 0.712221919 -0.485641838 -4.525714466 0.541176 0.494118 0.133333
v 0.756517908 -0.509832995 -4.516924406 0.521569 0.517647 0.156863
v 0.887671915 -0.649787988 -4.514442476 0.576471 0.552941 0.301961
v 0.856192609 -0.597127819 -4.510416282 0.603922 0.627451 0.396078
v 0.731686273 -0.495528453 -4.525406602 0.513725 0.490196 0.117647
v 0.795187861 -0.532512557 -4.513056695 0.568627 0.568627 0.160784
v 0.846261549 -0.582159389 -4.510394685 0.639216 0.600000 0.407843
v 0.698953019 -0.476672446 -4.533179436 0.576471 0.525490 0.152941
v 0.882595141 -0.638951085 -4.516733765 0.603922 0.592157 0.349020
v 0.902585974 -0.692169199 -4.529461926 0.505882 0.486275 0.235294
v 0.896748696 -0.669627551 -4.524617595 0.552941 0.525490 0.282353
v 0.826073557 -0.553003847 -4.512709695 0.850980 0.682353 0.588235
v 0.671404774 -0.462184680 -4.544390537 0.372549 0.368627 0.266667
v 0.779248188 -0.516979624 -4.521213963 0.537255 0.537255 0.145098
v 0.764420948 -0.508294472 -4.525385262 0.541176 0.529412 0.160784
v 0.746399041 -0.497978315 -4.529871615 0.533333 0.517647 0.129412
v 0.820785512 -0.544204896 -4.520100115 0.498039 0.482353 0.266667
v 0.704562302 -0.474654174 -4.543206338 0.549020 0.525490 0.168627
v 0.790717905 -0.521114619 -4.525397918 0.549020 0.556863 0.152941
v 0.685199470 -0.470708470 -4.550603853 0.505882 0.521569 0.282353
v 0.897630800 -0.661870384 -4.533638801 0.552941 0.521569 0.274510
v 0.904978083 -0.689976844 -4.540537561 0.552941 0.521569 0.266667
v 0.871503766 -0.608983704 -4.527783646 0.611765 0.643137 0.396078
v 0.815009755 -0.537306770 -4.527428030 0.580392 0.607843 0.168627
v 0.731200316 -0.484849652 -4.542911185 0.529412 0.517647 0.145098
v 0.857334270 -0.585442119 -4.527736234 0.631373 0.670588 0.454902
v 0.772381257 -0.506673397 -4.534504378 0.541176 0.545098 0.160784
v 0.909469183 -0.699296004 -4.547514747 0.443137 0.423529 0.243137
v 0.713700780 -0.475604012 -4.547707319 0.517647 0.501961 0.133333
v 0.882577762 -0.626887080 -4.533816410 0.564706 0.592157 0.301961
v 0.826121606 -0.545909319 -4.528448051 0.411765 0.439216 0.043137
v 0.764796622 -0.500243849 -4.538488073 0.537255 0.537255 0.149020
v 0.865095895 -0.594772927 -4.532057926 0.607843 0.650980 0.435294
v 0.903631091 -0.677067504 -4.545447143 0.549020 0.509804 0.270588
v 0.687745158 -0.468692739 -4.560897314 0.372549 0.364706 0.129412
v 0.698826636 -0.469032274 -4.556760558 0.513725 0.478431 0.152941
v 0.836894506 -0.553890865 -4.532549934 0.701961 0.650980 0.337255
v 0.742919972 -0.487203057 -4.546870037 0.537255 0.533333 0.156863
v 0.891435772 -0.638820456 -4.541275859 0.643137 0.619608 0.431373
v 0.879541657 -0.615786467 -4.539678945 0.541176 0.576471 0.286275
v 0.720679555 -0.475083281 -4.554937744 0.513725 0.498039 0.145098
v 0.860989903 -0.584587776 -4.537602691 0.611765 0.647059 0.423529
v 0.913499348 -0.698214736 -4.558395317 0.454902 0.439216 0.305882
v 0.832022659 -0.544893228 -4.537501608 0.501961 0.525490 0.125490
v 0.812141878 -0.527383689 -4.539537935 0.549020 0.549020 0.137255
v 0.896577630 -0.647117699 -4.548239045 0.549020 0.533333 0.286275
v 0.794232785 -0.513351827 -4.543211999 0.541176 0.560784 0.152941
v 0.776988637 -0.502228641 -4.546217158 0.537255 0.537255 0.149020
v 0.870266836 -0.596629346 -4.542549683 0.666667 0.729412 0.556863
v 0.760153801 -0.491939586 -4.550985308 0.537255 0.537255 0.152941
v 0.906388733 -0.675060171 -4.557614746 0.549020 0.498039 0.266667
v 0.853191329 -0.570332044 -4.542558263 0.643137 0.654902 0.411765
v 0.842280353 -0.553304060 -4.542136776 0.682353 0.658824 0.309804
v 0.786317317 -0.505662756 -4.549695517 0.549020 0.556863 0.164706
v 0.707828024 -0.468671761 -4.568357264 0.501961 0.470588 0.168627
v 0.751987470 -0.485323035 -4.558407171 0.533333 0.549020 0.164706
v 0.736336477 -0.478622095 -4.562749947 0.513725 0.478431 0.137255
v 0.821954757 -0.529011600 -4.546778174 0.568627 0.603922 0.160784
v 0.885074194 -0.617432210 -4.552619002 0.686275 0.643137 0.439216
v 0.875991445 -0.601555145 -4.551051523 0.525490 0.572549 0.282353
v 0.840188893 -0.544623347 -4.545516548 0.905882 0.690196 0.584314
v 0.891436449 -0.628863482 -4.555497398 0.607843 0.564706 0.356863
v 0.902244537 -0.654260454 -4.560347738 0.545098 0.517647 0.286275
v 0.850914358 -0.561292776 -4.548376472 0.603922 0.576471 0.164706
v 0.697999551 -0.468176346 -4.578267366 0.376471 0.364706 0.133333
v 0.778333744 -0.498072265 -4.556953387 0.545098 0.552941 0.156863
v 0.765643536 -0.490092331 -4.560409146 0.529412 0.541176 0.160784
v 0.921396420 -0.697620645 -4.570918509 0.325490 0.329412 0.250980
v 0.911581972 -0.681150477 -4.570220709 0.568627 0.513725 0.294118
v 0.808697636 -0.516869349 -4.554301831 0.545098 0.572549 0.149020
v 0.690842964 -0.468641007 -4.584777910 0.333333 0.329412 0.094118
v 0.723138061 -0.470262367 -4.573706177 0.521569 0.505882 0.168627
v 0.838663738 -0.535527750 -4.552009756 0.513725 0.423529 0.258824
v 0.759517814 -0.484719716 -4.567272684 0.529412 0.541176 0.156863
v 0.898748831 -0.639953122 -4.565983364 0.545098 0.541176 0.266667
v 0.871100224 -0.587208329 -4.558795243 0.525490 0.568627 0.270588
v 0.743581124 -0.475896816 -4.572515003 0.529412 0.513725 0.141176
v 0.713506043 -0.468461187 -4.582797197 0.415686 0.411765 0.207843
v 0.904255324 -0.651592276 -4.571836335 0.549020 0.537255 0.298039
v 0.849784816 -0.548782986 -4.558068424 0.388235 0.313725 0.227451
v 0.786376644 -0.499177407 -4.566708934 0.537255 0.564706 0.156863
v 0.777818404 -0.493524732 -4.568153643 0.529412 0.549020 0.145098
v 0.688212415 -0.467933372 -4.595180955 0.286275 0.282353 0.137255
v 0.894203725 -0.626842287 -4.569078237 0.596078 0.615686 0.384314
v 0.913634511 -0.680954256 -4.581029431 0.541176 0.509804 0.294118
v 0.813984184 -0.516425414 -4.564690202 0.549020 0.580392 0.152941
v 0.918820499 -0.692031999 -4.584396547 0.172549 0.156863 0.078431
v 0.889394610 -0.615933276 -4.569636775 0.564706 0.592157 0.333333
v 0.909706261 -0.664023851 -4.581295178 0.541176 0.509804 0.282353
v 0.857472548 -0.557198159 -4.565369900 0.372549 0.349020 0.160784
v 0.807577969 -0.510034380 -4.571095930 0.549020 0.580392 0.156863
v 0.869199409 -0.573675227 -4.569182320 0.682353 0.635294 0.372549
v 0.886011751 -0.604307612 -4.574459595 0.615686 0.584314 0.384314
v 0.783057452 -0.492438139 -4.577162953 0.529412 0.529412 0.129412
v 0.912608645 -0.673185290 -4.589066360 0.521569 0.486275 0.254902
v 0.792663128 -0.498629815 -4.576055389 0.552941 0.556863 0.188235
v 0.823443953 -0.518959915 -4.572317480 0.525490 0.580392 0.149020
v 0.892691513 -0.617416079 -4.579896247 0.552941 0.545098 0.321569
v 0.708993778 -0.462727478 -4.599305223 0.443137 0.431373 0.223529
v 0.746490079 -0.469403341 -4.586678032 0.517647 0.505882 0.152941
v 0.759194105 -0.475230475 -4.583920827 0.541176 0.537255 0.156863
v 0.880597717 -0.590001983 -4.575564093 0.576471 0.537255 0.325490
v 0.839438152 -0.529522166 -4.572781707 0.470588 0.545098 0.098039
v 0.902197684 -0.638371939 -4.586059282 0.560784 0.537255 0.321569
v 0.700770762 -0.461569111 -4.606135671 0.262745 0.258824 0.149020
v 0.723722821 -0.462310002 -4.597356443 0.494118 0.494118 0.168627
v 0.865843962 -0.558455122 -4.574691361 0.737255 0.643137 0.494118
v 0.775066569 -0.482725155 -4.585137430 0.529412 0.505882 0.129412
v 0.857946607 -0.542206127 -4.574047516 0.729412 0.537255 0.478431
v 0.872624972 -0.569283894 -4.577903264 0.713725 0.619608 0.415686
v 0.813586826 -0.508863110 -4.580762157 0.549020 0.564706 0.156863
v 0.891403195 -0.608289307 -4.584683140 0.549020 0.564706 0.294118
v 0.914707451 -0.677900455 -4.599832384 0.564706 0.552941 0.364706
v 0.913241422 -0.666897889 -4.598380954 0.498039 0.482353 0.254902
v 0.907226995 -0.645721039 -4.593765704 0.549020 0.545098 0.305882
v 0.878946842 -0.580063312 -4.582240978 0.576471 0.592157 0.298039
v 0.837485919 -0.522375006 -4.578810366 0.603922 0.552941 0.474510
v 0.885602268 -0.594229811 -4.585496009 0.552941 0.580392 0.290196
v 0.804051911 -0.500747266 -4.586001538 0.525490 0.498039 0.117647
v 0.737641338 -0.462746605 -4.601185133 0.525490 0.509804 0.164706
v 0.749066273 -0.465923136 -4.598368213 0.513725 0.509804 0.152941
v 0.904550187 -0.633703497 -4.595678474 0.556863 0.576471 0.329412
v 0.822534236 -0.511111852 -4.586076816 0.509804 0.462745 0.117647
v 0.710001806 -0.457634169 -4.614612945 0.411765 0.411765 0.290196
v 0.782496646 -0.481156010 -4.594024129 0.552941 0.560784 0.164706
v 0.814262648 -0.504647793 -4.590038844 0.517647 0.501961 0.105882
v 0.916087723 -0.672271519 -4.608403035 0.478431 0.482353 0.352941
v 0.831582120 -0.512729033 -4.587537199 0.549020 0.568627 0.403922
v 0.732741440 -0.460501254 -4.609647655 0.533333 0.498039 0.164706
v 0.910839759 -0.645637929 -4.605091861 0.549020 0.556863 0.301961
v 0.842049725 -0.520837933 -4.589851502 0.513725 0.533333 0.388235
v 0.809489008 -0.497553678 -4.596185207 0.521569 0.513725 0.129412
v 0.874883874 -0.541681694 -4.585542367 0.756863 0.847059 0.749020
v 0.746071100 -0.463294228 -4.609881566 0.529412 0.498039 0.164706
v 0.876843660 -0.551661947 -4.588751811 0.800000 0.854902 0.752941
v 0.890872774 -0.595629550 -4.598811597 0.576471 0.627451 0.356863
v 0.822944885 -0.505855053 -4.595593295 0.517647 0.556863 0.117647
v 0.895659397 -0.606171865 -4.601758868 0.568627 0.615686 0.329412
v 0.883283710 -0.569294357 -4.594975827 0.796078 0.850980 0.709804
v 0.856422841 -0.532883561 -4.593547037 0.419608 0.301961 0.109804
v 0.916919130 -0.664675310 -4.616186638 0.231373 0.247059 0.180392
v 0.771520222 -0.470622242 -4.606461930 0.525490 0.525490 0.168627
v 0.867790090 -0.531925879 -4.589585263 0.631373 0.462745 0.376471
v 0.867657421 -0.535934949 -4.592254537 0.560784 0.372549 0.180392
v 0.901710634 -0.616629586 -4.607762762 0.564706 0.611765 0.341176
v 0.712558722 -0.454804210 -4.626890590 0.200000 0.211765 0.168627
v 0.781478304 -0.474886247 -4.607881981 0.560784 0.564706 0.184314
v 0.918121836 -0.656684176 -4.616887639 0.403922 0.411765 0.301961
v 0.876820050 -0.536502304 -4.591913227 0.701961 0.623529 0.462745
v 0.847649360 -0.525008524 -4.600805837 0.411765 0.447059 0.066667
v 0.760669649 -0.465909418 -4.615161584 0.513725 0.513725 0.176471
v 0.880135293 -0.541999336 -4.595250541 0.521569 0.603922 0.133333
v 0.898218169 -0.599558276 -4.609977825 0.603922 0.674510 0.431373
v 0.887262255 -0.549711286 -4.597231901 0.611765 0.717647 0.494118
v 0.739821217 -0.462991189 -4.625962570 0.501961 0.466667 0.156863
v 0.857563905 -0.531952832 -4.604606460 0.384314 0.411765 0.027451
v 0.750558109 -0.464312575 -4.623766574 0.513725 0.505882 0.184314
v 0.732567992 -0.464081849 -4.632057141 0.219608 0.207843 0.090196
v 0.839415679 -0.507821441 -4.606154671 0.450980 0.501961 0.101961
v 0.912933999 -0.631473144 -4.620060393 0.439216 0.478431 0.333333
v 0.918898790 -0.647032293 -4.623298456 0.149020 0.160784 0.105882
v 0.887901828 -0.554029786 -4.604891494 0.149020 0.160784 0.094118
v 0.775780794 -0.469209559 -4.620689907 0.505882 0.486275 0.149020
v 0.795136824 -0.477518021 -4.616993771 0.545098 0.560784 0.176471
v 0.906004771 -0.607033628 -4.618474402 0.341176 0.400000 0.223529
v 0.764998089 -0.465820991 -4.625772016 0.490196 0.482353 0.160784
v 0.819709273 -0.492195055 -4.613722807 0.533333 0.572549 0.149020
v 0.885598598 -0.540503059 -4.604630388 0.603922 0.560784 0.423529
v 0.809619539 -0.485276851 -4.615977260 0.545098 0.572549 0.160784
v 0.908478206 -0.614765801 -4.621792677 0.309804 0.345098 0.231373
v 0.896561117 -0.562432420 -4.608559265 0.584314 0.650980 0.447059
v 0.903892054 -0.586295430 -4.615473729 0.203922 0.227451 0.133333
v 0.831951459 -0.496639670 -4.613654777 0.486275 0.517647 0.125490
v 0.743012020 -0.467644298 -4.640860742 0.258824 0.270588 0.149020
v 0.789819762 -0.471605825 -4.626543730 0.521569 0.525490 0.156863
v 0.847826397 -0.497244734 -4.616793271 0.509804 0.549020 0.294118
v 0.806204863 -0.477251594 -4.627938530 0.513725 0.529412 0.156863
v 0.795249386 -0.470956048 -4.636092502 0.556863 0.580392 0.196078
v 0.774105786 -0.466018511 -4.643673836 0.486275 0.498039 0.207843
v 0.764876575 -0.465595844 -4.651412389 0.254902 0.258824 0.207843
vn -0.001819748 -0.977347139 -0.211634729
vn -0.040016121 -0.999088610 -0.014854601
vn -0.054457305 -0.995533635 0.077117987
vn 0.108694279 -0.981672097 -0.156542158
vn 0.227626026 -0.964033311 -0.137208482
vn 0.071775115 -0.929039588 -0.362951479
vn 0.320884148 -0.905777920 -0.276766549
vn -0.004348672 -0.898106238 -0.439757062
vn 0.088278077 -0.918658070 -0.385064061
vn -0.348573925 -0.927519858 0.134918984
vn -0.268397589 -0.953376716 0.137969462
vn 0.014631828 -0.966143863 -0.257588715
vn 0.172350908 -0.983405060 -0.056653794
vn 0.233903809 -0.900638486 -0.366250360
vn 0.290910190 -0.938614593 -0.185402015
vn 0.191028958 -0.903908889 -0.382696560
vn 0.069932423 -0.860542069 -0.504556045
vn 0.456205352 -0.888754949 -0.044624179
vn -0.064820436 -0.976752700 -0.204334223
vn -0.030752584 -0.931838606 -0.361567547
vn 0.070154185 -0.956536859 -0.283047042
vn 0.408949162 -0.881503849 -0.236032935
vn 0.413597337 -0.880156337 -0.232942194
vn 0.023599196 -0.890339006 -0.454686190
vn -0.093728464 -0.956512463 -0.276222524
vn 0.076481494 -0.946876893 -0.312369542
vn 0.463552506 -0.878814967 -0.113151794
vn 0.139163798 -0.915655724 -0.377104803
vn -0.159305298 -0.952832652 -0.258324909
vn -0.191885173 -0.978109838 -0.080506052
vn 0.341952940 -0.882498907 -0.322899159
vn -0.069770780 -0.865285940 -0.496399315
vn 0.176167868 -0.876148105 -0.448697427
vn 0.381687863 -0.903866034 -0.193237078
vn 0.529743474 -0.781653614 -0.329225574
vn -0.109727403 -0.847108008 -0.519969152
vn 0.058717080 -0.838478189 -0.541762522
vn 0.135803487 -0.970064314 -0.201327197
vn 0.135695435 -0.941331259 -0.309001956
vn -0.159705169 -0.879543881 -0.448215149
vn -0.288455248 -0.876712991 -0.384925839
vn 0.246772771 -0.902228968 -0.353675119
vn 0.257485466 -0.881880642 -0.394952869
vn 0.243348826 -0.822674028 -0.513798398
vn 0.517974406 -0.794320955 -0.317422015
vn -0.052158378 -0.764577630 -0.642417739
vn 0.370018445 -0.872376826 -0.319444869
vn 0.573221615 -0.746264314 -0.338388170
vn 0.012705843 -0.848532447 -0.528990783
vn 0.519337879 -0.791678291 -0.321766453
vn 0.166888493 -0.782516166 -0.599847215
vn -0.610684466 -0.784524880 -0.107634541
vn 0.109749236 -0.927967187 -0.356134814
vn -0.124801834 -0.770063506 -0.625641030
vn -0.302394199 -0.801618530 -0.515718412
vn -0.090745366 -0.957122896 -0.275101873
vn -0.407847228 -0.773669085 -0.484867803
vn -0.142964149 -0.781173031 -0.607725224
vn -0.066908508 -0.632044084 -0.772038553
vn -0.077257470 -0.944842775 -0.318281971
vn 0.223715400 -0.933520976 -0.280160681
vn -0.586907637 -0.780114075 -0.216705919
vn -0.513279473 -0.784218600 -0.348633577
vn -0.403443118 -0.914679508 0.024393626
vn -0.225433275 -0.963172750 -0.146554056
vn 0.169160364 -0.939051181 -0.299278551
vn 0.435810894 -0.866445723 -0.243599413
vn 0.581638629 -0.759939289 -0.290153034
vn 0.137795859 -0.950894613 -0.277149302
vn 0.476844717 -0.829502820 -0.290764831
vn -0.557088220 -0.719116891 -0.415359618
vn 0.025721655 -0.916654294 -0.398852482
vn 0.155948394 -0.916617639 -0.368092655
vn 0.598273114 -0.709489253 -0.372416810
vn -0.086947905 -0.890838026 -0.445923393
vn -0.630097767 -0.768363474 -0.112224669
vn -0.754801874 -0.652136714 -0.070652930
vn -0.650807907 -0.674597135 -0.348378779
vn -0.531427906 -0.771014567 -0.350885903
vn 0.214042980 -0.925439700 -0.312645109
vn 0.494350799 -0.818235937 -0.293440350
vn 0.086814431 -0.919375673 -0.383681674
vn 0.317421620 -0.896268209 -0.309752825
vn -0.457414379 -0.762400632 -0.457730665
vn 0.084454650 -0.958213604 -0.273302218
vn 0.452560497 -0.819010588 -0.352718944
vn 0.216286101 -0.960677469 -0.174123873
vn 0.509981172 -0.755387841 -0.411471036
vn -0.622377548 -0.634617490 -0.458155901
vn 0.100047604 -0.939156514 -0.328596286
vn 0.268887057 -0.925524241 -0.266654513
vn 0.422599812 -0.813788950 -0.398944788
vn 0.026942443 -0.889986514 -0.455190190
vn 0.078121242 -0.971366487 -0.224375178
vn -0.767644058 -0.597448458 -0.231900714
vn 0.577685722 -0.717065919 -0.389994454
vn -0.859258408 -0.511512874 0.005437623
vn 0.210533187 -0.954302655 -0.212090120
vn -0.285841985 -0.887246681 -0.362060336
vn -0.782921412 -0.600405015 -0.162935206
vn -0.855529066 -0.516084612 -0.041553476
vn -0.577043449 -0.755645259 -0.309872716
vn 0.100674461 -0.959534276 -0.262980278
vn -0.858062512 -0.489987366 -0.153756646
vn 0.522725521 -0.659478524 -0.540227828
vn 0.398491959 -0.833831818 -0.382006097
vn -0.100935221 -0.963450264 -0.248144452
vn 0.120188866 -0.939847142 -0.319753008
vn 0.134534328 -0.983260639 -0.122878113
vn -0.906927923 -0.421098145 0.012573580
vn 0.433052894 -0.683476517 -0.587643635
vn 0.551774378 -0.669181853 -0.497735555
vn -0.527588412 -0.814156001 -0.242488091
vn -0.835060535 -0.548679284 -0.040310629
vn 0.211457296 -0.930757066 -0.298290289
vn 0.164398159 -0.943987286 -0.286114051
vn 0.288983670 -0.800072842 -0.525710839
vn 0.364822794 -0.538381096 -0.759638154
vn -0.747016123 -0.653511597 -0.122022554
vn -0.897267626 -0.441068073 -0.019229218
vn 0.095038845 -0.935253564 -0.340981508
vn 0.163552573 -0.981316851 -0.101330127
vn -0.313410993 -0.912268054 -0.263705419
vn 0.041107210 -0.882893652 -0.467770239
vn -0.019464351 -0.941520438 -0.336393229
vn 0.029069508 -0.800115506 -0.599141170
vn -0.252525899 -0.921098502 -0.296324518
vn 0.511998419 -0.561617330 -0.649956609
vn 0.430378949 -0.733300475 -0.526350049
vn 0.169126864 -0.825860270 -0.537913486
vn 0.307924156 -0.649081313 -0.695612078
vn -0.894636640 -0.422937562 -0.144045482
vn 0.009255855 -0.974982016 -0.222090969
vn -0.921452434 -0.383623293 -0.061307271
vn 0.174013185 -0.818035447 -0.548212932
vn 0.078983767 -0.880790993 -0.466871279
vn -0.788393524 -0.588781438 -0.178247212
vn -0.018396659 -0.440112563 -0.897754140
vn 0.176238596 -0.830159698 -0.528937456
vn -0.547429974 -0.795103600 -0.261018561
vn -0.816748255 -0.556710467 -0.151643475
vn -0.919586320 -0.366503618 -0.141548925
vn 0.165810486 -0.663093548 -0.729940977
vn 0.343373576 -0.825551830 -0.447837877
vn -0.053241770 -0.919972177 -0.388351011
vn 0.278615207 -0.876986519 -0.391494842
vn -0.778453696 -0.588743604 -0.217694306
vn 0.251154430 -0.844132189 -0.473668976
vn -0.105797386 -0.340836275 -0.934150709
vn -0.247483717 -0.908512857 -0.336684123
vn -0.917377868 -0.302047883 -0.259200547
vn -0.014621469 -0.894645181 -0.446538031
vn -0.541941082 -0.770538903 -0.335514027
vn -0.763414233 -0.565094244 -0.312837343
vn -0.809040974 -0.501805821 -0.306012451
vn -0.199495771 -0.409246182 -0.890347685
vn 0.267326874 -0.648839610 -0.712420875
vn -0.775356071 -0.558339438 -0.295093266
vn 0.012334582 -0.866856344 -0.498405394
vn -0.915932256 -0.298526945 -0.268234534
vn -0.879520916 -0.391447228 -0.270577208
vn -0.012396044 -0.373298620 -0.927628416
vn -0.060050586 -0.397344210 -0.915702739
vn -0.108286135 -0.959380462 -0.260505742
vn 0.266086560 -0.448278154 -0.853372509
vn -0.897752444 -0.305124386 -0.317710023
vn 0.134728729 -0.839760775 -0.525975294
vn 0.143497910 -0.737586957 -0.659828638
vn -0.091658904 -0.929822773 -0.356410237
vn -0.253184596 -0.494984571 -0.831196628
vn -0.745406780 -0.581566181 -0.325805939
vn -0.790073952 -0.532346984 -0.303956969
vn -0.896015505 -0.235757854 -0.376263802
vn 0.037041264 -0.473709762 -0.879901703
vn -0.867698515 -0.382540747 -0.317430092
vn -0.341766468 -0.883176140 -0.321240699
vn -0.045224959 -0.492305489 -0.869246805
vn 0.176228631 -0.603516695 -0.777631704
vn -0.882563962 -0.331889062 -0.333062313
vn -0.080138633 -0.390481968 -0.917115932
vn -0.884929934 -0.278188400 -0.373510678
vn -0.234982690 -0.817334072 -0.526068580
vn -0.132560871 -0.852196845 -0.506150326
vn -0.076778125 -0.415253509 -0.906459951
vn -0.854920754 -0.436925996 -0.279653676
vn -0.109461833 -0.503084230 -0.857277298
vn -0.127280677 -0.923821965 -0.361043774
vn -0.150586370 -0.950268809 -0.272603991
vn -0.513898113 -0.785837812 -0.344046018
vn -0.806594129 -0.507563293 -0.302961079
vn 0.081862261 -0.533924203 -0.841560167
vn -0.064187029 -0.556661226 -0.828256183
vn 0.053812497 -0.853198522 -0.518802946
vn -0.865288872 -0.383449045 -0.322865294
vn -0.262454904 -0.802830847 -0.535331724
vn -0.826491836 -0.483979673 -0.287532469
vn -0.879004760 -0.251709035 -0.404960731
vn -0.144359747 -0.859113587 -0.491003164
vn -0.233424485 -0.865507698 -0.443181040
vn -0.794318291 -0.523655645 -0.307966262
vn -0.714153719 -0.612245650 -0.339322458
vn -0.098893206 -0.542779931 -0.834032422
vn -0.055654325 -0.616955408 -0.785027783
vn -0.378935827 -0.868442731 -0.319710591
vn -0.162668640 -0.831141352 -0.531735804
vn -0.218087737 -0.542167815 -0.811475076
vn -0.066066501 -0.765112873 -0.640497860
vn -0.873408945 -0.311711006 -0.374156469
vn 0.088720218 -0.742284253 -0.664185825
vn -0.058215578 -0.857149638 -0.511766982
vn -0.085988538 -0.613689472 -0.784851071
vn -0.229861027 -0.813580838 -0.534088128
vn -0.869636575 -0.278808109 -0.407428847
vn -0.156815832 -0.689492746 -0.707112826
vn -0.242442348 -0.563419727 -0.789797391
vn -0.800287032 -0.490409132 -0.345021086
vn -0.124055167 -0.604303412 -0.787037294
vn -0.851453687 -0.378665673 -0.362820791
vn -0.122993555 -0.861758103 -0.492184475
vn -0.444704543 -0.792048306 -0.418207305
vn -0.827639935 -0.444967664 -0.342075893
vn -0.262131580 -0.536943893 -0.801859271
vn -0.813345565 -0.326775526 -0.481338496
vn -0.807959802 -0.502120567 -0.308343794
vn -0.836275995 -0.445547747 -0.319577323
vn -0.267834413 -0.568296299 -0.778012882
vn -0.174854008 -0.860006825 -0.479389545
vn -0.861753554 -0.301561736 -0.407972220
vn -0.818790904 -0.449972046 -0.356520145
vn -0.038837133 -0.676093405 -0.735791672
vn -0.267002631 -0.594354367 -0.758585843
vn -0.713543915 -0.572984676 -0.403167016
vn -0.164386794 -0.676203105 -0.718140894
vn -0.863974767 -0.341109668 -0.370394108
vn -0.848130282 -0.407374754 -0.338704643
vn -0.145747351 -0.842100005 -0.519254553
vn -0.264814068 -0.623502639 -0.735607211
vn -0.806090912 -0.495224370 -0.323991148
vn -0.168991432 -0.652781858 -0.738456323
vn -0.854233003 -0.362690013 -0.372480778
vn -0.228741068 -0.825526268 -0.515930135
vn -0.818679854 -0.480644229 -0.314236251
vn -0.126309653 -0.701356346 -0.701530575
vn -0.411857036 -0.569526765 -0.711345940
vn -0.818901731 -0.386433978 -0.424345067
vn -0.407243977 -0.784799036 -0.467164656
vn -0.159111766 -0.854674295 -0.494181439
vn -0.230372437 -0.738026253 -0.634228500
vn -0.190750998 -0.620834781 -0.760380320
vn -0.807673856 -0.489710512 -0.328399995
vn -0.784833429 -0.490425079 -0.378839981
vn -0.664253878 -0.610393415 -0.431493528
vn -0.553429806 -0.724101249 -0.411573605
vn -0.160140174 -0.720899911 -0.674283652
vn -0.291778009 -0.634014943 -0.716163839
vn -0.321612223 -0.599526066 -0.732894313
vn -0.352674266 -0.830982542 -0.430219568
vn -0.842227391 -0.421341254 -0.336339961
vn -0.186337200 -0.857505899 -0.479543617
vn -0.149562887 -0.773249782 -0.616210774
vn -0.321838503 -0.661554033 -0.677322847
vn -0.463306145 -0.784604990 -0.411998089
vn -0.274785967 -0.775113640 -0.568938940
vn -0.280756595 -0.712695816 -0.642837777
vn -0.818099833 -0.443950753 -0.365541231
vn -0.845759198 -0.361253241 -0.392667130
vn -0.248582348 -0.874107533 -0.417304249
vn -0.856948890 -0.388586491 -0.338584019
vn -0.789786272 -0.507192490 -0.344954233
vn -0.199733414 -0.758409624 -0.620420346
vn -0.373121131 -0.667138048 -0.644753788
vn -0.807773596 -0.482897246 -0.338100676
vn -0.426843707 -0.821693057 -0.377657211
vn -0.389454581 -0.597449255 -0.700984677
vn -0.136115150 -0.825194706 -0.548202848
vn -0.567606828 -0.820944867 -0.062225510
vn -0.619659345 -0.687371608 -0.378870121
vn -0.821288533 -0.442962452 -0.359540557
vn -0.830387299 -0.452023138 -0.325779093
vn -0.239014435 -0.849004144 -0.471236738
vn -0.817182503 -0.401284156 -0.413743620
vn -0.828255834 -0.454419027 -0.327865249
vn -0.402410812 -0.676146603 -0.617163924
vn -0.596222569 -0.651910812 -0.468541290
vn -0.724189656 -0.675721255 -0.137659461
vn -0.404332872 -0.809000951 -0.426652540
vn -0.806916826 -0.445538898 -0.387789023
vn -0.409811532 -0.678104461 -0.610105605
vn -0.623390456 -0.696599968 -0.355151832
vn -0.788356042 -0.549269297 -0.277124504
vn -0.338914168 -0.668033732 -0.662471222
vn -0.835190715 -0.457292136 -0.305516566
vn -0.803679517 -0.454386566 -0.384229206
vn -0.098818948 -0.889501139 -0.446119424
vn -0.344709884 -0.720281325 -0.601971684
vn -0.804356567 -0.456724600 -0.380017306
vn -0.308789314 -0.696244868 -0.647990928
vn -0.820132761 -0.436379280 -0.370074827
vn -0.366170096 -0.646859030 -0.668949069
vn -0.285447681 -0.679763690 -0.675604135
vn -0.151246013 -0.837930851 -0.524401117
vn -0.283648714 -0.779058413 -0.559116622
vn -0.274273250 -0.836099612 -0.475091173
vn -0.882343202 -0.340352276 -0.325008926
vn -0.382413120 -0.792006232 -0.475905803
vn -0.918005420 -0.369486143 -0.144034853
vn -0.516550766 -0.638874716 -0.570100345
vn -0.866426804 -0.406018335 -0.290609195
vn -0.786280587 -0.505759162 -0.354923242
vn -0.361469459 -0.640205071 -0.677847548
vn -0.321031212 -0.655146616 -0.683901946
vn -0.825590845 -0.445427036 -0.346402242
vn -0.785524947 -0.491621407 -0.375844315
vn -0.502056392 -0.747518909 -0.434919373
vn -0.263510026 -0.796803533 -0.543752330
vn -0.816141480 -0.441890216 -0.372352147
vn -0.328015171 -0.741439708 -0.585382957
vn -0.405648937 -0.585856984 -0.701584303
vn -0.295371421 -0.789418453 -0.538121018
vn -0.628579108 -0.668254737 -0.397899373
vn -0.399273240 -0.761608085 -0.510425318
vn 0.043173500 -0.655724303 -0.753765008
vn -0.762447667 -0.565783299 -0.313947151
vn -0.164516118 -0.746199445 -0.645074287
vn -0.214050986 -0.896413449 -0.388104501
vn -0.406849898 -0.682550167 -0.607123077
vn -0.826884503 -0.444905207 -0.343978743
vn -0.616888059 -0.621970652 -0.482287913
vn -0.922111754 -0.332340971 -0.198139830
vn -0.683502402 -0.602222939 -0.412494846
vn -0.464924431 -0.745540943 -0.477508090
vn -0.795522696 -0.493281514 -0.351876382
vn -0.336554015 -0.764410636 -0.549916152
vn -0.951900458 -0.270816603 -0.143331382
vn -0.865558498 -0.499502530 -0.036134594
vn -0.314592285 -0.800915920 -0.509475597
vn -0.308972756 -0.771706430 -0.555882201
vn -0.885665627 -0.377861245 -0.269846766
vn -0.781627588 -0.504078923 -0.367372770
vn -0.325759830 -0.788653801 -0.521445793
vn -0.446849767 -0.711752121 -0.541972512
vn -0.755124918 -0.541354061 -0.369759570
vn -0.030998846 -0.878389855 -0.476938501
vn -0.855139295 -0.420158683 -0.303650239
vn -0.941953783 -0.300452004 -0.149838792
vn -0.944668466 -0.230745070 -0.233148453
vn -0.698582102 -0.598354907 -0.392370300
vn -0.639089842 -0.675801811 -0.367227568
vn -0.394188823 -0.783101938 -0.481005745
vn -0.349315338 -0.802452597 -0.483785722
vn -0.310334855 -0.816364839 -0.487073636
vn -0.497237547 -0.750143111 -0.435935931
vn -0.202992550 -0.917415168 -0.342262231
vn -0.474340987 -0.750386981 -0.460347702
vn -0.236494447 -0.886517762 -0.397689119
vn -0.915914454 -0.306862801 -0.258719799
vn -0.944116422 -0.206554512 -0.256864587
vn -0.823144722 -0.455172221 -0.339486401
vn -0.530070623 -0.719625460 -0.448513469
vn -0.341229005 -0.837666713 -0.426470685
vn -0.767382496 -0.524421269 -0.368926060
vn -0.413203854 -0.796738349 -0.440988184
vn -0.918155141 -0.292353249 -0.267433572
vn -0.291079073 -0.892047577 -0.345722566
vn -0.847289879 -0.424862991 -0.318733901
vn -0.632006530 -0.688901817 -0.354939477
vn -0.357757396 -0.813301831 -0.458857033
vn -0.801289758 -0.481115983 -0.355615151
vn -0.940305739 -0.226439797 -0.254067186
vn -0.127691628 -0.984812370 -0.117641168
vn -0.102048221 -0.975492451 -0.194937523
vn -0.734981125 -0.559647265 -0.382880769
vn -0.314891602 -0.854683265 -0.412746647
vn -0.876112773 -0.377653150 -0.299674002
vn -0.843797259 -0.436297010 -0.312491767
vn -0.296042531 -0.902849456 -0.311803912
vn -0.794175181 -0.516411171 -0.320320595
vn -0.892281027 -0.299292474 -0.338021573
vn -0.570293514 -0.619865578 -0.539010179
vn -0.497845191 -0.744405147 -0.444984431
vn -0.926089901 -0.287048211 -0.244868984
vn -0.464281903 -0.779489328 -0.420521941
vn -0.416035275 -0.811305779 -0.410728112
vn -0.826782990 -0.467308295 -0.313133909
vn -0.356630796 -0.836554378 -0.415922166
vn -0.931216772 -0.248984968 -0.266161248
vn -0.771888593 -0.509521628 -0.380231127
vn -0.742737715 -0.462469440 -0.484213490
vn -0.467502534 -0.811528629 -0.350517710
vn -0.148732477 -0.975300436 -0.163302509
vn -0.315258466 -0.868158539 -0.383292122
vn -0.301795478 -0.881831804 -0.362342599
vn -0.492484952 -0.752711553 -0.436902610
vn -0.859521426 -0.426332209 -0.281893181
vn -0.846349985 -0.440571220 -0.299313721
vn -0.718007879 -0.443857260 -0.536148691
vn -0.879701191 -0.390387173 -0.271521030
vn -0.933956622 -0.255445204 -0.249945547
vn -0.784058400 -0.449598046 -0.427918242
vn 0.000710428 -0.999924628 -0.012256951
vn -0.441056592 -0.826242328 -0.350417891
vn -0.400832050 -0.847195114 -0.348703465
vn -0.828867397 -0.481874489 -0.284210864
vn -0.914942357 -0.319453534 -0.246637228
vn -0.492317202 -0.793721868 -0.357252528
vn 0.026936011 -0.999574846 -0.011161453
vn -0.166939068 -0.934000897 -0.315869708
vn -0.591603729 -0.710446699 -0.381143695
vn -0.378275554 -0.826664963 -0.416572495
vn -0.911977809 -0.345409285 -0.221334366
vn -0.816949905 -0.451790250 -0.358438869
vn -0.270522518 -0.860607471 -0.431476939
vn 0.052158495 -0.977467397 -0.204540898
vn -0.927874340 -0.308712032 -0.209155663
vn -0.742426299 -0.508341920 -0.436338955
vn -0.482542828 -0.809686188 -0.334007029
vn -0.446563275 -0.812193923 -0.375396154
vn 0.119471393 -0.952451032 -0.280292022
vn -0.898534803 -0.381486475 -0.217032894
vn -0.942083183 -0.287431800 -0.172806937
vn -0.501531214 -0.797165288 -0.336145721
vn -0.909261852 -0.404072390 -0.099841811
vn -0.871120034 -0.409284463 -0.271359752
vn -0.952907119 -0.237753081 -0.188259119
vn -0.777573320 -0.381160343 -0.500096516
vn -0.478583414 -0.810772042 -0.337055799
vn -0.793736474 -0.420968189 -0.439053748
vn -0.862915197 -0.385470239 -0.326787480
vn -0.461885167 -0.771792699 -0.437033319
vn -0.960163434 -0.250688487 -0.123456314
vn -0.483412730 -0.771107985 -0.414372547
vn -0.459294773 -0.799500031 -0.387102069
vn -0.897955533 -0.335666172 -0.284612162
vn 0.119051227 -0.932620415 -0.340655201
vn -0.196756036 -0.908995191 -0.367443607
vn -0.350868310 -0.843379014 -0.406943813
vn -0.843997981 -0.381834149 -0.376656462
vn -0.608101095 -0.700806417 -0.372938902
vn -0.909757602 -0.341482584 -0.236073613
vn 0.144489064 -0.932137805 -0.332027142
vn -0.043873513 -0.953054078 -0.299604804
vn -0.703075862 -0.246027194 -0.667199334
vn -0.412751195 -0.802598899 -0.430663974
vn -0.523439728 -0.613833087 -0.590948214
vn -0.804164179 -0.231695868 -0.547391084
vn -0.463121428 -0.797270435 -0.387141314
vn -0.890188259 -0.345406856 -0.297084108
vn -0.969105358 -0.220699809 -0.110119933
vn -0.962512815 -0.183770384 -0.199493175
vn -0.936255532 -0.263324436 -0.232563585
vn -0.858735424 -0.289339926 -0.422913560
vn -0.535163458 -0.684872174 -0.494520149
vn -0.880652235 -0.361759530 -0.305911235
vn -0.487109677 -0.758776890 -0.432413915
vn -0.158531293 -0.953202843 -0.257433817
vn -0.272512874 -0.924173692 -0.267655973
vn -0.894323740 -0.310501617 -0.322139402
vn -0.351669361 -0.822431495 -0.447141025
vn -0.013901901 -0.967131214 -0.253897523
vn -0.460487172 -0.778645326 -0.426219451
vn -0.443161077 -0.774819844 -0.450846392
vn -0.963761596 -0.151525794 -0.219553000
vn -0.439073273 -0.781743921 -0.442821750
vn -0.183092705 -0.982218513 -0.041519310
vn -0.925993193 -0.189614097 -0.326470674
vn -0.691891784 -0.640217228 -0.333777861
vn -0.458133300 -0.761616477 -0.458316727
vn -0.660420091 -0.320720911 -0.678957584
vn -0.194826709 -0.979758665 -0.045994704
vn -0.758448863 -0.100401218 -0.643952574
vn -0.841701177 -0.180877786 -0.508745864
vn -0.380127895 -0.779409336 -0.498019950
vn -0.885763175 -0.309826019 -0.345588536
vn -0.789943775 -0.123663706 -0.600579819
vn -0.441082001 -0.838885215 -0.318933011
vn -0.925763733 -0.080305517 -0.369476026
vn -0.343701192 -0.884397737 -0.315769115
vn -0.238301905 -0.902121204 -0.359707570
vn -0.459115461 -0.887651836 -0.035877722
vn -0.877376963 -0.311287571 -0.365116026
vn -0.273270737 -0.961935001 0.002039145
vn -0.371314239 -0.875399084 -0.309519272
vn -0.882200028 -0.087512105 -0.462671310
vn -0.371389016 -0.912150812 -0.173352516
vn -0.647533202 -0.563261881 -0.513260953
vn -0.225065847 -0.966683365 -0.121937018
vn -0.769184895 -0.276394761 -0.576160163
vn -0.799926369 -0.079259610 -0.594840919
vn -0.832012282 -0.108353164 -0.544072748
vn -0.123936369 -0.980862113 0.150164214
vn -0.444529765 -0.860518887 -0.248798176
vn -0.126184917 -0.985418590 0.114138377
vn -0.256096748 -0.950594978 0.175452681
vn -0.502074158 -0.659383523 -0.559584587
vn -0.883274925 -0.292941157 -0.366074973
vn -0.895918834 -0.232030469 -0.378802461
vn -0.828116214 -0.117231813 -0.548160777
vn -0.267791632 -0.949009428 -0.166339253
vn -0.429600645 -0.808637768 -0.401930649
vn -0.806652537 -0.090460267 -0.584062176
vn -0.057760057 -0.998330491 0.000085639
vn -0.375304193 -0.778114213 -0.503671554
vn -0.637050789 -0.732456038 -0.240155042
vn -0.408951576 -0.787449656 -0.461174206
vn -0.862207208 -0.189579845 -0.469742708
vn -0.714599182 -0.081055614 -0.694822277
vn -0.714633493 0.008068622 -0.699452549
vn -0.309956813 -0.729491749 -0.609728269
vn -0.009735939 -0.992501316 0.121845598
vn -0.273813888 -0.932688447 -0.234772690
vn -0.428228158 -0.484729689 -0.762664915
vn -0.358011050 -0.837812264 -0.412187697
vn -0.235534474 -0.951343784 -0.198666849
vn -0.174050483 -0.979178803 -0.104476323
vn 0.051399953 -0.998637481 -0.009012563
f 97//97 77//77 101//101
f 110//110 97//97 101//101
f 77//77 95//95 101//101
f 285//285 335//335 276//276
f 493//493 464//464 481//481
f 263//263 259//259 236//236
f 499//499 512//512 504//504
f 494//494 508//508 511//511
f 76//76 95//95 77//77
f 256//256 244//244 255//255
f 254//254 256//256 264//264
f 256//256 254//254 239//239
f 336//336 364//364 360//360
f 351//351 385//385 367//367
f 440//440 434//434 418//418
f 464//464 459//459 481//481
f 459//459 464//464 441//441
f 434//434 459//459 441//441
f 459//459 434//434 440//440
f 441//441 455//455 435//435
f 464//464 455//455 441//441
f 210//210 219//219 193//193
f 219//219 210//210 236//236
f 149//149 138//138 156//156
f 512//512 510//510 513//513
f 499//499 510//510 512//512
f 510//510 514//514 513//513
f 514//514 510//510 498//498
f 272//272 279//279 250//250
f 238//238 272//272 250//250
f 238//238 221//221 225//225
f 221//221 238//238 250//250
f 221//221 196//196 225//225
f 404//404 422//422 403//403
f 378//378 404//404 403//403
f 512//512 502//502 504//504
f 508//508 502//502 512//512
f 160//160 134//134 151//151
f 266//266 304//304 278//278
f 304//304 266//266 281//281
f 234//234 228//228 208//208
f 196//196 185//185 172//172
f 84//84 102//102 89//89
f 64//64 76//76 77//77
f 64//64 52//52 62//62
f 210//210 207//207 236//236
f 168//168 207//207 193//193
f 207//207 210//210 193//193
f 237//237 207//207 214//214
f 325//325 355//355 343//343
f 330//330 325//325 314//314
f 330//330 307//307 328//328
f 307//307 330//330 314//314
f 330//330 355//355 325//325
f 271//271 256//256 255//255
f 256//256 271//271 264//264
f 243//243 260//260 275//275
f 260//260 254//254 264//264
f 254//254 260//260 239//239
f 294//294 260//260 264//264
f 260//260 294//294 275//275
f 385//385 373//373 391//391
f 373//373 351//351 360//360
f 351//351 373//373 385//385
f 443//443 417//417 409//409
f 417//417 416//416 401//401
f 385//385 402//402 401//401
f 402//402 417//417 401//401
f 417//417 402//402 409//409
f 409//409 402//402 391//391
f 402//402 385//385 391//391
f 340//340 336//336 360//360
f 351//351 340//340 360//360
f 469//469 455//455 464//464
f 280//280 263//263 291//291
f 263//263 280//280 259//259
f 262//262 286//286 289//289
f 311//311 297//297 291//291
f 297//297 280//280 291//291
f 280//280 297//297 303//303
f 310//310 326//326 341//341
f 297//297 310//310 303//303
f 310//310 311//311 326//326
f 310//310 297//297 311//311
f 199//199 205//205 241//241
f 205//205 212//212 241//241
f 247//247 227//227 259//259
f 227//227 247//247 241//241
f 212//212 227//227 241//241
f 259//259 227//227 236//236
f 227//227 219//219 236//236
f 263//263 274//274 291//291
f 279//279 293//293 281//281
f 272//272 265//265 296//296
f 265//265 282//282 296//296
f 282//282 265//265 258//258
f 306//306 285//285 278//278
f 304//304 306//306 278//278
f 285//285 306//306 335//335
f 420//420 422//422 404//404
f 345//345 363//363 335//335
f 345//345 357//357 363//363
f 306//306 345//345 335//335
f 505//505 495//495 480//480
f 485//485 494//494 511//511
f 491//491 485//485 511//511
f 472//472 508//508 494//494
f 472//472 502//502 508//508
f 232//232 216//216 201//201
f 216//216 232//232 229//229
f 242//242 229//229 258//258
f 265//265 242//242 258//258
f 242//242 272//272 238//238
f 242//242 265//265 272//272
f 190//190 196//196 172//172
f 196//196 190//190 200//200
f 190//190 171//171 201//201
f 216//216 190//190 201//201
f 190//190 216//216 200//200
f 155//155 190//190 172//172
f 190//190 155//155 171//171
f 158//158 155//155 172//172
f 155//155 158//158 141//141
f 120//120 110//110 101//101
f 141//141 114//114 119//119
f 114//114 120//120 101//101
f 120//120 114//114 132//132
f 245//245 266//266 278//278
f 245//245 223//223 228//228
f 228//228 213//213 208//208
f 223//223 213//213 228//228
f 218//218 234//234 208//208
f 266//266 268//268 281//281
f 268//268 279//279 281//281
f 189//189 204//204 201//201
f 204//204 189//189 176//176
f 171//171 189//189 201//201
f 176//176 189//189 153//153
f 189//189 171//171 153//153
f 282//282 309//309 296//296
f 309//309 282//282 292//292
f 317//317 310//310 341//341
f 310//310 317//317 303//303
f 71//71 84//84 89//89
f 2//2 6//6 1//1
f 9//9 6//6 17//17
f 5//5 2//2 3//3
f 99//99 102//102 84//84
f 207//207 248//248 236//236
f 248//248 207//207 237//237
f 248//248 263//263 236//236
f 248//248 274//274 263//263
f 274//274 248//248 237//237
f 231//231 211//211 222//222
f 211//211 231//231 239//239
f 244//244 231//231 222//222
f 256//256 231//231 244//244
f 231//231 256//256 239//239
f 186//186 206//206 192//192
f 211//211 206//206 186//186
f 206//206 211//211 239//239
f 87//87 90//90 80//80
f 90//90 87//87 98//98
f 87//87 103//103 98//98
f 70//70 81//81 68//68
f 371//371 355//355 370//370
f 371//371 390//390 364//364
f 348//348 330//330 328//328
f 330//330 348//348 355//355
f 355//355 348//348 370//370
f 283//283 271//271 255//255
f 307//307 283//283 328//328
f 389//389 382//382 362//362
f 416//416 389//389 401//401
f 349//349 350//350 362//362
f 362//362 350//350 367//367
f 350//350 351//351 367//367
f 351//351 350//350 337//337
f 382//382 354//354 362//362
f 354//354 349//349 362//362
f 326//326 354//354 341//341
f 349//349 354//354 326//326
f 302//302 301//301 315//315
f 294//294 301//301 275//275
f 243//243 270//270 249//249
f 270//270 243//243 275//275
f 301//301 270//270 275//275
f 270//270 301//301 302//302
f 299//299 295//295 337//337
f 311//311 299//299 337//337
f 299//299 311//311 291//291
f 274//274 299//299 291//291
f 299//299 274//274 295//295
f 333//333 349//349 326//326
f 311//311 333//333 326//326
f 333//333 311//311 337//337
f 350//350 333//333 337//337
f 333//333 350//350 349//349
f 186//186 177//177 170//170
f 177//177 186//186 192//192
f 170//170 177//177 156//156
f 207//207 203//203 214//214
f 203//203 168//168 178//178
f 203//203 207//207 168//168
f 233//233 243//243 249//249
f 300//300 322//322 294//294
f 336//336 322//322 343//343
f 443//443 429//429 417//417
f 416//416 429//429 431//431
f 429//429 416//416 417//417
f 324//324 340//340 315//315
f 340//340 324//324 336//336
f 301//301 324//324 315//315
f 324//324 322//322 336//336
f 324//324 301//301 294//294
f 322//322 324//324 294//294
f 295//295 319//319 337//337
f 302//302 319//319 295//295
f 319//319 351//351 337//337
f 319//319 340//340 351//351
f 319//319 302//302 315//315
f 340//340 319//319 315//315
f 400//400 371//371 370//370
f 371//371 400//400 390//390
f 412//412 409//409 391//391
f 490//490 464//464 493//493
f 490//490 469//469 464//464
f 509//509 490//490 493//493
f 305//305 286//286 303//303
f 317//317 305//305 303//303
f 273//273 286//286 262//262
f 138//138 131//131 118//118
f 143//143 131//131 138//138
f 148//148 157//157 168//168
f 148//148 139//139 146//146
f 139//139 148//148 168//168
f 168//168 165//165 178//178
f 157//157 165//165 168//168
f 165//165 174//174 178//178
f 162//162 157//157 143//143
f 162//162 138//138 149//149
f 162//162 143//143 138//138
f 162//162 165//165 157//157
f 165//165 162//162 174//174
f 298//298 304//304 281//281
f 293//293 298//298 281//281
f 287//287 293//293 279//279
f 287//287 272//272 296//296
f 272//272 287//287 279//279
f 312//312 298//298 293//293
f 345//345 346//346 357//357
f 378//378 386//386 404//404
f 334//334 345//345 306//306
f 334//334 304//304 329//329
f 334//334 306//306 304//304
f 346//346 334//334 329//329
f 334//334 346//346 345//345
f 471//471 474//474 506//506
f 389//389 405//405 382//382
f 463//463 472//472 494//494
f 432//432 463//463 452//452
f 502//502 467//467 504//504
f 472//472 467//467 502//502
f 467//467 499//499 504//504
f 204//204 220//220 201//201
f 220//220 232//232 201//201
f 220//220 204//204 199//199
f 229//229 251//251 258//258
f 232//232 251//251 229//229
f 242//242 224//224 229//229
f 224//224 216//216 229//229
f 224//224 238//238 225//225
f 224//224 242//242 238//238
f 196//196 224//224 225//225
f 224//224 196//196 200//200
f 216//216 224//224 200//200
f 171//171 154//154 153//153
f 155//155 154//154 171//171
f 158//158 137//137 141//141
f 137//137 114//114 141//141
f 114//114 137//137 132//132
f 161//161 158//158 172//172
f 137//137 161//161 132//132
f 161//161 137//137 158//158
f 100//100 102//102 119//119
f 114//114 100//100 119//119
f 102//102 100//100 89//89
f 100//100 95//95 89//89
f 245//245 240//240 266//266
f 240//240 268//268 266//266
f 268//268 240//240 234//234
f 234//234 240//240 228//228
f 240//240 245//245 228//228
f 245//245 252//252 223//223
f 252//252 245//245 278//278
f 252//252 285//285 276//276
f 285//285 252//252 278//278
f 197//197 213//213 223//223
f 197//197 181//181 208//208
f 213//213 197//197 208//208
f 218//218 235//235 234//234
f 235//235 268//268 234//234
f 235//235 221//221 250//250
f 235//235 218//218 221//221
f 279//279 235//235 250//250
f 268//268 235//235 279//279
f 194//194 181//181 179//179
f 218//218 194//194 221//221
f 181//181 194//194 208//208
f 194//194 218//218 208//208
f 185//185 194//194 179//179
f 221//221 194//194 196//196
f 194//194 185//185 196//196
f 323//323 309//309 292//292
f 423//423 433//433 419//419
f 384//384 375//375 358//358
f 375//375 384//384 395//395
f 463//463 466//466 452//452
f 485//485 466//466 494//494
f 466//466 463//463 494//494
f 444//444 468//468 442//442
f 136//136 152//152 145//145
f 136//136 125//125 124//124
f 125//125 136//136 122//122
f 108//108 122//122 107//107
f 78//78 71//71 89//89
f 78//78 64//64 62//62
f 64//64 78//78 76//76
f 95//95 78//78 89//89
f 76//76 78//78 95//95
f 52//52 63//63 62//62
f 63//63 78//78 62//62
f 78//78 63//63 71//71
f 63//63 52//52 41//41
f 6//6 4//4 1//1
f 9//9 4//4 6//6
f 4//4 9//9 12//12
f 21//21 13//13 10//10
f 56//56 39//39 30//30
f 67//67 50//50 68//68
f 81//81 67//67 68//68
f 67//67 81//81 83//83
f 108//108 82//82 90//90
f 102//102 113//113 119//119
f 99//99 113//113 102//102
f 113//113 140//140 119//119
f 24//24 9//9 17//17
f 28//28 24//24 17//17
f 90//90 66//66 80//80
f 82//82 66//66 90//90
f 139//139 117//117 146//146
f 117//117 129//129 146//146
f 127//127 150//150 140//140
f 140//140 150//150 153//153
f 152//152 150//150 145//145
f 150//150 176//176 153//153
f 150//150 164//164 176//176
f 164//164 150//150 152//152
f 217//217 206//206 239//239
f 206//206 217//217 192//192
f 103//103 115//115 98//98
f 86//86 96//96 106//106
f 88//88 86//86 106//106
f 86//86 88//88 81//81
f 81//81 88//88 83//83
f 72//72 70//70 56//56
f 72//72 56//56 79//79
f 86//86 72//72 79//79
f 70//70 47//47 56//56
f 47//47 70//70 68//68
f 355//355 353//353 343//343
f 371//371 353//353 355//355
f 353//353 371//371 364//364
f 353//353 336//336 343//343
f 353//353 364//364 336//336
f 283//283 288//288 271//271
f 288//288 307//307 314//314
f 288//288 283//283 307//307
f 389//389 383//383 401//401
f 383//383 389//389 362//362
f 383//383 362//362 367//367
f 385//385 383//383 367//367
f 383//383 385//385 401//401
f 438//438 432//432 452//452
f 466//466 438//438 452//452
f 270//270 261//261 249//249
f 274//274 261//261 295//295
f 261//261 302//302 295//295
f 261//261 270//270 302//302
f 261//261 237//237 249//249
f 261//261 274//274 237//237
f 191//191 177//177 192//192
f 215//215 203//203 202//202
f 233//233 215//215 202//202
f 318//318 322//322 300//300
f 325//325 318//318 314//314
f 318//318 325//325 343//343
f 322//322 318//318 343//343
f 318//318 288//288 314//314
f 406//406 400//400 370//370
f 400//400 413//413 390//390
f 413//413 434//434 441//441
f 434//434 413//413 418//418
f 413//413 406//406 418//418
f 406//406 413//413 400//400
f 390//390 376//376 364//364
f 364//364 376//376 360//360
f 492//492 490//490 509//509
f 490//490 492//492 469//469
f 482//482 477//477 498//498
f 510//510 482//482 498//498
f 482//482 510//510 499//499
f 455//455 456//456 435//435
f 469//469 456//456 455//455
f 320//320 323//323 289//289
f 286//286 320//320 289//289
f 305//305 320//320 286//286
f 257//257 273//273 262//262
f 247//247 257//257 241//241
f 157//157 144//144 143//143
f 148//148 144//144 157//157
f 144//144 131//131 143//143
f 131//131 144//144 129//129
f 129//129 144//144 146//146
f 144//144 148//148 146//146
f 304//304 308//308 329//329
f 298//298 308//308 304//304
f 312//312 308//308 298//298
f 424//424 420//420 404//404
f 495//495 457//457 480//480
f 398//398 386//386 381//381
f 410//410 398//398 381//381
f 398//398 410//410 414//414
f 386//386 398//398 404//404
f 398//398 424//424 404//404
f 424//424 398//398 414//414
f 453//453 428//428 437//437
f 423//423 428//428 433//433
f 428//428 423//423 395//395
f 500//500 505//505 480//480
f 500//500 507//507 505//505
f 488//488 473//473 471//471
f 488//488 471//471 506//506
f 507//507 488//488 506//506
f 500//500 488//488 507//507
f 473//473 488//488 480//480
f 488//488 500//500 480//480
f 428//428 447//447 433//433
f 447//447 428//428 453//453
f 447//447 473//473 480//480
f 447//447 453//453 471//471
f 473//473 447//447 471//471
f 457//457 447//447 480//480
f 447//447 457//457 433//433
f 497//497 503//503 506//506
f 474//474 497//497 506//506
f 453//453 451//451 471//471
f 451//451 474//474 471//471
f 451//451 453//453 437//437
f 427//427 451//451 437//437
f 421//421 446//446 432//432
f 463//463 458//458 472//472
f 446//446 458//458 432//432
f 458//458 463//463 432//432
f 461//461 467//467 472//472
f 461//461 458//458 446//446
f 458//458 461//461 472//472
f 454//454 461//461 446//446
f 461//461 454//454 467//467
f 257//257 246//246 241//241
f 246//246 257//257 262//262
f 246//246 199//199 241//241
f 246//246 220//220 199//199
f 269//269 282//282 258//258
f 251//251 269//269 258//258
f 147//147 155//155 141//141
f 147//147 154//154 155//155
f 147//147 141//141 119//119
f 140//140 147//147 119//119
f 147//147 140//140 153//153
f 154//154 147//147 153//153
f 185//185 175//175 172//172
f 175//175 161//161 172//172
f 175//175 185//185 179//179
f 166//166 181//181 151//151
f 181//181 166//166 179//179
f 166//166 175//175 179//179
f 175//175 166//166 161//161
f 100//100 104//104 95//95
f 104//104 100//100 114//114
f 95//95 104//104 101//101
f 104//104 114//114 101//101
f 173//173 197//197 160//160
f 197//197 173//173 181//181
f 173//173 160//160 151//151
f 181//181 173//173 151//151
f 309//309 313//313 296//296
f 327//327 332//332 358//358
f 313//313 327//327 296//296
f 327//327 313//313 332//332
f 342//342 320//320 347//347
f 320//320 342//342 323//323
f 323//323 342//342 309//309
f 384//384 411//411 395//395
f 411//411 427//427 437//437
f 411//411 384//384 377//377
f 428//428 411//411 437//437
f 411//411 428//428 395//395
f 423//423 394//394 395//395
f 394//394 375//375 395//395
f 394//394 423//423 419//419
f 468//468 470//470 442//442
f 503//503 484//484 491//491
f 478//478 468//468 444//444
f 321//321 305//305 317//317
f 321//321 317//317 341//341
f 352//352 321//321 341//341
f 352//352 366//366 347//347
f 354//354 359//359 341//341
f 359//359 352//352 341//341
f 359//359 366//366 352//352
f 366//366 359//359 379//379
f 164//164 188//188 176//176
f 204//204 188//188 199//199
f 188//188 204//204 176//176
f 115//115 135//135 124//124
f 135//135 115//115 130//130
f 135//135 136//136 124//124
f 136//136 135//135 159//159
f 139//139 135//135 130//130
f 169//169 164//164 152//152
f 136//136 169//169 152//152
f 169//169 136//136 159//159
f 136//136 133//133 122//122
f 122//122 133//133 107//107
f 133//133 127//127 107//107
f 133//133 136//136 145//145
f 150//150 133//133 145//145
f 133//133 150//150 127//127
f 109//109 125//125 122//122
f 108//108 109//109 122//122
f 125//125 109//109 124//124
f 109//109 115//115 124//124
f 115//115 109//109 98//98
f 109//109 90//90 98//98
f 109//109 108//108 90//90
f 75//75 99//99 84//84
f 71//71 55//55 84//84
f 55//55 75//75 84//84
f 75//75 55//55 54//54
f 63//63 55//55 71//71
f 36//36 32//32 46//46
f 26//26 13//13 21//21
f 26//26 21//21 30//30
f 10//10 11//11 3//3
f 13//13 11//11 10//10
f 11//11 5//5 3//3
f 11//11 13//13 5//5
f 66//66 73//73 80//80
f 6//6 16//16 17//17
f 16//16 28//28 17//17
f 2//2 8//8 6//6
f 8//8 16//16 6//6
f 16//16 8//8 14//14
f 13//13 18//18 5//5
f 99//99 93//93 107//107
f 93//93 108//108 107//107
f 93//93 82//82 108//108
f 75//75 93//93 99//99
f 93//93 75//75 82//82
f 123//123 113//113 99//99
f 123//123 99//99 107//107
f 127//127 123//123 107//107
f 123//123 127//127 140//140
f 113//113 123//123 140//140
f 37//37 24//24 28//28
f 32//32 37//37 46//46
f 24//24 37//37 32//32
f 69//69 66//66 82//82
f 126//126 139//139 130//130
f 126//126 117//117 139//139
f 117//117 112//112 129//129
f 111//111 112//112 105//105
f 112//112 117//117 106//106
f 96//96 112//112 106//106
f 112//112 96//96 105//105
f 233//233 230//230 243//243
f 230//230 260//260 243//243
f 230//230 233//233 202//202
f 260//260 230//230 239//239
f 230//230 217//217 239//239
f 115//115 116//116 130//130
f 116//116 115//115 103//103
f 85//85 103//103 87//87
f 85//85 94//94 103//103
f 94//94 85//85 83//83
f 85//85 87//87 80//80
f 73//73 85//85 80//80
f 85//85 73//73 83//83
f 91//91 86//86 79//79
f 91//91 96//96 86//86
f 96//96 91//91 105//105
f 91//91 111//111 105//105
f 111//111 91//91 118//118
f 94//94 92//92 106//106
f 92//92 88//88 106//106
f 92//92 94//94 83//83
f 88//88 92//92 83//83
f 70//70 74//74 81//81
f 72//72 74//74 70//70
f 74//74 86//86 81//81
f 74//74 72//72 86//86
f 42//42 39//39 56//56
f 47//47 42//42 56//56
f 50//50 48//48 68//68
f 48//48 47//47 68//68
f 271//271 284//284 264//264
f 288//288 284//284 271//271
f 284//284 294//294 264//264
f 284//284 300//300 294//294
f 284//284 318//318 300//300
f 318//318 284//284 288//288
f 393//393 421//421 432//432
f 421//421 393//393 405//405
f 359//359 393//393 379//379
f 425//425 444//444 442//442
f 427//427 425//425 442//442
f 399//399 425//425 427//427
f 415//415 425//425 399//399
f 415//415 438//438 444//444
f 425//425 415//415 444//444
f 366//366 372//372 347//347
f 372//372 366//366 379//379
f 372//372 342//342 347//347
f 191//191 180//180 177//177
f 180//180 191//191 202//202
f 162//162 180//180 174//174
f 226//226 233//233 249//249
f 226//226 215//215 233//233
f 237//237 226//226 249//249
f 226//226 237//237 214//214
f 203//203 226//226 214//214
f 215//215 226//226 203//203
f 413//413 407//407 390//390
f 407//407 376//376 390//390
f 412//412 407//407 435//435
f 407//407 441//441 435//435
f 407//407 413//413 441//441
f 392//392 373//373 360//360
f 376//376 392//392 360//360
f 373//373 392//392 391//391
f 392//392 412//412 391//391
f 392//392 407//407 412//412
f 407//407 392//392 376//376
f 501//501 492//492 509//509
f 501//501 514//514 498//498
f 514//514 501//501 515//515
f 501//501 509//509 515//515
f 492//492 486//486 469//469
f 486//486 456//456 469//469
f 456//456 486//486 477//477
f 501//501 486//486 492//492
f 477//477 486//486 498//498
f 486//486 501//501 498//498
f 477//477 460//460 443//443
f 482//482 460//460 477//477
f 454//454 460//460 467//467
f 467//467 460//460 499//499
f 460//460 482//482 499//499
f 460//460 429//429 443//443
f 429//429 460//460 431//431
f 460//460 454//454 431//431
f 436//436 477//477 443//443
f 436//436 456//456 477//477
f 456//456 436//436 435//435
f 436//436 443//443 409//409
f 436//436 412//412 435//435
f 412//412 436//436 409//409
f 267//267 257//257 247//247
f 257//257 267//267 273//273
f 267//267 247//247 259//259
f 280//280 267//267 259//259
f 267//267 280//280 303//303
f 286//286 267//267 303//303
f 273//273 267//267 286//286
f 424//424 430//430 420//420
f 422//422 430//430 448//448
f 420//420 430//430 422//422
f 462//462 465//465 476//476
f 465//465 483//483 476//476
f 465//465 457//457 495//495
f 465//465 495//495 496//496
f 483//483 465//465 496//496
f 386//386 369//369 381//381
f 369//369 356//356 381//381
f 369//369 386//386 378//378
f 346//346 369//369 357//357
f 356//356 369//369 346//346
f 369//369 378//378 363//363
f 357//357 369//369 363//363
f 445//445 427//427 442//442
f 445//445 451//451 427//427
f 470//470 445//445 442//442
f 451//451 445//445 474//474
f 445//445 470//470 474//474
f 421//421 426//426 446//446
f 454//454 426//426 431//431
f 426//426 454//454 446//446
f 426//426 421//421 405//405
f 426//426 416//416 431//431
f 426//426 389//389 416//416
f 426//426 405//405 389//389
f 282//282 290//290 292//292
f 269//269 290//290 282//282
f 323//323 290//290 289//289
f 290//290 323//323 292//292
f 253//253 269//269 251//251
f 253//253 246//246 262//262
f 253//253 251//251 232//232
f 220//220 253//253 232//232
f 246//246 253//253 220//220
f 142//142 166//166 151//151
f 166//166 142//142 161//161
f 134//134 142//142 151//151
f 142//142 120//120 132//132
f 161//161 142//142 132//132
f 142//142 134//134 110//110
f 120//120 142//142 110//110
f 332//332 339//339 358//358
f 342//342 339//339 309//309
f 339//339 313//313 309//309
f 313//313 339//339 332//332
f 387//387 399//399 427//427
f 411//411 387//387 427//427
f 387//387 411//411 377//377
f 372//372 387//387 342//342
f 397//397 410//410 381//381
f 410//410 397//397 419//419
f 397//397 394//394 419//419
f 489//489 497//497 474//474
f 470//470 489//489 474//474
f 497//497 489//489 503//503
f 479//479 484//484 468//468
f 478//478 479//479 468//468
f 484//484 479//479 491//491
f 479//479 478//478 491//491
f 475//475 478//478 444//444
f 438//438 475//475 444//444
f 475//475 438//438 466//466
f 475//475 466//466 485//485
f 475//475 485//485 491//491
f 478//478 475//475 491//491
f 331//331 352//352 347//347
f 331//331 321//321 352//352
f 320//320 331//331 347//347
f 331//331 320//320 305//305
f 321//321 331//331 305//305
f 167//167 135//135 139//139
f 135//135 167//167 159//159
f 167//167 139//139 168//168
f 167//167 168//168 193//193
f 187//187 188//188 164//164
f 169//169 187//187 164//164
f 182//182 187//187 169//169
f 187//187 205//205 199//199
f 188//188 187//187 199//199
f 58//58 75//75 54//54
f 58//58 36//36 46//46
f 36//36 58//58 54//54
f 40//40 63//63 41//41
f 40//40 55//55 63//63
f 40//40 41//41 29//29
f 55//55 40//40 54//54
f 40//40 36//36 54//54
f 19//19 25//25 29//29
f 25//25 40//40 29//29
f 40//40 25//25 36//36
f 25//25 19//19 12//12
f 45//45 48//48 50//50
f 16//16 31//31 28//28
f 23//23 26//26 27//27
f 26//26 23//23 13//13
f 23//23 27//27 22//22
f 18//18 23//23 22//22
f 23//23 18//18 13//13
f 5//5 7//7 2//2
f 7//7 8//8 2//2
f 8//8 7//7 14//14
f 31//31 33//33 28//28
f 33//33 31//31 44//44
f 69//69 43//43 66//66
f 43//43 37//37 28//28
f 33//33 43//43 28//28
f 75//75 65//65 82//82
f 65//65 69//69 82//82
f 128//128 112//112 111//111
f 112//112 128//128 129//129
f 128//128 111//111 118//118
f 131//131 128//128 118//118
f 128//128 131//131 129//129
f 209//209 230//230 202//202
f 230//230 209//209 217//217
f 191//191 209//209 202//202
f 217//217 209//209 192//192
f 209//209 191//191 192//192
f 121//121 126//126 130//130
f 116//116 121//121 130//130
f 117//117 121//121 106//106
f 126//126 121//121 117//117
f 121//121 94//94 106//106
f 94//94 121//121 103//103
f 121//121 116//116 103//103
f 38//38 42//42 47//47
f 48//48 38//38 47//47
f 42//42 38//38 39//39
f 39//39 38//38 30//30
f 38//38 26//26 30//30
f 438//438 408//408 432//432
f 408//408 393//393 432//432
f 415//415 408//408 438//438
f 393//393 408//408 379//379
f 405//405 380//380 382//382
f 393//393 380//380 405//405
f 380//380 393//393 359//359
f 380//380 354//354 382//382
f 380//380 359//359 354//354
f 388//388 415//415 399//399
f 388//388 372//372 379//379
f 387//387 388//388 399//399
f 388//388 387//387 372//372
f 203//203 184//184 202//202
f 184//184 180//180 202//202
f 184//184 203//203 178//178
f 174//174 184//184 178//178
f 180//180 184//184 174//174
f 180//180 163//163 177//177
f 163//163 149//149 156//156
f 177//177 163//163 156//156
f 163//163 162//162 149//149
f 163//163 180//180 162//162
f 410//410 439//439 414//414
f 439//439 410//410 419//419
f 433//433 439//439 419//419
f 457//457 439//439 433//433
f 449//449 430//430 424//424
f 449//449 465//465 462//462
f 449//449 462//462 448//448
f 430//430 449//449 448//448
f 316//316 344//344 312//312
f 344//344 316//316 327//327
f 287//287 316//316 293//293
f 316//316 312//312 293//293
f 316//316 287//287 296//296
f 327//327 316//316 296//296
f 356//356 374//374 381//381
f 344//344 374//374 356//356
f 374//374 397//397 381//381
f 365//365 327//327 358//358
f 365//365 344//344 327//327
f 375//375 365//365 358//358
f 365//365 374//374 344//344
f 374//374 365//365 397//397
f 394//394 365//365 375//375
f 397//397 365//365 394//394
f 338//338 308//308 312//312
f 344//344 338//338 312//312
f 308//308 338//338 329//329
f 338//338 346//346 329//329
f 338//338 356//356 346//346
f 338//338 344//344 356//356
f 290//290 277//277 289//289
f 277//277 290//290 269//269
f 253//253 277//277 269//269
f 277//277 262//262 289//289
f 277//277 253//253 262//262
f 339//339 368//368 358//358
f 384//384 368//368 377//377
f 368//368 384//384 358//358
f 361//361 387//387 377//377
f 387//387 361//361 342//342
f 368//368 361//361 377//377
f 361//361 339//339 342//342
f 361//361 368//368 339//339
f 487//487 484//484 503//503
f 489//489 487//487 503//503
f 487//487 489//489 470//470
f 487//487 470//470 468//468
f 484//484 487//487 468//468
f 219//219 198//198 193//193
f 227//227 198//198 219//219
f 198//198 227//227 212//212
f 167//167 183//183 159//159
f 183//183 169//169 159//159
f 183//183 182//182 169//169
f 183//183 167//167 193//193
f 198//198 183//183 193//193
f 187//187 195//195 205//205
f 195//195 187//187 182//182
f 205//205 195//195 212//212
f 195//195 198//198 212//212
f 183//183 195//195 182//182
f 195//195 183//183 198//198
f 20//20 25//25 12//12
f 20//20 24//24 32//32
f 36//36 20//20 32//32
f 25//25 20//20 36//36
f 9//9 20//20 12//12
f 24//24 20//20 9//9
f 45//45 61//61 44//44
f 61//61 67//67 83//83
f 73//73 61//61 83//83
f 67//67 61//61 50//50
f 61//61 45//45 50//50
f 7//7 15//15 14//14
f 18//18 15//15 5//5
f 15//15 7//7 5//5
f 15//15 16//16 14//14
f 15//15 31//31 16//16
f 15//15 18//18 22//22
f 31//31 15//15 22//22
f 43//43 53//53 66//66
f 53//53 73//73 66//66
f 61//61 53//53 44//44
f 53//53 61//61 73//73
f 58//58 60//60 75//75
f 60//60 65//65 75//75
f 51//51 43//43 69//69
f 37//37 51//51 46//46
f 43//43 51//51 37//37
f 45//45 35//35 48//48
f 27//27 35//35 22//22
f 35//35 31//31 22//22
f 35//35 45//45 44//44
f 31//31 35//35 44//44
f 396//396 408//408 415//415
f 388//388 396//396 415//415
f 408//408 396//396 379//379
f 396//396 388//388 379//379
f 450//450 449//449 424//424
f 450//450 424//424 414//414
f 439//439 450//450 414//414
f 449//449 450//450 465//465
f 465//465 450//450 457//457
f 450//450 439//439 457//457
f 53//53 49//49 44//44
f 49//49 53//53 43//43
f 49//49 33//33 44//44
f 49//49 43//43 33//33
f 59//59 58//58 46//46
f 59//59 60//60 58//58
f 60//60 57//57 65//65
f 65//65 57//57 69//69
f 57//57 51//51 69//69
f 59//59 57//57 60//60
f 51//51 57//57 46//46
f 57//57 59//59 46//46
f 34//34 38//38 48//48
f 35//35 34//34 48//48
f 34//34 35//35 27//27
f 26//26 34//34 27//27
f 38//38 34//34 26//26
