v -3.419791883 0.128407894 -8.372467254 0.329412 0.419608 0.266667
v -3.410102938 0.144129634 -8.387662595 0.305882 0.337255 0.207843
v -3.436001436 0.114135903 -8.357836890 0.258824 0.372549 0.196078
v -3.408699855 0.158374394 -8.393738995 0.419608 0.427451 0.321569
v -3.421853284 0.142659310 -8.381116724 0.231373 0.329412 0.145098
v -3.459671036 0.100358237 -8.351152040 0.152941 0.250980 0.098039
v -3.438841494 0.128446557 -8.364457407 0.188235 0.305882 0.094118
v -3.398806924 0.197115239 -8.398940954 0.360784 0.392157 0.270588
v -3.458467789 0.119988736 -8.356365743 0.176471 0.286275 0.086275
v -3.427671384 0.163110220 -8.382225662 0.211765 0.317647 0.129412
v -3.435992669 0.152055498 -8.375826047 0.203922 0.321569 0.121569
v -3.418806927 0.177123335 -8.389461701 0.227451 0.325490 0.137255
v -3.472358358 0.108701040 -8.350264529 0.203922 0.329412 0.141176
v -3.480400748 0.098131967 -8.342309648 0.235294 0.337255 0.160784
v -3.404051351 0.208386188 -8.396440941 0.250980 0.349020 0.152941
v -3.448127132 0.152941170 -8.371399613 0.196078 0.309804 0.105882
v -3.417944646 0.196228560 -8.390349394 0.192157 0.301961 0.098039
v -3.428577105 0.183063353 -8.384081830 0.196078 0.317647 0.113725
v -3.498158137 0.087457420 -8.322723395 0.313725 0.411765 0.262745
v -3.469146137 0.131982643 -8.356329306 0.196078 0.313725 0.105882
v -3.478178793 0.123070888 -8.350509930 0.227451 0.356863 0.156863
v -3.398779571 0.230139064 -8.399720630 0.380392 0.439216 0.254902
v -3.411095405 0.220483668 -8.394148512 0.227451 0.341176 0.113725
v -3.492301008 0.115672919 -8.343201531 0.235294 0.356863 0.172549
v -3.509180059 0.094278254 -8.322489273 0.258824 0.368627 0.184314
v -3.472631745 0.150215077 -8.358972570 0.172549 0.282353 0.082353
v -3.423705702 0.216413264 -8.389309700 0.231373 0.352941 0.121569
v -3.408444957 0.237016267 -8.395736941 0.254902 0.360784 0.137255
v -3.503970544 0.111952543 -8.334879939 0.215686 0.325490 0.133333
v -3.460674210 0.171797253 -8.368318544 0.176471 0.294118 0.078431
v -3.485686313 0.138038363 -8.350370264 0.239216 0.356863 0.149020
v -3.398646536 0.258020659 -8.401024754 0.341176 0.266667 0.180392
v -3.445228454 0.202641356 -8.379997462 0.231373 0.341176 0.105882
v -3.409176525 0.251002131 -8.396160906 0.294118 0.372549 0.172549
v -3.459743840 0.184866809 -8.370721027 0.192157 0.309804 0.094118
v -3.524824739 0.094575293 -8.309717775 0.270588 0.317647 0.203922
v -3.484769353 0.151966535 -8.354557158 0.192157 0.298039 0.090196
v -3.519903186 0.105677809 -8.320215173 0.270588 0.388235 0.207843
v -3.423025436 0.243217012 -8.389921650 0.223529 0.325490 0.101961
v -3.431571079 0.232884794 -8.385992989 0.235294 0.349020 0.121569
v -3.518505621 0.124262842 -8.333259753 0.219608 0.333333 0.105882
v -3.508429939 0.139670799 -8.342207566 0.231373 0.349020 0.137255
v -3.501187668 0.150284723 -8.348201233 0.239216 0.352941 0.145098
v -3.446956956 0.224664292 -8.377589120 0.215686 0.333333 0.113725
v -3.528957302 0.116426290 -8.322928957 0.215686 0.329412 0.125490
v -3.488715346 0.173070984 -8.358475332 0.188235 0.298039 0.082353
v -3.405683125 0.283151769 -8.396097694 0.227451 0.168627 0.105882
v -3.431570917 0.252861900 -8.386860308 0.235294 0.345098 0.113725
v -3.441677273 0.241211303 -8.380843057 0.239216 0.352941 0.109804
v -3.425162633 0.263802605 -8.388618819 0.227451 0.345098 0.105882
v -3.468078418 0.210284591 -8.369575771 0.231373 0.345098 0.125490
v -3.543380391 0.108266810 -8.309008752 0.211765 0.325490 0.094118
v -3.460473711 0.221436762 -8.372876144 0.223529 0.337255 0.109804
v -3.529786151 0.130350461 -8.330615274 0.227451 0.345098 0.133333
v -3.489870145 0.191124988 -8.359406414 0.211765 0.329412 0.109804
v -3.527461769 0.142327026 -8.336745214 0.231373 0.349020 0.125490
v -3.501217830 0.178928100 -8.354379181 0.188235 0.298039 0.082353
v -3.558516727 0.103380412 -8.301304236 0.262745 0.360784 0.168627
v -3.453282523 0.246784064 -8.378164368 0.227451 0.349020 0.101961
v -3.525584501 0.153709434 -8.341498638 0.258824 0.364706 0.149020
v -3.441993951 0.265890855 -8.383386343 0.235294 0.352941 0.109804
v -3.487825975 0.207262325 -8.361236746 0.219608 0.333333 0.105882
v -3.466526674 0.243169309 -8.373657109 0.223529 0.341176 0.098039
v -3.527079828 0.166026638 -8.344186807 0.215686 0.329412 0.094118
v -3.514042432 0.183707156 -8.349592874 0.243137 0.364706 0.152941
v -3.425063451 0.300347145 -8.385690216 0.223529 0.301961 0.109804
v -3.558747212 0.124076386 -8.315084317 0.203922 0.325490 0.086275
v -3.565380650 0.114726133 -8.306242151 0.231373 0.341176 0.137255
v -3.537718067 0.157201513 -8.338807655 0.258824 0.372549 0.149020
v -3.437048217 0.290038111 -8.383382251 0.219608 0.325490 0.094118
v -3.451896616 0.275217845 -8.380179650 0.207843 0.317647 0.090196
v -3.558522135 0.135513893 -8.323036065 0.235294 0.349020 0.121569
v -3.465730914 0.261362384 -8.375629590 0.223529 0.341176 0.109804
v -3.481771729 0.242554127 -8.370648932 0.223529 0.341176 0.094118
v -3.415732392 0.327995313 -8.392499870 0.345098 0.388235 0.219608
v -3.475271288 0.252685195 -8.372110294 0.215686 0.333333 0.094118
v -3.579815304 0.113204799 -8.299950773 0.278431 0.317647 0.172549
v -3.496932468 0.229269181 -8.364118853 0.227451 0.333333 0.098039
v -3.529658755 0.186890375 -8.346703512 0.211765 0.325490 0.094118
v -3.511618635 0.211079508 -8.355175859 0.215686 0.325490 0.113725
v -3.409950297 0.346607991 -8.401063140 0.384314 0.321569 0.235294
v -3.427090844 0.323610055 -8.388374374 0.254902 0.321569 0.133333
v -3.555239943 0.157103423 -8.333218984 0.258824 0.368627 0.156863
v -3.549039416 0.168472778 -8.338038595 0.207843 0.317647 0.113725
v -3.579817802 0.125666500 -8.306264718 0.200000 0.301961 0.078431
v -3.492969610 0.247261714 -8.367094228 0.211765 0.325490 0.090196
v -3.473595765 0.272622257 -8.374047811 0.227451 0.345098 0.113725
v -3.467227472 0.284101824 -8.377451994 0.207843 0.325490 0.086275
v -3.446505060 0.311815430 -8.384802789 0.223529 0.341176 0.105882
v -3.508568010 0.233084599 -8.362409831 0.207843 0.317647 0.082353
v -3.571388942 0.151253750 -8.326854212 0.270588 0.372549 0.152941
v -3.577539114 0.142522162 -8.319265103 0.227451 0.341176 0.125490
v -3.528384447 0.211777504 -8.349951215 0.219608 0.329412 0.105882
v -3.485578831 0.268395325 -8.370866428 0.223529 0.337255 0.105882
v -3.411764653 0.369140696 -8.407394476 0.411765 0.431373 0.282353
v -3.553631813 0.184813471 -8.338851097 0.211765 0.329412 0.086275
v -3.463188212 0.303881075 -8.381047199 0.215686 0.305882 0.082353
v -3.593939610 0.134206900 -8.304388051 0.247059 0.349020 0.141176
v -3.436049872 0.344842274 -8.394252410 0.211765 0.337255 0.098039
v -3.571532303 0.170268435 -8.331664359 0.227451 0.341176 0.109804
v -3.545587241 0.204938562 -8.344189386 0.215686 0.337255 0.113725
v -3.445560234 0.337054395 -8.390632401 0.223529 0.333333 0.086275
v -3.454333371 0.327443096 -8.387444987 0.227451 0.345098 0.101961
v -3.487388915 0.290930805 -8.373709635 0.211765 0.325490 0.086275
v -3.480436603 0.302224618 -8.377169785 0.207843 0.309804 0.090196
v -3.529255779 0.238702006 -8.356039345 0.207843 0.317647 0.090196
v -3.594090015 0.152913901 -8.318552834 0.235294 0.345098 0.129412
v -3.569060555 0.187553715 -8.335572630 0.231373 0.341176 0.117647
v -3.496938521 0.283116252 -8.370218244 0.211765 0.325490 0.086275
v -3.469778729 0.319749545 -8.383352808 0.219608 0.329412 0.090196
v -3.523097026 0.251782180 -8.360126266 0.223529 0.341176 0.101961
v -3.419618291 0.391699877 -8.412725585 0.239216 0.349020 0.105882
v -3.481299099 0.316125097 -8.379757812 0.200000 0.317647 0.090196
v -3.612482547 0.142391593 -8.304284148 0.262745 0.349020 0.152941
v -3.567185749 0.205882728 -8.340338940 0.254902 0.376471 0.176471
v -3.582201834 0.186611086 -8.332467007 0.235294 0.345098 0.113725
v -3.608157782 0.151934478 -8.313025843 0.247059 0.356863 0.133333
v -3.494267213 0.303136794 -8.374348222 0.219608 0.337255 0.090196
v -3.548183589 0.232739952 -8.350237116 0.203922 0.309804 0.082353
v -3.515922897 0.277116753 -8.365472251 0.207843 0.317647 0.086275
v -3.502993415 0.294424671 -8.371004754 0.200000 0.317647 0.082353
v -3.445851671 0.375082684 -8.402005640 0.235294 0.349020 0.117647
v -3.537838391 0.255272192 -8.356571835 0.250980 0.368627 0.156863
v -3.530827401 0.268341585 -8.359843921 0.215686 0.313725 0.109804
v -3.603726721 0.172837782 -8.324899358 0.270588 0.380392 0.180392
v -3.611639418 0.163221511 -8.319130437 0.247059 0.341176 0.145098
v -3.477818298 0.343924550 -8.387552890 0.235294 0.337255 0.113725
v -3.461323422 0.367370354 -8.397133763 0.231373 0.352941 0.125490
v -3.435384969 0.403774172 -8.411416996 0.286275 0.345098 0.149020
v -3.512398362 0.305812654 -8.370519391 0.239216 0.341176 0.113725
v -3.496261339 0.327289357 -8.377791842 0.223529 0.325490 0.101961
v -3.550436055 0.258159032 -8.354297299 0.247059 0.345098 0.133333
v -3.603032207 0.191833187 -8.330678847 0.219608 0.325490 0.105882
v -3.543708388 0.269305984 -8.356754940 0.262745 0.352941 0.149020
v -3.577650417 0.228438733 -8.343079557 0.231373 0.329412 0.125490
v -3.566255772 0.245009174 -8.348821589 0.219608 0.313725 0.101961
v -3.478471498 0.360567420 -8.392064582 0.227451 0.345098 0.121569
v -3.627107356 0.165066493 -8.315984476 0.262745 0.337255 0.168627
v -3.454112202 0.395336050 -8.405833127 0.286275 0.356863 0.156863
v -3.468270805 0.377794373 -8.397997458 0.223529 0.325490 0.109804
v -3.640000258 0.150692473 -8.303606534 0.368627 0.400000 0.227451
v -3.599861786 0.209571631 -8.334920180 0.239216 0.329412 0.113725
v -3.542129184 0.284838185 -8.358138270 0.223529 0.317647 0.113725
v -3.626203820 0.179855712 -8.322816670 0.250980 0.329412 0.137255
v -3.639511821 0.161432415 -8.309832344 0.349020 0.384314 0.262745
v -3.521331174 0.323024028 -8.370454579 0.207843 0.317647 0.086275
v -3.588944804 0.235386163 -8.340481927 0.341176 0.431373 0.231373
v -3.558076171 0.276816515 -8.353078202 0.247059 0.352941 0.137255
v -3.624442181 0.192031063 -8.326214115 0.309804 0.372549 0.176471
v -3.469151146 0.396895372 -8.401511639 0.400000 0.407843 0.266667
v -3.512471975 0.339639727 -8.375970115 0.211765 0.317647 0.090196
v -3.545516883 0.297054359 -8.358725879 0.239216 0.341176 0.129412
v -3.488159258 0.375247049 -8.391628024 0.235294 0.341176 0.117647
v -3.604924593 0.223868965 -8.333791919 0.239216 0.329412 0.105882
v -3.581410848 0.255178905 -8.344878501 0.215686 0.313725 0.090196
v -3.499583103 0.363000597 -8.385112302 0.227451 0.337255 0.098039
v -3.508194635 0.353493963 -8.380527221 0.215686 0.317647 0.109804
v -3.644258073 0.175633625 -8.315263052 0.560784 0.568627 0.439216
v -3.639540318 0.186602856 -8.319479104 0.368627 0.443137 0.266667
v -3.543006073 0.316100450 -8.362510005 0.243137 0.356863 0.133333
v -3.664339960 0.158758908 -8.298876783 0.411765 0.372549 0.160784
v -3.631775016 0.203941186 -8.323990679 0.298039 0.384314 0.160784
v -3.604592411 0.242325178 -8.336183819 0.239216 0.345098 0.117647
v -3.486335722 0.399623308 -8.396558290 0.470588 0.454902 0.345098
v -3.616898334 0.229202244 -8.330578450 0.243137 0.356863 0.133333
v -3.627106173 0.216313263 -8.326403331 0.250980 0.356863 0.129412
v -3.656669643 0.178943903 -8.307396469 0.403922 0.450980 0.368627
v -3.544636185 0.328329947 -8.364767566 0.239216 0.337255 0.109804
v -3.580872188 0.281586538 -8.349203069 0.227451 0.329412 0.094118
v -3.601906505 0.254537253 -8.338528644 0.235294 0.341176 0.117647
v -3.500667649 0.391523168 -8.389289534 0.235294 0.321569 0.121569
v -3.515977602 0.372625125 -8.382153826 0.219608 0.329412 0.094118
v -3.650607459 0.201515208 -8.316141076 0.247059 0.337255 0.137255
v -3.578664655 0.301305045 -8.352239505 0.203922 0.305882 0.086275
v -3.626168926 0.238941435 -8.328783606 0.235294 0.341176 0.117647
v -3.570950910 0.312528971 -8.356049481 0.203922 0.309804 0.078431
v -3.605514274 0.267479809 -8.338961403 0.231373 0.341176 0.113725
v -3.540470032 0.356879590 -8.372288471 0.207843 0.313725 0.094118
v -3.550040815 0.345576617 -8.367132577 0.200000 0.305882 0.078431
v -3.638583430 0.231826813 -8.323532023 0.227451 0.337255 0.117647
v -3.648188424 0.221370561 -8.318487590 0.239216 0.345098 0.117647
v -3.621121585 0.258811210 -8.332794568 0.231373 0.345098 0.105882
v -3.665206095 0.200755145 -8.305173115 0.325490 0.411765 0.250980
v -3.677457663 0.183626898 -8.288325271 0.200000 0.247059 0.137255
v -3.671923148 0.192523574 -8.296825616 0.341176 0.423529 0.278431
v -3.603142952 0.286436091 -8.342331196 0.231373 0.329412 0.105882
v -3.591339092 0.305009901 -8.350215116 0.200000 0.301961 0.082353
v -3.542005065 0.370038996 -8.375105988 0.200000 0.313725 0.086275
v -3.531620202 0.385649190 -8.379572135 0.196078 0.301961 0.082353
v -3.660043717 0.222437956 -8.313151513 0.294118 0.396078 0.188235
v -3.558485502 0.358762747 -8.369820316 0.192157 0.305882 0.078431
v -3.574225686 0.339584659 -8.361480038 0.207843 0.321569 0.101961
v -3.607282247 0.301334706 -8.343404962 0.219608 0.329412 0.105882
v -3.530206430 0.403678884 -8.382362498 0.305882 0.337255 0.188235
v -3.671616565 0.221386124 -8.305380596 0.294118 0.388235 0.200000
v -3.658479117 0.242302640 -8.316319071 0.219608 0.321569 0.109804
v -3.640456103 0.268219433 -8.326580864 0.207843 0.321569 0.101961
v -3.626218026 0.289286485 -8.335023257 0.203922 0.317647 0.121569
v -3.601121345 0.323101279 -8.350090319 0.219608 0.329412 0.125490
v -3.545909197 0.396684995 -8.379112914 0.215686 0.301961 0.101961
v -3.594009889 0.334498046 -8.355641462 0.239216 0.349020 0.156863
v -3.583874931 0.349945614 -8.362659453 0.211765 0.321569 0.105882
v -3.656570788 0.258049259 -8.320103473 0.211765 0.313725 0.101961
v -3.686116489 0.217216298 -8.293222236 0.329412 0.427451 0.262745
v -3.622792044 0.304889590 -8.339525840 0.247059 0.356863 0.149020
v -3.575850224 0.371794794 -8.371536698 0.196078 0.301961 0.098039
v -3.638400529 0.288403856 -8.330753353 0.219608 0.325490 0.125490
v -3.617741628 0.317812992 -8.343523663 0.223529 0.333333 0.133333
v -3.565633883 0.388163289 -8.376552916 0.180392 0.286275 0.082353
v -3.601058455 0.344856215 -8.355966037 0.223529 0.337255 0.129412
v -3.680278263 0.244853207 -8.305305097 0.270588 0.376471 0.164706
v -3.613596023 0.335056488 -8.348509989 0.231373 0.349020 0.141176
v -3.650757758 0.287406386 -8.326185652 0.223529 0.333333 0.125490
v -3.560999145 0.408331177 -8.382550932 0.321569 0.341176 0.219608
v -3.663550830 0.271926021 -8.319335988 0.200000 0.309804 0.098039
v -3.597928730 0.363741130 -8.364036247 0.258824 0.372549 0.180392
v -3.676001395 0.258707916 -8.310728623 0.301961 0.400000 0.188235
v -3.592339851 0.373540558 -8.369756189 0.227451 0.337255 0.141176
v -3.577881578 0.396792246 -8.378576054 0.200000 0.301961 0.078431
v -3.692293030 0.243211406 -8.297880086 0.282353 0.392157 0.176471
v -3.626497700 0.337745430 -8.346357223 0.247059 0.364706 0.156863
v -3.574283389 0.409033099 -8.382514409 0.321569 0.349020 0.203922
v -3.648208939 0.311689198 -8.332451382 0.223529 0.337255 0.129412
v -3.608841857 0.370067114 -8.363673737 0.235294 0.349020 0.145098
v -3.660077876 0.303193701 -8.326290963 0.207843 0.321569 0.109804
v -3.639706112 0.331244605 -8.342377171 0.184314 0.298039 0.082353
v -3.686093708 0.268478137 -8.307913750 0.282353 0.388235 0.188235
v -3.602110087 0.383822748 -8.371329839 0.266667 0.380392 0.172549
v -3.697480424 0.255386843 -8.297802810 0.313725 0.427451 0.239216
v -3.707982029 0.241438645 -8.287636392 0.298039 0.384314 0.207843
v -3.649181966 0.323782521 -8.335395629 0.227451 0.345098 0.149020
v -3.625566506 0.356894884 -8.352235304 0.235294 0.356863 0.156863
v -3.673303884 0.300459374 -8.320853645 0.231373 0.341176 0.137255
v -3.681131284 0.290898624 -8.315674654 0.250980 0.356863 0.152941
v -3.661944084 0.317874519 -8.329318738 0.211765 0.321569 0.109804
v -3.604722607 0.397716442 -8.377431013 0.231373 0.337255 0.129412
v -3.594144837 0.413451217 -8.384743837 0.364706 0.388235 0.274510
v -3.646969180 0.348411532 -8.344272538 0.250980 0.372549 0.168627
v -3.717100005 0.252145412 -8.284478401 0.349020 0.364706 0.250980
v -3.694671364 0.291130911 -8.310170776 0.266667 0.376471 0.172549
v -3.668025188 0.330902908 -8.331058488 0.219608 0.329412 0.113725
v -3.609698758 0.411767006 -8.381005354 0.376471 0.435294 0.254902
v -3.705382801 0.283125299 -8.299818496 0.317647 0.423529 0.223529
v -3.715342933 0.273307501 -8.288109881 0.352941 0.443137 0.278431
v -3.665602035 0.347287411 -8.336863476 0.231373 0.345098 0.141176
v -3.690876858 0.315093877 -8.318037697 0.250980 0.364706 0.141176
v -3.629075180 0.399432317 -8.364508615 0.309804 0.423529 0.235294
v -3.625286899 0.410625562 -8.373681173 0.364706 0.411765 0.258824
v -3.655010337 0.369980262 -8.344999709 0.219608 0.337255 0.125490
v -3.643902001 0.386363705 -8.350808952 0.274510 0.396078 0.200000
v -3.619950470 0.421432461 -8.376973218 0.435294 0.356863 0.286275
v -3.714277788 0.291675155 -8.296156955 0.384314 0.470588 0.309804
v -3.688965430 0.330841493 -8.323548640 0.231373 0.333333 0.129412
v -3.670613914 0.358709104 -8.337951916 0.243137 0.356863 0.133333
v -3.709616301 0.308385424 -8.309016278 0.274510 0.372549 0.184314
v -3.664217849 0.379760874 -8.343870270 0.227451 0.349020 0.152941
v -3.647628821 0.404439140 -8.351632706 0.243137 0.356863 0.149020
v -3.706368019 0.326478501 -8.317568997 0.262745 0.360784 0.152941
v -3.724978456 0.299311534 -8.291849256 0.419608 0.474510 0.352941
v -3.692225353 0.348353468 -8.328928655 0.227451 0.337255 0.137255
v -3.721672356 0.307585133 -8.301728929 0.360784 0.435294 0.274510
v -3.634244385 0.427254219 -8.365236787 0.200000 0.164706 0.121569
v -3.641665430 0.419998934 -8.358089892 0.435294 0.450980 0.325490
v -3.685410223 0.369112342 -8.335444345 0.223529 0.337255 0.137255
v -3.676803435 0.385563736 -8.340045698 0.215686 0.329412 0.129412
v -3.717514514 0.332652591 -8.317098062 0.258824 0.349020 0.160784
v -3.725986057 0.320632214 -8.307713039 0.356863 0.423529 0.282353
v -3.663527485 0.403965206 -8.344449314 0.203922 0.305882 0.105882
v -3.708839055 0.351755468 -8.326682670 0.227451 0.329412 0.137255
v -3.689950264 0.383749125 -8.336955060 0.250980 0.360784 0.160784
v -3.698360977 0.373505359 -8.334320274 0.215686 0.321569 0.109804
v -3.656121089 0.428017302 -8.348395841 0.294118 0.376471 0.117647
v -3.666350761 0.421194101 -8.344291857 0.301961 0.345098 0.196078
v -3.677335106 0.411840346 -8.342420699 0.223529 0.294118 0.117647
v -3.745305645 0.325707155 -8.299714048 0.439216 0.427451 0.356863
v -3.719349022 0.365595828 -8.329572583 0.250980 0.337255 0.168627
v -3.728033834 0.356911002 -8.325228583 0.329412 0.400000 0.262745
v -3.741754457 0.337917404 -8.311621867 0.262745 0.298039 0.203922
v -3.693433563 0.408932062 -8.340459590 0.278431 0.325490 0.176471
v -3.709890008 0.389853284 -8.336834128 0.243137 0.329412 0.156863
v -3.719810944 0.380626183 -8.335197682 0.231373 0.305882 0.137255
v -3.704345727 0.402231290 -8.340090846 0.270588 0.321569 0.168627
v -3.741703408 0.354453643 -8.321879196 0.282353 0.301961 0.188235
vn 0.345509593 0.496378427 0.796386576
vn 0.398253756 0.428356575 0.811113180
vn 0.206868430 0.368656309 0.906254919
vn 0.482197834 0.120398366 0.867749666
vn 0.458258784 0.336304551 0.822738194
vn 0.202354678 0.283036190 0.937519653
vn 0.326139609 0.383817533 0.863896439
vn 0.419290412 0.014322303 0.907739182
vn 0.224212988 0.269461825 0.936546241
vn 0.459787240 0.139070817 0.877071834
vn 0.431419581 0.297537909 0.851673845
vn 0.461091804 0.044609530 0.886230409
vn 0.333528959 0.253422592 0.908039329
vn 0.454238967 0.412793256 0.789473678
vn 0.389470325 0.030677423 0.920527980
vn 0.374257391 0.244844247 0.894417520
vn 0.392676376 0.054889892 0.918037234
vn 0.416023869 0.117645701 0.901711500
vn 0.455979986 0.522306318 0.720609716
vn 0.340761025 0.268292801 0.901055435
vn 0.353757049 0.187375503 0.916376763
vn 0.410297808 0.034659123 0.911292738
vn 0.377002722 0.023774767 0.925906965
vn 0.410383831 0.251528092 0.876537923
vn 0.485067364 0.478106243 0.732204939
vn 0.387743343 0.201444084 0.899486176
vn 0.394775834 0.014281142 0.918666474
vn 0.392561342 0.037424512 0.918964090
vn 0.463650946 0.401657472 0.789746210
vn 0.388801951 0.146414322 0.909613044
vn 0.361225683 0.215361474 0.907268120
vn 0.410653190 -0.017534238 0.911623008
vn 0.400540263 0.053417573 0.914720756
vn 0.408275096 0.012250818 0.912776733
vn 0.384697820 0.110711078 0.916379094
vn 0.435191188 0.496601980 0.750996074
vn 0.343144710 0.239779616 0.908161574
vn 0.471839775 0.473015287 0.744058980
vn 0.383018717 0.017812626 0.923568824
vn 0.424193437 0.027246299 0.905161625
vn 0.389917468 0.397999133 0.830398133
vn 0.352929472 0.279561010 0.892908970
vn 0.313134666 0.234587385 0.920280087
vn 0.390039165 0.010740346 0.920735627
vn 0.369100564 0.527036049 0.765504916
vn 0.349931749 0.167634689 0.921654155
vn 0.416689197 -0.037380501 0.908280139
vn 0.386121174 0.033217676 0.921849784
vn 0.380546261 0.075517441 0.921673293
vn 0.370674312 -0.033637659 0.928153577
vn 0.349311515 0.117358908 0.929628072
vn 0.340772025 0.528977456 0.777211219
vn 0.294036603 0.062876121 0.953723791
vn 0.336879050 0.456038150 0.823736433
vn 0.343749053 0.089187691 0.934816637
vn 0.313599641 0.345949849 0.884292919
vn 0.327958289 0.139251328 0.934372746
vn 0.291792489 0.462604350 0.837170448
vn 0.289314871 0.100848731 0.951906738
vn 0.291425069 0.287048204 0.912510141
vn 0.305246645 0.022276867 0.952012724
vn 0.312103281 0.173190160 0.934128851
vn 0.250216340 0.087602876 0.964218606
vn 0.279291198 0.172785925 0.944532398
vn 0.292502287 0.127547854 0.947720400
vn 0.310802947 0.039508064 0.949652905
vn 0.333278286 0.536757333 0.775123957
vn 0.298863697 0.507230901 0.808329947
vn 0.295890249 0.310834573 0.903233541
vn 0.249183247 0.003631899 0.968449544
vn 0.227532986 0.062138033 0.971785781
vn 0.298884522 0.423385157 0.855226901
vn 0.289972318 0.064421890 0.954864323
vn 0.253786606 0.102435631 0.961820825
vn 0.351782635 0.191981962 0.916183335
vn 0.251845492 0.057967124 0.966029845
vn 0.327147169 0.459286348 0.825851548
vn 0.281975357 0.196455467 0.939092726
vn 0.270789888 0.135855468 0.953003740
vn 0.278551099 0.180862927 0.943237980
vn 0.219893499 0.313234663 0.923867358
vn 0.133159411 0.217555748 0.966921955
vn 0.267847017 0.308724016 0.912659552
vn 0.287168486 0.171623716 0.942379733
vn 0.369852943 0.494318697 0.786675172
vn 0.236957921 0.095348101 0.966829707
vn 0.244106737 0.108324453 0.963679259
vn 0.231519409 0.141318273 0.962511251
vn 0.114539378 0.159816204 0.980479226
vn 0.280298364 0.179159754 0.943045391
vn 0.303578627 0.343710796 0.888652298
vn 0.366167362 0.522899361 0.769738735
vn 0.277662977 0.194321833 0.940820013
vn 0.217871502 0.108156693 0.969966050
vn 0.206024339 0.293483589 0.933499520
vn 0.257413924 0.158917345 0.953143929
vn 0.175785428 0.142053621 0.974125378
vn 0.341524722 0.544356677 0.766183185
vn 0.185072869 0.304936420 0.934217219
vn 0.259442822 0.241322753 0.935121784
vn 0.229943398 0.180589456 0.956301983
vn 0.129528712 0.266911300 0.954976791
vn 0.111885354 0.217992069 0.969515923
vn 0.219860690 0.154535409 0.963213416
vn 0.210272693 0.163631269 0.963851753
vn 0.282210350 0.190502292 0.940247944
vn 0.289900740 0.436052423 0.851948264
vn 0.225704256 0.204454454 0.952499850
vn 0.209006538 0.144972451 0.967108709
vn 0.166602883 0.221413686 0.960843098
vn 0.261956302 0.118384717 0.957791185
vn 0.220038134 0.259290929 0.940399614
vn 0.239331486 0.206530866 0.948717788
vn 0.226905656 0.561412705 0.795820079
vn 0.192538848 0.216226174 0.957170326
vn 0.183415729 0.226531064 0.956578459
vn 0.263943319 0.563221701 0.783016755
vn 0.222985166 0.161649155 0.961325734
vn 0.208646473 0.201854235 0.956933392
vn 0.248232170 0.124938607 0.960609772
vn 0.209703127 0.157661825 0.964970128
vn 0.196834456 0.271481554 0.942100824
vn 0.237488998 0.142295043 0.960911596
vn 0.270490180 0.102508551 0.957249737
vn 0.196575672 0.313879657 0.928890503
vn 0.223549747 0.430035604 0.874697027
vn 0.222171543 0.239172084 0.945217710
vn 0.159659263 0.268725817 0.949892286
vn 0.214113173 0.233050269 0.948600612
vn 0.275843011 0.140155551 0.950929574
vn 0.263773002 0.188778736 0.945931495
vn 0.233386775 0.115996895 0.965440487
vn 0.171198611 0.242413207 0.954948623
vn 0.248060548 0.072515295 0.966026654
vn 0.218335234 0.177624759 0.959572389
vn 0.260486717 0.112823467 0.958862626
vn 0.270070036 0.218170564 0.937797303
vn 0.242213695 0.488336874 0.838367237
vn 0.211564515 0.238376822 0.947848589
vn 0.254076142 0.197978955 0.946704625
vn 0.236219589 0.510513250 0.826786869
vn 0.236540381 0.144499063 0.960816668
vn 0.287531560 0.110511626 0.951374155
vn 0.237254991 0.308244452 0.921246670
vn 0.371583611 0.379905329 0.847111304
vn 0.269965997 0.164995501 0.948627875
vn 0.304884226 0.097334166 0.947402591
vn 0.237418231 0.104246988 0.965797675
vn 0.288905595 0.120678231 0.949721181
vn 0.294547903 0.186028941 0.937355197
vn 0.260152513 0.204297474 0.943707164
vn 0.243532447 0.148872485 0.958399150
vn 0.323665436 0.164307644 0.931795945
vn 0.315041302 0.075545748 0.946066498
vn 0.276668983 0.113778348 0.954205828
vn 0.306064991 0.188641372 0.933133781
vn 0.274581197 0.211081718 0.938109628
vn 0.400897197 0.336134666 0.852229385
vn 0.425227173 0.137925189 0.894515787
vn 0.256540557 0.169516871 0.951551876
vn 0.504257361 0.214133953 0.836583029
vn 0.372838229 0.060219023 0.925940238
vn 0.307551901 0.114918240 0.944566369
vn 0.315935035 0.193658769 0.928806403
vn 0.295734043 0.101197837 0.949894928
vn 0.324851211 0.060529088 0.943826213
vn 0.579640645 0.184256407 0.793767157
vn 0.227997401 0.203127366 0.952237606
vn 0.261492824 0.148014211 0.953788916
vn 0.299891787 0.110184268 0.947588699
vn 0.305074202 0.160976185 0.938624738
vn 0.260048132 0.165865672 0.951243159
vn 0.486125422 0.119764863 0.865643374
vn 0.202961440 0.148372083 0.967880354
vn 0.325755855 0.100290597 0.940119630
vn 0.216306650 0.197811727 0.956076333
vn 0.308103152 0.128771560 0.942597652
vn 0.240414490 0.218521069 0.945753359
vn 0.181776996 0.241006973 0.953348185
vn 0.356325773 0.105562673 0.928379483
vn 0.385341706 0.077977604 0.919473362
vn 0.326503009 0.116087135 0.938040278
vn 0.600625224 0.184339396 0.777989928
vn 0.677560953 0.156721498 0.718574650
vn 0.654507802 0.237781863 0.717690270
vn 0.323666631 0.151664774 0.933936673
vn 0.286222214 0.160263633 0.944665238
vn 0.156721093 0.191468202 0.968905788
vn 0.233958505 0.135326120 0.962782561
vn 0.512560631 0.121740094 0.849977029
vn 0.141502780 0.272828483 0.951599486
vn 0.188261356 0.235903023 0.953366365
vn 0.316462182 0.182060586 0.930970263
vn 0.222541531 0.206392941 0.952825913
vn 0.544313397 0.175179869 0.820387067
vn 0.445032156 0.146189168 0.883501617
vn 0.332974761 0.119276705 0.935361361
vn 0.319429073 0.146686276 0.936188124
vn 0.295852294 0.199497366 0.934169268
vn 0.077171702 0.212760043 0.974052202
vn 0.268237953 0.248864965 0.930652798
vn 0.198425124 0.311733346 0.929219991
vn 0.373811402 0.133087463 0.917906729
vn 0.573097558 0.243252539 0.782551846
vn 0.290286854 0.233365014 0.928048658
vn 0.113993197 0.291905493 0.949629788
vn 0.318264588 0.187432548 0.929288272
vn 0.242018707 0.208747668 0.947550187
vn 0.067472829 0.240130700 0.968392825
vn 0.289352107 0.323125474 0.901035674
vn 0.498434764 0.204063189 0.842568099
vn 0.282906296 0.257114251 0.924043446
vn 0.323460747 0.175141767 0.929891664
vn 0.024725272 0.299051235 0.953916673
vn 0.367473146 0.168343059 0.914671581
vn 0.250735069 0.356482799 0.900028854
vn 0.451976955 0.188456194 0.871895117
vn 0.177168704 0.321630897 0.930142364
vn 0.062677809 0.322373013 0.944535406
vn 0.498966303 0.248190606 0.830321655
vn 0.209611222 0.239575828 0.947980252
vn -0.014966760 0.310226438 0.950544872
vn 0.330635989 0.239319276 0.912910799
vn 0.377260274 0.314823853 0.870953861
vn 0.328675903 0.215235732 0.919589980
vn 0.281473609 0.253446510 0.925493098
vn 0.459514627 0.226651304 0.858763934
vn 0.272151224 0.357377415 0.893428841
vn 0.533769467 0.194159446 0.823038435
vn 0.514203366 0.237824790 0.824035356
vn 0.349169991 0.274169134 0.896053349
vn 0.315586367 0.239516223 0.918170585
vn 0.336139373 0.198877819 0.920574785
vn 0.379338542 0.216339964 0.899610633
vn 0.325258924 0.246056629 0.913051350
vn 0.254279825 0.410021793 0.875913181
vn 0.091773505 0.281714884 0.955099130
vn 0.307818526 0.219416465 0.925799206
vn 0.540885710 0.137259977 0.829820672
vn 0.453368540 0.285914604 0.844221420
vn 0.312053046 0.286404928 0.905867051
vn 0.314191703 0.183760860 0.931405132
vn 0.568648687 0.248019611 0.784299014
vn 0.584718598 0.212546457 0.782897289
vn 0.313565201 0.244626088 0.917515636
vn 0.325796618 0.264821744 0.907593526
vn 0.511990508 0.305137173 0.802967637
vn 0.575746556 0.222348554 0.786814478
vn 0.301875794 0.155699142 0.940547066
vn 0.405464413 0.187898528 0.894590830
vn 0.455732966 -0.047815217 0.888831350
vn 0.543373589 0.380784492 0.748163293
vn 0.283753856 0.308774112 0.907822833
vn 0.288638659 0.193590007 0.937662324
vn 0.398463261 0.375163722 0.836946361
vn 0.302524415 0.095654110 0.948329726
vn 0.505405511 0.097378958 0.857369586
vn 0.258822222 0.352744943 0.899211912
vn 0.538815242 0.481555114 0.691218350
vn 0.247260822 0.277854574 0.928255849
vn 0.477936686 0.514909016 0.711649653
vn 0.644302207 0.024353180 0.764383143
vn 0.647722372 0.130668096 0.750587488
vn 0.249824009 0.176107385 0.952141877
vn 0.214302501 0.099655778 0.971670296
vn 0.252806849 0.409929227 0.876382751
vn 0.369103629 0.466715356 0.803703482
vn 0.304367954 0.052455572 0.951109122
vn 0.173385517 0.321621754 0.930858158
vn 0.102644042 0.171994638 0.979735702
vn 0.111214509 0.245515210 0.962992012
vn 0.519099423 0.079345707 0.851022942
vn 0.303200014 0.033172786 0.952349367
vn 0.144138683 0.075300969 0.986688301
vn 0.461556475 0.546630409 0.698685063
vn 0.109808862 0.319341490 0.941256090
vn 0.192361917 0.393418293 0.899009977
vn 0.294216991 0.477386391 0.827972582
vn 0.096224070 0.120885309 0.987991736
vn 0.051431733 0.194252347 0.979602370
vn 0.094184321 0.299446939 0.949452918
vn 0.012208346 0.176497954 0.984225294
vn 0.143886561 0.420556605 0.895783902
f 32//32 47//47 50//50
f 47//47 70//70 50//50
f 70//70 61//61 50//50
f 66//66 70//70 47//47
f 66//66 75//75 82//82
f 75//75 66//66 47//47
f 89//89 66//66 82//82
f 66//66 89//89 70//70
f 143//143 152//152 148//148
f 93//93 119//119 101//101
f 119//119 93//93 106//106
f 34//34 32//32 50//50
f 61//61 48//48 50//50
f 71//71 61//61 70//70
f 22//22 15//15 8//8
f 15//15 22//22 23//23
f 247//247 257//257 250//250
f 250//250 249//249 232//232
f 260//260 258//258 253//253
f 14//14 29//29 19//19
f 29//29 14//14 24//24
f 38//38 41//41 45//45
f 41//41 38//38 29//29
f 141//141 145//145 161//161
f 67//67 52//52 45//45
f 52//52 38//38 45//45
f 38//38 52//52 36//36
f 72//72 56//56 69//69
f 138//138 141//141 114//114
f 138//138 145//145 141//141
f 125//125 133//133 144//144
f 133//133 125//125 116//116
f 197//197 213//213 215//215
f 213//213 197//197 207//207
f 241//241 260//260 253//253
f 226//226 208//208 221//221
f 208//208 226//226 205//205
f 205//205 223//223 207//207
f 223//223 213//213 207//207
f 213//213 223//223 225//225
f 226//226 223//223 205//205
f 193//193 208//208 205//205
f 198//198 205//205 207//207
f 197//197 198//198 207//207
f 198//198 193//193 205//205
f 211//211 204//204 195//195
f 182//182 197//197 175//175
f 163//163 182//182 175//175
f 198//198 182//182 177//177
f 182//182 198//198 197//197
f 166//166 181//181 162//162
f 204//204 183//183 195//195
f 203//203 197//197 215//215
f 102//102 103//103 82//82
f 103//103 89//89 82//82
f 109//109 104//104 121//121
f 104//104 94//94 87//87
f 104//104 109//109 94//94
f 143//143 130//130 152//152
f 94//94 76//76 87//87
f 109//109 120//120 94//94
f 111//111 120//120 124//124
f 120//120 109//109 121//121
f 120//120 143//143 124//124
f 130//130 120//120 121//121
f 120//120 130//130 143//143
f 119//119 115//115 101//101
f 115//115 119//119 135//135
f 115//115 96//96 101//101
f 115//115 108//108 96//96
f 108//108 115//115 116//116
f 108//108 100//100 96//96
f 100//100 108//108 116//116
f 100//100 107//107 91//91
f 125//125 100//100 116//116
f 107//107 100//100 125//125
f 96//96 79//79 101//101
f 79//79 93//93 101//101
f 79//79 80//80 93//93
f 53//53 33//33 44//44
f 33//33 53//53 51//51
f 134//134 143//143 148//148
f 132//132 134//134 148//148
f 143//143 134//134 124//124
f 123//123 111//111 124//124
f 134//134 123//123 124//124
f 123//123 134//134 132//132
f 111//111 123//123 106//106
f 123//123 119//119 106//106
f 119//119 123//123 132//132
f 155//155 169//169 177//177
f 169//169 155//155 148//148
f 22//22 28//28 23//23
f 34//34 28//28 32//32
f 28//28 22//22 32//32
f 49//49 48//48 61//61
f 89//89 97//97 70//70
f 97//97 71//71 70//70
f 59//59 49//49 61//61
f 49//49 59//59 44//44
f 59//59 53//53 44//44
f 53//53 59//59 63//63
f 17//17 33//33 18//18
f 15//15 17//17 8//8
f 35//35 33//33 51//51
f 33//33 35//35 18//18
f 2//2 5//5 1//1
f 4//4 5//5 2//2
f 10//10 5//5 4//4
f 5//5 10//10 11//11
f 263//263 262//262 272//272
f 257//257 263//263 272//272
f 247//247 263//263 257//257
f 248//248 242//242 251//251
f 262//262 248//248 251//251
f 263//263 248//248 262//262
f 248//248 263//263 247//247
f 277//277 281//281 283//283
f 281//281 277//277 276//276
f 278//278 277//277 283//283
f 266//266 277//277 278//278
f 29//29 25//25 19//19
f 38//38 25//25 29//29
f 25//25 36//36 19//19
f 25//25 38//38 36//36
f 41//41 54//54 45//45
f 54//54 41//41 56//56
f 72//72 54//54 56//56
f 54//54 67//67 45//45
f 54//54 72//72 67//67
f 52//52 58//58 36//36
f 72//72 92//92 67//67
f 92//92 72//72 91//91
f 107//107 92//92 91//91
f 92//92 107//107 98//98
f 133//133 149//149 144//144
f 149//149 166//166 162//162
f 98//98 117//117 114//114
f 107//107 117//117 98//98
f 117//117 138//138 114//114
f 99//99 128//128 102//102
f 95//95 99//99 81//81
f 99//99 75//75 81//81
f 99//99 102//102 82//82
f 75//75 99//99 82//82
f 153//153 164//164 171//171
f 240//240 255//255 252//252
f 255//255 261//261 252//252
f 213//213 233//233 215//215
f 233//233 213//213 225//225
f 249//249 238//238 232//232
f 232//232 238//238 221//221
f 238//238 226//226 221//221
f 231//231 223//223 226//226
f 238//238 231//231 226//226
f 186//186 198//198 177//177
f 198//198 186//186 193//193
f 169//169 186//186 177//177
f 180//180 166//166 175//175
f 166//166 180//180 181//181
f 197//197 180//180 175//175
f 203//203 180//180 197//197
f 165//165 163//163 175//175
f 166//166 165//165 175//175
f 183//183 190//190 195//195
f 185//185 204//204 184//184
f 185//185 183//183 204//204
f 159//159 149//149 162//162
f 149//149 159//159 144//144
f 164//164 194//194 171//171
f 194//194 189//189 171//171
f 224//224 250//250 232//232
f 224//224 247//247 250//250
f 128//128 127//127 102//102
f 127//127 103//103 102//102
f 127//127 157//157 131//131
f 104//104 118//118 121//121
f 130//130 118//118 131//131
f 118//118 130//130 121//121
f 76//76 74//74 63//63
f 74//74 53//53 63//63
f 51//51 74//74 78//78
f 53//53 74//74 51//51
f 100//100 84//84 96//96
f 84//84 79//79 96//96
f 62//62 51//51 78//78
f 80//80 62//62 78//78
f 93//93 90//90 106//106
f 80//80 90//90 93//93
f 90//90 80//80 78//78
f 90//90 111//111 106//106
f 79//79 65//65 80//80
f 7//7 3//3 1//1
f 5//5 7//7 1//1
f 7//7 5//5 11//11
f 14//14 13//13 24//24
f 13//13 14//14 6//6
f 41//41 42//42 56//56
f 42//42 29//29 24//24
f 42//42 41//41 29//29
f 170//170 155//155 177//177
f 182//182 170//170 177//177
f 170//170 182//182 163//163
f 147//147 170//170 163//163
f 170//170 147//147 155//155
f 136//136 119//119 132//132
f 136//136 132//132 148//148
f 155//155 136//136 148//148
f 119//119 136//136 135//135
f 136//136 147//147 135//135
f 147//147 136//136 155//155
f 39//39 28//28 34//34
f 39//39 34//34 50//50
f 48//48 39//39 50//50
f 28//28 39//39 23//23
f 103//103 110//110 89//89
f 110//110 97//97 89//89
f 127//127 110//110 103//103
f 71//71 88//88 87//87
f 97//97 88//88 71//71
f 88//88 104//104 87//87
f 76//76 73//73 87//87
f 73//73 71//71 87//87
f 73//73 76//76 63//63
f 59//59 73//73 63//63
f 71//71 73//73 61//61
f 73//73 59//59 61//61
f 35//35 30//30 18//18
f 30//30 10//10 18//18
f 10//10 12//12 18//18
f 12//12 10//10 4//4
f 12//12 17//17 18//18
f 12//12 4//4 8//8
f 17//17 12//12 8//8
f 257//257 268//268 250//250
f 243//243 240//240 252//252
f 244//244 243//243 252//252
f 280//280 270//270 282//282
f 270//270 279//279 282//282
f 269//269 277//277 266//266
f 269//269 266//266 258//258
f 260//260 269//269 258//258
f 277//277 269//269 276//276
f 259//259 244//244 252//252
f 261//261 259//259 252//252
f 259//259 261//261 275//275
f 68//68 52//52 67//67
f 68//68 58//58 52//52
f 58//58 68//68 77//77
f 126//126 107//107 125//125
f 126//126 117//117 107//107
f 117//117 126//126 138//138
f 126//126 125//125 144//144
f 138//138 126//126 144//144
f 153//153 140//140 164//164
f 122//122 95//95 112//112
f 129//129 122//122 112//112
f 139//139 122//122 129//129
f 122//122 140//140 128//128
f 140//140 122//122 139//139
f 122//122 99//99 95//95
f 99//99 122//122 128//128
f 156//156 153//153 171//171
f 127//127 156//156 157//157
f 258//258 246//246 253//253
f 255//255 246//246 258//258
f 246//246 241//241 253//253
f 246//246 255//255 240//240
f 255//255 267//267 261//261
f 261//261 267//267 275//275
f 266//266 267//267 258//258
f 267//267 255//255 258//258
f 267//267 278//278 275//275
f 267//267 266//266 278//278
f 233//233 234//234 215//215
f 234//234 246//246 240//240
f 246//246 234//234 233//233
f 260//260 245//245 254//254
f 241//241 245//245 260//260
f 245//245 249//249 254//254
f 245//245 238//238 249//249
f 231//231 245//245 241//241
f 245//245 231//231 238//238
f 235//235 231//231 241//241
f 231//231 235//235 223//223
f 223//223 235//235 225//225
f 235//235 233//233 225//225
f 246//246 235//235 241//241
f 235//235 246//246 233//233
f 176//176 168//168 192//192
f 220//220 204//204 211//211
f 220//220 230//230 204//204
f 154//154 147//147 163//163
f 165//165 154//154 163//163
f 154//154 165//165 166//166
f 190//190 173//173 181//181
f 173//173 190//190 183//183
f 181//181 173//173 162//162
f 173//173 159//159 162//162
f 196//196 180//180 203//203
f 180//180 196//196 181//181
f 196//196 190//190 181//181
f 196//196 211//211 195//195
f 190//190 196//196 195//195
f 185//185 167//167 183//183
f 167//167 173//173 183//183
f 173//173 167//167 159//159
f 167//167 184//184 161//161
f 167//167 185//185 184//184
f 145//145 167//167 161//161
f 212//212 232//232 221//221
f 208//208 212//212 221//221
f 202//202 192//192 191//191
f 224//224 228//228 247//247
f 228//228 224//224 218//218
f 242//242 237//237 251//251
f 209//209 206//206 191//191
f 206//206 202//202 191//191
f 202//202 206//206 218//218
f 188//188 209//209 191//191
f 178//178 188//188 191//191
f 209//209 200//200 214//214
f 200//200 194//194 214//214
f 194//194 200//200 189//189
f 200//200 188//188 189//189
f 188//188 200//200 209//209
f 137//137 127//127 128//128
f 140//140 137//137 128//128
f 137//137 140//140 153//153
f 156//156 137//137 153//153
f 137//137 156//156 127//127
f 146//146 130//130 131//131
f 86//86 76//76 94//94
f 86//86 74//74 76//76
f 90//90 86//86 111//111
f 74//74 86//86 78//78
f 86//86 90//90 78//78
f 120//120 86//86 94//94
f 86//86 120//120 111//111
f 64//64 84//84 69//69
f 84//84 64//64 79//79
f 64//64 65//65 79//79
f 64//64 43//43 57//57
f 65//65 64//64 57//57
f 83//83 100//100 91//91
f 83//83 84//84 100//100
f 84//84 83//83 69//69
f 83//83 72//72 69//69
f 72//72 83//83 91//91
f 55//55 62//62 80//80
f 55//55 65//65 57//57
f 65//65 55//55 80//80
f 55//55 35//35 51//51
f 62//62 55//55 51//51
f 7//7 9//9 3//3
f 9//9 7//7 20//20
f 9//9 6//6 3//3
f 9//9 13//13 6//6
f 20//20 16//16 26//26
f 7//7 16//16 20//20
f 16//16 7//7 11//11
f 16//16 30//30 26//26
f 10//10 16//16 11//11
f 30//30 16//16 10//10
f 13//13 21//21 24//24
f 21//21 9//9 20//20
f 9//9 21//21 13//13
f 31//31 20//20 26//26
f 37//37 31//31 26//26
f 31//31 21//21 20//20
f 31//31 37//37 43//43
f 42//42 31//31 43//43
f 31//31 42//42 24//24
f 21//21 31//31 24//24
f 49//49 40//40 48//48
f 40//40 39//39 48//48
f 40//40 49//49 44//44
f 39//39 40//40 23//23
f 105//105 118//118 104//104
f 88//88 105//105 104//104
f 105//105 88//88 97//97
f 268//268 273//273 274//274
f 273//273 279//279 274//274
f 273//273 257//257 272//272
f 273//273 268//268 257//257
f 256//256 249//249 250//250
f 268//268 256//256 250//250
f 249//249 256//256 254//254
f 271//271 269//269 260//260
f 269//269 271//271 276//276
f 271//271 281//281 276//276
f 271//271 280//280 281//281
f 271//271 270//270 280//280
f 92//92 85//85 67//67
f 85//85 68//68 67//67
f 68//68 85//85 77//77
f 85//85 98//98 77//77
f 85//85 92//92 98//98
f 140//140 150//150 164//164
f 150//150 140//140 139//139
f 174//174 169//169 148//148
f 152//152 174//174 148//148
f 176//176 174//174 152//152
f 160//160 176//176 152//152
f 176//176 160//160 168//168
f 160//160 146//146 168//168
f 130//130 160//160 152//152
f 146//146 160//160 130//130
f 229//229 220//220 211//211
f 229//229 243//243 244//244
f 229//229 244//244 239//239
f 230//230 229//229 239//239
f 220//220 229//229 230//230
f 147//147 142//142 135//135
f 154//154 142//142 147//147
f 142//142 115//115 135//135
f 142//142 133//133 116//116
f 115//115 142//142 116//116
f 142//142 154//154 166//166
f 142//142 149//149 133//133
f 149//149 142//142 166//166
f 158//158 167//167 145//145
f 167//167 158//158 159//159
f 138//138 158//158 145//145
f 158//158 138//138 144//144
f 159//159 158//158 144//144
f 179//179 178//178 191//191
f 178//178 179//179 168//168
f 192//192 179//179 191//191
f 168//168 179//179 192//192
f 193//193 199//199 208//208
f 199//199 212//212 208//208
f 210//210 224//224 232//232
f 212//212 210//210 232//232
f 222//222 219//219 214//214
f 219//219 209//209 214//214
f 237//237 219//219 222//222
f 219//219 228//228 218//218
f 206//206 219//219 218//218
f 219//219 206//206 209//209
f 172//172 178//178 157//157
f 172//172 188//188 178//178
f 188//188 172//172 189//189
f 156//156 172//172 157//157
f 189//189 172//172 171//171
f 172//172 156//156 171//171
f 151//151 178//178 168//168
f 146//146 151//151 168//168
f 178//178 151//151 157//157
f 157//157 151//151 131//131
f 151//151 146//146 131//131
f 56//56 60//60 69//69
f 60//60 64//64 69//69
f 42//42 60//60 56//56
f 60//60 42//42 43//43
f 64//64 60//60 43//43
f 46//46 55//55 57//57
f 43//43 46//46 57//57
f 37//37 46//46 43//43
f 46//46 37//37 26//26
f 30//30 46//46 26//26
f 46//46 30//30 35//35
f 55//55 46//46 35//35
f 33//33 27//27 44//44
f 27//27 40//40 44//44
f 17//17 27//27 33//33
f 40//40 27//27 23//23
f 27//27 15//15 23//23
f 27//27 17//17 15//15
f 110//110 113//113 97//97
f 113//113 105//105 97//97
f 113//113 127//127 131//131
f 113//113 110//110 127//127
f 118//118 113//113 131//131
f 105//105 113//113 118//118
f 265//265 256//256 268//268
f 265//265 268//268 274//274
f 279//279 265//265 274//274
f 270//270 265//265 279//279
f 243//243 227//227 240//240
f 229//229 227//227 243//243
f 227//227 234//234 240//240
f 234//234 227//227 215//215
f 187//187 174//174 176//176
f 199//199 187//187 176//176
f 187//187 199//199 193//193
f 186//186 187//187 193//193
f 187//187 186//186 169//169
f 174//174 187//187 169//169
f 210//210 216//216 224//224
f 216//216 210//210 202//202
f 224//224 216//216 218//218
f 216//216 202//202 218//218
f 202//202 201//201 192//192
f 210//210 201//201 202//202
f 201//201 176//176 192//192
f 201//201 199//199 176//176
f 199//199 201//201 212//212
f 201//201 210//210 212//212
f 219//219 236//236 228//228
f 236//236 219//219 237//237
f 236//236 237//237 242//242
f 228//228 236//236 247//247
f 248//248 236//236 242//242
f 236//236 248//248 247//247
f 256//256 264//264 254//254
f 265//265 264//264 256//256
f 264//264 265//265 270//270
f 271//271 264//264 270//270
f 264//264 260//260 254//254
f 264//264 271//271 260//260
f 217//217 229//229 211//211
f 217//217 227//227 229//229
f 227//227 217//217 215//215
f 217//217 203//203 215//215
f 196//196 217//217 211//211
f 217//217 196//196 203//203
