v 1.812313552 0.295331502 -4.376973044 0.250980 0.196078 0.121569
v 1.808367281 0.286691037 -4.381835945 0.274510 0.266667 0.180392
v 1.809430367 0.276388568 -4.362198125 0.262745 0.258824 0.121569
v 1.809078238 0.273607200 -4.353542040 0.223529 0.203922 0.098039
v 1.805777817 0.272226085 -4.390266142 0.572549 0.584314 0.470588
v 1.806434569 0.268191626 -4.368151241 0.600000 0.603922 0.337255
v 1.803507824 0.264020014 -4.383577737 0.600000 0.603922 0.349020
v 1.803614379 0.259060151 -4.374472740 0.600000 0.615686 0.341176
v 1.804642895 0.246827128 -4.355909924 0.196078 0.196078 0.105882
v 1.803435099 0.248695312 -4.368931185 0.380392 0.400000 0.294118
v 1.799584533 0.251963145 -4.397710135 0.407843 0.415686 0.349020
v 1.800011254 0.248122311 -4.381985866 0.568627 0.592157 0.298039
v 1.800511334 0.243609124 -4.363021736 0.556863 0.568627 0.317647
v 1.795739286 0.239173963 -4.401324047 0.443137 0.458824 0.368627
v 1.795189134 0.236140158 -4.389038235 0.560784 0.588235 0.274510
v 1.799691627 0.227165886 -4.358711869 0.117647 0.125490 0.050980
v 1.795362819 0.229481336 -4.370305580 0.521569 0.556863 0.250980
v 1.793100237 0.224458429 -4.407121091 0.513725 0.552941 0.423529
v 1.790575100 0.216080991 -4.373152312 0.513725 0.549020 0.247059
v 1.788318432 0.216840004 -4.393487847 0.529412 0.568627 0.227451
v 1.789463782 0.213426962 -4.413090903 0.490196 0.521569 0.423529
v 1.788863493 0.207871981 -4.376710101 0.474510 0.521569 0.392157
v 1.792524884 0.202791666 -4.360461249 0.239216 0.250980 0.125490
v 1.784685146 0.204239133 -4.385024108 0.494118 0.533333 0.215686
v 1.787440086 0.199775035 -4.369741193 0.486275 0.513725 0.219608
v 1.785937415 0.204567302 -4.416409194 0.478431 0.525490 0.380392
v 1.789407111 0.193505098 -4.362676822 0.364706 0.376471 0.176471
v 1.782630545 0.202274844 -4.403689057 0.490196 0.537255 0.180392
v 1.782837181 0.194947014 -4.393974440 0.427451 0.494118 0.352941
v 1.780914588 0.193528308 -4.385847349 0.450980 0.490196 0.180392
v 1.783281573 0.185699989 -4.371162839 0.478431 0.498039 0.207843
v 1.780609301 0.192452201 -4.412722739 0.466667 0.529412 0.403922
v 1.786704578 0.180489507 -4.366157243 0.129412 0.125490 0.098039
v 1.776342458 0.189613071 -4.400888831 0.462745 0.505882 0.145098
v 1.776678373 0.191159847 -4.422569918 0.392157 0.396078 0.141176
v 1.772562111 0.184364195 -4.409757721 0.470588 0.505882 0.149020
v 1.770394206 0.180007980 -4.433249001 0.349020 0.345098 0.215686
v 1.773515860 0.168810034 -4.381720970 0.462745 0.474510 0.164706
v 1.770088574 0.171587779 -4.397905572 0.431373 0.450980 0.133333
v 1.778207363 0.154786114 -4.369461149 0.462745 0.486275 0.494118
v 1.764374663 0.171190008 -4.442656940 0.109804 0.101961 0.074510
v 1.771975397 0.157783789 -4.381364787 0.454902 0.458824 0.156863
v 1.764214421 0.162714051 -4.408056083 0.458824 0.470588 0.133333
v 1.772957742 0.155616289 -4.391152888 0.411765 0.427451 0.352941
v 1.777391261 0.147322457 -4.358824953 0.411765 0.392157 0.164706
v 1.772292409 0.148960619 -4.371805415 0.462745 0.454902 0.172549
v 1.761545251 0.161899263 -4.430325242 0.490196 0.478431 0.149020
v 1.777907991 0.144794325 -4.364653009 0.196078 0.192157 0.152941
v 1.768495214 0.152467429 -4.400028445 0.423529 0.435294 0.376471
v 1.777027108 0.137731517 -4.350422079 0.152941 0.133333 0.062745
v 1.759276003 0.158775095 -4.442990455 0.498039 0.454902 0.149020
v 1.775101745 0.138633074 -4.372062446 0.309804 0.301961 0.223529
v 1.759836788 0.153689665 -4.437398159 0.435294 0.427451 0.333333
v 1.777223733 0.130196709 -4.362932253 0.152941 0.141176 0.156863
v 1.756706761 0.145766169 -4.408116328 0.419608 0.439216 0.101961
v 1.772752861 0.128186452 -4.374104882 0.486275 0.462745 0.474510
v 1.757914915 0.136486072 -4.402507891 0.388235 0.368627 0.325490
v 1.751390633 0.141538660 -4.417462550 0.435294 0.427451 0.105882
v 1.753228464 0.142614482 -4.431249944 0.474510 0.447059 0.121569
v 1.761219362 0.131060612 -4.383986472 0.462745 0.427451 0.121569
v 1.752078321 0.139706746 -4.440454312 0.505882 0.435294 0.129412
v 1.773057526 0.119368017 -4.369460149 0.454902 0.419608 0.435294
v 1.752884518 0.131399359 -4.398003814 0.443137 0.423529 0.121569
v 1.762310130 0.123441966 -4.387035840 0.482353 0.423529 0.435294
v 1.770478794 0.112685729 -4.347933439 0.396078 0.317647 0.156863
v 1.746999437 0.133444444 -4.420033522 0.435294 0.419608 0.094118
v 1.753536621 0.135739903 -4.470490475 0.145098 0.105882 0.039216
v 1.747960302 0.131940170 -4.432048980 0.498039 0.435294 0.113725
v 1.746060927 0.123428164 -4.403297764 0.443137 0.423529 0.180392
v 1.747826061 0.127775651 -4.441849442 0.509804 0.431373 0.117647
v 1.752411563 0.115583540 -4.382096772 0.443137 0.392157 0.109804
v 1.769495681 0.104245974 -4.358591580 0.109804 0.094118 0.105882
v 1.766947968 0.102422779 -4.345629516 0.439216 0.329412 0.164706
v 1.760889038 0.104053504 -4.359114493 0.505882 0.376471 0.168627
v 1.743142859 0.119360016 -4.430097592 0.415686 0.392157 0.352941
v 1.750686034 0.108891279 -4.384376014 0.337255 0.313725 0.278431
v 1.748737934 0.122776549 -4.470714294 0.509804 0.423529 0.156863
v 1.738861298 0.116468750 -4.410979505 0.435294 0.411765 0.098039
v 1.745559655 0.109731588 -4.390193742 0.454902 0.403922 0.125490
v 1.760570489 0.094011672 -4.353343688 0.498039 0.360784 0.180392
v 1.752770698 0.099390222 -4.369675763 0.490196 0.400000 0.149020
v 1.745911343 0.114890723 -4.462598363 0.525490 0.419608 0.129412
v 1.739109511 0.112859561 -4.435639064 0.501961 0.419608 0.109804
v 1.744946722 0.114182645 -4.477855913 0.478431 0.384314 0.160784
v 1.746604417 0.096789335 -4.377256348 0.478431 0.411765 0.129412
v 1.743315433 0.099513426 -4.387154321 0.462745 0.411765 0.117647
v 1.751962636 0.086350110 -4.361024824 0.482353 0.356863 0.156863
v 1.756236495 0.083353733 -4.353631158 0.482353 0.345098 0.168627
v 1.739347922 0.106011729 -4.455186612 0.525490 0.431373 0.125490
v 1.744305081 0.091885931 -4.385383097 0.356863 0.317647 0.294118
v 1.732846948 0.101594000 -4.420197786 0.466667 0.419608 0.101961
v 1.733702403 0.102941535 -4.432184282 0.482353 0.415686 0.094118
v 1.744658044 0.087324138 -4.372573411 0.474510 0.384314 0.133333
v 1.734972705 0.101856788 -4.443901276 0.509804 0.443137 0.137255
v 1.731818001 0.094423786 -4.407653141 0.458824 0.411765 0.129412
v 1.729792946 0.092553574 -4.426455373 0.462745 0.415686 0.094118
v 1.733714747 0.094774398 -4.455885298 0.533333 0.427451 0.133333
v 1.752278033 0.069366157 -4.353381669 0.494118 0.345098 0.168627
v 1.735343112 0.093553336 -4.474726750 0.541176 0.411765 0.141176
v 1.730993291 0.083228461 -4.397783014 0.450980 0.400000 0.117647
v 1.739589360 0.075706138 -4.373746327 0.486275 0.384314 0.141176
v 1.729543170 0.085997984 -4.415785560 0.419608 0.368627 0.333333
v 1.734514228 0.092898612 -4.489447487 0.478431 0.368627 0.156863
v 1.727284438 0.087086167 -4.434075363 0.490196 0.427451 0.078431
v 1.759997607 0.056019772 -4.332300104 0.427451 0.329412 0.152941
v 1.743393642 0.065054433 -4.362583608 0.482353 0.337255 0.160784
v 1.728245296 0.085582280 -4.454521547 0.529412 0.411765 0.121569
v 1.727408601 0.073688551 -4.396166157 0.462745 0.403922 0.117647
v 1.758868385 0.045644226 -4.318834094 0.192157 0.141176 0.078431
v 1.726868980 0.081354896 -4.465069626 0.533333 0.396078 0.129412
v 1.759931450 0.045341954 -4.331899683 0.262745 0.223529 0.207843
v 1.736211531 0.061601301 -4.372378118 0.478431 0.364706 0.145098
v 1.722876035 0.077322953 -4.443859994 0.505882 0.423529 0.125490
v 1.741907031 0.053247139 -4.364095637 0.372549 0.321569 0.329412
v 1.721755589 0.067107230 -4.402672788 0.447059 0.400000 0.121569
v 1.719823101 0.071525519 -4.432743216 0.478431 0.407843 0.101961
v 1.725486583 0.078265631 -4.503209122 0.227451 0.176471 0.101961
v 1.730932454 0.053471578 -4.376175526 0.478431 0.372549 0.137255
v 1.743360211 0.044796663 -4.357785751 0.313725 0.250980 0.239216
v 1.757573961 0.033926418 -4.328509848 0.247059 0.219608 0.207843
v 1.718900230 0.068798839 -4.451654371 0.517647 0.392157 0.125490
v 1.726101309 0.053977081 -4.384951752 0.478431 0.400000 0.125490
v 1.737601690 0.045610181 -4.362919493 0.466667 0.352941 0.137255
v 1.719704560 0.069029577 -4.483108608 0.560784 0.384314 0.168627
v 1.717443864 0.065305538 -4.471313390 0.533333 0.364706 0.145098
v 1.712975769 0.060215001 -4.433493846 0.482353 0.400000 0.109804
v 1.715592393 0.054234757 -4.402333869 0.454902 0.403922 0.125490
v 1.730655915 0.042816660 -4.376166670 0.301961 0.266667 0.243137
v 1.713801496 0.060437150 -4.448092178 0.505882 0.392157 0.121569
v 1.740173838 0.031917994 -4.347908411 0.478431 0.325490 0.160784
v 1.724200455 0.043089044 -4.379578476 0.466667 0.372549 0.121569
v 1.710966871 0.054122210 -4.415061748 0.462745 0.392157 0.105882
v 1.751642573 0.018048639 -4.323888780 0.443137 0.317647 0.180392
v 1.716744667 0.043523079 -4.393322425 0.458824 0.384314 0.121569
v 1.725121652 0.035276366 -4.372610866 0.458824 0.368627 0.113725
v 1.710903046 0.046148473 -4.405398447 0.482353 0.407843 0.152941
v 1.708553425 0.051862133 -4.436950683 0.470588 0.384314 0.090196
v 1.718662889 0.037705644 -4.385732842 0.462745 0.388235 0.113725
v 1.748648747 0.012064350 -4.309595675 0.298039 0.219608 0.117647
v 1.709719645 0.050548704 -4.457262691 0.494118 0.380392 0.101961
v 1.716126318 0.056138000 -4.512090193 0.513725 0.400000 0.172549
v 1.746113574 0.015366163 -4.334133508 0.486275 0.321569 0.180392
v 1.726957305 0.027218024 -4.363211667 0.482353 0.341176 0.152941
v 1.711675790 0.053148343 -4.490435702 0.545098 0.356863 0.164706
v 1.749278671 0.013005808 -4.335128541 0.392157 0.333333 0.341176
v 1.706583894 0.040731220 -4.412076786 0.458824 0.396078 0.121569
v 1.712388619 0.051306171 -4.501490034 0.560784 0.384314 0.164706
v 1.718253601 0.028025605 -4.378595442 0.458824 0.368627 0.125490
v 1.738112862 0.013362363 -4.343193553 0.505882 0.325490 0.184314
v 1.707292540 0.045646671 -4.473910595 0.529412 0.356863 0.141176
v 1.746020068 0.004592808 -4.320246129 0.474510 0.305882 0.180392
v 1.749053683 0.004391492 -4.327529647 0.278431 0.235294 0.266667
v 1.703822097 0.040548162 -4.446136764 0.498039 0.407843 0.125490
v 1.743748464 0.004924763 -4.330550527 0.486275 0.317647 0.180392
v 1.711576224 0.045727123 -4.513405259 0.529412 0.396078 0.180392
v 1.707532163 0.043985971 -4.496077129 0.552941 0.356863 0.168627
v 1.704458692 0.039168628 -4.457360689 0.498039 0.384314 0.113725
v 1.707214077 0.026647981 -4.408992066 0.364706 0.321569 0.298039
v 1.707548630 0.024306656 -4.399820611 0.443137 0.392157 0.109804
v 1.705355044 0.036225698 -4.473320143 0.482353 0.411765 0.474510
v 1.722174074 0.011005340 -4.360437348 0.498039 0.333333 0.164706
v 1.727436069 0.005522017 -4.351205634 0.498039 0.325490 0.164706
v 1.708842913 0.019430116 -4.391358476 0.466667 0.372549 0.113725
v 1.700892117 0.026166168 -4.422276208 0.439216 0.392157 0.070588
v 1.732542480 -0.000171238 -4.342824916 0.474510 0.313725 0.176471
v 1.707820594 0.037118573 -4.518448563 0.490196 0.388235 0.227451
v 1.713732796 0.009171496 -4.373593479 0.482353 0.341176 0.137255
v 1.703014719 0.032859574 -4.503021081 0.552941 0.372549 0.164706
v 1.703177702 0.020091290 -4.420603270 0.423529 0.349020 0.317647
v 1.699374572 0.029828737 -4.479287818 0.517647 0.337255 0.133333
v 1.708088186 0.009180550 -4.382721053 0.470588 0.356863 0.121569
v 1.715384297 0.002752964 -4.365931572 0.486275 0.329412 0.145098
v 1.696365710 0.022445213 -4.443208620 0.474510 0.396078 0.109804
v 1.720148481 -0.002106665 -4.355350435 0.490196 0.325490 0.156863
v 1.703174287 0.008206380 -4.391345513 0.478431 0.372549 0.125490
v 1.701013154 0.011036756 -4.409599051 0.403922 0.329412 0.317647
v 1.696275817 0.023181687 -4.491666153 0.525490 0.349020 0.137255
v 1.695272854 0.021622507 -4.481938580 0.560784 0.411765 0.294118
v 1.694029122 0.014534662 -4.433500474 0.478431 0.392157 0.101961
v 1.700386963 0.024194111 -4.516038543 0.525490 0.380392 0.168627
v 1.738037499 -0.021634327 -4.323628283 0.462745 0.305882 0.160784
v 1.698848120 0.020193629 -4.526924528 0.505882 0.407843 0.196078
v 1.710137840 -0.010038672 -4.363925516 0.490196 0.341176 0.152941
v 1.690993734 0.014351116 -4.475788743 0.498039 0.341176 0.113725
v 1.693210358 0.003605654 -4.419225622 0.470588 0.345098 0.325490
v 1.689525641 0.004807910 -4.434125227 0.482353 0.388235 0.105882
v 1.714360369 -0.018472176 -4.352685293 0.494118 0.349020 0.172549
v 1.698266570 -0.007255947 -4.386430584 0.478431 0.372549 0.117647
v 1.688857707 0.005496462 -4.443971772 0.482353 0.372549 0.101961
v 1.734531102 -0.034120671 -4.323310495 0.470588 0.317647 0.176471
v 1.687938931 -0.000580600 -4.425324456 0.443137 0.368627 0.074510
v 1.691815435 0.011061192 -4.514977708 0.564706 0.392157 0.164706
v 1.687500662 0.008558285 -4.491572753 0.533333 0.352941 0.160784
v 1.707685474 -0.020445609 -4.362426786 0.486275 0.345098 0.149020
v 1.703109782 -0.017766882 -4.370951956 0.486275 0.341176 0.141176
v 1.687018049 0.003555151 -4.474066466 0.509804 0.360784 0.121569
v 1.692711381 0.008879815 -4.534704496 0.435294 0.352941 0.141176
v 1.686018830 -0.000815847 -4.465043184 0.501961 0.360784 0.109804
v 1.724919914 -0.037884457 -4.332826542 0.474510 0.305882 0.184314
v 1.713565211 -0.031786833 -4.347742210 0.490196 0.325490 0.184314
v 1.738480532 -0.047532631 -4.317234525 0.223529 0.168627 0.129412
v 1.693431329 -0.017558087 -4.388368766 0.470588 0.360784 0.109804
v 1.682671864 -0.009311521 -4.439793375 0.474510 0.400000 0.094118
v 1.705075617 -0.031764363 -4.361076261 0.482353 0.349020 0.145098
v 1.686420150 -0.017564155 -4.403129072 0.458824 0.384314 0.113725
v 1.697608659 -0.026677641 -4.377819513 0.415686 0.313725 0.168627
v 1.727681080 -0.049107346 -4.325785978 0.486275 0.325490 0.192157
v 1.682687533 -0.010452933 -4.454361297 0.447059 0.407843 0.431373
v 1.680870862 -0.015589064 -4.421990349 0.427451 0.352941 0.078431
v 1.684645887 -0.002772952 -4.516726324 0.572549 0.403922 0.188235
v 1.718543491 -0.046296353 -4.336325273 0.482353 0.309804 0.184314
v 1.681969939 -0.016232141 -4.431490637 0.439216 0.329412 0.294118
v 1.711578440 -0.042805727 -4.346178862 0.482353 0.317647 0.172549
v 1.679832254 -0.007192165 -4.491780316 0.517647 0.337255 0.133333
v 1.679114417 -0.017023475 -4.446105277 0.450980 0.372549 0.149020
v 1.679560659 -0.012439796 -4.478867322 0.521569 0.356863 0.141176
v 1.686790665 -0.007927026 -4.528747747 0.392157 0.258824 0.254902
v 1.692021706 -0.034255509 -4.383129195 0.470588 0.360784 0.113725
v 1.719934225 -0.054289096 -4.330891461 0.474510 0.309804 0.184314
v 1.676284623 -0.015610885 -4.487554890 0.501961 0.333333 0.133333
v 1.706196378 -0.050895956 -4.349948240 0.505882 0.337255 0.180392
v 1.700171417 -0.045987228 -4.369128875 0.380392 0.294118 0.329412
v 1.675326296 -0.021835968 -4.462190395 0.505882 0.376471 0.137255
v 1.721817218 -0.065444807 -4.324506219 0.450980 0.309804 0.180392
v 1.674506732 -0.030059077 -4.430923083 0.427451 0.388235 0.078431
v 1.682218537 -0.016702483 -4.546150403 0.301961 0.250980 0.082353
v 1.686572121 -0.042753246 -4.388796851 0.470588 0.372549 0.117647
v 1.700431976 -0.053487773 -4.358020624 0.498039 0.356863 0.160784
v 1.676383763 -0.020403099 -4.519583561 0.552941 0.360784 0.152941
v 1.692244653 -0.049260197 -4.378592462 0.411765 0.321569 0.341176
v 1.672291075 -0.024127194 -4.493236437 0.505882 0.333333 0.121569
v 1.680179190 -0.042457214 -4.399829745 0.466667 0.364706 0.109804
v 1.696136668 -0.054651542 -4.372309521 0.305882 0.243137 0.219608
v 1.669710042 -0.031242385 -4.456762030 0.494118 0.364706 0.105882
v 1.704465346 -0.064120924 -4.343535500 0.517647 0.376471 0.203922
v 1.674830608 -0.039808465 -4.424242720 0.435294 0.301961 0.294118
v 1.670405305 -0.035887821 -4.443218581 0.458824 0.372549 0.101961
v 1.675327925 -0.027785587 -4.518339737 0.415686 0.278431 0.298039
v 1.669867009 -0.029896581 -4.505286753 0.529412 0.349020 0.149020
v 1.697363694 -0.064256101 -4.358590495 0.368627 0.294118 0.286275
v 1.676568264 -0.028636257 -4.539115435 0.564706 0.447059 0.156863
v 1.679911482 -0.052893549 -4.392730880 0.478431 0.360784 0.125490
v 1.668262894 -0.033766624 -4.494502215 0.505882 0.364706 0.243137
v 1.666974100 -0.037324572 -4.468536116 0.478431 0.352941 0.098039
v 1.712843782 -0.079125980 -4.328254265 0.486275 0.321569 0.188235
v 1.675559791 -0.052841512 -4.401827948 0.470588 0.372549 0.113725
v 1.686766344 -0.061634541 -4.375882129 0.490196 0.372549 0.137255
v 1.684290202 -0.058905329 -4.387091340 0.321569 0.254902 0.254902
v 1.666046745 -0.046911961 -4.432320193 0.454902 0.372549 0.090196
v 1.667661951 -0.035480360 -4.516502336 0.552941 0.368627 0.160784
v 1.670068892 -0.036461808 -4.526741015 0.549020 0.360784 0.164706
v 1.674830002 -0.038403233 -4.542284555 0.384314 0.243137 0.219608
v 1.664401068 -0.040658851 -4.504946271 0.529412 0.356863 0.180392
v 1.663406412 -0.044061002 -4.495029887 0.513725 0.396078 0.349020
v 1.662543961 -0.051998067 -4.443885559 0.470588 0.380392 0.109804
v 1.682311602 -0.072515770 -4.374221077 0.482353 0.356863 0.137255
v 1.703770350 -0.087908585 -4.337342921 0.337255 0.223529 0.188235
v 1.686004900 -0.077022500 -4.369418291 0.376471 0.309804 0.270588
v 1.661394284 -0.049285366 -4.484005325 0.501961 0.349020 0.125490
v 1.663458185 -0.046024668 -4.523531394 0.568627 0.376471 0.176471
v 1.673506203 -0.074644379 -4.387789758 0.470588 0.349020 0.117647
v 1.659294765 -0.058422619 -4.456604634 0.470588 0.352941 0.109804
v 1.658219507 -0.050550476 -4.508498040 0.525490 0.360784 0.117647
v 1.657722530 -0.065924296 -4.419702530 0.513725 0.407843 0.219608
v 1.686814990 -0.088786982 -4.353923298 0.490196 0.352941 0.168627
v 1.662861147 -0.052928115 -4.535887649 0.552941 0.380392 0.160784
v 1.699498496 -0.101669568 -4.335028375 0.356863 0.258824 0.239216
v 1.666209687 -0.057091198 -4.536869783 0.403922 0.254902 0.243137
v 1.690435021 -0.096990431 -4.344627087 0.474510 0.325490 0.164706
v 1.704865412 -0.106432348 -4.324673391 0.396078 0.301961 0.227451
v 1.653663925 -0.070199656 -4.428176370 0.431373 0.337255 0.121569
v 1.675042218 -0.088044622 -4.374475417 0.470588 0.333333 0.129412
v 1.653365892 -0.059276764 -4.512219908 0.537255 0.356863 0.145098
v 1.658562558 -0.058950229 -4.529351099 0.552941 0.364706 0.156863
v 1.654150317 -0.073852557 -4.433805826 0.490196 0.290196 0.301961
v 1.668713439 -0.087773193 -4.387632773 0.427451 0.317647 0.156863
v 1.651781481 -0.069747345 -4.470013348 0.478431 0.349020 0.117647
v 1.702303249 -0.116528581 -4.323655433 0.250980 0.200000 0.152941
v 1.651479117 -0.067793603 -4.517901121 0.541176 0.360784 0.172549
v 1.648082502 -0.074595023 -4.480502728 0.486275 0.329412 0.105882
v 1.660570291 -0.092801583 -4.398251121 0.466667 0.360784 0.121569
v 1.652779701 -0.087426560 -4.412477701 0.431373 0.376471 0.109804
v 1.649077561 -0.077950429 -4.465634877 0.462745 0.337255 0.082353
v 1.694905367 -0.118599374 -4.328343972 0.447059 0.290196 0.172549
v 1.676170263 -0.107342814 -4.358048692 0.498039 0.321569 0.156863
v 1.671801629 -0.103771280 -4.369248148 0.470588 0.313725 0.141176
v 1.647759794 -0.072363266 -4.509924893 0.521569 0.341176 0.137255
v 1.646951447 -0.081726079 -4.453877290 0.454902 0.372549 0.105882
v 1.650943078 -0.068666041 -4.550842323 0.172549 0.168627 0.145098
v 1.651039895 -0.074217761 -4.534836917 0.545098 0.368627 0.156863
v 1.683616971 -0.118042770 -4.341298929 0.478431 0.313725 0.176471
v 1.644969076 -0.077125855 -4.501178828 0.486275 0.321569 0.160784
v 1.645441100 -0.083091679 -4.474927617 0.490196 0.345098 0.098039
v 1.642622136 -0.090383839 -4.436471521 0.407843 0.345098 0.082353
v 1.644724686 -0.087734938 -4.461382623 0.466667 0.352941 0.090196
v 1.653103671 -0.099659990 -4.407967465 0.443137 0.356863 0.109804
v 1.664154324 -0.109259421 -4.378787798 0.458824 0.317647 0.129412
v 1.658520855 -0.104769042 -4.397564061 0.466667 0.345098 0.286275
v 1.645396020 -0.098098989 -4.420300690 0.450980 0.388235 0.145098
v 1.644652317 -0.086898776 -4.509270167 0.458824 0.356863 0.380392
v 1.642199208 -0.091357434 -4.479728336 0.470588 0.325490 0.086275
v 1.644881092 -0.082770510 -4.551490435 0.235294 0.203922 0.101961
v 1.651004233 -0.109500274 -4.407969795 0.384314 0.305882 0.309804
v 1.682671448 -0.135352575 -4.331778333 0.454902 0.309804 0.172549
v 1.644465652 -0.090013197 -4.531063462 0.533333 0.349020 0.156863
v 1.642689793 -0.088465974 -4.544312521 0.364706 0.278431 0.156863
v 1.639168787 -0.107105910 -4.425628443 0.462745 0.360784 0.176471
v 1.663493563 -0.125869022 -4.372283952 0.478431 0.309804 0.152941
v 1.638664021 -0.095670334 -4.500673055 0.403922 0.258824 0.262745
v 1.684250986 -0.142772887 -4.329656010 0.113725 0.098039 0.066667
v 1.635916560 -0.102614909 -4.457255319 0.443137 0.364706 0.082353
v 1.667018329 -0.133332937 -4.357340811 0.470588 0.317647 0.160784
v 1.671523548 -0.138901662 -4.343748945 0.474510 0.313725 0.160784
v 1.637452124 -0.104503766 -4.478178785 0.474510 0.321569 0.074510
v 1.648766205 -0.121336628 -4.403269577 0.435294 0.337255 0.121569
v 1.651287716 -0.122044171 -4.407602438 0.470588 0.345098 0.129412
v 1.638503495 -0.096475962 -4.540998948 0.282353 0.235294 0.160784
v 1.631980965 -0.109585638 -4.444364327 0.411765 0.364706 0.066667
v 1.639426382 -0.116994068 -4.427681625 0.349020 0.298039 0.270588
v 1.631561492 -0.113640772 -4.458302154 0.427451 0.345098 0.070588
v 1.654410049 -0.134320383 -4.389160693 0.454902 0.321569 0.125490
v 1.670598197 -0.150327989 -4.338961769 0.439216 0.301961 0.152941
v 1.665358763 -0.146854909 -4.349733866 0.450980 0.298039 0.137255
v 1.645300844 -0.129517300 -4.408010200 0.419608 0.349020 0.105882
v 1.654401929 -0.142642861 -4.386476725 0.447059 0.309804 0.125490
v 1.633204813 -0.112057569 -4.533357677 0.164706 0.141176 0.090196
v 1.645962054 -0.138530249 -4.405317340 0.439216 0.341176 0.098039
v 1.639759013 -0.134196447 -4.416974677 0.388235 0.345098 0.113725
v 1.630325541 -0.121597790 -4.480450752 0.450980 0.294118 0.286275
v 1.633194144 -0.121244875 -4.517643329 0.513725 0.356863 0.117647
v 1.661517280 -0.160078937 -4.350346459 0.329412 0.231373 0.101961
v 1.642846756 -0.146305357 -4.410472828 0.431373 0.321569 0.113725
v 1.637777159 -0.142839629 -4.420139325 0.427451 0.352941 0.105882
v 1.651255638 -0.156181120 -4.372649467 0.662745 0.682353 0.827451
v 1.628152331 -0.125355996 -4.524187074 0.149020 0.125490 0.086275
v 1.656032360 -0.163645123 -4.360923498 0.400000 0.301961 0.125490
v 1.625941909 -0.133747718 -4.512917197 0.211765 0.188235 0.117647
v 1.624955293 -0.137585355 -4.491569658 0.392157 0.290196 0.239216
v 1.649222378 -0.170215154 -4.378868879 0.250980 0.219608 0.188235
v 1.637683358 -0.162045254 -4.409063137 0.407843 0.352941 0.098039
vn -0.928585850 0.305584698 0.210585641
vn -0.967605719 0.214625517 0.132947584
vn -0.946859557 0.273292944 0.169611159
vn -0.977258813 0.181567371 0.109537672
vn -0.972364800 0.227080671 0.054231591
vn -0.975333467 0.188549928 0.114776101
vn -0.962871428 0.256651358 0.083717938
vn -0.965809526 0.181506292 0.185114628
vn -0.964252435 0.194673083 0.179776620
vn -0.948627350 0.277577810 0.151844358
vn -0.959492020 0.274814938 0.062062983
vn -0.948621018 0.280604493 0.146216563
vn -0.924573036 0.282245478 0.255933959
vn -0.974161221 0.225531037 0.012069235
vn -0.951066239 0.304018157 0.055190293
vn -0.897990095 0.203354113 0.390206221
vn -0.934731613 0.299539929 0.191187457
vn -0.945629239 0.312824897 -0.089027669
vn -0.942129438 0.248755962 0.224750069
vn -0.938519307 0.344933602 0.014223964
vn -0.902824498 0.409518041 -0.131159828
vn -0.929622446 0.283366873 0.235595679
vn -0.906778172 0.231799685 0.352167933
vn -0.939793132 0.311451264 0.140666196
vn -0.901662690 0.292225954 0.318760701
vn -0.909236878 0.415826515 -0.019406410
vn -0.865306467 0.146370584 0.479395838
vn -0.930073085 0.366099914 -0.030576306
vn -0.909701602 0.400715353 0.108950455
vn -0.912845039 0.341202391 0.224265162
vn -0.886950139 0.218847368 0.406725067
vn -0.851428285 0.524096590 -0.019815153
vn -0.874051328 0.194262967 0.445304587
vn -0.879246191 0.466377956 0.097045033
vn -0.826218632 0.551463673 0.115111207
vn -0.891338223 0.447640331 0.071654069
vn -0.902838329 0.426598928 0.053817342
vn -0.911086968 0.196124061 0.362568463
vn -0.937724438 0.219290343 0.269415335
vn -0.876423238 0.254183304 0.408990410
vn -0.900401787 0.420806477 0.110446958
vn -0.954897999 0.177694851 0.237895674
vn -0.912311093 0.360874391 0.193541064
vn -0.941001520 0.203923958 0.270057697
vn -0.987841266 0.151508781 0.034852876
vn -0.971757099 -0.006216470 0.235901454
vn -0.901804077 0.426748255 0.068083288
vn -0.954330145 0.046809859 0.295064079
vn -0.827428363 0.326350416 0.457009529
vn -0.980658135 0.160471735 -0.112064466
vn -0.942605821 0.333475719 0.016976792
vn -0.881959229 0.174196705 0.437953680
vn -0.925647564 0.376161341 0.040978451
vn -0.980662938 0.191450375 0.040582703
vn -0.841364633 0.398656657 0.364936191
vn -0.816342267 0.048627760 0.575517718
vn -0.772802462 0.509420223 0.378506791
vn -0.891783706 0.422471508 0.161986565
vn -0.892874095 0.438048046 -0.104354016
vn -0.799037171 0.368353638 0.475242250
vn -0.927823872 0.370023638 -0.047173836
vn -0.731994183 0.539105421 0.416593160
vn -0.802096909 0.324436416 0.501379658
vn -0.704196156 0.430751664 0.564411886
vn -0.959572614 0.267851544 -0.086463572
vn -0.873821448 0.474728136 0.105210618
vn -0.935643748 0.343933037 -0.079251774
vn -0.918172477 0.380256446 -0.111195043
vn -0.734694186 0.518782082 0.437137969
vn -0.923317340 0.368301317 -0.108808227
vn -0.612234538 0.601302022 0.513424531
vn -0.810125881 0.522438715 0.265995952
vn -0.885754171 0.464123760 0.005355714
vn -0.549462130 0.623849235 0.555790878
vn -0.903758965 0.417223807 -0.095624415
vn -0.819046504 0.356097344 0.449841646
vn -0.943799238 0.327018022 -0.047981372
vn -0.902753723 0.401588611 0.154150265
vn -0.785652000 0.439037447 0.435886517
vn -0.766016122 0.449794492 0.459243090
vn -0.724039374 0.479894490 0.495447538
vn -0.895843230 0.430229464 -0.111209335
vn -0.875129108 0.469460798 -0.117284287
vn -0.899809464 0.436224425 -0.007153934
vn -0.849949852 0.374428073 0.370660043
vn -0.831813839 0.307171037 0.462311249
vn -0.780756280 0.305815557 0.544882075
vn -0.832532876 0.267834167 0.484926663
vn -0.878735543 0.464690678 -0.109024858
vn -0.844820707 0.357912369 0.397714356
vn -0.926518282 0.376216109 0.005031131
vn -0.913051565 0.402683684 -0.064673725
vn -0.851396267 0.355822191 0.385376393
vn -0.896559174 0.417566954 -0.147714207
vn -0.905969173 0.314149909 0.283777540
vn -0.951618197 0.299616613 0.068210652
vn -0.878534767 0.464064957 -0.113227115
vn -0.820842885 0.226717785 0.524228961
vn -0.884233668 0.464452043 -0.049143884
vn -0.846463320 0.373349005 0.379618715
vn -0.822479911 0.352346769 0.446518254
vn -0.917057601 0.376263673 0.132026528
vn -0.858189186 0.513331102 0.001581651
vn -0.906836066 0.420858287 -0.022948904
vn -0.883290879 0.170646383 0.436665817
vn -0.798618607 0.202590908 0.566714430
vn -0.871680188 0.483944199 -0.077276525
vn -0.856750865 0.346632284 0.381869107
vn -0.968342343 0.219885116 -0.118167858
vn -0.854246824 0.518561066 -0.036834546
vn -0.857781145 0.292772963 0.422487278
vn -0.828222197 0.245022744 0.503995880
vn -0.888887229 0.455410150 -0.049810536
vn -0.768581394 0.228180648 0.597675692
vn -0.853666425 0.461059799 0.242234384
vn -0.869211150 0.488436122 0.076825334
vn -0.883019215 0.466326123 -0.053075538
vn -0.769634190 0.233710831 0.594173763
vn -0.803264405 0.284568008 0.523246925
vn -0.863897661 0.316030114 0.392180822
vn -0.869314599 0.492508381 -0.041564679
vn -0.816167957 0.340337162 0.466948051
vn -0.735995043 0.433809074 0.519731646
vn -0.869775624 0.492244788 -0.034430099
vn -0.879740736 0.474832071 -0.024305164
vn -0.869261236 0.493954802 0.019838247
vn -0.824759388 0.369823871 0.427787631
vn -0.755102061 0.349782251 0.554502710
vn -0.877853014 0.476624222 -0.046940773
vn -0.734815492 0.362777232 0.573095867
vn -0.751653875 0.348333967 0.560071335
vn -0.876307590 0.458466071 0.147965774
vn -0.961841779 0.272951031 -0.018924247
vn -0.834825171 0.300148053 0.461495482
vn -0.754535200 0.458110356 0.469905877
vn -0.897924521 0.251578739 0.361164356
vn -0.926691908 0.374661837 0.029506194
vn -0.847452951 0.329831384 0.415974464
vn -0.951042695 0.300187267 -0.073521404
vn -0.898412286 0.436737657 -0.045995461
vn -0.897786997 0.422638190 -0.123917186
vn -0.780289488 0.202473572 0.591737077
vn -0.772473817 0.338981419 0.537006332
vn -0.884134737 0.463683521 -0.057474847
vn -0.765109242 0.241737852 0.596800351
vn -0.944998010 0.261913493 0.195908356
vn -0.889674067 0.444614774 -0.103912256
vn -0.824273599 0.346055308 0.448128059
vn -0.725170918 0.298296529 0.620601579
vn -0.920246031 0.390506837 -0.025527476
vn -0.923813368 0.382061831 0.024446246
vn -0.871878075 0.482804822 0.082025154
vn -0.923637595 0.382580723 0.022925586
vn -0.756525586 0.411238269 0.508480210
vn -0.880047437 0.450841975 -0.149191228
vn -0.895988028 0.440492425 -0.056319426
vn -0.895347695 0.442985786 -0.046001076
vn -0.948660376 0.169811607 0.266847350
vn -0.906392255 0.305248441 0.292021350
vn -0.887454280 0.460811078 -0.008834703
vn -0.759012645 0.330598976 0.560895821
vn -0.707158466 0.329660607 0.625500430
vn -0.847331241 0.372833925 0.378185976
vn -0.943275585 0.279206047 0.179652871
vn -0.721218266 0.340635272 0.603168156
vn -0.871538491 0.476424441 -0.115932782
vn -0.811042903 0.330909866 0.482398248
vn -0.878565226 0.462952079 -0.117467089
vn -0.879268404 0.338784731 0.334831272
vn -0.862993962 0.504785068 0.020819621
vn -0.812969715 0.370179238 0.449497024
vn -0.790484582 0.372804239 0.485953830
vn -0.907309016 0.416737040 0.055862231
vn -0.733563836 0.350106079 0.582503074
vn -0.890284790 0.371030616 0.264063014
vn -0.872088353 0.433380370 0.227251755
vn -0.857054986 0.507325160 -0.089877323
vn -0.869453495 0.493798652 -0.014612012
vn -0.886784258 0.387793255 0.251455905
vn -0.857079059 0.503220557 -0.110383684
vn -0.757312156 0.296528493 0.581849768
vn -0.850726422 0.519463790 -0.080136920
vn -0.792324676 0.349330936 0.500189469
vn -0.897525046 0.440454529 0.021180166
vn -0.819467349 0.490026516 0.297232699
vn -0.888577327 0.434292683 0.147716616
vn -0.737722544 0.305924110 0.601810507
vn -0.836666072 0.392159302 0.382362348
vn -0.924990961 0.377591520 0.042618838
vn -0.675266845 0.198768338 0.710285743
vn -0.897559568 0.420714366 0.131856906
vn -0.856700731 0.505419198 -0.103030534
vn -0.885158762 0.463658898 -0.038915194
vn -0.818147048 0.258025290 0.513866090
vn -0.841386569 0.251546984 0.478322859
vn -0.913703113 0.393858627 0.100109952
vn -0.913442536 0.398847268 -0.080892457
vn -0.918104621 0.392523829 0.054853879
vn -0.724678592 0.247974771 0.642922585
vn -0.762202207 0.252631343 0.596007719
vn -0.616478928 0.216156415 0.757119631
vn -0.855730097 0.244696364 0.455905352
vn -0.925824055 0.371720017 0.068367014
vn -0.863186693 0.211286942 0.458548319
vn -0.877168844 0.348089431 0.330769658
vn -0.858288071 0.153434777 0.489693125
vn -0.664199563 0.250076205 0.704486218
vn -0.906407053 0.421006195 0.034351676
vn -0.904954318 0.358808203 0.228723319
vn -0.892733823 0.426172046 -0.146300061
vn -0.727309828 0.260830054 0.634813435
vn -0.914931034 0.400414257 0.050691482
vn -0.787586763 0.238096063 0.568346158
vn -0.904577776 0.425783728 -0.021148626
vn -0.883554109 0.456568159 0.104295986
vn -0.890328690 0.447002679 0.086622329
vn -0.900346626 0.413559846 -0.135440787
vn -0.834337668 0.202254111 0.512809839
vn -0.708947823 0.311127288 0.632924004
vn -0.890327320 0.446952592 0.086894442
vn -0.775025616 0.299452181 0.556474335
vn -0.881022093 0.173808180 0.439989531
vn -0.875431158 0.481357647 0.043761893
vn -0.678397777 0.275368416 0.681137791
vn -0.896883771 0.405606125 0.176304205
vn -0.927293502 0.374288767 -0.005888987
vn -0.820057600 0.237454081 0.520692895
vn -0.897127682 0.267111213 0.351871458
vn -0.895102979 0.418464994 -0.153875618
vn -0.794973449 0.245612452 0.554699683
vn -0.908124957 0.417746280 -0.028233105
vn -0.896558241 0.297080036 0.328522103
vn -0.797477150 0.396400863 0.454858826
vn -0.895744635 0.434781978 0.092769507
vn -0.758735331 0.286919231 0.584805995
vn -0.871390749 0.375696028 0.315484797
vn -0.891325743 0.433191518 0.133729309
vn -0.874553835 0.454734221 -0.168441018
vn -0.885504940 0.454146898 -0.098140693
vn -0.824524011 0.384816933 0.414820543
vn -0.896469056 0.417730037 -0.147800031
vn -0.764514617 0.316266171 0.561687733
vn -0.911979588 0.409829095 0.018257723
vn -0.912123856 0.408041881 0.039139418
vn -0.762096928 0.255332504 0.594990407
vn -0.807844007 0.435144755 0.397538805
vn -0.759662800 0.413427396 0.501986273
vn -0.774327259 0.366759660 0.515659430
vn -0.856024245 0.477083268 0.199032780
vn -0.832852396 0.532739721 -0.150150846
vn -0.840140131 0.491408191 -0.229526797
vn -0.840185270 0.501898606 -0.205393529
vn -0.880197078 0.473956308 -0.024870110
vn -0.879914100 0.470326952 0.067407233
vn -0.919822664 0.389760323 0.044868226
vn -0.766600073 0.408886843 0.495111985
vn -0.726597422 0.269859272 0.631848209
vn -0.771100878 0.396896680 0.497871932
vn -0.891851624 0.446998870 0.069229268
vn -0.847815574 0.488812146 -0.205600192
vn -0.791027717 0.359134853 0.495274983
vn -0.903189876 0.422771043 0.074247513
vn -0.859528672 0.511086768 -0.000881885
vn -0.802035122 0.441093621 0.402710915
vn -0.776363096 0.368434622 0.511386617
vn -0.885956924 0.459735513 -0.061021203
vn -0.671264154 0.363793409 0.645800892
vn -0.869026717 0.486877198 0.087995221
vn -0.693295082 0.339929595 0.635444568
vn -0.754431296 0.330543205 0.567075488
vn -0.933342118 0.352805407 0.066338798
vn -0.798217564 0.370959819 0.474591964
vn -0.889059707 0.457473133 -0.017063680
vn -0.849426823 0.427419511 -0.309494158
vn -0.893157038 0.439543959 0.095245013
vn -0.849000349 0.312377734 0.426167290
vn -0.885617094 0.451152385 0.110199308
vn -0.531188278 0.192986950 0.824981849
vn -0.899885647 0.399123614 -0.175801487
vn -0.895988181 0.434651444 0.091012641
vn -0.819356729 0.227442870 0.526235965
vn -0.853402811 0.327210975 0.405754384
vn -0.903858745 0.421028532 0.075989109
vn -0.669554097 0.373251464 0.642168713
vn -0.815373966 0.315265752 0.485564415
vn -0.832127167 0.316053132 0.455713501
vn -0.946146897 0.298518216 -0.125271402
vn -0.874982869 0.480942484 0.055671415
vn -0.831483846 0.517603580 0.201794814
vn -0.868632243 0.495451267 -0.002463173
vn -0.737083075 0.355626991 0.574663366
vn -0.933089352 0.359461954 0.011461472
vn -0.922682739 0.373724813 0.094796239
vn -0.868685668 0.469432136 0.158172944
vn -0.900339490 0.435005139 -0.012622719
vn -0.830975709 0.174483528 0.528237513
vn -0.882433606 0.263788147 0.389521174
vn -0.863362716 0.254832389 0.435505768
vn -0.847207771 0.283989660 0.448986488
vn -0.940058390 0.318611293 -0.121560960
vn -0.938432526 0.335216782 0.083511100
vn -0.897394419 0.424042389 0.121947974
vn -0.860418226 0.158566058 0.484290493
vn -0.669894727 0.278564766 0.688217063
vn -0.910034221 0.413907452 -0.022767034
vn -0.878746037 0.455198621 0.143525668
vn -0.887275351 0.153048403 0.435107616
vn -0.886952128 0.289183743 0.360123153
vn -0.943606001 0.330799355 -0.013397851
vn -0.622296286 0.197390197 0.757485605
vn -0.885005310 0.462121728 -0.056649013
vn -0.840182379 0.336277378 0.425453988
vn -0.771272454 0.332159193 0.542963233
vn -0.919954518 0.391943834 -0.007982265
vn -0.875299896 0.257612441 0.409250439
vn -0.888010583 0.146157166 0.435976246
vn -0.862799970 0.457580538 0.214933159
vn -0.920131120 0.297158630 0.255059738
vn -0.880175695 0.157218885 0.447853736
vn -0.919073219 0.383248810 -0.091786535
vn -0.885391932 0.187435939 0.425380883
vn -0.766796747 0.286798171 0.574255656
vn -0.860944574 0.266330203 0.433408196
vn -0.861401510 0.255406462 0.439038698
vn -0.913115220 0.260339811 0.313757516
vn -0.928898735 0.366421248 0.053689944
vn -0.889201572 0.083281055 0.449872016
vn -0.901322376 0.128481673 0.413654971
vn -0.944251713 0.326238058 -0.044242880
vn -0.947759132 0.318802977 0.010830061
vn -0.869530859 0.232405102 0.435779708
vn -0.874464553 0.212390200 0.436121714
vn -0.874837899 0.187787601 0.446536077
vn -0.916202114 0.268509578 0.297449646
vn -0.798632860 0.532203720 0.280971095
vn -0.900554770 0.124998766 0.416384936
vn -0.839289589 0.530985880 0.116820290
vn -0.911295014 0.410613890 -0.030620765
vn -0.926099163 0.210272485 0.313250414
vn -0.862798161 0.292861356 0.412081982
f 141//141 155//155 147//147
f 271//271 275//275 282//282
f 2//2 3//3 1//1
f 73//73 65//65 72//72
f 109//109 133//133 139//139
f 109//109 120//120 133//133
f 290//290 289//289 302//302
f 294//294 299//299 282//282
f 275//275 294//294 282//282
f 117//117 141//141 147//147
f 155//155 156//156 147//147
f 110//110 99//99 103//103
f 99//99 84//84 103//103
f 84//84 99//99 89//89
f 217//217 197//197 226//226
f 111//111 105//105 119//119
f 130//130 111//111 119//119
f 111//111 130//130 120//120
f 111//111 109//109 105//105
f 109//109 111//111 120//120
f 50//50 54//54 65//65
f 264//264 271//271 282//282
f 264//264 249//249 271//271
f 123//123 130//130 119//119
f 123//123 143//143 130//130
f 149//149 143//143 161//161
f 143//143 149//149 130//130
f 154//154 149//149 165//165
f 334//334 339//339 336//336
f 184//184 196//196 198//198
f 254//254 259//259 243//243
f 263//263 259//259 254//254
f 196//196 216//216 198//198
f 216//216 196//196 214//214
f 249//249 255//255 271//271
f 275//275 255//255 262//262
f 255//255 275//275 271//271
f 237//237 249//249 225//225
f 255//255 237//237 234//234
f 237//237 255//255 249//249
f 249//249 236//236 225//225
f 205//205 236//236 232//232
f 236//236 246//246 232//232
f 236//236 264//264 246//246
f 264//264 236//236 249//249
f 317//317 306//306 302//302
f 306//306 317//317 305//305
f 306//306 290//290 302//302
f 290//290 306//306 305//305
f 326//326 309//309 305//305
f 317//317 326//326 305//305
f 300//300 309//309 292//292
f 309//309 300//300 305//305
f 319//319 318//318 333//333
f 307//307 303//303 299//299
f 294//294 307//307 299//299
f 318//318 307//307 294//294
f 307//307 318//318 319//319
f 97//97 94//94 89//89
f 99//99 97//97 89//89
f 97//97 99//99 110//110
f 94//94 83//83 89//89
f 82//82 84//84 89//89
f 83//83 82//82 89//89
f 82//82 83//83 70//70
f 166//166 182//182 180//180
f 156//156 168//168 170//170
f 168//168 166//166 180//180
f 168//168 156//156 155//155
f 166//166 168//168 155//155
f 150//150 157//157 140//140
f 121//121 116//116 113//113
f 210//210 229//229 214//214
f 229//229 210//210 217//217
f 217//217 210//210 197//197
f 253//253 254//254 243//243
f 253//253 263//263 254//254
f 273//273 259//259 263//263
f 65//65 62//62 72//72
f 54//54 62//62 65//65
f 297//297 298//298 321//321
f 308//308 297//297 321//321
f 308//308 334//334 312//312
f 285//285 308//308 312//312
f 298//298 315//315 321//321
f 315//315 298//298 303//303
f 143//143 135//135 148//148
f 135//135 143//143 123//123
f 174//174 162//162 161//161
f 162//162 174//174 165//165
f 162//162 149//149 161//161
f 149//149 162//162 165//165
f 172//172 174//174 161//161
f 133//133 151//151 139//139
f 181//181 154//154 165//165
f 181//181 151//151 154//154
f 149//149 142//142 130//130
f 120//120 142//142 133//133
f 130//130 142//142 120//120
f 313//313 322//322 310//310
f 323//323 334//334 336//336
f 334//334 323//323 312//312
f 323//323 313//313 312//312
f 313//313 323//323 322//322
f 332//332 333//333 340//340
f 235//235 240//240 265//265
f 257//257 235//235 265//265
f 211//211 200//200 213//213
f 200//200 211//211 199//199
f 227//227 205//205 232//232
f 276//276 298//298 297//297
f 182//182 192//192 180//180
f 192//192 182//182 197//197
f 210//210 192//192 197//197
f 196//196 193//193 214//214
f 184//184 193//193 196//196
f 193//193 210//210 214//214
f 193//193 192//192 210//210
f 179//179 186//186 185//185
f 209//209 205//205 185//185
f 236//236 209//209 225//225
f 209//209 236//236 205//205
f 146//146 164//164 158//158
f 164//164 169//169 158//158
f 169//169 179//179 185//185
f 169//169 164//164 179//179
f 229//229 231//231 214//214
f 202//202 206//206 195//195
f 188//188 202//202 195//195
f 188//188 172//172 171//171
f 202//202 188//188 205//205
f 330//330 326//326 335//335
f 326//326 330//330 309//309
f 330//330 329//329 309//309
f 300//300 287//287 305//305
f 287//287 300//300 292//292
f 273//273 287//287 292//292
f 330//330 338//338 329//329
f 309//309 301//301 292//292
f 280//280 273//273 292//292
f 273//273 280//280 259//259
f 301//301 280//280 292//292
f 280//280 301//301 293//293
f 288//288 294//294 275//275
f 288//288 275//275 262//262
f 107//107 97//97 110//110
f 107//107 121//121 113//113
f 121//121 107//107 110//110
f 66//66 75//75 78//78
f 83//83 75//75 70//70
f 84//84 77//77 67//67
f 82//82 77//77 84//84
f 77//77 70//70 67//67
f 77//77 82//82 70//70
f 105//105 98//98 119//119
f 88//88 98//98 105//105
f 98//98 88//88 87//87
f 88//88 80//80 87//87
f 80//80 73//73 72//72
f 80//80 88//88 73//73
f 156//156 144//144 147//147
f 150//150 144//144 156//156
f 160//160 157//157 150//150
f 160//160 156//156 170//170
f 160//160 150//150 156//156
f 184//184 160//160 170//170
f 157//157 160//160 184//184
f 164//164 173//173 179//179
f 173//173 157//157 184//184
f 146//146 137//137 164//164
f 90//90 93//93 85//85
f 92//92 83//83 94//94
f 239//239 253//253 243//243
f 231//231 239//239 243//243
f 239//239 231//231 229//229
f 266//266 252//252 289//289
f 253//253 260//260 263//263
f 260//260 273//273 263//263
f 260//260 252//252 266//266
f 274//274 260//260 266//266
f 260//260 274//274 273//273
f 16//16 13//13 17//17
f 16//16 9//9 13//13
f 80//80 81//81 87//87
f 93//93 81//81 85//85
f 81//81 93//93 87//87
f 95//95 79//79 78//78
f 45//45 54//54 50//50
f 45//45 48//48 54//54
f 45//45 40//40 48//48
f 298//298 296//296 303//303
f 299//299 296//296 282//282
f 303//303 296//296 299//299
f 325//325 308//308 321//321
f 308//308 325//325 334//334
f 327//327 325//325 321//321
f 332//332 325//325 327//327
f 334//334 325//325 339//339
f 339//339 325//325 340//340
f 325//325 332//332 340//340
f 257//257 267//267 270//270
f 328//328 319//319 333//333
f 332//332 328//328 333//333
f 328//328 332//332 327//327
f 167//167 172//172 161//161
f 172//172 167//167 171//171
f 171//171 167//167 148//148
f 143//143 167//167 161//161
f 167//167 143//143 148//148
f 172//172 183//183 174//174
f 183//183 188//188 195//195
f 188//188 183//183 172//172
f 200//200 204//204 213//213
f 206//206 204//204 195//195
f 204//204 206//206 222//222
f 152//152 151//151 133//133
f 151//151 152//152 154//154
f 181//181 190//190 201//201
f 190//190 181//181 199//199
f 145//145 149//149 154//154
f 145//145 142//142 149//149
f 152//152 145//145 154//154
f 142//142 145//145 133//133
f 145//145 152//152 133//133
f 284//284 278//278 270//270
f 267//267 284//284 270//270
f 331//331 323//323 336//336
f 323//323 331//331 322//322
f 264//264 261//261 246//246
f 261//261 264//264 282//282
f 261//261 256//256 248//248
f 228//228 240//240 235//235
f 228//228 204//204 222//222
f 228//228 222//222 233//233
f 240//240 228//228 233//233
f 222//222 230//230 233//233
f 230//230 227//227 248//248
f 242//242 227//227 232//232
f 227//227 242//242 248//248
f 246//246 242//242 232//232
f 261//261 242//242 246//246
f 242//242 261//261 248//248
f 272//272 261//261 276//276
f 272//272 256//256 261//261
f 178//178 184//184 170//170
f 178//178 193//193 184//184
f 192//192 177//177 180//180
f 193//193 177//177 192//192
f 177//177 168//168 180//180
f 178//178 177//177 193//193
f 168//168 177//177 170//170
f 177//177 178//178 170//170
f 191//191 186//186 203//203
f 186//186 191//191 185//185
f 191//191 209//209 185//185
f 208//208 215//215 203//203
f 215//215 237//237 225//225
f 237//237 215//215 234//234
f 132//132 116//116 126//126
f 116//116 132//132 115//115
f 137//137 132//132 126//126
f 132//132 137//137 146//146
f 128//128 135//135 123//123
f 220//220 216//216 214//214
f 231//231 220//220 214//214
f 244//244 231//231 243//243
f 220//220 244//244 216//216
f 244//244 220//220 231//231
f 259//259 244//244 243//243
f 244//244 259//259 262//262
f 255//255 244//244 262//262
f 244//244 255//255 234//234
f 175//175 188//188 171//171
f 279//279 290//290 305//305
f 287//287 279//279 305//305
f 279//279 274//274 290//290
f 279//279 287//287 273//273
f 274//274 279//279 273//273
f 337//337 330//330 335//335
f 337//337 338//338 330//330
f 329//329 314//314 309//309
f 314//314 301//301 309//309
f 314//314 329//329 320//320
f 311//311 318//318 294//294
f 318//318 311//311 320//320
f 311//311 314//314 320//320
f 259//259 277//277 262//262
f 280//280 277//277 259//259
f 104//104 92//92 94//94
f 92//92 104//104 96//96
f 97//97 104//104 94//94
f 107//107 104//104 97//97
f 104//104 107//107 113//113
f 116//116 104//104 113//113
f 124//124 117//117 147//147
f 144//144 124//124 147//147
f 124//124 110//110 103//103
f 117//117 124//124 103//103
f 189//189 186//186 179//179
f 173//173 189//189 179//179
f 208//208 189//189 198//198
f 189//189 184//184 198//198
f 189//189 173//173 184//184
f 186//186 189//189 203//203
f 189//189 208//208 203//203
f 173//173 153//153 157//157
f 157//157 153//153 140//140
f 153//153 137//137 140//140
f 153//153 173//173 164//164
f 137//137 153//153 164//164
f 137//137 129//129 140//140
f 129//129 137//137 126//126
f 116//116 129//129 126//126
f 129//129 116//116 121//121
f 102//102 116//116 115//115
f 95//95 102//102 100//100
f 102//102 104//104 116//116
f 104//104 102//102 96//96
f 102//102 108//108 100//100
f 108//108 102//102 115//115
f 98//98 106//106 119//119
f 106//106 98//98 87//87
f 101//101 93//93 90//90
f 101//101 90//90 100//100
f 108//108 101//101 100//100
f 93//93 101//101 87//87
f 101//101 106//106 87//87
f 91//91 92//92 96//96
f 102//102 91//91 96//96
f 91//91 102//102 95//95
f 91//91 95//95 78//78
f 75//75 91//91 78//78
f 91//91 75//75 83//83
f 92//92 91//91 83//83
f 252//252 241//241 226//226
f 241//241 217//217 226//226
f 241//241 229//229 217//217
f 239//239 250//250 253//253
f 250//250 260//260 253//253
f 290//290 268//268 289//289
f 274//274 268//268 290//290
f 268//268 266//266 289//289
f 268//268 274//274 266//266
f 20//20 15//15 18//18
f 22//22 20//20 24//24
f 15//15 14//14 18//18
f 9//9 10//10 13//13
f 13//13 10//10 17//17
f 12//12 8//8 7//7
f 12//12 10//10 8//8
f 12//12 15//15 17//17
f 10//10 12//12 17//17
f 6//6 9//9 4//4
f 3//3 6//6 4//4
f 6//6 10//10 9//9
f 10//10 6//6 8//8
f 8//8 6//6 7//7
f 2//2 6//6 3//3
f 6//6 2//2 5//5
f 7//7 6//6 5//5
f 59//59 68//68 66//66
f 75//75 68//68 70//70
f 68//68 75//75 66//66
f 70//70 61//61 67//67
f 61//61 51//51 67//67
f 68//68 61//61 70//70
f 61//61 68//68 59//59
f 58//58 59//59 66//66
f 47//47 58//58 55//55
f 58//58 47//47 59//59
f 23//23 25//25 27//27
f 22//22 25//25 23//23
f 25//25 22//22 24//24
f 62//62 74//74 72//72
f 81//81 74//74 62//62
f 74//74 80//80 72//72
f 74//74 81//81 80//80
f 86//86 90//90 85//85
f 86//86 79//79 95//95
f 90//90 86//86 100//100
f 86//86 95//95 100//100
f 71//71 81//81 62//62
f 79//79 69//69 78//78
f 69//69 66//66 78//78
f 48//48 52//52 54//54
f 60//60 57//57 63//63
f 58//58 57//57 55//55
f 57//57 58//58 66//66
f 69//69 57//57 66//66
f 57//57 69//69 63//63
f 276//276 281//281 298//298
f 281//281 296//296 298//298
f 296//296 281//281 282//282
f 281//281 261//261 282//282
f 261//261 281//281 276//276
f 285//285 269//269 265//265
f 269//269 257//257 265//265
f 269//269 267//267 257//257
f 324//324 328//328 327//327
f 324//324 327//327 321//321
f 315//315 324//324 321//321
f 328//328 324//324 319//319
f 183//183 187//187 174//174
f 174//174 187//187 165//165
f 187//187 204//204 200//200
f 187//187 181//181 165//165
f 187//187 200//200 199//199
f 181//181 187//187 199//199
f 304//304 313//313 310//310
f 278//278 304//304 310//310
f 284//284 304//304 278//278
f 247//247 240//240 233//233
f 256//256 247//247 248//248
f 230//230 247//247 233//233
f 247//247 230//230 248//248
f 240//240 258//258 265//265
f 258//258 272//272 265//265
f 272//272 258//258 256//256
f 247//247 258//258 240//240
f 258//258 247//247 256//256
f 221//221 228//228 235//235
f 221//221 211//211 213//213
f 204//204 221//221 213//213
f 228//228 221//221 204//204
f 257//257 245//245 235//235
f 245//245 224//224 235//235
f 245//245 257//257 270//270
f 207//207 224//224 201//201
f 211//211 207//207 199//199
f 190//190 207//207 201//201
f 207//207 190//190 199//199
f 224//224 219//219 235//235
f 219//219 221//221 235//235
f 221//221 219//219 211//211
f 219//219 207//207 211//211
f 207//207 219//219 224//224
f 206//206 218//218 222//222
f 218//218 230//230 222//222
f 230//230 218//218 227//227
f 218//218 206//206 202//202
f 218//218 202//202 205//205
f 227//227 218//218 205//205
f 286//286 276//276 297//297
f 286//286 272//272 276//276
f 308//308 286//286 297//297
f 285//285 286//286 308//308
f 286//286 285//285 265//265
f 272//272 286//286 265//265
f 212//212 191//191 203//203
f 191//191 212//212 209//209
f 209//209 212//212 225//225
f 212//212 215//215 225//225
f 215//215 212//212 203//203
f 138//138 134//134 159//159
f 135//135 138//138 148//148
f 134//134 136//136 159//159
f 159//159 136//136 158//158
f 136//136 146//146 158//158
f 136//136 132//132 146//146
f 118//118 128//128 123//123
f 223//223 244//244 234//234
f 244//244 223//223 216//216
f 215//215 223//223 234//234
f 223//223 215//215 208//208
f 216//216 223//223 198//198
f 223//223 208//208 198//198
f 163//163 175//175 171//171
f 175//175 163//163 159//159
f 163//163 171//171 148//148
f 138//138 163//163 148//148
f 163//163 138//138 159//159
f 176//176 175//175 159//159
f 176//176 159//159 158//158
f 169//169 176//176 158//158
f 176//176 169//169 185//185
f 175//175 176//176 188//188
f 205//205 176//176 185//185
f 188//188 176//176 205//205
f 288//288 295//295 294//294
f 295//295 311//311 294//294
f 301//301 295//295 293//293
f 314//314 295//295 301//301
f 311//311 295//295 314//314
f 125//125 144//144 150//150
f 125//125 124//124 144//144
f 125//125 150//150 140//140
f 129//129 125//125 140//140
f 125//125 129//129 121//121
f 125//125 121//121 110//110
f 124//124 125//125 110//110
f 241//241 238//238 229//229
f 238//238 239//239 229//229
f 238//238 250//250 239//239
f 251//251 241//241 252//252
f 260//260 251//251 252//252
f 250//250 251//251 260//260
f 251//251 238//238 241//241
f 238//238 251//251 250//250
f 15//15 19//19 17//17
f 20//20 19//19 15//15
f 19//19 20//20 22//22
f 19//19 22//22 23//23
f 19//19 16//16 17//17
f 16//16 19//19 23//23
f 11//11 14//14 15//15
f 12//12 11//11 15//15
f 11//11 12//12 7//7
f 11//11 7//7 5//5
f 53//53 47//47 51//51
f 47//47 53//53 59//59
f 61//61 53//53 51//51
f 53//53 61//61 59//59
f 64//64 71//71 62//62
f 64//64 60//60 63//63
f 69//69 64//64 63//63
f 71//71 64//64 79//79
f 64//64 69//69 79//79
f 81//81 76//76 85//85
f 71//71 76//76 81//81
f 76//76 71//71 79//79
f 76//76 86//86 85//85
f 86//86 76//76 79//79
f 43//43 47//47 55//55
f 43//43 37//37 47//47
f 45//45 33//33 40//40
f 56//56 62//62 54//54
f 52//52 56//56 54//54
f 56//56 52//52 60//60
f 56//56 64//64 62//62
f 64//64 56//56 60//60
f 40//40 46//46 48//48
f 46//46 52//52 48//48
f 291//291 284//284 267//267
f 269//269 291//291 267//267
f 291//291 269//269 285//285
f 291//291 304//304 284//284
f 304//304 291//291 313//313
f 291//291 285//285 312//312
f 313//313 291//291 312//312
f 324//324 316//316 319//319
f 316//316 324//324 315//315
f 316//316 315//315 303//303
f 307//307 316//316 303//303
f 316//316 307//307 319//319
f 194//194 183//183 195//195
f 194//194 187//187 183//183
f 204//204 194//194 195//195
f 187//187 194//194 204//204
f 138//138 131//131 134//134
f 118//118 131//131 128//128
f 128//128 131//131 135//135
f 131//131 138//138 135//135
f 132//132 127//127 115//115
f 136//136 127//127 132//132
f 127//127 136//136 134//134
f 122//122 108//108 115//115
f 127//127 122//122 115//115
f 122//122 127//127 134//134
f 131//131 122//122 134//134
f 122//122 131//131 118//118
f 114//114 118//118 123//123
f 114//114 123//123 119//119
f 106//106 114//114 119//119
f 283//283 295//295 288//288
f 283//283 288//288 262//262
f 277//277 283//283 262//262
f 295//295 283//283 293//293
f 283//283 280//280 293//293
f 283//283 277//277 280//280
f 21//21 20//20 18//18
f 47//47 41//41 51//51
f 37//37 41//41 47//47
f 37//37 36//36 35//35
f 43//43 36//36 37//37
f 36//36 43//43 39//39
f 34//34 36//36 39//39
f 25//25 31//31 27//27
f 31//31 33//33 27//27
f 42//42 46//46 40//40
f 112//112 114//114 106//106
f 114//114 112//112 118//118
f 101//101 112//112 106//106
f 112//112 122//122 118//118
f 112//112 101//101 108//108
f 122//122 112//112 108//108
f 32//32 26//26 35//35
f 36//36 32//32 35//35
f 32//32 36//36 34//34
f 33//33 38//38 40//40
f 38//38 42//42 40//40
f 31//31 38//38 33//33
f 49//49 57//57 60//60
f 57//57 49//49 55//55
f 49//49 43//43 55//55
f 43//43 49//49 39//39
f 42//42 44//44 46//46
f 52//52 44//44 60//60
f 46//46 44//44 52//52
f 44//44 49//49 60//60
f 49//49 44//44 39//39
f 44//44 38//38 39//39
f 38//38 44//44 42//42
f 28//28 32//32 34//34
f 29//29 28//28 34//34
f 32//32 28//28 26//26
f 28//28 21//21 26//26
f 21//21 28//28 20//20
f 20//20 28//28 24//24
f 28//28 29//29 24//24
f 30//30 38//38 31//31
f 29//29 30//30 24//24
f 30//30 29//29 34//34
f 30//30 25//25 24//24
f 30//30 31//31 25//25
f 30//30 34//34 39//39
f 38//38 30//30 39//39
