v 0.376108743 0.085485555 -4.468906445 0.215686 0.180392 0.172549
v 0.377896194 0.081065013 -4.468251816 0.152941 0.129412 0.129412
v 0.378749223 0.077411237 -4.469729784 0.247059 0.203922 0.184314
v 0.380372390 0.070845574 -4.471943276 0.411765 0.349020 0.313725
v 0.381213438 0.069517585 -4.471814624 0.360784 0.305882 0.274510
v 0.374061078 0.073850718 -4.498682378 0.180392 0.156863 0.137255
v 0.373746366 0.059689759 -4.513587554 0.180392 0.176471 0.145098
v 0.375831913 0.055358642 -4.517883115 0.419608 0.352941 0.270588
v 0.386691026 0.013567332 -4.479154587 0.188235 0.152941 0.094118
v 0.369888911 0.022297107 -4.522665528 0.415686 0.282353 0.207843
v 0.368623009 0.026466664 -4.533015444 0.411765 0.349020 0.278431
v 0.369945856 0.020108642 -4.518324469 0.400000 0.258824 0.192157
v 0.381139071 0.002052559 -4.482681823 0.341176 0.313725 0.254902
v 0.368583009 0.020237068 -4.533427483 0.345098 0.231373 0.211765
v 0.379560071 -0.003000871 -4.483381300 0.196078 0.192157 0.164706
v 0.368432957 0.017365280 -4.532669665 0.376471 0.258824 0.223529
v 0.367766956 0.012853024 -4.528482129 0.411765 0.223529 0.141176
v 0.367548086 0.012025118 -4.526411948 0.415686 0.231373 0.160784
v 0.367570032 0.010715674 -4.528440661 0.415686 0.235294 0.152941
v 0.375055045 -0.009646437 -4.485678926 0.172549 0.149020 0.109804
v 0.367249216 0.008603268 -4.530550344 0.411765 0.231373 0.145098
v 0.367186398 0.005713916 -4.525456896 0.431373 0.247059 0.160784
v 0.365671582 0.000501787 -4.523420321 0.458824 0.282353 0.207843
v 0.371949797 -0.016136514 -4.487087147 0.247059 0.231373 0.176471
v 0.365916388 0.001324471 -4.528397993 0.423529 0.247059 0.176471
v 0.369597751 -0.018423244 -4.488653965 0.317647 0.298039 0.243137
v 0.365257304 -0.002462972 -4.525661768 0.423529 0.250980 0.184314
v 0.366178297 -0.016143263 -4.494350235 0.266667 0.152941 0.121569
v 0.366190894 0.002574227 -4.541668567 0.403922 0.337255 0.247059
v 0.364883231 -0.016174655 -4.496560297 0.305882 0.168627 0.125490
v 0.364547680 -0.001015274 -4.536550461 0.419608 0.325490 0.227451
v 0.364229178 -0.012414966 -4.508757398 0.372549 0.211765 0.156863
v 0.365125566 -0.011723277 -4.515323092 0.400000 0.258824 0.211765
v 0.365362752 -0.021929032 -4.493605418 0.466667 0.454902 0.411765
v 0.363636091 -0.022599731 -4.496450561 0.435294 0.419608 0.380392
v 0.364542497 -0.024813051 -4.494311316 0.301961 0.301961 0.270588
v 0.363732800 -0.018265203 -4.510982516 0.235294 0.121569 0.094118
v 0.362678768 -0.019071126 -4.508889344 0.423529 0.384314 0.329412
v 0.363034329 -0.025526545 -4.496476512 0.309804 0.313725 0.294118
v 0.361467916 -0.021296482 -4.506037888 0.415686 0.388235 0.352941
v 0.361164261 -0.022686343 -4.503797185 0.356863 0.317647 0.282353
v 0.361280928 -0.009936509 -4.536740015 0.254902 0.258824 0.168627
v 0.364139329 -0.018780704 -4.517292653 0.341176 0.309804 0.266667
v 0.361072594 -0.025569887 -4.499423882 0.133333 0.113725 0.098039
v 0.360052015 -0.024931545 -4.502417495 0.156863 0.066667 0.043137
v 0.363349992 -0.020798777 -4.517852176 0.372549 0.341176 0.298039
v 0.346846999 -0.020548552 -4.533587103 0.247059 0.282353 0.164706
v 0.346642503 -0.024569227 -4.536866270 0.490196 0.521569 0.349020
v 0.346472128 -0.026428520 -4.540229825 0.333333 0.368627 0.184314
v 0.330190926 -0.034774831 -4.518050948 0.349020 0.309804 0.188235
v 0.329796598 -0.036726462 -4.518540513 0.376471 0.345098 0.231373
v 0.330960747 -0.034789328 -4.526079439 0.356863 0.329412 0.215686
v 0.334352204 -0.034600002 -4.532445737 0.262745 0.160784 0.192157
v 0.347235438 -0.035294683 -4.545507578 0.325490 0.345098 0.149020
v 0.361619750 -0.040177628 -4.550940941 0.462745 0.392157 0.337255
vn -0.926553003 -0.322711820 0.193278591
vn -0.876165724 -0.341963365 0.339697926
vn -0.928657854 -0.312889965 0.199234688
vn -0.921570292 -0.338086832 0.190802229
vn -0.968019905 -0.143241935 0.205959247
vn -0.940943207 -0.271263044 0.202588848
vn -0.972084562 -0.161895371 0.169827836
vn -0.955576255 0.075158426 0.285000407
vn -0.960806816 -0.006333983 0.277146429
vn -0.980672958 0.144763836 0.131620592
vn -0.976454826 0.113053576 0.183724962
vn -0.910512137 0.211417928 0.355345056
vn -0.867300320 0.273303040 0.416047597
vn -0.986086607 0.026823807 0.164053916
vn -0.854543079 0.344923684 0.388308870
vn -0.989704927 0.135632493 0.045694463
vn -0.983911024 0.177640071 0.019055262
vn -0.984425136 0.139923489 0.106435748
vn -0.996576071 0.082599260 0.003673901
vn -0.779771131 0.519104184 0.349982613
vn -0.980173146 0.197065966 0.020630278
vn -0.983618758 0.176038009 0.038791204
vn -0.986408172 0.163079423 0.020100266
vn -0.754806272 0.266101562 0.599547704
vn -0.972551515 0.220088308 0.075529375
vn -0.785040881 0.214536453 0.581106638
vn -0.969507420 0.194656308 0.148876742
vn -0.782821732 0.262139251 0.564334252
vn -0.917065285 0.314541178 0.245061441
vn -0.843300547 0.470349408 0.260030040
vn -0.953561768 0.298827344 0.037711700
vn -0.906564432 0.298937825 0.297954873
vn -0.996640645 0.078336011 -0.023893384
vn -0.828210524 0.160508211 0.536939887
vn -0.893003193 0.233863478 0.384516803
vn -0.819446201 0.109361069 0.562626058
vn -0.962873538 0.230469620 -0.140564232
vn -0.918032372 0.331786570 -0.217104207
vn -0.585275694 0.718136351 0.376473828
vn -0.946845540 0.320593497 0.026520433
vn -0.903421162 0.337608071 0.264293388
vn -0.784110866 0.558745456 0.270136384
vn -0.969555998 0.183131455 0.162554719
vn -0.602793822 0.598087879 0.528138709
vn -0.446130614 0.878348168 0.171674026
vn -0.453206033 0.834731236 0.312774767
vn -0.521549423 0.828218813 0.205036090
vn -0.695730875 0.584773497 -0.417131282
vn -0.679857057 0.613726842 -0.401414680
vn -0.444193768 0.850861790 0.280581736
vn -0.658459781 0.417521217 0.626184278
vn -0.714872089 0.641211667 -0.278936364
vn -0.777565073 0.127612919 -0.615717062
vn -0.556235591 0.034044554 -0.830327005
vn -0.411276696 -0.230157237 -0.881974560
f 8//8 12//12 9//9
f 7//7 8//8 9//9
f 5//5 7//7 9//9
f 7//7 5//5 6//6
f 10//10 8//8 11//11
f 10//10 12//12 8//8
f 12//12 13//13 9//9
f 5//5 4//4 6//6
f 42//42 47//47 46//46
f 3//3 5//5 2//2
f 3//3 4//4 5//5
f 3//3 2//2 1//1
f 6//6 3//3 1//1
f 4//4 3//3 6//6
f 14//14 10//10 11//11
f 29//29 14//14 11//11
f 10//10 18//18 12//12
f 17//17 18//18 10//10
f 18//18 22//22 12//12
f 50//50 45//45 46//46
f 50//50 52//52 51//51
f 44//44 50//50 51//51
f 50//50 44//44 45//45
f 47//47 50//50 46//46
f 52//52 50//50 47//47
f 42//42 49//49 47//47
f 49//49 42//42 29//29
f 16//16 17//17 10//10
f 14//14 16//16 10//10
f 16//16 21//21 17//17
f 16//16 14//14 29//29
f 21//21 16//16 29//29
f 31//31 21//21 29//29
f 31//31 42//42 27//27
f 42//42 31//31 29//29
f 22//22 23//23 12//12
f 33//33 23//23 27//27
f 22//22 19//19 21//21
f 18//18 19//19 22//22
f 21//21 19//19 17//17
f 19//19 18//18 17//17
f 39//39 44//44 51//51
f 26//26 34//34 36//36
f 45//45 40//40 46//46
f 40//40 38//38 46//46
f 38//38 37//37 46//46
f 37//37 32//32 33//33
f 32//32 37//37 38//38
f 32//32 40//40 30//30
f 40//40 32//32 38//38
f 13//13 32//32 15//15
f 32//32 20//20 15//15
f 32//32 30//30 20//20
f 32//32 13//13 12//12
f 23//23 32//32 12//12
f 32//32 23//23 33//33
f 53//53 54//54 55//55
f 54//54 49//49 55//55
f 49//49 54//54 53//53
f 48//48 49//49 53//53
f 49//49 48//48 47//47
f 52//52 48//48 53//53
f 48//48 52//52 47//47
f 25//25 22//22 21//21
f 31//31 25//25 21//21
f 25//25 31//31 27//27
f 23//23 25//25 27//27
f 25//25 23//23 22//22
f 28//28 34//34 26//26
f 34//34 28//28 30//30
f 28//28 26//26 24//24
f 20//20 28//28 24//24
f 30//30 28//28 20//20
f 35//35 34//34 30//30
f 39//39 35//35 44//44
f 35//35 39//39 36//36
f 34//34 35//35 36//36
f 37//37 43//43 46//46
f 43//43 37//37 33//33
f 43//43 33//33 27//27
f 42//42 43//43 27//27
f 43//43 42//42 46//46
f 40//40 41//41 30//30
f 41//41 35//35 30//30
f 41//41 40//40 45//45
f 44//44 41//41 45//45
f 35//35 41//41 44//44
