v -2.469849675 0.389547604 -6.010070180 0.407843 0.431373 0.360784
v -2.467435886 0.378969734 -6.004291494 0.392157 0.450980 0.380392
v -2.470172159 0.380595507 -6.018573419 0.227451 0.231373 0.219608
v -2.457709053 0.362934133 -5.998299590 0.278431 0.298039 0.254902
v -2.472652742 0.373524454 -6.021573375 0.423529 0.458824 0.352941
v -2.462748538 0.363870547 -6.007029495 0.486275 0.596078 0.450980
v -2.477626913 0.369990848 -6.032295803 0.247059 0.258824 0.247059
v -2.456218780 0.352808442 -6.003217059 0.368627 0.423529 0.352941
v -2.442864612 0.343744290 -6.001511609 0.247059 0.274510 0.223529
v -2.455667110 0.346569526 -6.009994809 0.458824 0.560784 0.376471
v -2.466995427 0.351940707 -6.020229545 0.486275 0.592157 0.427451
v -2.483268198 0.356146459 -6.042492307 0.352941 0.431373 0.305882
v -2.431516055 0.330000282 -6.014435477 0.341176 0.407843 0.219608
v -2.465516174 0.338882796 -6.026350235 0.478431 0.580392 0.396078
v -2.447875928 0.331392633 -6.016492247 0.411765 0.501961 0.278431
v -2.479902006 0.342563258 -6.042993225 0.435294 0.490196 0.345098
v -2.438377511 0.323450057 -6.016586664 0.223529 0.333333 0.105882
v -2.489817056 0.344302414 -6.050900873 0.290196 0.301961 0.258824
v -2.429427823 0.321823992 -6.020653740 0.321569 0.415686 0.207843
v -2.455604688 0.322174524 -6.026884582 0.309804 0.415686 0.192157
v -2.413632091 0.312358783 -6.025813485 0.400000 0.443137 0.313725
v -2.464846144 0.323616655 -6.034046308 0.407843 0.517647 0.301961
v -2.473397631 0.327034262 -6.040097587 0.435294 0.537255 0.313725
v -2.491151280 0.329352058 -6.052651235 0.380392 0.454902 0.243137
v -2.421529995 0.306069090 -6.028565862 0.294118 0.396078 0.168627
v -2.441372060 0.308747629 -6.028518510 0.258824 0.368627 0.121569
v -2.457760726 0.312037199 -6.034247161 0.317647 0.407843 0.211765
v -2.467020684 0.314762826 -6.040348884 0.309804 0.400000 0.188235
v -2.486167161 0.318030400 -6.052793204 0.325490 0.431373 0.203922
v -2.495450021 0.319856868 -6.056996288 0.321569 0.407843 0.200000
v -2.516615607 0.324025757 -6.063179735 0.345098 0.403922 0.223529
v -2.413612476 0.294736014 -6.033315636 0.290196 0.400000 0.149020
v -2.506077698 0.318034065 -6.062047439 0.294118 0.356863 0.160784
v -2.434314922 0.295521374 -6.035977434 0.298039 0.400000 0.149020
v -2.523324479 0.321581386 -6.069109421 0.172549 0.141176 0.121569
v -2.471955914 0.305145300 -6.049023771 0.231373 0.305882 0.117647
v -2.450634452 0.297224077 -6.039529749 0.266667 0.349020 0.156863
v -2.382411156 0.287642122 -6.045077172 0.345098 0.317647 0.227451
v -2.479842002 0.304638120 -6.055567781 0.333333 0.431373 0.207843
v -2.516098721 0.313956571 -6.068552861 0.298039 0.325490 0.188235
v -2.498285182 0.308556733 -6.062881492 0.286275 0.384314 0.152941
v -2.405110212 0.281684854 -6.039793765 0.309804 0.419608 0.180392
v -2.466258485 0.294546007 -6.050613858 0.282353 0.360784 0.172549
v -2.435007133 0.285715070 -6.041330118 0.309804 0.403922 0.184314
v -2.394428077 0.279679548 -6.042248527 0.337255 0.427451 0.188235
v -2.474822585 0.292166884 -6.057104679 0.329412 0.427451 0.192157
v -2.371753516 0.273346051 -6.054135528 0.384314 0.352941 0.223529
v -2.501123937 0.297931236 -6.067253070 0.262745 0.356863 0.137255
v -2.485480505 0.292238742 -6.062263745 0.341176 0.435294 0.215686
v -2.384478715 0.269671014 -6.049227153 0.325490 0.431373 0.223529
v -2.441360130 0.277553046 -6.047956422 0.298039 0.392157 0.164706
v -2.534586021 0.301881023 -6.075697757 0.321569 0.356863 0.231373
v -2.544379446 0.302456614 -6.073961705 0.317647 0.356863 0.215686
v -2.451367208 0.277851907 -6.051894916 0.262745 0.356863 0.125490
v -2.414386036 0.269351919 -6.047001097 0.290196 0.400000 0.160784
v -2.526004190 0.296578463 -6.075960508 0.329412 0.407843 0.211765
v -2.367407308 0.263313807 -6.057867982 0.392157 0.450980 0.298039
v -2.358179728 0.262464950 -6.063209611 0.364706 0.372549 0.247059
v -2.496159580 0.285735269 -6.068403015 0.321569 0.419608 0.203922
v -2.506826789 0.287155614 -6.072665846 0.270588 0.364706 0.152941
v -2.437139469 0.266520321 -6.053432349 0.282353 0.396078 0.152941
v -2.478365175 0.273784015 -6.064483108 0.301961 0.352941 0.207843
v -2.491837891 0.276219984 -6.068802526 0.298039 0.372549 0.192157
v -2.535275540 0.287118016 -6.080393106 0.329412 0.407843 0.203922
v -2.413667744 0.256609632 -6.054257523 0.305882 0.415686 0.176471
v -2.383061182 0.251857665 -6.056960080 0.321569 0.439216 0.211765
v -2.368872072 0.251597379 -6.061993213 0.372549 0.486275 0.258824
v -2.518206229 0.280033218 -6.079037130 0.286275 0.376471 0.176471
v -2.551608869 0.286586430 -6.085112192 0.313725 0.333333 0.215686
v -2.352498398 0.248182248 -6.070878655 0.349020 0.384314 0.266667
v -2.471973697 0.264471567 -6.065736153 0.270588 0.337255 0.184314
v -2.422904960 0.253108318 -6.057236802 0.266667 0.380392 0.141176
v -2.397311419 0.248079199 -6.057107993 0.305882 0.423529 0.176471
v -2.499706045 0.269454732 -6.074993166 0.298039 0.380392 0.188235
v -2.510367597 0.270911932 -6.078636863 0.317647 0.403922 0.203922
v -2.435000081 0.248792878 -6.062092743 0.278431 0.384314 0.168627
v -2.521023437 0.270289252 -6.082415411 0.286275 0.392157 0.156863
v -2.447080546 0.250993418 -6.063684929 0.274510 0.376471 0.152941
v -2.558630590 0.279469978 -6.091158548 0.403922 0.431373 0.286275
v -2.340416762 0.241012972 -6.080687812 0.384314 0.337255 0.262745
v -2.486194240 0.258083105 -6.073587224 0.223529 0.317647 0.129412
v -2.563080579 0.278733829 -6.096754510 0.203922 0.196078 0.117647
v -2.540239370 0.270874156 -6.087786675 0.270588 0.372549 0.129412
v -2.496172232 0.259324142 -6.077394714 0.305882 0.384314 0.192157
v -2.373841374 0.236014300 -6.067835721 0.349020 0.466667 0.196078
v -2.523884160 0.260912905 -6.086348923 0.294118 0.396078 0.145098
v -2.578046675 0.275626905 -6.108893514 0.258824 0.235294 0.180392
v -2.567897844 0.267197948 -6.101361830 0.376471 0.419608 0.258824
v -2.507512172 0.250380348 -6.084554692 0.270588 0.368627 0.149020
v -2.361040944 0.224639705 -6.077799302 0.380392 0.494118 0.270588
v -2.540947840 0.258094179 -6.092815129 0.298039 0.388235 0.164706
v -2.393033921 0.225414197 -6.069426289 0.313725 0.431373 0.211765
v -2.348180435 0.222985558 -6.083272914 0.411765 0.513725 0.309804
v -2.375996607 0.223046260 -6.074523296 0.349020 0.462745 0.239216
v -2.440677784 0.229682281 -6.071562019 0.250980 0.364706 0.133333
v -2.464140963 0.233971603 -6.074463267 0.266667 0.345098 0.176471
v -2.474841088 0.235131454 -6.078068704 0.290196 0.360784 0.188235
v -2.404363258 0.220814396 -6.070376752 0.294118 0.415686 0.207843
v -2.554469649 0.255164636 -6.098999578 0.274510 0.364706 0.168627
v -2.516762858 0.245349433 -6.089398359 0.329412 0.407843 0.203922
v -2.341851840 0.218161382 -6.090401944 0.419608 0.517647 0.321569
v -2.590044339 0.266394730 -6.114270885 0.270588 0.231373 0.207843
v -2.535281082 0.249385161 -6.093793599 0.282353 0.380392 0.160784
v -2.564422377 0.255901535 -6.103330838 0.270588 0.349020 0.152941
v -2.416533452 0.219459837 -6.072313636 0.274510 0.392157 0.176471
v -2.382401605 0.210917710 -6.079401637 0.341176 0.454902 0.219608
v -2.483374242 0.228019235 -6.083755633 0.290196 0.380392 0.188235
v -2.365986706 0.209250831 -6.083420168 0.368627 0.478431 0.247059
v -2.449934232 0.219627763 -6.077002775 0.270588 0.364706 0.152941
v -2.425060376 0.214530917 -6.075278788 0.286275 0.392157 0.180392
v -2.546617137 0.242606107 -6.098897037 0.305882 0.396078 0.188235
v -2.343981562 0.207521329 -6.094023324 0.400000 0.505882 0.278431
v -2.597761808 0.255132976 -6.114933376 0.262745 0.215686 0.180392
v -2.473327187 0.221636752 -6.081324347 0.262745 0.364706 0.152941
v -2.496170032 0.228052559 -6.089527604 0.286275 0.376471 0.180392
v -2.507526316 0.229646412 -6.092805638 0.309804 0.396078 0.188235
v -2.356064778 0.204011101 -6.089160662 0.372549 0.482353 0.270588
v -2.399432630 0.205505501 -6.079388094 0.301961 0.415686 0.192157
v -2.558716240 0.236837152 -6.103672565 0.313725 0.407843 0.188235
v -2.587228047 0.244122538 -6.112987409 0.321569 0.407843 0.192157
v -2.447064732 0.208452570 -6.080356288 0.266667 0.364706 0.141176
v -2.422192624 0.204051890 -6.079308442 0.286275 0.396078 0.188235
v -2.457079232 0.209403693 -6.082724773 0.321569 0.392157 0.211765
v -2.472687078 0.211830727 -6.085598680 0.298039 0.384314 0.180392
v -2.316941709 0.201262615 -6.121401337 0.270588 0.235294 0.156863
v -2.491173755 0.215397199 -6.091315067 0.247059 0.345098 0.137255
v -2.535983142 0.225988906 -6.100371863 0.274510 0.384314 0.152941
v -2.607811483 0.243716726 -6.116601419 0.219608 0.172549 0.149020
v -2.504692966 0.218895130 -6.095437264 0.349020 0.427451 0.227451
v -2.378107216 0.195490466 -6.087058818 0.352941 0.466667 0.235294
v -2.351095288 0.193987752 -6.096812956 0.364706 0.478431 0.258824
v -2.577912705 0.233309130 -6.110144063 0.282353 0.384314 0.192157
v -2.483337407 0.208399746 -6.090178181 0.270588 0.372549 0.149020
v -2.388064697 0.191922745 -6.087029284 0.333333 0.443137 0.207843
v -2.418643800 0.194751101 -6.083431345 0.290196 0.400000 0.188235
v -2.331106638 0.191758265 -6.110450401 0.447059 0.505882 0.329412
v -2.443523405 0.198380450 -6.083618688 0.282353 0.384314 0.160784
v -2.589995986 0.232643387 -6.113102104 0.301961 0.400000 0.215686
v -2.429272411 0.193631907 -6.083485873 0.282353 0.392157 0.160784
v -2.499021254 0.209514317 -6.096514524 0.243137 0.352941 0.149020
v -2.408698530 0.189696099 -6.086082314 0.305882 0.419608 0.180392
v -2.469137468 0.199691159 -6.089027257 0.321569 0.388235 0.215686
v -2.314181791 0.187789290 -6.128948695 0.380392 0.384314 0.278431
v -2.362448141 0.181387761 -6.097314418 0.368627 0.478431 0.266667
v -2.615556461 0.225845184 -6.116734288 0.270588 0.250980 0.196078
v -2.322597438 0.181614920 -6.121353811 0.396078 0.450980 0.298039
v -2.431446542 0.184773400 -6.087643661 0.278431 0.384314 0.184314
v -2.383789058 0.179191107 -6.092890542 0.337255 0.443137 0.219608
v -2.343993970 0.176845132 -6.107997889 0.403922 0.474510 0.278431
v -2.446366997 0.184880594 -6.089335769 0.250980 0.360784 0.145098
v -2.421482608 0.179866104 -6.089243822 0.282353 0.400000 0.164706
v -2.353205132 0.174260011 -6.104385729 0.384314 0.490196 0.266667
v -2.545928751 0.204027144 -6.106268086 0.305882 0.411765 0.188235
v -2.500398625 0.194222506 -6.100960488 0.309804 0.392157 0.192157
v -2.529583916 0.198960785 -6.105334440 0.321569 0.403922 0.200000
v -2.600724810 0.214369211 -6.116116320 0.356863 0.439216 0.270588
v -2.561564902 0.204800259 -6.108557602 0.301961 0.411765 0.207843
v -2.402284681 0.172027700 -6.093469486 0.325490 0.435294 0.196078
v -2.327608415 0.170679024 -6.121387248 0.403922 0.490196 0.278431
v -2.620543112 0.215102806 -6.118675831 0.317647 0.298039 0.250980
v -2.385911627 0.169318664 -6.096653567 0.333333 0.447059 0.223529
v -2.610663308 0.212373715 -6.117887324 0.423529 0.466667 0.360784
v -2.371710986 0.166304626 -6.101205627 0.364706 0.470588 0.262745
v -2.477635841 0.181477191 -6.098251762 0.247059 0.345098 0.113725
v -2.585049632 0.202526946 -6.113182042 0.317647 0.415686 0.219608
v -2.548047431 0.193473472 -6.108686648 0.305882 0.400000 0.196078
v -2.348947939 0.162813310 -6.111321099 0.388235 0.478431 0.266667
v -2.336163269 0.163402994 -6.118127407 0.396078 0.498039 0.290196
v -2.305539538 0.166608902 -6.139661341 0.431373 0.443137 0.298039
v -2.361043606 0.160618632 -6.106902201 0.364706 0.478431 0.266667
v -2.526733504 0.184789526 -6.108306296 0.313725 0.407843 0.211765
v -2.491192700 0.177558272 -6.104448279 0.282353 0.368627 0.168627
v -2.387374698 0.159756542 -6.100832486 0.325490 0.443137 0.207843
v -2.421462891 0.162956143 -6.096037009 0.278431 0.396078 0.168627
v -2.451359525 0.168402703 -6.098271108 0.250980 0.349020 0.145098
v -2.619933117 0.202214466 -6.121638658 0.396078 0.431373 0.341176
v -2.630575225 0.202411458 -6.122135036 0.321569 0.298039 0.247059
v -2.589955897 0.192427650 -6.114612542 0.325490 0.407843 0.239216
v -2.562305390 0.186788894 -6.112236570 0.290196 0.388235 0.192157
v -2.318381716 0.154898110 -6.131709254 0.392157 0.486275 0.294118
v -2.500416694 0.173457508 -6.107711161 0.305882 0.380392 0.196078
v -2.338994798 0.152834683 -6.119798082 0.400000 0.505882 0.274510
v -2.468425090 0.165569059 -6.102565724 0.317647 0.368627 0.200000
v -2.550892075 0.182099283 -6.111537733 0.309804 0.415686 0.192157
v -2.303485200 0.155320383 -6.142359721 0.400000 0.435294 0.278431
v -2.479801971 0.167710920 -6.104722050 0.313725 0.376471 0.192157
v -2.518217297 0.173989632 -6.110815430 0.290196 0.380392 0.188235
v -2.530964145 0.175825358 -6.111144415 0.305882 0.411765 0.211765
v -2.576504518 0.184125901 -6.114114671 0.325490 0.423529 0.239216
v -2.357481944 0.147871359 -6.112724063 0.352941 0.458824 0.227451
v -2.607064172 0.189249088 -6.119458512 0.337255 0.427451 0.243137
v -2.374543686 0.147201968 -6.107850910 0.329412 0.443137 0.215686
v -2.436430306 0.154149786 -6.101750724 0.282353 0.384314 0.145098
v -2.420761920 0.151498768 -6.101526000 0.270588 0.364706 0.149020
v -2.398718514 0.147930160 -6.103627230 0.325490 0.431373 0.203922
v -2.388061102 0.146440195 -6.105589970 0.321569 0.431373 0.203922
v -2.631354147 0.191917934 -6.125047586 0.364706 0.364706 0.290196
v -2.562994113 0.175596107 -6.114833749 0.321569 0.411765 0.196078
v -2.336859957 0.143605253 -6.123389796 0.388235 0.482353 0.235294
v -2.539549346 0.171153160 -6.113679401 0.317647 0.376471 0.196078
v -2.552330268 0.171304137 -6.114770831 0.313725 0.415686 0.200000
v -2.304852088 0.142956532 -6.141324725 0.435294 0.513725 0.317647
v -2.457028519 0.151494032 -6.105781066 0.298039 0.372549 0.176471
v -2.518168771 0.163707659 -6.113206100 0.305882 0.388235 0.196078
v -2.366723493 0.139357756 -6.112772940 0.352941 0.470588 0.231373
v -2.501110958 0.160078951 -6.112311891 0.298039 0.368627 0.200000
v -2.381654223 0.139383629 -6.109282134 0.309804 0.427451 0.200000
v -2.344674536 0.135841987 -6.122115793 0.380392 0.494118 0.282353
v -2.326907194 0.135757636 -6.130436246 0.372549 0.482353 0.254902
v -2.619818881 0.177518516 -6.123916678 0.349020 0.419608 0.274510
v -2.491225495 0.151698731 -6.113749290 0.309804 0.364706 0.203922
v -2.481140677 0.148459098 -6.111361045 0.258824 0.333333 0.152941
v -2.575803755 0.166274798 -6.118908466 0.349020 0.447059 0.239216
v -2.428608230 0.138506382 -6.108863226 0.301961 0.380392 0.172549
v -2.316228682 0.131589655 -6.136374754 0.388235 0.498039 0.266667
v -2.373139675 0.131407694 -6.114583249 0.333333 0.450980 0.219608
v -2.304112581 0.131804130 -6.142604187 0.415686 0.509804 0.321569
v -2.393749918 0.132211732 -6.110550687 0.317647 0.427451 0.223529
v -2.591426864 0.166440129 -6.120747066 0.286275 0.372549 0.211765
v -2.524650489 0.154527957 -6.117265544 0.305882 0.364706 0.172549
v -2.442064042 0.136810135 -6.110675753 0.298039 0.400000 0.141176
v -2.419364474 0.132807540 -6.110971426 0.278431 0.396078 0.156863
v -2.358901620 0.126556748 -6.120592399 0.352941 0.466667 0.239216
v -2.602846845 0.165396898 -6.123465913 0.305882 0.360784 0.180392
v -2.460586498 0.135834367 -6.113563593 0.305882 0.372549 0.172549
v -2.646806974 0.168541853 -6.125303832 0.329412 0.384314 0.200000
v -2.336887306 0.122054818 -6.130667424 0.356863 0.470588 0.254902
v -2.383779299 0.122379339 -6.115840150 0.313725 0.435294 0.207843
v -2.587862922 0.157258980 -6.123038439 0.325490 0.415686 0.247059
v -2.320487377 0.120269462 -6.137231416 0.384314 0.494118 0.278431
v -2.531641699 0.145519958 -6.119654313 0.309804 0.419608 0.172549
v -2.516077550 0.142747115 -6.119464037 0.298039 0.372549 0.164706
v -2.610668747 0.157575675 -6.127022872 0.298039 0.364706 0.176471
v -2.430735884 0.124326692 -6.115369838 0.294118 0.415686 0.164706
v -2.405842037 0.120098053 -6.115466499 0.301961 0.407843 0.184314
v -2.454957014 0.128251366 -6.117354766 0.282353 0.368627 0.160784
v -2.287019796 0.117786186 -6.156629367 0.274510 0.254902 0.203922
v -2.492625530 0.134813475 -6.119896249 0.317647 0.360784 0.188235
v -2.481968048 0.132605152 -6.119706449 0.360784 0.392157 0.239216
v -2.576501188 0.149308256 -6.124848080 0.298039 0.392157 0.180392
v -2.633432849 0.158925639 -6.128974356 0.321569 0.396078 0.227451
v -2.471204169 0.129104837 -6.118794340 0.333333 0.376471 0.215686
v -2.372433871 0.114299575 -6.122301638 0.337255 0.447059 0.215686
v -2.508169759 0.132759052 -6.121174821 0.286275 0.388235 0.149020
v -2.353210676 0.110928130 -6.129164159 0.360784 0.470588 0.239216
v -2.539537442 0.137825362 -6.124583770 0.286275 0.380392 0.164706
v -2.653344164 0.157501144 -6.129679069 0.223529 0.203922 0.149020
v -2.387340245 0.110963201 -6.120719532 0.313725 0.423529 0.192157
v -2.314105473 0.108748257 -6.143981570 0.352941 0.462745 0.243137
v -2.339713074 0.108688103 -6.134585992 0.337255 0.458824 0.247059
v -2.302728417 0.108748703 -6.149672692 0.376471 0.482353 0.254902
v -2.446387843 0.118582622 -6.119498074 0.290196 0.376471 0.156863
v -2.650980886 0.150790533 -6.129294115 0.337255 0.407843 0.192157
v -2.589996993 0.140902421 -6.128726031 0.317647 0.411765 0.207843
v -2.601369970 0.142357259 -6.129517256 0.364706 0.462745 0.262745
v -2.478416318 0.120490277 -6.123908249 0.368627 0.396078 0.247059
v -2.425745889 0.110207533 -6.119895977 0.290196 0.384314 0.180392
v -2.563730741 0.135563375 -6.129235749 0.301961 0.384314 0.176471
v -2.361756253 0.103725516 -6.129644311 0.333333 0.450980 0.219608
v -2.578675911 0.137607981 -6.129724013 0.313725 0.372549 0.180392
v -2.631256977 0.146464924 -6.132674283 0.325490 0.419608 0.184314
v -2.289315162 0.103709161 -6.160522524 0.262745 0.243137 0.168627
v -2.373816683 0.103232702 -6.126639095 0.309804 0.423529 0.176471
v -2.309842537 0.100902012 -6.148898476 0.400000 0.509804 0.305882
v -2.652787768 0.147744629 -6.135841060 0.301961 0.313725 0.227451
v -2.346818735 0.099486358 -6.135403466 0.329412 0.439216 0.207843
v -2.491909425 0.117787877 -6.125687053 0.317647 0.368627 0.196078
v -2.551626139 0.128582761 -6.129566815 0.301961 0.415686 0.156863
v -2.444211335 0.106830022 -6.123189731 0.282353 0.329412 0.152941
v -2.412233106 0.100968734 -6.123466602 0.282353 0.400000 0.172549
v -2.622013630 0.137207843 -6.134063323 0.317647 0.419608 0.211765
v -2.639078743 0.140066774 -6.135522945 0.356863 0.447059 0.247059
v -2.338281719 0.094540142 -6.139750555 0.349020 0.462745 0.247059
v -2.585047432 0.130011356 -6.132425911 0.309804 0.384314 0.172549
v -2.295535207 0.094466295 -6.157711051 0.392157 0.474510 0.270588
v -2.470582430 0.108487440 -6.126969364 0.345098 0.388235 0.235294
v -2.612779259 0.132864639 -6.133871303 0.360784 0.447059 0.247059
v -2.395879249 0.095981683 -6.126999795 0.317647 0.427451 0.188235
v -2.518897440 0.116634829 -6.130630757 0.313725 0.388235 0.180392
v -2.489659992 0.108745400 -6.127277944 0.239216 0.333333 0.113725
v -2.533136500 0.116499820 -6.133135562 0.282353 0.364706 0.149020
v -2.383117749 0.092122000 -6.131210056 0.294118 0.407843 0.196078
v -2.323392980 0.089211861 -6.147400920 0.372549 0.474510 0.266667
v -2.631930496 0.132539543 -6.136265703 0.352941 0.443137 0.247059
v -2.308410531 0.087470196 -6.154076005 0.376471 0.474510 0.274510
v -2.503303179 0.107699290 -6.129618960 0.298039 0.400000 0.149020
v -2.288469307 0.088420384 -6.165345709 0.396078 0.443137 0.290196
v -2.417218643 0.091665085 -6.127583299 0.278431 0.388235 0.180392
v -2.457761070 0.097279481 -6.129528313 0.290196 0.337255 0.164706
v -2.552983403 0.113451073 -6.134413736 0.305882 0.352941 0.180392
v -2.340377349 0.083458882 -6.142628759 0.333333 0.450980 0.200000
v -2.579314251 0.118272003 -6.136150950 0.329412 0.415686 0.192157
v -2.370974109 0.085443414 -6.135854652 0.317647 0.423529 0.215686
v -2.603521694 0.122304989 -6.136985805 0.368627 0.458824 0.223529
v -2.431424031 0.091085546 -6.127914554 0.274510 0.400000 0.164706
v -2.645517624 0.129093079 -6.139725617 0.388235 0.454902 0.278431
v -2.659703657 0.130088716 -6.139020844 0.247059 0.215686 0.180392
v -2.625566652 0.123720408 -6.138389700 0.349020 0.454902 0.247059
v -2.306288392 0.078132330 -6.158106481 0.356863 0.458824 0.270588
v -2.485430243 0.094236508 -6.134377036 0.349020 0.388235 0.227451
v -2.422197439 0.083125784 -6.131834421 0.294118 0.407843 0.160784
v -2.377411845 0.078033779 -6.138658153 0.317647 0.411765 0.203922
v -2.528920861 0.100448352 -6.138511347 0.286275 0.364706 0.176471
v -2.338281594 0.073919130 -6.146864046 0.341176 0.450980 0.254902
v -2.664627008 0.120565203 -6.140821621 0.207843 0.200000 0.184314
v -2.366738764 0.073814904 -6.141623417 0.325490 0.427451 0.211765
v -2.413661861 0.078168189 -6.134729837 0.290196 0.403922 0.164706
v -2.627716773 0.114339920 -6.141603298 0.384314 0.470588 0.282353
v -2.646172090 0.117451476 -6.142274965 0.407843 0.462745 0.352941
v -2.539544169 0.099372130 -6.140804636 0.305882 0.411765 0.168627
v -2.503880219 0.091693425 -6.136557283 0.294118 0.372549 0.192157
v -2.300593466 0.070357229 -6.164624657 0.380392 0.482353 0.294118
v -2.589975928 0.106225123 -6.141235085 0.364706 0.474510 0.243137
v -2.567303598 0.102006974 -6.141700604 0.333333 0.435294 0.203922
v -2.517512663 0.092873248 -6.139844474 0.313725 0.368627 0.200000
v -2.489804385 0.088402689 -6.140042545 0.360784 0.388235 0.227451
v -2.311246153 0.067625497 -6.159221068 0.360784 0.470588 0.274510
v -2.600053921 0.105962771 -6.142337436 0.309804 0.415686 0.235294
v -2.330501216 0.067189735 -6.151723037 0.349020 0.454902 0.254902
v -2.397285561 0.070506836 -6.139401636 0.290196 0.396078 0.180392
v -2.467684840 0.079756543 -6.137994016 0.317647 0.368627 0.196078
v -2.443540870 0.074509237 -6.136603421 0.270588 0.349020 0.152941
v -2.421496563 0.070956668 -6.138743546 0.270588 0.380392 0.168627
v -2.378811066 0.066125050 -6.143379398 0.313725 0.415686 0.211765
v -2.558707351 0.094685502 -6.144382834 0.337255 0.443137 0.207843
v -2.514493558 0.085007091 -6.140472356 0.368627 0.450980 0.231373
v -2.622009399 0.102396325 -6.144102690 0.388235 0.482353 0.278431
v -2.662545185 0.108782188 -6.144779067 0.250980 0.239216 0.223529
v -2.648321346 0.104530749 -6.145526758 0.427451 0.478431 0.345098
v -2.432864288 0.068192978 -6.139659429 0.278431 0.380392 0.164706
v -2.633389333 0.101670022 -6.144776130 0.423529 0.501961 0.305882
v -2.496967481 0.080168412 -6.145403693 0.333333 0.368627 0.203922
v -2.509725078 0.080503982 -6.144827259 0.301961 0.364706 0.172549
v -2.551524149 0.087434900 -6.145822639 0.360784 0.458824 0.207843
v -2.526054254 0.082850260 -6.145362157 0.325490 0.419608 0.207843
v -2.361036355 0.057566017 -6.147579800 0.317647 0.431373 0.219608
v -2.312654706 0.053509917 -6.163755224 0.368627 0.466667 0.243137
v -2.452090307 0.065135154 -6.141253637 0.282353 0.349020 0.152941
v -2.337544705 0.052080005 -6.153780289 0.337255 0.447059 0.227451
v -2.322666670 0.051645026 -6.159795230 0.345098 0.458824 0.211765
v -2.297060241 0.053117904 -6.175568433 0.349020 0.329412 0.282353
v -2.575121898 0.084970250 -6.148885374 0.301961 0.349020 0.168627
v -2.639110952 0.092167880 -6.147680664 0.396078 0.466667 0.294118
v -2.615516453 0.087495802 -6.145976101 0.345098 0.439216 0.250980
v -2.598544446 0.084611041 -6.146215817 0.356863 0.470588 0.274510
v -2.488963859 0.068805741 -6.149736467 0.380392 0.392157 0.254902
v -2.627020176 0.088625930 -6.147005067 0.364706 0.454902 0.282353
v -2.467646117 0.062284988 -6.144455195 0.309804 0.352941 0.176471
v -2.557469492 0.079006229 -6.151377803 0.325490 0.360784 0.176471
v -2.442782962 0.057814460 -6.143939825 0.290196 0.356863 0.152941
v -2.385965584 0.050847653 -6.148911588 0.298039 0.407843 0.172549
v -2.347526413 0.045468646 -6.153247706 0.329412 0.447059 0.231373
v -2.478332823 0.063551038 -6.147617232 0.352941 0.380392 0.223529
v -2.513294546 0.069731397 -6.150247687 0.317647 0.364706 0.180392
v -2.361048439 0.046092387 -6.150894833 0.313725 0.431373 0.207843
v -2.528950363 0.071059882 -6.150723049 0.309804 0.360784 0.180392
v -2.576477047 0.074832301 -6.149506475 0.349020 0.454902 0.247059
v -2.512304740 0.063403832 -6.150118453 0.258824 0.376471 0.145098
v -2.591425141 0.073298765 -6.147803426 0.384314 0.494118 0.286275
v -2.543717061 0.066686968 -6.151195316 0.341176 0.454902 0.215686
v -2.424357853 0.046641833 -6.151198749 0.286275 0.380392 0.180392
v -2.661259761 0.083516431 -6.154124622 0.200000 0.176471 0.152941
v -2.646774375 0.079200837 -6.149420900 0.200000 0.203922 0.137255
v -2.622786825 0.076990553 -6.153465011 0.384314 0.478431 0.262745
v -2.455612047 0.048339284 -6.148336830 0.286275 0.333333 0.156863
v -2.609198191 0.072619026 -6.150727197 0.349020 0.439216 0.235294
v -2.523797956 0.059640111 -6.153489945 0.309804 0.419608 0.184314
v -2.362455445 0.034129958 -6.153346766 0.305882 0.423529 0.192157
v -2.473405902 0.051058812 -6.152287666 0.305882 0.341176 0.188235
v -2.513294001 0.058357714 -6.155236564 0.305882 0.337255 0.180392
v -2.400139081 0.039150413 -6.152031742 0.270588 0.384314 0.137255
v -2.502643728 0.055380335 -6.157035997 0.329412 0.345098 0.188235
v -2.553681736 0.059507318 -6.151733332 0.329412 0.443137 0.211765
v -2.333319783 0.028280006 -6.162185198 0.364706 0.462745 0.290196
v -2.315540354 0.027588234 -6.171478650 0.282353 0.274510 0.219608
v -2.639650559 0.069346261 -6.151098467 0.325490 0.400000 0.223529
v -2.482025211 0.046819769 -6.156966538 0.317647 0.313725 0.200000
v -2.437144059 0.036794995 -6.153606816 0.290196 0.392157 0.172549
v -2.386655305 0.028971048 -6.154312910 0.274510 0.392157 0.164706
v -2.541085128 0.053630699 -6.156210421 0.274510 0.305882 0.137255
v -2.567258453 0.055431245 -6.151133854 0.333333 0.447059 0.227451
v -2.324723623 0.023090847 -6.167000695 0.368627 0.403922 0.305882
v -2.649235905 0.068786804 -6.154267506 0.262745 0.278431 0.188235
v -2.634295692 0.065990979 -6.155813417 0.352941 0.419608 0.243137
v -2.466297335 0.038950552 -6.154372133 0.290196 0.317647 0.172549
v -2.527387980 0.048703852 -6.156366465 0.325490 0.423529 0.200000
v -2.404405195 0.028482510 -6.154873468 0.282353 0.403922 0.164706
v -2.654593058 0.065723996 -6.150928972 0.321569 0.400000 0.227451
v -2.347557198 0.021047013 -6.159744802 0.352941 0.450980 0.301961
v -2.579353354 0.053251540 -6.151727167 0.329412 0.435294 0.227451
v -2.519026414 0.045214148 -6.159347850 0.329412 0.337255 0.192157
v -2.624222806 0.060523913 -6.156742221 0.372549 0.458824 0.262745
v -2.596381213 0.053561300 -6.151085699 0.349020 0.447059 0.231373
v -2.484632330 0.038739418 -6.158134270 0.403922 0.376471 0.317647
v -2.560828153 0.047138036 -6.153160080 0.325490 0.447059 0.211765
v -2.612761276 0.056206957 -6.155562915 0.360784 0.458824 0.258824
v -2.427915727 0.027427000 -6.156850373 0.286275 0.403922 0.156863
v -2.393763987 0.021878394 -6.156493137 0.286275 0.403922 0.180392
v -2.454868770 0.029394719 -6.154669474 0.282353 0.392157 0.160784
v -2.648953691 0.056086213 -6.151362241 0.294118 0.349020 0.160784
v -2.493875120 0.035200907 -6.160312336 0.407843 0.372549 0.282353
v -2.329044406 0.012710214 -6.168772187 0.317647 0.298039 0.254902
v -2.503813046 0.036047025 -6.159229808 0.294118 0.368627 0.184314
v -2.637417831 0.053780491 -6.151665166 0.301961 0.356863 0.149020
v -2.498436157 0.035717932 -6.163692837 0.278431 0.262745 0.211765
v -2.513819718 0.036357017 -6.159642350 0.270588 0.380392 0.160784
v -2.484861048 0.033373371 -6.163529321 0.360784 0.321569 0.239216
v -2.364526055 0.011868705 -6.158146908 0.321569 0.415686 0.231373
v -2.380200288 0.013770360 -6.159696965 0.301961 0.411765 0.203922
v -2.444206905 0.022243084 -6.156700083 0.254902 0.372549 0.149020
v -2.555138363 0.039322287 -6.156730830 0.352941 0.470588 0.215686
v -2.472642968 0.027291804 -6.159012282 0.290196 0.337255 0.172549
v -2.580828390 0.042164825 -6.154224571 0.329412 0.443137 0.219608
v -2.618969722 0.047056890 -6.154405758 0.274510 0.329412 0.125490
v -2.427148539 0.017204664 -6.158681836 0.274510 0.392157 0.160784
v -2.353237793 0.006891530 -6.162756410 0.349020 0.396078 0.278431
v -2.338257054 0.005136332 -6.167264394 0.290196 0.278431 0.247059
v -2.402306983 0.011852198 -6.162001739 0.298039 0.407843 0.184314
v -2.625001870 0.045052262 -6.158939930 0.180392 0.184314 0.137255
v -2.596506878 0.038344806 -6.153556780 0.372549 0.462745 0.243137
v -2.637044023 0.046134003 -6.157741122 0.172549 0.156863 0.133333
v -2.570811097 0.034835801 -6.156889770 0.341176 0.458824 0.215686
v -2.389435919 0.007436590 -6.162707851 0.294118 0.403922 0.200000
v -2.538754287 0.027463385 -6.157310631 0.364706 0.482353 0.227451
v -2.378094514 0.005013982 -6.164112099 0.294118 0.325490 0.188235
v -2.490651144 0.023329313 -6.168624337 0.403922 0.321569 0.325490
v -2.555856775 0.029307631 -6.158717030 0.337255 0.454902 0.223529
v -2.449935077 0.011978080 -6.158763935 0.282353 0.396078 0.176471
v -2.617137197 0.036856968 -6.157657879 0.282353 0.305882 0.192157
v -2.580686673 0.029775353 -6.154917594 0.309804 0.301961 0.152941
v -2.523241577 0.024283460 -6.164628593 0.235294 0.207843 0.184314
v -2.355333899 -0.002764578 -6.166357077 0.298039 0.274510 0.254902
v -2.503469070 0.020342450 -6.168266873 0.313725 0.247059 0.207843
v -2.498130369 0.018226902 -6.165523665 0.384314 0.352941 0.290196
v -2.410081141 0.002274819 -6.164378784 0.313725 0.407843 0.211765
v -2.468434705 0.009048969 -6.160684993 0.305882 0.345098 0.192157
v -2.599802049 0.025467057 -6.151627111 0.184314 0.149020 0.101961
v -2.610615257 0.027865986 -6.156533529 0.168627 0.152941 0.105882
v -2.546737794 0.019785247 -6.161912984 0.235294 0.231373 0.121569
v -2.381918769 -0.002797948 -6.170851748 0.266667 0.239216 0.207843
v -2.567439203 0.022000811 -6.160329454 0.231373 0.203922 0.172549
v -2.483275937 0.009775213 -6.163936980 0.360784 0.380392 0.278431
v -2.512673797 0.015683164 -6.167647967 0.231373 0.180392 0.121569
v -2.555101214 0.017571278 -6.159605628 0.345098 0.450980 0.239216
v -2.531573196 0.014507079 -6.161553346 0.325490 0.423529 0.203922
v -2.586433712 0.020072036 -6.155182208 0.188235 0.192157 0.129412
v -2.505882747 0.010244878 -6.164068012 0.258824 0.254902 0.168627
v -2.400117557 -0.004768248 -6.168104962 0.333333 0.368627 0.254902
v -2.496022803 0.005929709 -6.164285543 0.345098 0.254902 0.211765
v -2.522667443 0.011111325 -6.166877315 0.184314 0.145098 0.109804
v -2.576463233 0.013786622 -6.157604940 0.270588 0.298039 0.172549
v -2.410724592 -0.008568611 -6.167147793 0.317647 0.305882 0.231373
v -2.473288312 -0.001344598 -6.163876562 0.282353 0.333333 0.203922
v -2.444249991 -0.006541895 -6.162951883 0.321569 0.325490 0.239216
v -2.483460324 0.000493999 -6.166660058 0.329412 0.192157 0.207843
v -2.409603814 -0.009529443 -6.171097023 0.258824 0.239216 0.227451
v -2.520631486 0.004592095 -6.163475422 0.207843 0.180392 0.133333
v -2.547483085 0.008135870 -6.163362169 0.207843 0.172549 0.137255
v -2.499252740 0.002171369 -6.169409390 0.458824 0.282353 0.305882
v -2.563520490 0.007805271 -6.159028426 0.227451 0.200000 0.145098
v -2.459904047 -0.006613563 -6.164905295 0.341176 0.329412 0.262745
v -2.391494543 -0.016863809 -6.171302006 0.345098 0.274510 0.231373
v -2.544307414 0.002938668 -6.161443123 0.266667 0.235294 0.215686
v -2.506683891 -0.000423509 -6.167959423 0.239216 0.164706 0.125490
v -2.536134031 0.004351795 -6.169895949 0.188235 0.156863 0.125490
v -2.436348191 -0.014444365 -6.165966210 0.282353 0.239216 0.215686
v -2.493199317 -0.005610638 -6.167432460 0.372549 0.196078 0.223529
v -2.513504878 0.000510861 -6.178764398 0.407843 0.337255 0.231373
v -2.485699104 -0.011002221 -6.173815593 0.278431 0.200000 0.203922
v -2.583653419 -0.004610125 -6.165289825 0.219608 0.231373 0.125490
v -2.516929879 -0.006993348 -6.186334741 0.192157 0.149020 0.129412
v -2.508817876 -0.010387305 -6.181450780 0.462745 0.278431 0.294118
v -2.513322356 -0.015822685 -6.190937125 0.345098 0.227451 0.203922
v -2.533762077 -0.014380160 -6.190304995 0.231373 0.184314 0.160784
v -2.498952742 -0.023898489 -6.184636740 0.247059 0.125490 0.121569
v -2.534475706 -0.022222964 -6.196652572 0.227451 0.176471 0.164706
v -2.528201719 -0.038864212 -6.205517712 0.254902 0.184314 0.156863
v -2.517336820 -0.047957148 -6.196684030 0.447059 0.333333 0.270588
v -2.535184620 -0.044961449 -6.210206186 0.286275 0.239216 0.188235
v -2.535382883 -0.055064483 -6.214785541 0.368627 0.419608 0.235294
vn 0.976581225 0.128633444 -0.172460279
vn 0.929337140 0.276872154 -0.244283219
vn 0.944585693 0.126876400 -0.302754436
vn 0.704470893 0.391474096 -0.592004048
vn 0.865135493 0.038872125 -0.500029536
vn 0.867756903 0.234557227 -0.438156210
vn 0.853534943 0.135719890 -0.503048917
vn 0.676966240 0.456658865 -0.577216935
vn 0.380273730 0.631744532 -0.675492958
vn 0.606489303 0.530985153 -0.591798523
vn 0.805413119 0.266434341 -0.529454861
vn 0.777270210 0.207287116 -0.594039621
vn 0.087797940 0.609368699 -0.788010984
vn 0.692167594 0.349973408 -0.631207284
vn 0.440148656 0.536819566 -0.719787409
vn 0.687568208 0.152722946 -0.709877216
vn 0.195602514 0.528392985 -0.826160100
vn 0.498556803 0.090982008 -0.862069248
vn -0.035479442 0.534461872 -0.844447580
vn 0.488756642 0.449228266 -0.747870918
vn -0.131030943 0.427519793 -0.894459456
vn 0.611192727 0.370666962 -0.699320709
vn 0.632858069 0.243832509 -0.734871670
vn 0.476526455 0.164609743 -0.863612280
vn 0.056286453 0.465319473 -0.883351359
vn 0.205744049 0.531131182 -0.821930078
vn 0.482692592 0.450833093 -0.750837788
vn 0.571752061 0.350350045 -0.741858765
vn 0.515803538 0.331997310 -0.789762304
vn 0.403589355 0.288663320 -0.868210297
vn 0.365589439 0.248542360 -0.896978850
vn -0.074602402 0.413223747 -0.907568519
vn 0.344638869 0.362995239 -0.865712716
vn 0.153500469 0.498360007 -0.853273057
vn 0.146330503 0.311189772 -0.939014542
vn 0.531990913 0.408402182 -0.741750177
vn 0.378907400 0.481607817 -0.790242426
vn -0.301981899 0.289101843 -0.908420088
vn 0.461249242 0.333085799 -0.822376427
vn 0.314604778 0.283251531 -0.905975940
vn 0.392134835 0.317548430 -0.863361608
vn -0.036315782 0.406397746 -0.912974280
vn 0.468322689 0.434225569 -0.769494649
vn 0.157598971 0.479883669 -0.863060965
vn -0.176257369 0.402617297 -0.898238639
vn 0.431586376 0.324508823 -0.841681189
vn -0.422947296 0.195727298 -0.884763477
vn 0.341977342 0.251331890 -0.905474339
vn 0.387692006 0.257077594 -0.885215239
vn -0.173095924 0.378379602 -0.909322098
vn 0.242701990 0.503908803 -0.828958179
vn 0.067022303 0.294287523 -0.953363973
vn 0.023618099 0.421988590 -0.906293449
vn 0.349286081 0.412072268 -0.841543629
vn 0.070649858 0.493139850 -0.867076517
vn 0.257147924 0.273548530 -0.926847424
vn -0.367755156 0.295138341 -0.881844377
vn -0.436454557 0.274480786 -0.856835876
vn 0.395523744 0.243634391 -0.885552512
vn 0.338800200 0.278477771 -0.898701595
vn 0.212010824 0.457163518 -0.863743555
vn 0.360039741 0.303251363 -0.882275464
vn 0.370182173 0.285170754 -0.884105650
vn 0.189155209 0.341944599 -0.920485849
vn 0.002452209 0.430742193 -0.902471689
vn -0.223784185 0.411254817 -0.883623287
vn -0.358256211 0.376897950 -0.854166508
vn 0.262326788 0.274215047 -0.925197689
vn 0.300694549 0.380848264 -0.874378287
vn -0.380916556 0.380659593 -0.842615483
vn 0.305675700 0.359803195 -0.881535040
vn 0.134793640 0.437115696 -0.889247178
vn -0.035891493 0.427014266 -0.903532300
vn 0.379811865 0.296078856 -0.876401882
vn 0.322170685 0.285058003 -0.902744695
vn 0.178794598 0.422266729 -0.888663773
vn 0.259097333 0.297436972 -0.918912302
vn 0.239590204 0.391959525 -0.888236604
vn 0.441032604 0.328910570 -0.835049747
vn -0.437176349 0.351355361 -0.827904735
vn 0.346343583 0.336194135 -0.875796567
vn 0.584387932 0.166798063 -0.794146807
vn 0.293859871 0.339087474 -0.893681186
vn 0.340163198 0.317768295 -0.885049326
vn -0.247148280 0.442637477 -0.861968556
vn 0.288559530 0.308405582 -0.906432234
vn 0.562724541 -0.059205339 -0.824521570
vn 0.482563719 0.138181562 -0.864891966
vn 0.318191030 0.329921863 -0.888766580
vn -0.331273269 0.387221582 -0.860417031
vn 0.310040646 0.292856421 -0.904494286
vn -0.159214543 0.462440125 -0.872238419
vn -0.397718369 0.375422620 -0.837184541
vn -0.205950608 0.449696284 -0.869113111
vn 0.159885421 0.379851454 -0.911125417
vn 0.237899890 0.343591746 -0.908486849
vn 0.334812666 0.319104075 -0.886607618
vn 0.034676754 0.445230691 -0.894744184
vn 0.387487172 0.264519245 -0.883109993
vn 0.258023816 0.303598456 -0.917197736
vn -0.560031845 0.378241235 -0.737087444
vn 0.398530086 0.032719007 -0.916571458
vn 0.275817761 0.271839676 -0.921969497
vn 0.384210212 0.108979209 -0.916791167
vn 0.109306380 0.422707304 -0.899650293
vn -0.161855153 0.433402151 -0.886546944
vn 0.356439807 0.319845740 -0.877866372
vn -0.241660449 0.415888381 -0.876719500
vn 0.174990758 0.349970519 -0.920271085
vn 0.122490767 0.357515146 -0.925839583
vn 0.285108966 0.232924522 -0.929762897
vn -0.575195158 0.328562098 -0.749131149
vn 0.158546374 -0.022774147 -0.987088844
vn 0.283682210 0.333056273 -0.899220731
vn 0.350350555 0.329460188 -0.876761355
vn 0.243778893 0.321990922 -0.914818942
vn -0.351590456 0.435374619 -0.828753940
vn -0.070146442 0.442385775 -0.894077347
vn 0.257351446 0.147058363 -0.955062339
vn 0.288390429 -0.000805963 -0.957512564
vn 0.142542154 0.347981125 -0.926601786
vn 0.041236265 0.379132386 -0.924423174
vn 0.219099390 0.354971950 -0.908840125
vn 0.241690874 0.362129661 -0.900248649
vn -0.671106087 0.245629663 -0.699487448
vn 0.376447200 0.283844979 -0.881884082
vn 0.214390421 0.237768274 -0.947366347
vn 0.165369518 -0.038913937 -0.985463661
vn 0.230850276 0.249261751 -0.940519393
vn -0.233242385 0.403192368 -0.884892030
vn -0.404271783 0.378054553 -0.832849975
vn 0.266234220 0.071797505 -0.961230700
vn 0.313774195 0.313425345 -0.896275799
vn -0.110590150 0.392656608 -0.913011833
vn -0.037950181 0.389165768 -0.920385674
vn -0.586736086 0.289717558 -0.756177560
vn 0.162919659 0.347056011 -0.923585031
vn 0.183167942 0.015245928 -0.982963411
vn 0.052996253 0.368394824 -0.928157665
vn 0.258872759 0.251980403 -0.932464890
vn -0.067229204 0.387362465 -0.919472977
vn 0.231879598 0.341113721 -0.910973810
vn -0.666537281 0.184547011 -0.722267578
vn -0.282969650 0.370047936 -0.884868749
vn 0.135377996 0.045414523 -0.989752656
vn -0.637581901 0.269085359 -0.721860367
vn 0.112670369 0.406538999 -0.906659490
vn -0.180618855 0.382795029 -0.906004854
vn -0.505951755 0.321768591 -0.800298566
vn 0.187094745 0.385675750 -0.903465424
vn -0.029567434 0.374763854 -0.926648704
vn -0.366468673 0.370657666 -0.853412916
vn 0.162238113 0.170859343 -0.971846634
vn 0.228469661 0.295316226 -0.927679870
vn 0.169615524 0.227806880 -0.958819378
vn 0.190120360 0.070402494 -0.979233240
vn 0.190526116 0.125439646 -0.973634785
vn -0.087123630 0.374744450 -0.923025498
vn -0.595393041 0.203252448 -0.777300179
vn 0.099476945 0.195993584 -0.975546438
vn -0.154314586 0.398016042 -0.904306496
vn 0.180345444 0.128086065 -0.975227912
vn -0.243556874 0.372907005 -0.895332572
vn 0.247530858 0.361063992 -0.899089132
vn 0.193214701 0.065469701 -0.978969763
vn 0.123465777 0.213905494 -0.969020455
vn -0.417489706 0.324911886 -0.848607454
vn -0.498231435 0.278863189 -0.820975492
vn -0.609424012 0.133668547 -0.781495421
vn -0.316155036 0.339621311 -0.885834837
vn 0.136574421 0.264675675 -0.954617313
vn 0.260192438 0.330845133 -0.907106054
vn -0.155174486 0.366630486 -0.917334707
vn 0.044998344 0.396074692 -0.917115035
vn 0.156181920 0.391726280 -0.906729138
vn 0.194880777 0.139665541 -0.970832127
vn 0.049683901 0.243064513 -0.968736885
vn 0.208124284 0.139333905 -0.968127236
vn 0.123177869 0.203188444 -0.971360731
vn -0.534156446 0.159766192 -0.830151586
vn 0.180321984 0.293565730 -0.938777473
vn -0.448947234 0.261872625 -0.854323773
vn 0.190693956 0.345895219 -0.918690542
vn 0.112641727 0.246293120 -0.962627415
vn -0.581886915 0.040211912 -0.812274966
vn 0.240316339 0.330232030 -0.912795083
vn 0.139871210 0.288685301 -0.947151963
vn 0.104456704 0.269735040 -0.957252216
vn 0.133701095 0.196270268 -0.971391785
vn -0.350904522 0.308051240 -0.884290930
vn 0.223605022 0.139793674 -0.964602780
vn -0.224625129 0.339873461 -0.913252200
vn 0.110681513 0.407333959 -0.906547654
vn 0.032075998 0.444967020 -0.894972336
vn -0.051423903 0.400347264 -0.914919477
vn -0.142106295 0.350246305 -0.925814953
vn 0.108161293 0.047562478 -0.992994937
vn 0.114136333 0.248090149 -0.961989696
vn -0.464515037 0.207508255 -0.860910044
vn 0.081901594 0.268959689 -0.959662865
vn 0.120715979 0.321711188 -0.939111050
vn -0.496791794 0.091033366 -0.863082174
vn 0.145610533 0.387011476 -0.910505184
vn 0.128835378 0.285171920 -0.949778090
vn -0.276024502 0.353020091 -0.893972756
vn 0.148820228 0.316707193 -0.936775904
vn -0.172494349 0.365582090 -0.914655911
vn -0.363625276 0.312483766 -0.877570826
vn -0.432647100 0.203905247 -0.878202219
vn 0.119552382 0.147376826 -0.981828549
vn 0.165652337 0.312334051 -0.935417952
vn 0.200264133 0.376475923 -0.904522060
vn 0.104173417 0.291646002 -0.950836741
vn 0.071342504 0.433926579 -0.898119130
vn -0.445662426 0.147839336 -0.882909130
vn -0.228290080 0.386828931 -0.893446707
vn -0.465660636 0.218288619 -0.857618943
vn -0.038720851 0.388267458 -0.920732902
vn 0.180841474 0.232414107 -0.955656865
vn 0.097334567 0.274598948 -0.956619778
vn 0.111273992 0.426035640 -0.897837253
vn 0.028315191 0.411986731 -0.910749792
vn -0.289093520 0.372245582 -0.881962677
vn 0.184678923 0.224948455 -0.956708883
vn 0.137967247 0.439180612 -0.887741758
vn 0.010986103 0.169017087 -0.985551891
vn -0.337354380 0.326291336 -0.883020943
vn -0.135445555 0.403421930 -0.904933836
vn 0.129565094 0.292760215 -0.947367058
vn -0.375915212 0.280448843 -0.883196581
vn 0.113832327 0.302924441 -0.946191833
vn 0.130671429 0.327494258 -0.935773738
vn 0.137725253 0.248611343 -0.958761782
vn 0.073790772 0.376356898 -0.923531487
vn -0.004077274 0.382608357 -0.923901629
vn 0.134674588 0.398430235 -0.907257462
vn -0.510394604 0.254967937 -0.821272609
vn 0.103249480 0.349071613 -0.931390656
vn 0.130766734 0.392235292 -0.910522672
vn 0.072851950 0.345304306 -0.935658875
vn 0.019246792 0.250767610 -0.967855964
vn 0.158421694 0.409737790 -0.898341533
vn -0.229020581 0.391693327 -0.891137425
vn 0.128380924 0.328098374 -0.935879157
vn -0.284634851 0.358547234 -0.889059550
vn 0.142679254 0.365780304 -0.919699625
vn 0.136101339 0.239241584 -0.961373960
vn -0.105386036 0.422384289 -0.900269569
vn -0.376456646 0.295190295 -0.878147530
vn -0.317715445 0.317581669 -0.893419711
vn -0.487631448 0.245994044 -0.837676848
vn 0.136848354 0.352306368 -0.925825443
vn 0.100364848 0.373264499 -0.922280061
vn 0.070273982 0.337788912 -0.938594811
vn 0.123890845 0.297943812 -0.946509664
vn 0.103147821 0.307284057 -0.946011118
vn 0.061130748 0.356375349 -0.932340947
vn 0.111707892 0.323367758 -0.939656661
vn -0.237356402 0.392386098 -0.888647899
vn 0.053339881 0.338885588 -0.939314332
vn 0.048356302 0.297744261 -0.953420171
vn -0.574114534 0.230451209 -0.785674705
vn -0.169591233 0.423276042 -0.889986632
vn -0.391524707 0.302198148 -0.869128692
vn 0.209963096 0.358140963 -0.909753015
vn -0.232013350 0.351456584 -0.906999490
vn 0.063582648 0.302144091 -0.951139419
vn 0.086584174 0.331166348 -0.939591417
vn 0.134091443 0.358043321 -0.924026226
vn -0.034083731 0.403971420 -0.914136418
vn 0.128267820 0.259449812 -0.957200690
vn 0.164122163 0.401544353 -0.901013900
vn -0.329109483 0.302530420 -0.894517911
vn 0.075906907 0.338432047 -0.937924246
vn -0.493156398 0.270724582 -0.826743593
vn 0.114465573 0.357238089 -0.926972805
vn 0.104047230 0.314157307 -0.943652139
vn -0.091418436 0.440043883 -0.893310725
vn 0.188153067 0.370561321 -0.909550840
vn 0.066933131 0.347923521 -0.935130568
vn 0.086063697 0.374150341 -0.923365887
vn -0.130970708 0.441963388 -0.887420440
vn -0.353534719 0.302952591 -0.885004480
vn 0.132112979 0.275689479 -0.952124715
vn -0.380096480 0.295160508 -0.876588239
vn 0.167770017 0.365219229 -0.915679057
vn -0.553517183 0.323523775 -0.767431492
vn -0.025550328 0.425392409 -0.904648263
vn 0.136181958 0.374463852 -0.917186621
vn 0.079769002 0.367647356 -0.926537818
vn -0.226073924 0.345802025 -0.910665438
vn 0.091051990 0.332064825 -0.938851686
vn -0.174072405 0.395765887 -0.901702922
vn 0.078457399 0.319149001 -0.944451350
vn 0.089302197 0.393780120 -0.914856456
vn 0.083022315 0.238462757 -0.967596408
vn -0.036927383 0.202335642 -0.978619771
vn 0.104367384 0.292329478 -0.950605557
vn -0.420615863 0.303261938 -0.855052333
vn 0.104469172 0.437431055 -0.893163067
vn -0.004026169 0.464552850 -0.885536244
vn -0.111732823 0.406128230 -0.906959557
vn 0.151093558 0.365051910 -0.918644567
vn -0.226668413 0.301867167 -0.926011687
vn -0.031251132 0.264650981 -0.963837759
vn -0.146237849 0.345757795 -0.926858155
vn -0.043682742 0.459881710 -0.886905086
vn 0.080995848 0.258465935 -0.962618841
vn 0.040763271 0.241039301 -0.969658915
vn 0.077743640 0.378640034 -0.922273089
vn 0.061963572 0.490194908 -0.869407539
vn -0.536472549 0.337457626 -0.773511186
vn 0.023518815 0.310395222 -0.950316616
vn 0.074509146 0.386877102 -0.919116149
vn 0.222976086 0.341756941 -0.912953371
vn 0.169605668 0.517150886 -0.838921259
vn -0.402958072 0.294144834 -0.866662338
vn 0.049668680 0.226541424 -0.972734293
vn -0.349661258 0.282552340 -0.893253144
vn -0.047436597 0.414586429 -0.908772723
vn 0.194957367 0.385110718 -0.902042881
vn 0.088459595 0.394091151 -0.914804386
vn -0.023775846 0.470270105 -0.882202209
vn -0.083941831 0.363702920 -0.927725150
vn 0.070783611 0.408206081 -0.910141459
vn 0.165236050 0.456259285 -0.874370924
vn 0.061326394 0.226894939 -0.971986502
vn 0.025311034 0.313008337 -0.949413046
vn 0.091458447 0.283079859 -0.954725691
vn -0.038939238 0.450487920 -0.891932940
vn 0.077763578 0.219392506 -0.972532650
vn 0.016618137 0.483792454 -0.875024971
vn 0.015779507 0.553502478 -0.832698033
vn 0.128558657 0.314108653 -0.940642560
vn 0.090505955 0.367024344 -0.925797928
vn -0.126431196 0.295272659 -0.947010670
vn -0.509909157 0.316190317 -0.800010209
vn 0.102083176 0.363101556 -0.926140532
vn -0.266475356 0.273463767 -0.924233982
vn -0.385719304 0.284472909 -0.877664960
vn -0.568186661 0.329745726 -0.753944079
vn -0.047240867 0.266399173 -0.962704410
vn 0.163230425 0.168593593 -0.972076144
vn 0.091300800 0.262854214 -0.960506026
vn -0.010690988 0.214588584 -0.976646017
vn 0.159263147 0.389818117 -0.907015483
vn 0.005078941 0.256289871 -0.966586626
vn 0.209732105 0.384982097 -0.898777630
vn 0.018366936 0.166667119 -0.985842141
vn -0.037798583 0.409987208 -0.911307718
vn -0.047695499 0.300167507 -0.952693344
vn -0.214159164 0.252012825 -0.943729510
vn 0.318542087 0.371088915 -0.872252232
vn 0.056628038 0.316378008 -0.946941509
vn -0.075164599 0.242557598 -0.967220810
vn -0.003640508 0.330186395 -0.943908730
vn -0.086803566 0.077590519 -0.993199301
vn -0.008500330 0.429911457 -0.902831038
vn -0.008115851 0.133954719 -0.990954220
vn 0.037196799 0.283801282 -0.958161380
vn 0.002567268 0.375066233 -0.926994460
vn 0.183991454 0.178128110 -0.966652741
vn 0.134216800 0.107068688 -0.985150824
vn 0.019753967 0.361856603 -0.932024452
vn 0.101233855 0.370694189 -0.923221276
vn 0.196334462 0.232704365 -0.952523731
vn -0.000361115 0.304370569 -0.952553634
vn -0.064935581 0.243183400 -0.967804321
vn 0.274413502 0.395499349 -0.876514401
vn -0.053753037 0.467554563 -0.882328364
vn 0.019518564 0.323094356 -0.946165452
vn 0.031919778 0.309736502 -0.950286498
vn -0.094343041 0.133058643 -0.986607718
vn -0.343598250 0.264854193 -0.900995283
vn -0.487810311 0.282785440 -0.825877409
vn -0.107082293 0.285644129 -0.952334402
vn 0.204033099 0.292264906 -0.934318853
vn -0.061915731 0.329508232 -0.942120357
vn -0.006986906 0.270771376 -0.962618328
vn -0.061300673 0.184986808 -0.980827257
vn -0.043450017 0.099951909 -0.994043114
vn -0.441776350 0.243931118 -0.863325701
vn -0.032305276 0.086673356 -0.995712859
vn -0.220630401 0.089067738 -0.971282227
vn 0.230799977 0.270245489 -0.934718539
vn -0.081060650 0.154596093 -0.984646748
vn 0.037763053 0.292751656 -0.955442526
vn -0.038153172 0.007921678 -0.999240503
vn -0.254517662 0.259770481 -0.931525661
vn -0.039328709 0.156469181 -0.986899513
vn -0.116678827 0.234015296 -0.965206140
vn 0.039477594 0.093035260 -0.994879872
vn 0.106768886 0.172174517 -0.979263162
vn 0.230663151 0.325577694 -0.916948023
vn -0.115195810 0.263960319 -0.957629822
vn 0.178622031 0.089502131 -0.979838527
vn 0.008907787 0.240798218 -0.970534322
vn 0.047605260 0.371078629 -0.927380391
vn 0.083246330 0.247688853 -0.965256588
vn -0.103103027 0.046793299 -0.993569400
vn 0.048280561 0.347992762 -0.936253184
vn -0.354787415 0.284898517 -0.890482299
vn -0.055064594 0.276266385 -0.959502358
vn -0.192099166 0.131213855 -0.972564052
vn -0.078477942 0.399531973 -0.913353937
vn 0.011835484 0.330755819 -0.943642151
vn 0.231910157 0.483858818 -0.843859184
vn -0.039830798 0.336665364 -0.940781558
vn 0.036401710 0.328367180 -0.943848457
vn -0.055159799 0.218397212 -0.974299776
vn -0.049311235 0.175734925 -0.983201728
vn 0.311351950 0.179831722 -0.933124062
vn -0.054349044 0.185596504 -0.981121868
vn 0.187683720 0.077684612 -0.979152655
vn -0.059145563 0.257429028 -0.964485406
vn -0.232902156 0.330087235 -0.914767185
vn -0.275224382 0.294988887 -0.915004424
vn -0.001689391 0.364163632 -0.931333450
vn -0.003090247 0.215136755 -0.976579043
vn 0.081675151 0.042218491 -0.995764414
vn -0.007187989 0.400962414 -0.916066305
vn -0.105627495 0.237715703 -0.965574480
vn -0.003666753 0.461258295 -0.887258328
vn -0.106987741 0.182889066 -0.977294844
vn 0.095526515 0.552155739 -0.828250400
vn 0.167541559 0.072901076 -0.983165937
vn 0.009538924 0.213593803 -0.976875988
vn 0.021473713 0.240120773 -0.970505484
vn 0.179723646 0.140279746 -0.973663702
vn -0.198138014 0.060303496 -0.978317339
vn -0.214620615 0.232666012 -0.948580265
vn 0.055071387 0.346451480 -0.936449953
vn -0.034776147 0.225149269 -0.973703459
vn -0.065305135 -0.068112221 -0.995538028
vn -0.102350304 0.266824107 -0.958295002
vn 0.133815309 0.212386375 -0.967980109
vn 0.116282372 0.262767121 -0.957826628
vn 0.388561206 0.270976892 -0.880676850
vn -0.001360589 0.249808848 -0.968294216
vn 0.016774714 0.317995480 -0.947943819
vn -0.128256313 0.063401137 -0.989712390
vn 0.253458709 0.053169917 -0.965883866
vn -0.028519680 0.057189971 -0.997955878
vn -0.128602740 0.068710474 -0.989312997
vn -0.209270761 0.303175136 -0.929672300
vn -0.095840612 0.295033909 -0.950667960
vn 0.013078546 0.005344163 -0.999900191
vn -0.089132503 0.361322947 -0.928170849
vn 0.044418649 0.075406481 -0.996163062
vn -0.103067549 0.115871082 -0.987902309
vn -0.091193196 0.208873962 -0.973681400
vn -0.179158237 0.481151530 -0.858134915
vn 0.197082354 0.391078596 -0.899008386
vn -0.005770336 0.260219241 -0.965532314
vn 0.038995202 0.377697916 -0.925107377
vn -0.068364982 0.697187728 -0.713621399
vn 0.091455670 0.633971804 -0.767929431
vn -0.097727432 -0.010552919 -0.995157266
vn 0.138913810 0.310652423 -0.940318045
vn -0.056148099 0.188480637 -0.980470520
vn 0.099867321 0.363500818 -0.926225498
vn 0.057979608 0.077330893 -0.995318189
vn -0.198257496 0.695652598 -0.690479129
vn 0.255661016 0.653575359 -0.712373985
vn -0.191186412 0.724501648 -0.662227392
vn -0.097052340 0.326319587 -0.940263990
vn 0.194060554 0.557724151 -0.807021854
vn 0.321392228 0.820585427 -0.472595592
vn 0.039252911 0.607726960 -0.793175360
vn 0.006822226 0.652324139 -0.757909411
vn 0.022667346 0.756854925 -0.653189723
vn 0.528324492 0.566760544 -0.632183294
vn 0.385209136 0.334202618 -0.860187498
vn -0.163330274 0.756852885 -0.632848270
vn 0.403058645 0.410252228 -0.818068969
vn 0.079329000 0.530402669 -0.844026017
vn 0.406526038 0.271811359 -0.872270122
vn 0.569628480 0.104480274 -0.815234486
vn 0.482382032 0.284348976 -0.828524734
vn 0.605818890 0.318560829 -0.729042160
f 299//299 275//275 287//287
f 337//337 341//341 375//375
f 340//340 337//337 375//375
f 2//2 3//3 1//1
f 64//64 53//53 52//52
f 438//438 437//437 470//470
f 380//380 395//395 373//373
f 407//407 394//394 412//412
f 452//452 456//456 466//466
f 477//477 473//473 478//478
f 473//473 477//477 476//476
f 473//473 475//475 478//478
f 125//125 146//146 136//136
f 185//185 180//180 169//169
f 146//146 149//149 136//136
f 190//190 205//205 192//192
f 428//428 410//410 415//415
f 275//275 262//262 287//287
f 337//337 312//312 341//341
f 341//341 312//312 287//287
f 312//312 299//299 287//287
f 317//317 337//337 340//340
f 312//312 317//317 299//299
f 317//317 312//312 337//337
f 165//165 156//156 138//138
f 145//145 128//128 138//138
f 156//156 145//145 138//138
f 232//232 244//244 279//279
f 179//179 198//198 189//189
f 360//360 380//380 373//373
f 372//372 358//358 346//346
f 380//380 386//386 424//424
f 233//233 271//271 261//261
f 201//201 213//213 198//198
f 198//198 213//213 189//189
f 69//69 53//53 64//64
f 214//214 221//221 193//193
f 221//221 214//214 234//234
f 76//76 95//95 78//78
f 286//286 267//267 280//280
f 286//286 315//315 279//279
f 315//315 286//286 311//311
f 244//244 286//286 279//279
f 267//267 286//286 244//244
f 436//436 428//428 461//461
f 426//426 407//407 412//412
f 426//426 449//449 434//434
f 479//479 478//478 480//480
f 479//479 477//477 478//478
f 477//477 479//479 476//476
f 456//456 448//448 462//462
f 448//448 440//440 462//462
f 440//440 448//448 423//423
f 448//448 456//456 452//452
f 472//472 475//475 473//473
f 471//471 472//472 473//473
f 202//202 180//180 185//185
f 143//143 146//146 125//125
f 149//149 159//159 168//168
f 159//159 149//149 146//146
f 159//159 180//180 168//168
f 180//180 159//159 169//169
f 159//159 143//143 169//169
f 143//143 159//159 146//146
f 387//387 379//379 398//398
f 379//379 387//387 371//371
f 352//352 368//368 355//355
f 285//285 275//275 299//299
f 215//215 202//202 217//217
f 336//336 352//352 355//355
f 352//352 336//336 339//339
f 461//461 454//454 466//466
f 428//428 454//454 461//461
f 466//466 454//454 415//415
f 454//454 428//428 415//415
f 251//251 262//262 275//275
f 262//262 251//251 237//237
f 251//251 217//217 237//237
f 251//251 249//249 217//217
f 179//179 157//157 166//166
f 165//165 157//157 189//189
f 157//157 179//179 189//189
f 201//201 246//246 258//258
f 246//246 232//232 279//279
f 267//267 238//238 239//239
f 238//238 267//267 244//244
f 239//239 238//238 212//212
f 184//184 179//179 166//166
f 179//179 184//184 198//198
f 184//184 201//201 198//198
f 360//360 334//334 335//335
f 386//386 391//391 424//424
f 391//391 403//403 406//406
f 403//403 391//391 372//372
f 356//356 360//360 335//335
f 438//438 420//420 437//437
f 395//395 381//381 373//373
f 253//253 265//265 247//247
f 343//343 363//363 362//362
f 376//376 363//363 347//347
f 363//363 343//343 347//347
f 308//308 298//298 294//294
f 318//318 327//327 294//294
f 327//327 308//308 294//294
f 329//329 343//343 362//362
f 165//165 178//178 156//156
f 178//178 191//191 156//156
f 178//178 165//165 189//189
f 241//241 233//233 261//261
f 253//253 241//241 261//261
f 226//226 241//241 247//247
f 241//241 253//253 247//247
f 233//233 255//255 271//271
f 3//3 6//6 5//5
f 6//6 2//2 4//4
f 6//6 3//3 2//2
f 11//11 10//10 14//14
f 186//186 164//164 183//183
f 186//186 206//206 181//181
f 186//186 183//183 212//212
f 221//221 203//203 193//193
f 225//225 203//203 221//221
f 183//183 203//203 212//212
f 203//203 225//225 212//212
f 101//101 93//93 80//80
f 149//149 131//131 136//136
f 152//152 131//131 149//149
f 144//144 152//152 163//163
f 144//144 131//131 152//152
f 142//142 150//150 164//164
f 203//203 175//175 193//193
f 175//175 203//203 183//183
f 164//164 175//175 183//183
f 150//150 175//175 164//164
f 109//109 121//121 123//123
f 110//110 109//109 95//95
f 109//109 110//110 121//121
f 174//174 158//158 195//195
f 175//175 174//174 193//193
f 173//173 196//196 195//195
f 158//158 173//173 195//195
f 173//173 163//163 192//192
f 196//196 173//173 192//192
f 326//326 315//315 311//311
f 333//333 326//326 311//311
f 315//315 326//326 335//335
f 326//326 333//333 335//335
f 316//316 332//332 311//311
f 332//332 333//333 311//311
f 332//332 316//316 346//346
f 252//252 221//221 234//234
f 410//410 397//397 415//415
f 378//378 397//397 410//410
f 397//397 387//387 415//415
f 377//377 372//372 346//346
f 399//399 378//378 410//410
f 428//428 399//399 410//410
f 399//399 436//436 412//412
f 436//436 399//399 428//428
f 469//469 453//453 461//461
f 453//453 436//436 461//461
f 451//451 460//460 470//470
f 460//460 451//451 441//441
f 443//443 431//431 406//406
f 431//431 445//445 424//424
f 445//445 431//431 450//450
f 431//431 443//443 450//450
f 431//431 391//391 406//406
f 391//391 431//431 424//424
f 449//449 447//447 434//434
f 447//447 449//449 459//459
f 464//464 447//447 459//459
f 436//436 442//442 412//412
f 442//442 426//426 412//412
f 453//453 442//442 436//436
f 426//426 442//442 449//449
f 417//417 432//432 416//416
f 440//440 432//432 462//462
f 435//435 448//448 452//452
f 435//435 466//466 415//415
f 435//435 452//452 466//466
f 460//460 463//463 470//470
f 152//152 170//170 163//163
f 170//170 190//190 192//192
f 163//163 170//170 192//192
f 167//167 149//149 168//168
f 167//167 152//152 149//149
f 167//167 170//170 152//152
f 170//170 167//167 190//190
f 351//351 379//379 371//371
f 351//351 336//336 355//355
f 368//368 351//351 355//355
f 379//379 351//351 368//368
f 320//320 351//351 371//371
f 432//432 408//408 416//416
f 352//352 389//389 368//368
f 408//408 389//389 416//416
f 389//389 408//408 368//368
f 389//389 417//417 416//416
f 389//389 402//402 417//417
f 320//320 282//282 302//302
f 282//282 320//320 278//278
f 293//293 306//306 302//302
f 282//282 293//293 302//302
f 270//270 278//278 288//288
f 214//214 222//222 234//234
f 222//222 235//235 234//234
f 196//196 218//218 195//195
f 218//218 222//222 195//195
f 222//222 218//218 235//235
f 339//339 319//319 340//340
f 319//319 317//317 340//340
f 317//317 319//319 299//299
f 251//251 264//264 249//249
f 285//285 264//264 275//275
f 264//264 251//251 275//275
f 132//132 165//165 138//138
f 132//132 157//157 165//165
f 191//191 162//162 156//156
f 162//162 145//145 156//156
f 162//162 160//160 145//145
f 184//184 200//200 201//201
f 187//187 154//154 181//181
f 154//154 187//187 171//171
f 114//114 109//109 123//123
f 89//89 115//115 116//116
f 115//115 129//129 116//116
f 129//129 115//115 126//126
f 204//204 232//232 220//220
f 204//204 206//206 232//232
f 204//204 187//187 181//181
f 206//206 204//204 181//181
f 232//232 231//231 220//220
f 246//246 231//231 232//232
f 231//231 200//200 220//220
f 231//231 246//246 201//201
f 200//200 231//231 201//201
f 268//268 290//290 258//258
f 246//246 268//268 258//258
f 206//206 211//211 232//232
f 232//232 211//211 244//244
f 211//211 238//238 244//244
f 238//238 211//211 212//212
f 211//211 186//186 212//212
f 186//186 211//211 206//206
f 381//381 349//349 373//373
f 349//349 360//360 373//373
f 349//349 334//334 360//360
f 334//334 310//310 335//335
f 401//401 403//403 372//372
f 401//401 377//377 394//394
f 377//377 401//401 372//372
f 407//407 401//401 394//394
f 426//426 401//401 407//407
f 447//447 433//433 434//434
f 433//433 447//447 443//443
f 433//433 443//443 406//406
f 403//403 433//433 406//406
f 372//372 370//370 358//358
f 391//391 370//370 372//372
f 332//332 354//354 333//333
f 333//333 354//354 335//335
f 354//354 356//356 335//335
f 358//358 354//354 346//346
f 354//354 332//332 346//346
f 313//313 314//314 342//342
f 345//345 313//313 342//342
f 313//313 345//345 318//318
f 313//313 318//318 294//294
f 314//314 325//325 342//342
f 325//325 349//349 342//342
f 349//349 325//325 334//334
f 325//325 310//310 334//334
f 325//325 314//314 290//290
f 310//310 325//325 290//290
f 290//290 292//292 258//258
f 314//314 292//292 290//290
f 313//313 292//292 314//314
f 292//292 313//313 294//294
f 437//437 446//446 470//470
f 446//446 451//451 470//470
f 359//359 345//345 342//342
f 413//413 420//420 393//393
f 413//413 381//381 395//395
f 429//429 420//420 438//438
f 429//429 414//414 420//420
f 400//400 383//383 376//376
f 383//383 363//363 376//376
f 298//298 277//277 294//294
f 277//277 298//298 271//271
f 277//277 255//255 294//294
f 255//255 277//277 271//271
f 271//271 284//284 261//261
f 298//298 284//284 271//271
f 345//345 344//344 318//318
f 344//344 327//327 318//318
f 327//327 344//344 347//347
f 327//327 331//331 308//308
f 329//329 331//331 343//343
f 343//343 331//331 347//347
f 331//331 327//327 347//347
f 328//328 329//329 362//362
f 241//241 210//210 233//233
f 210//210 191//191 224//224
f 233//233 210//210 224//224
f 210//210 241//241 226//226
f 292//292 260//260 258//258
f 260//260 240//240 258//258
f 240//240 201//201 258//258
f 240//240 213//213 201//201
f 83//83 69//69 64//64
f 157//157 153//153 166//166
f 6//6 8//8 11//11
f 8//8 10//10 11//11
f 8//8 6//6 4//4
f 9//9 8//8 4//4
f 10//10 8//8 9//9
f 15//15 10//10 9//9
f 20//20 15//15 17//17
f 10//10 15//15 14//14
f 15//15 20//20 14//14
f 13//13 15//15 9//9
f 15//15 13//13 17//17
f 29//29 23//23 28//28
f 23//23 29//29 24//24
f 12//12 11//11 14//14
f 35//35 40//40 52//52
f 40//40 35//35 31//31
f 53//53 35//35 52//52
f 56//56 64//64 52//52
f 40//40 56//56 52//52
f 172//172 186//186 181//181
f 186//186 172//172 164//164
f 154//154 172//172 181//181
f 172//172 154//154 164//164
f 72//72 73//73 98//98
f 73//73 92//92 98//98
f 92//92 118//118 98//98
f 118//118 92//92 106//106
f 93//93 117//117 108//108
f 117//117 93//93 101//101
f 118//118 105//105 98//98
f 105//105 110//110 95//95
f 76//76 105//105 95//95
f 105//105 72//72 98//98
f 72//72 105//105 76//76
f 122//122 118//118 135//135
f 139//139 122//122 135//135
f 105//105 122//122 110//110
f 122//122 105//105 118//118
f 110//110 122//122 121//121
f 148//148 144//144 163//163
f 109//109 96//96 95//95
f 95//95 96//96 78//78
f 96//96 114//114 97//97
f 114//114 96//96 109//109
f 121//121 137//137 123//123
f 122//122 137//137 121//121
f 137//137 122//122 139//139
f 137//137 142//142 123//123
f 142//142 137//137 150//150
f 194//194 174//174 195//195
f 222//222 194//194 195//195
f 194//194 222//222 214//214
f 194//194 214//214 193//193
f 174//174 194//194 193//193
f 137//137 147//147 150//150
f 147//147 137//137 139//139
f 147//147 175//175 150//150
f 147//147 174//174 175//175
f 353//353 348//348 369//369
f 353//353 377//377 346//346
f 377//377 353//353 369//369
f 353//353 321//321 348//348
f 348//348 321//321 338//338
f 316//316 321//321 346//346
f 321//321 353//353 346//346
f 321//321 322//322 338//338
f 322//322 321//321 289//289
f 236//236 225//225 221//221
f 252//252 236//236 221//221
f 295//295 322//322 289//289
f 361//361 320//320 371//371
f 361//361 397//397 378//378
f 387//387 361//361 371//371
f 397//397 361//361 387//387
f 385//385 377//377 369//369
f 385//385 399//399 412//412
f 394//394 385//385 412//412
f 377//377 385//385 394//394
f 411//411 395//395 380//380
f 411//411 380//380 424//424
f 427//427 411//411 424//424
f 443//443 457//457 450//450
f 447//447 457//457 443//443
f 457//457 447//447 464//464
f 455//455 453//453 469//469
f 455//455 442//442 453//453
f 442//442 455//455 449//449
f 448//448 418//418 423//423
f 435//435 418//418 448//448
f 423//423 418//418 398//398
f 418//418 387//387 398//398
f 387//387 418//418 415//415
f 418//418 435//435 415//415
f 465//465 445//445 450//450
f 465//465 463//463 445//445
f 457//457 465//465 450//450
f 465//465 457//457 471//471
f 445//445 439//439 424//424
f 439//439 427//427 424//424
f 336//336 324//324 306//306
f 351//351 324//324 336//336
f 306//306 324//324 302//302
f 324//324 320//320 302//302
f 324//324 351//351 320//320
f 409//409 379//379 368//368
f 408//408 409//409 368//368
f 409//409 423//423 398//398
f 379//379 409//409 398//398
f 374//374 389//389 352//352
f 374//374 339//339 340//340
f 374//374 352//352 339//339
f 374//374 340//340 375//375
f 389//389 374//374 402//402
f 270//270 248//248 278//278
f 248//248 270//270 235//235
f 248//248 282//282 278//278
f 263//263 243//243 259//259
f 293//293 263//263 259//259
f 263//263 293//293 282//282
f 263//263 248//248 243//243
f 248//248 263//263 282//282
f 207//207 218//218 196//196
f 207//207 196//196 192//192
f 205//205 207//207 192//192
f 207//207 205//205 216//216
f 293//293 291//291 306//306
f 249//249 230//230 217//217
f 230//230 215//215 217//217
f 223//223 243//243 216//216
f 205//205 223//223 216//216
f 202//202 209//209 180//180
f 215//215 209//209 202//202
f 230//230 209//209 215//215
f 209//209 230//230 227//227
f 132//132 119//119 157//157
f 119//119 153//153 157//157
f 176//176 162//162 191//191
f 210//210 176//176 191//191
f 160//160 176//176 177//177
f 162//162 176//176 160//160
f 54//54 46//46 43//43
f 100//100 89//89 116//116
f 81//81 84//84 74//74
f 46//46 62//62 49//49
f 54//54 62//62 46//46
f 187//187 188//188 171//171
f 188//188 200//200 184//184
f 204//204 188//188 187//187
f 171//171 188//188 166//166
f 188//188 184//184 166//166
f 200//200 188//188 220//220
f 188//188 204//204 220//220
f 133//133 142//142 164//164
f 154//154 133//133 164//164
f 114//114 133//133 126//126
f 107//107 114//114 126//126
f 115//115 107//107 126//126
f 114//114 107//107 97//97
f 107//107 81//81 97//97
f 107//107 84//84 81//81
f 107//107 115//115 89//89
f 84//84 107//107 89//89
f 281//281 310//310 290//290
f 268//268 281//281 290//290
f 281//281 246//246 279//279
f 281//281 268//268 246//246
f 401//401 405//405 403//403
f 405//405 433//433 403//403
f 433//433 405//405 434//434
f 405//405 426//426 434//434
f 405//405 401//401 426//426
f 367//367 391//391 386//386
f 367//367 370//370 391//391
f 367//367 386//386 380//380
f 370//370 367//367 358//358
f 360//360 367//367 380//380
f 356//356 367//367 360//360
f 367//367 354//354 358//358
f 354//354 367//367 356//356
f 357//357 359//359 342//342
f 349//349 357//357 342//342
f 357//357 349//349 381//381
f 390//390 413//413 393//393
f 413//413 390//390 381//381
f 390//390 357//357 381//381
f 359//359 390//390 393//393
f 357//357 390//390 359//359
f 413//413 430//430 420//420
f 420//420 430//430 437//437
f 430//430 446//446 437//437
f 451//451 430//430 441//441
f 446//446 430//430 451//451
f 419//419 429//429 421//421
f 429//429 419//419 414//414
f 419//419 392//392 414//414
f 400//400 404//404 421//421
f 404//404 419//419 421//421
f 419//419 404//404 392//392
f 364//364 376//376 347//347
f 344//344 364//364 347//347
f 388//388 383//383 400//400
f 363//363 388//388 362//362
f 383//383 388//388 363//363
f 284//284 272//272 261//261
f 272//272 253//253 261//261
f 253//253 272//272 265//265
f 197//197 210//210 226//226
f 176//176 197//197 177//177
f 197//197 176//176 210//210
f 274//274 292//292 294//294
f 274//274 260//260 292//292
f 255//255 274//274 294//294
f 213//213 219//219 189//189
f 219//219 178//178 189//189
f 191//191 219//219 224//224
f 178//178 219//219 191//191
f 254//254 240//240 260//260
f 254//254 274//274 255//255
f 274//274 254//254 260//260
f 83//83 79//79 69//69
f 77//77 83//83 64//64
f 155//155 154//154 171//171
f 155//155 171//171 166//166
f 153//153 155//155 166//166
f 32//32 21//21 38//38
f 20//20 22//22 14//14
f 22//22 23//23 14//14
f 23//23 22//22 28//28
f 22//22 27//27 28//28
f 27//27 22//22 20//20
f 39//39 46//46 49//49
f 48//48 56//56 40//40
f 33//33 40//40 31//31
f 24//24 33//33 31//31
f 23//23 16//16 14//14
f 16//16 12//12 14//14
f 16//16 23//23 24//24
f 7//7 3//3 5//5
f 12//12 7//7 11//11
f 6//6 7//7 5//5
f 7//7 6//6 11//11
f 85//85 92//92 73//73
f 47//47 50//50 38//38
f 50//50 47//47 57//57
f 57//57 47//47 58//58
f 112//112 117//117 101//101
f 117//117 112//112 131//131
f 131//131 112//112 136//136
f 112//112 125//125 136//136
f 112//112 101//101 125//125
f 161//161 173//173 158//158
f 148//148 161//161 158//158
f 173//173 161//161 163//163
f 161//161 148//148 163//163
f 118//118 141//141 135//135
f 130//130 106//106 108//108
f 148//148 130//130 144//144
f 117//117 130//130 108//108
f 144//144 130//130 131//131
f 130//130 117//117 131//131
f 151//151 139//139 135//135
f 151//151 147//147 139//139
f 141//141 151//151 135//135
f 147//147 151//151 174//174
f 174//174 151//151 158//158
f 151//151 141//141 158//158
f 300//300 321//321 316//316
f 321//321 300//300 289//289
f 300//300 316//316 311//311
f 300//300 286//286 280//280
f 286//286 300//300 311//311
f 276//276 236//236 252//252
f 276//276 300//300 280//280
f 300//300 276//276 289//289
f 257//257 252//252 234//234
f 235//235 257//257 234//234
f 270//270 257//257 235//235
f 257//257 270//270 288//288
f 295//295 257//257 288//288
f 361//361 323//323 320//320
f 350//350 361//361 378//378
f 322//322 350//350 338//338
f 348//348 365//365 369//369
f 365//365 385//385 369//369
f 365//365 348//348 338//338
f 350//350 365//365 338//338
f 385//385 365//365 399//399
f 399//399 365//365 378//378
f 365//365 350//350 378//378
f 457//457 468//468 471//471
f 468//468 457//457 464//464
f 468//468 472//472 471//471
f 468//468 464//464 472//472
f 467//467 455//455 469//469
f 449//449 467//467 459//459
f 455//455 467//467 449//449
f 467//467 464//464 459//459
f 464//464 467//467 472//472
f 467//467 469//469 475//475
f 472//472 467//467 475//475
f 465//465 474//474 463//463
f 463//463 474//474 470//470
f 474//474 465//465 471//471
f 474//474 473//473 476//476
f 474//474 471//471 473//473
f 463//463 458//458 445//445
f 458//458 439//439 445//445
f 458//458 463//463 460//460
f 425//425 409//409 408//408
f 425//425 432//432 440//440
f 425//425 408//408 432//432
f 425//425 440//440 423//423
f 409//409 425//425 423//423
f 402//402 382//382 375//375
f 382//382 374//374 375//375
f 374//374 382//382 402//402
f 218//218 228//228 235//235
f 228//228 248//248 235//235
f 228//228 207//207 216//216
f 207//207 228//228 218//218
f 243//243 228//228 216//216
f 248//248 228//228 243//243
f 266//266 293//293 259//259
f 266//266 291//291 293//293
f 283//283 285//285 299//299
f 319//319 283//283 299//299
f 283//283 264//264 285//285
f 264//264 283//283 249//249
f 180//180 182//182 168//168
f 167//167 182//182 190//190
f 182//182 167//167 168//168
f 209//209 199//199 180//180
f 199//199 182//182 180//180
f 102//102 120//120 113//113
f 120//120 132//132 138//138
f 128//128 120//120 138//138
f 113//113 120//120 128//128
f 119//119 127//127 153//153
f 127//127 100//100 116//116
f 100//100 127//127 103//103
f 127//127 155//155 153//153
f 129//129 127//127 116//116
f 155//155 127//127 129//129
f 71//71 54//54 78//78
f 71//71 62//62 54//54
f 62//62 71//71 81//81
f 96//96 71//71 78//78
f 81//81 71//71 97//97
f 71//71 96//96 97//97
f 133//133 140//140 126//126
f 140//140 133//133 154//154
f 140//140 129//129 126//126
f 140//140 155//155 129//129
f 155//155 140//140 154//154
f 133//133 124//124 142//142
f 124//124 133//133 114//114
f 142//142 124//124 123//123
f 124//124 114//114 123//123
f 281//281 303//303 310//310
f 303//303 315//315 335//335
f 310//310 303//303 335//335
f 315//315 303//303 279//279
f 303//303 281//281 279//279
f 422//422 413//413 395//395
f 422//422 430//430 413//413
f 411//411 422//422 395//395
f 430//430 422//422 441//441
f 422//422 427//427 441//441
f 422//422 411//411 427//427
f 404//404 384//384 392//392
f 364//364 384//384 376//376
f 384//384 364//364 392//392
f 384//384 400//400 376//376
f 384//384 404//404 400//400
f 366//366 344//344 345//345
f 366//366 364//364 344//344
f 359//359 366//366 345//345
f 366//366 359//359 393//393
f 364//364 366//366 392//392
f 296//296 272//272 284//284
f 272//272 296//296 265//265
f 296//296 284//284 298//298
f 254//254 229//229 240//240
f 240//240 229//229 213//213
f 229//229 219//219 213//213
f 229//229 254//254 255//255
f 219//219 229//229 224//224
f 229//229 233//233 224//224
f 229//229 255//255 233//233
f 99//99 79//79 83//83
f 48//48 60//60 56//56
f 84//84 75//75 74//74
f 75//75 84//84 89//89
f 75//75 60//60 74//74
f 77//77 86//86 83//83
f 86//86 100//100 103//103
f 100//100 86//86 89//89
f 86//86 75//75 89//89
f 75//75 86//86 77//77
f 26//26 20//20 17//17
f 26//26 27//27 20//20
f 46//46 36//36 43//43
f 39//39 36//36 46//46
f 27//27 36//36 28//28
f 36//36 29//29 28//28
f 36//36 39//39 29//29
f 41//41 48//48 40//40
f 33//33 41//41 40//40
f 39//39 41//41 29//29
f 41//41 39//39 49//49
f 48//48 41//41 49//49
f 18//18 16//16 24//24
f 16//16 18//18 12//12
f 18//18 24//24 31//31
f 55//55 61//61 51//51
f 61//61 55//55 72//72
f 61//61 72//72 76//76
f 61//61 76//76 78//78
f 54//54 61//61 78//78
f 61//61 54//54 51//51
f 50//50 45//45 38//38
f 55//55 45//45 50//50
f 72//72 65//65 73//73
f 55//55 65//65 72//72
f 65//65 50//50 73//73
f 65//65 55//55 50//50
f 66//66 85//85 73//73
f 66//66 50//50 57//57
f 50//50 66//66 73//73
f 106//106 94//94 108//108
f 92//92 94//94 106//106
f 85//85 94//94 92//92
f 134//134 130//130 148//148
f 134//134 148//148 158//158
f 141//141 134//134 158//158
f 134//134 141//141 118//118
f 134//134 118//118 106//106
f 130//130 134//134 106//106
f 276//276 242//242 236//236
f 236//236 242//242 225//225
f 242//242 239//239 212//212
f 225//225 242//242 212//212
f 257//257 269//269 252//252
f 269//269 257//257 295//295
f 269//269 295//295 289//289
f 276//276 269//269 289//289
f 269//269 276//276 252//252
f 323//323 307//307 320//320
f 278//278 307//307 288//288
f 320//320 307//307 278//278
f 330//330 323//323 361//361
f 350//350 330//330 361//361
f 330//330 350//350 322//322
f 444//444 458//458 460//460
f 458//458 444//444 439//439
f 444//444 460//460 441//441
f 427//427 444//444 441//441
f 439//439 444//444 427//427
f 245//245 266//266 259//259
f 245//245 223//223 227//227
f 243//243 245//245 259//259
f 223//223 245//245 243//243
f 304//304 283//283 319//319
f 283//283 304//304 291//291
f 336//336 304//304 339//339
f 304//304 319//319 339//339
f 304//304 336//336 306//306
f 291//291 304//304 306//306
f 266//266 273//273 291//291
f 273//273 283//283 291//291
f 283//283 273//273 249//249
f 223//223 208//208 227//227
f 208//208 209//209 227//227
f 208//208 199//199 209//209
f 208//208 205//205 190//190
f 208//208 223//223 205//205
f 182//182 208//208 190//190
f 199//199 208//208 182//182
f 396//396 366//366 393//393
f 420//420 396//396 393//393
f 414//414 396//396 420//420
f 392//392 396//396 414//414
f 366//366 396//396 392//392
f 296//296 297//297 265//265
f 309//309 298//298 308//308
f 309//309 296//296 298//298
f 331//331 309//309 308//308
f 309//309 331//331 329//329
f 309//309 328//328 305//305
f 328//328 309//309 329//329
f 297//297 309//309 305//305
f 309//309 297//297 296//296
f 99//99 111//111 119//119
f 127//127 111//111 103//103
f 111//111 127//127 119//119
f 91//91 99//99 83//83
f 91//91 86//86 103//103
f 86//86 91//91 83//83
f 111//111 91//91 103//103
f 91//91 111//111 99//99
f 88//88 102//102 87//87
f 60//60 68//68 56//56
f 56//56 68//68 64//64
f 68//68 77//77 64//64
f 68//68 75//75 77//77
f 75//75 68//68 60//60
f 59//59 48//48 49//49
f 59//59 60//60 48//48
f 60//60 59//59 74//74
f 19//19 26//26 17//17
f 13//13 19//19 17//17
f 21//21 19//19 13//13
f 41//41 30//30 29//29
f 30//30 41//41 33//33
f 29//29 30//30 24//24
f 30//30 33//33 24//24
f 42//42 45//45 55//55
f 42//42 32//32 38//38
f 45//45 42//42 38//38
f 67//67 66//66 57//57
f 66//66 67//67 85//85
f 67//67 70//70 85//85
f 67//67 57//57 58//58
f 70//70 67//67 58//58
f 70//70 90//90 85//85
f 90//90 94//94 85//85
f 93//93 90//90 80//80
f 90//90 70//70 80//80
f 90//90 93//93 108//108
f 94//94 90//90 108//108
f 256//256 242//242 276//276
f 267//267 256//256 280//280
f 256//256 276//276 280//280
f 256//256 267//267 239//239
f 242//242 256//256 239//239
f 301//301 295//295 288//288
f 307//307 301//301 288//288
f 301//301 307//307 323//323
f 330//330 301//301 323//323
f 295//295 301//301 322//322
f 301//301 330//330 322//322
f 250//250 245//245 227//227
f 245//245 250//250 266//266
f 250//250 273//273 266//266
f 230//230 250//250 227//227
f 250//250 230//230 249//249
f 273//273 250//250 249//249
f 99//99 82//82 79//79
f 88//88 82//82 99//99
f 82//82 88//88 87//87
f 79//79 82//82 69//69
f 104//104 99//99 119//119
f 104//104 88//88 99//99
f 104//104 119//119 132//132
f 120//120 104//104 132//132
f 104//104 120//120 102//102
f 88//88 104//104 102//102
f 62//62 63//63 49//49
f 63//63 59//59 49//49
f 59//59 63//63 74//74
f 63//63 81//81 74//74
f 63//63 62//62 81//81
f 25//25 19//19 21//21
f 19//19 25//25 26//26
f 25//25 34//34 26//26
f 25//25 21//21 32//32
f 34//34 25//25 32//32
f 44//44 34//34 32//32
f 42//42 44//44 32//32
f 44//44 42//42 55//55
f 44//44 55//55 51//51
f 26//26 37//37 27//27
f 34//34 37//37 26//26
f 36//36 37//37 43//43
f 37//37 36//36 27//27
f 44//44 37//37 34//34
f 37//37 54//54 43//43
f 54//54 37//37 51//51
f 37//37 44//44 51//51
