v -1.444970564 -0.245910834 -6.362616774 0.286275 0.294118 0.250980
v -1.435889510 -0.243741095 -6.360549516 0.517647 0.529412 0.462745
v -1.469738173 -0.248105191 -6.365580637 0.219608 0.227451 0.215686
v -1.446020999 -0.231769518 -6.353321376 0.466667 0.501961 0.384314
v -1.442266126 -0.234906116 -6.349289611 0.513725 0.631373 0.396078
v -1.458309612 -0.243379626 -6.350041306 0.525490 0.635294 0.396078
v -1.495664651 -0.254738290 -6.354111482 0.309804 0.341176 0.211765
v -1.506529317 -0.257030115 -6.353607450 0.321569 0.368627 0.215686
v -1.476940215 -0.253600498 -6.345969904 0.392157 0.501961 0.184314
v -1.462489332 -0.238431875 -6.344537128 0.494118 0.611765 0.368627
v -1.515964650 -0.261924235 -6.349512212 0.388235 0.447059 0.278431
v -1.454930259 -0.239526272 -6.339275124 0.494118 0.611765 0.368627
v -1.499604179 -0.260646574 -6.340837210 0.333333 0.443137 0.145098
v -1.519606388 -0.261624392 -6.346137308 0.364706 0.384314 0.298039
v -1.530650475 -0.273444475 -6.342998401 0.337255 0.341176 0.301961
v -1.410517787 -0.192836179 -6.338636631 0.517647 0.584314 0.345098
v -1.422872505 -0.201037832 -6.338901175 0.466667 0.556863 0.274510
v -1.400671891 -0.186401817 -6.336267955 0.415686 0.458824 0.313725
v -1.482522104 -0.258369824 -6.329816194 0.372549 0.494118 0.184314
v -1.506129885 -0.265356449 -6.331944017 0.321569 0.439216 0.172549
v -1.523977618 -0.278726074 -6.327009459 0.396078 0.513725 0.250980
v -1.537355461 -0.289343770 -6.326845490 0.482353 0.533333 0.384314
v -1.550998814 -0.299769970 -6.324623198 0.286275 0.282353 0.274510
v -1.473091504 -0.248667012 -6.320244043 0.403922 0.521569 0.258824
v -1.506133322 -0.263970158 -6.320515062 0.368627 0.490196 0.196078
v -1.459097478 -0.228501353 -6.318795443 0.482353 0.611765 0.290196
v -1.449524998 -0.221675893 -6.316012057 0.435294 0.568627 0.243137
v -1.498312877 -0.260275257 -6.313795615 0.376471 0.494118 0.223529
v -1.542655583 -0.294516293 -6.313038616 0.443137 0.494118 0.364706
v -1.410295829 -0.179671047 -6.316921091 0.419608 0.486275 0.298039
v -1.443388521 -0.213364382 -6.313256455 0.462745 0.600000 0.274510
v -1.476652576 -0.245241978 -6.308991324 0.349020 0.454902 0.215686
v -1.430491508 -0.201692296 -6.311988369 0.462745 0.596078 0.262745
v -1.486026074 -0.250135041 -6.309566375 0.384314 0.513725 0.247059
v -1.533549180 -0.287949193 -6.308811044 0.494118 0.615686 0.349020
v -1.493583699 -0.255766726 -6.306413120 0.415686 0.541176 0.250980
v -1.407351622 -0.169664512 -6.313142641 0.564706 0.631373 0.419608
v -1.499675888 -0.255471740 -6.305855457 0.388235 0.525490 0.239216
v -1.455695928 -0.221725609 -6.304879614 0.423529 0.560784 0.223529
v -1.449766082 -0.214042570 -6.303692218 0.419608 0.545098 0.215686
v -1.504812063 -0.261238360 -6.301447176 0.400000 0.521569 0.247059
v -1.438780582 -0.208683394 -6.301452618 0.439216 0.572549 0.274510
v -1.517570556 -0.264805327 -6.301808598 0.388235 0.494118 0.243137
v -1.545198387 -0.292360511 -6.297392932 0.447059 0.560784 0.301961
v -1.415361185 -0.180557641 -6.301768221 0.184314 0.231373 0.101961
v -1.397913931 -0.157018901 -6.305603825 0.384314 0.411765 0.329412
v -1.519819808 -0.268418919 -6.298437969 0.419608 0.541176 0.266667
v -1.533151891 -0.276705206 -6.297890260 0.392157 0.509804 0.250980
v -1.404056068 -0.161813275 -6.300507955 0.419608 0.529412 0.266667
v -1.484673735 -0.242923699 -6.292411059 0.423529 0.552941 0.282353
v -1.494566995 -0.249656731 -6.292135218 0.439216 0.564706 0.290196
v -1.411220735 -0.170503670 -6.297869496 0.427451 0.533333 0.274510
v -1.392040695 -0.155244518 -6.296249845 0.435294 0.556863 0.243137
v -1.506906086 -0.260001733 -6.289399531 0.415686 0.545098 0.258824
v -1.527483930 -0.273350848 -6.289413315 0.450980 0.576471 0.305882
v -1.478225739 -0.235703781 -6.288101076 0.411765 0.541176 0.207843
v -1.385140049 -0.143043202 -6.293797390 0.207843 0.219608 0.188235
v -1.514806062 -0.263213909 -6.284653251 0.403922 0.509804 0.250980
v -1.459440121 -0.222283601 -6.281401058 0.443137 0.576471 0.247059
v -1.551131037 -0.293395894 -6.280889109 0.439216 0.552941 0.282353
v -1.451634787 -0.213497218 -6.282305775 0.450980 0.580392 0.278431
v -1.496057863 -0.247434783 -6.281962548 0.447059 0.568627 0.294118
v -1.514300970 -0.264394750 -6.276816403 0.419608 0.545098 0.274510
v -1.561558864 -0.303332187 -6.272461891 0.219608 0.231373 0.184314
v -1.442231484 -0.205137753 -6.272556108 0.427451 0.556863 0.258824
v -1.536685504 -0.280518184 -6.270902405 0.458824 0.584314 0.313725
v -1.397215569 -0.148783706 -6.280153934 0.439216 0.560784 0.290196
v -1.385781831 -0.134647221 -6.282161866 0.376471 0.407843 0.337255
v -1.510254583 -0.257159204 -6.270957311 0.447059 0.572549 0.301961
v -1.555066072 -0.295988672 -6.265873217 0.454902 0.564706 0.325490
v -1.530213811 -0.277758584 -6.265423155 0.392157 0.513725 0.250980
v -1.454337884 -0.216092651 -6.265846741 0.439216 0.572549 0.243137
v -1.406367671 -0.161926383 -6.269802437 0.439216 0.560784 0.278431
v -1.543446246 -0.283601400 -6.261560241 0.454902 0.576471 0.321569
v -1.384329733 -0.126475243 -6.274916527 0.192157 0.211765 0.168627
v -1.499600136 -0.243112433 -6.263483431 0.439216 0.560784 0.294118
v -1.519537250 -0.263931135 -6.258231662 0.450980 0.572549 0.290196
v -1.416517084 -0.171246959 -6.263178441 0.427451 0.560784 0.270588
v -1.469966796 -0.224970499 -6.256253589 0.423529 0.545098 0.250980
v -1.401240968 -0.151524302 -6.263376049 0.454902 0.580392 0.329412
v -1.551432203 -0.289456063 -6.252607272 0.450980 0.568627 0.329412
v -1.508786569 -0.250023402 -6.255198491 0.458824 0.576471 0.313725
v -1.393454176 -0.137351884 -6.264640879 0.466667 0.584314 0.352941
v -1.428125437 -0.180976091 -6.257341711 0.427451 0.552941 0.258824
v -1.384813553 -0.128090134 -6.264238803 0.411765 0.521569 0.290196
v -1.452756200 -0.204694573 -6.254372262 0.407843 0.521569 0.254902
v -1.404730244 -0.157985886 -6.257676707 0.443137 0.568627 0.294118
v -1.477357551 -0.224387072 -6.251723338 0.498039 0.607843 0.356863
v -1.495686692 -0.236700137 -6.251820566 0.447059 0.572549 0.305882
v -1.412482960 -0.166759161 -6.253696610 0.419608 0.545098 0.270588
v -1.467946965 -0.219180666 -6.249277252 0.443137 0.560784 0.301961
v -1.386646593 -0.125386410 -6.261520891 0.274510 0.278431 0.223529
v -1.544457478 -0.280495320 -6.246358315 0.450980 0.576471 0.317647
v -1.370222248 -0.117826662 -6.257115968 0.184314 0.203922 0.133333
v -1.555431328 -0.291220782 -6.243662535 0.478431 0.600000 0.360784
v -1.401665774 -0.151472899 -6.252303308 0.439216 0.564706 0.294118
v -1.372248263 -0.122862889 -6.254547467 0.356863 0.478431 0.200000
v -1.520095596 -0.258241886 -6.245231677 0.454902 0.568627 0.313725
v -1.486001407 -0.227919104 -6.246111629 0.474510 0.588235 0.337255
v -1.509536426 -0.246920878 -6.245047451 0.474510 0.592157 0.333333
v -1.535410960 -0.271813179 -6.243028006 0.482353 0.596078 0.345098
v -1.394853969 -0.144952680 -6.249867961 0.439216 0.564706 0.305882
v -1.386075959 -0.134317401 -6.251187212 0.431373 0.560784 0.274510
v -1.451775097 -0.197230420 -6.244739587 0.411765 0.533333 0.266667
v -1.355950231 -0.115776291 -6.246429043 0.368627 0.407843 0.270588
v -1.376139572 -0.120732397 -6.249847872 0.439216 0.466667 0.341176
v -1.413441407 -0.162623735 -6.244567582 0.431373 0.552941 0.274510
v -1.441735862 -0.183873709 -6.244348382 0.407843 0.537255 0.247059
v -1.527855934 -0.262758307 -6.238126032 0.454902 0.568627 0.313725
v -1.568648873 -0.304005238 -6.233669989 0.454902 0.505882 0.396078
v -1.550465844 -0.282158324 -6.235533416 0.482353 0.607843 0.337255
v -1.463033810 -0.207180275 -6.237860777 0.427451 0.541176 0.278431
v -1.359070979 -0.121472035 -6.238479138 0.364706 0.482353 0.200000
v -1.562448858 -0.295229524 -6.230013127 0.466667 0.580392 0.352941
v -1.421303554 -0.165332563 -6.237649377 0.427451 0.556863 0.278431
v -1.390041266 -0.148776945 -6.233712463 0.462745 0.576471 0.317647
v -1.487865806 -0.224515501 -6.232376659 0.454902 0.568627 0.309804
v -1.457504833 -0.196150342 -6.232187981 0.435294 0.552941 0.290196
v -1.375042319 -0.135309638 -6.231214574 0.407843 0.537255 0.250980
v -1.501741955 -0.236727367 -6.228655421 0.474510 0.592157 0.325490
v -1.432481853 -0.171243756 -6.233186765 0.419608 0.545098 0.262745
v -1.393251299 -0.146509621 -6.229973407 0.431373 0.560784 0.274510
v -1.341958803 -0.109546700 -6.228725076 0.180392 0.207843 0.141176
v -1.363078571 -0.127658739 -6.227157629 0.392157 0.521569 0.235294
v -1.381496207 -0.140770631 -6.224844381 0.431373 0.552941 0.286275
v -1.541456494 -0.267885860 -6.222641003 0.466667 0.572549 0.317647
v -1.573200453 -0.303965959 -6.217536032 0.494118 0.572549 0.396078
v -1.370034536 -0.132492452 -6.222949807 0.419608 0.537255 0.262745
v -1.443984589 -0.175952795 -6.227907643 0.419608 0.549020 0.250980
v -1.469840096 -0.208259363 -6.222741090 0.447059 0.572549 0.286275
v -1.451909283 -0.181437563 -6.227605977 0.415686 0.541176 0.250980
v -1.525795696 -0.254898573 -6.220474290 0.419608 0.533333 0.274510
v -1.351469079 -0.121531016 -6.219968334 0.411765 0.529412 0.258824
v -1.490526680 -0.223113873 -6.221454944 0.450980 0.568627 0.313725
v -1.337378696 -0.109626957 -6.218984068 0.392157 0.454902 0.286275
v -1.550032180 -0.273453595 -6.218264806 0.521569 0.615686 0.356863
v -1.559640375 -0.283916303 -6.216253531 0.474510 0.596078 0.345098
v -1.517820424 -0.245796828 -6.218450813 0.462745 0.584314 0.337255
v -1.566560052 -0.292587631 -6.214155208 0.482353 0.596078 0.360784
v -1.462298600 -0.188664652 -6.221485680 0.415686 0.541176 0.247059
v -1.571750294 -0.298743616 -6.209548051 0.462745 0.568627 0.337255
v -1.409229566 -0.156360208 -6.215749404 0.352941 0.482353 0.203922
v -1.508594035 -0.235433815 -6.213674545 0.470588 0.584314 0.305882
v -1.365337623 -0.125450505 -6.212865122 0.360784 0.462745 0.231373
v -1.555617285 -0.275722832 -6.210313577 0.525490 0.627451 0.372549
v -1.494918046 -0.223303581 -6.212294949 0.427451 0.541176 0.274510
v -1.533284709 -0.255279101 -6.208616682 0.443137 0.556863 0.309804
v -1.461704515 -0.190520202 -6.212424406 0.415686 0.537255 0.270588
v -1.358465809 -0.122984680 -6.207594438 0.419608 0.541176 0.266667
v -1.378889585 -0.134428021 -6.209114925 0.380392 0.494118 0.278431
v -1.420878264 -0.163168785 -6.209199076 0.376471 0.501961 0.223529
v -1.565647481 -0.285581913 -6.204135928 0.470588 0.588235 0.360784
v -1.482650007 -0.212669821 -6.207033858 0.435294 0.552941 0.301961
v -1.504668537 -0.228393747 -6.207172808 0.443137 0.560784 0.298039
v -1.380393013 -0.130256781 -6.207411811 0.376471 0.490196 0.274510
v -1.579427593 -0.303011247 -6.199240911 0.266667 0.258824 0.176471
v -1.370845298 -0.126996031 -6.204548260 0.407843 0.529412 0.262745
v -1.471773093 -0.201526465 -6.205187480 0.419608 0.545098 0.258824
v -1.544289482 -0.261714231 -6.202816574 0.435294 0.549020 0.294118
v -1.336740634 -0.112012122 -6.199301388 0.423529 0.552941 0.231373
v -1.572320089 -0.291744990 -6.198496075 0.470588 0.576471 0.341176
v -1.390591001 -0.139409309 -6.202265472 0.400000 0.513725 0.298039
v -1.529522974 -0.247356808 -6.200313952 0.470588 0.592157 0.321569
v -1.555348693 -0.268998020 -6.199099913 0.458824 0.568627 0.317647
v -1.376733294 -0.130860933 -6.199237730 0.447059 0.568627 0.298039
v -1.354174744 -0.119419500 -6.196157768 0.423529 0.549020 0.270588
v -1.565819767 -0.280165452 -6.195879092 0.482353 0.580392 0.356863
v -1.324151164 -0.100732267 -6.190838803 0.360784 0.427451 0.235294
v -1.415862680 -0.156394994 -6.195313115 0.407843 0.533333 0.247059
v -1.550960232 -0.262064143 -6.193297899 0.439216 0.549020 0.309804
v -1.489663984 -0.211144840 -6.194775030 0.454902 0.576471 0.290196
v -1.339874936 -0.110121956 -6.188433547 0.411765 0.529412 0.250980
v -1.524261797 -0.236501245 -6.192482134 0.498039 0.611765 0.349020
v -1.384825773 -0.133888674 -6.188636104 0.454902 0.576471 0.309804
v -1.537189038 -0.245824501 -6.189998283 0.443137 0.549020 0.309804
v -1.517464545 -0.228578303 -6.190260565 0.435294 0.556863 0.298039
v -1.425551213 -0.160648737 -6.188099331 0.411765 0.537255 0.250980
v -1.359948856 -0.116158832 -6.185336759 0.450980 0.576471 0.290196
v -1.445900356 -0.172019559 -6.187373902 0.380392 0.505882 0.207843
v -1.467805074 -0.191871664 -6.185923452 0.435294 0.556863 0.286275
v -1.570745253 -0.273037255 -6.182202295 0.611765 0.643137 0.431373
v -1.558270569 -0.260483022 -6.181835098 0.509804 0.596078 0.345098
v -1.395982260 -0.138726187 -6.180578927 0.462745 0.584314 0.317647
v -1.369917175 -0.121951377 -6.179004906 0.447059 0.572549 0.298039
v -1.351079931 -0.108795239 -6.176439097 0.427451 0.549020 0.286275
v -1.306895873 -0.083652139 -6.172260346 0.505882 0.603922 0.384314
v -1.321224854 -0.094202483 -6.172253504 0.403922 0.501961 0.290196
v -1.421728471 -0.153738755 -6.178552395 0.407843 0.525490 0.258824
v -1.458007696 -0.180846456 -6.177779324 0.447059 0.552941 0.274510
v -1.526278868 -0.227988495 -6.178975904 0.431373 0.533333 0.290196
v -1.509500711 -0.213734915 -6.178996913 0.450980 0.556863 0.309804
v -1.294929985 -0.068987387 -6.171232977 0.541176 0.631373 0.450980
v -1.439692104 -0.164637006 -6.175755181 0.400000 0.521569 0.243137
v -1.467113407 -0.185564927 -6.175344127 0.439216 0.556863 0.282353
v -1.575143070 -0.272293684 -6.173593356 0.639216 0.611765 0.411765
v -1.501115528 -0.206603419 -6.177071376 0.505882 0.596078 0.360784
v -1.448995373 -0.171010513 -6.175425994 0.427451 0.541176 0.262745
v -1.476811078 -0.190082264 -6.173409235 0.447059 0.564706 0.294118
v -1.392995392 -0.133205566 -6.170446237 0.447059 0.568627 0.298039
v -1.364970991 -0.113230242 -6.166268794 0.486275 0.603922 0.329412
v -1.523518882 -0.219190882 -6.171718900 0.666667 0.721569 0.490196
v -1.290370786 -0.050941751 -6.167972189 0.376471 0.435294 0.301961
v -1.286260190 -0.036411818 -6.172297735 0.274510 0.282353 0.250980
v -1.428903242 -0.153366515 -6.168813412 0.400000 0.521569 0.231373
v -1.376031572 -0.119219097 -6.166431401 0.411765 0.537255 0.243137
v -1.307529734 -0.077209033 -6.161909460 0.521569 0.627451 0.419608
v -1.457491754 -0.173182459 -6.168942165 0.470588 0.572549 0.317647
v -1.344911430 -0.099694863 -6.163016121 0.447059 0.572549 0.305882
v -1.547602126 -0.236394865 -6.169278627 0.501961 0.576471 0.321569
v -1.561546070 -0.249064489 -6.167110125 0.541176 0.615686 0.352941
v -1.479002217 -0.184185104 -6.165966565 0.549020 0.643137 0.380392
v -1.512992608 -0.205885204 -6.165745667 0.498039 0.584314 0.337255
v -1.585407502 -0.275633750 -6.159957337 0.556863 0.639216 0.423529
v -1.468696563 -0.175366033 -6.164157230 0.470588 0.560784 0.305882
v -1.501973437 -0.197530336 -6.163779608 0.431373 0.529412 0.274510
v -1.396481005 -0.127025772 -6.159673151 0.439216 0.552941 0.290196
v -1.336026347 -0.089399887 -6.154853287 0.466667 0.592157 0.301961
v -1.315960420 -0.078180406 -6.152787067 0.466667 0.588235 0.337255
v -1.290108500 -0.032574930 -6.162580320 0.196078 0.200000 0.180392
v -1.355695930 -0.101276048 -6.155091148 0.431373 0.545098 0.305882
v -1.293456597 -0.043395862 -6.158800737 0.482353 0.568627 0.364706
v -1.346999120 -0.094221345 -6.154295620 0.439216 0.560784 0.305882
v -1.303615070 -0.063043492 -6.153477085 0.517647 0.623529 0.392157
v -1.591708493 -0.280757517 -6.153903969 0.521569 0.600000 0.388235
v -1.414448040 -0.137180895 -6.157080617 0.423529 0.541176 0.254902
v -1.451062597 -0.160487023 -6.158731564 0.439216 0.556863 0.274510
v -1.463784653 -0.167886341 -6.158560130 0.431373 0.545098 0.278431
v -1.496277055 -0.189604237 -6.158710759 0.407843 0.521569 0.250980
v -1.572485881 -0.253287084 -6.156183449 0.466667 0.584314 0.329412
v -1.549110542 -0.229254331 -6.158576084 0.447059 0.564706 0.301961
v -1.476817236 -0.174473923 -6.158104552 0.423529 0.537255 0.274510
v -1.565125486 -0.243028584 -6.155870667 0.470588 0.584314 0.329412
v -1.371453594 -0.108030914 -6.150776021 0.458824 0.584314 0.321569
v -1.404634415 -0.127379987 -6.151709201 0.427451 0.549020 0.286275
v -1.299331763 -0.049405250 -6.150549830 0.505882 0.596078 0.392157
v -1.579016383 -0.261034980 -6.150223866 0.513725 0.596078 0.356863
v -1.520011545 -0.204075103 -6.154683697 0.431373 0.545098 0.305882
v -1.323628793 -0.077936426 -6.145058131 0.450980 0.576471 0.294118
v -1.442516777 -0.150354295 -6.150207772 0.415686 0.533333 0.270588
v -1.420506277 -0.136835897 -6.148883416 0.470588 0.588235 0.313725
v -1.387207868 -0.112115887 -6.148597644 0.439216 0.560784 0.313725
v -1.359218285 -0.097260769 -6.145742788 0.443137 0.564706 0.286275
v -1.466463292 -0.162583862 -6.150236966 0.439216 0.568627 0.294118
v -1.488579137 -0.177889539 -6.149064905 0.431373 0.552941 0.294118
v -1.528225001 -0.206929412 -6.149354450 0.435294 0.552941 0.301961
v -1.562249475 -0.234765733 -6.147768658 0.470588 0.580392 0.317647
v -1.501255965 -0.187938562 -6.147562091 0.419608 0.541176 0.278431
v -1.574812243 -0.249870870 -6.144131615 0.454902 0.564706 0.313725
v -1.318084332 -0.069793040 -6.136240428 0.439216 0.552941 0.294118
v -1.514960315 -0.196517647 -6.144343722 0.435294 0.552941 0.270588
v -1.330778778 -0.076216906 -6.135500067 0.443137 0.564706 0.294118
v -1.402567837 -0.116576573 -6.139969437 0.435294 0.556863 0.305882
v -1.374793741 -0.099752255 -6.138043205 0.447059 0.572549 0.294118
v -1.437923167 -0.143066831 -6.139707786 0.392157 0.517647 0.219608
v -1.307989976 -0.055869695 -6.135155174 0.211765 0.243137 0.164706
v -1.476311422 -0.164299990 -6.141319993 0.443137 0.568627 0.294118
v -1.568568594 -0.237555070 -6.138600964 0.450980 0.572549 0.313725
v -1.601696249 -0.275445340 -6.133572656 0.521569 0.607843 0.411765
v -1.539784678 -0.212292746 -6.139398286 0.439216 0.556863 0.313725
v -1.345234770 -0.080768401 -6.131722960 0.415686 0.537255 0.278431
v -1.425636372 -0.134029924 -6.134531366 0.431373 0.556863 0.266667
v -1.360061005 -0.087931378 -6.132336719 0.411765 0.533333 0.286275
v -1.389263921 -0.103546538 -6.134478597 0.427451 0.549020 0.290196
v -1.587383173 -0.259424381 -6.131553509 0.482353 0.596078 0.345098
v -1.416580155 -0.126286706 -6.132585110 0.462745 0.576471 0.313725
v -1.508986090 -0.187696003 -6.135807718 0.450980 0.568627 0.313725
v -1.530918954 -0.201602478 -6.133290334 0.443137 0.564706 0.325490
v -1.326501124 -0.070138459 -6.123873248 0.400000 0.513725 0.254902
v -1.339271266 -0.075809421 -6.124489191 0.407843 0.529412 0.247059
v -1.492844273 -0.172810424 -6.131943785 0.439216 0.556863 0.313725
v -1.599109426 -0.266031911 -6.127209561 0.498039 0.607843 0.380392
v -1.438687403 -0.136992148 -6.129667633 0.392157 0.517647 0.219608
v -1.579782006 -0.248864279 -6.127159231 0.447059 0.556863 0.305882
v -1.608894407 -0.275317879 -6.125246037 0.454902 0.498039 0.403922
v -1.383863823 -0.096856074 -6.126974984 0.443137 0.568627 0.298039
v -1.404965137 -0.109089977 -6.124946025 0.458824 0.584314 0.325490
v -1.427883793 -0.128050716 -6.123259016 0.462745 0.588235 0.309804
v -1.418723201 -0.121102784 -6.123163911 0.466667 0.592157 0.317647
v -1.518301236 -0.187681426 -6.124947827 0.403922 0.521569 0.262745
v -1.451274639 -0.142367285 -6.122173145 0.411765 0.525490 0.266667
v -1.529747120 -0.193953640 -6.124444330 0.466667 0.588235 0.321569
v -1.609104168 -0.267539877 -6.118415506 0.494118 0.592157 0.372549
v -1.374268215 -0.084069940 -6.120048500 0.411765 0.545098 0.262745
v -1.553548153 -0.211928913 -6.122312129 0.435294 0.549020 0.301961
v -1.573113502 -0.232355336 -6.119876442 0.439216 0.556863 0.301961
v -1.414185324 -0.112720649 -6.117982312 0.474510 0.596078 0.321569
v -1.585984062 -0.247666028 -6.115853354 0.509804 0.619608 0.380392
v -1.364117279 -0.076967407 -6.116432082 0.407843 0.525490 0.274510
v -1.394868986 -0.095815200 -6.118042804 0.454902 0.584314 0.317647
v -1.337807095 -0.068021131 -6.111965135 0.478431 0.568627 0.337255
v -1.519220518 -0.179634637 -6.121156161 0.427451 0.549020 0.298039
v -1.500634127 -0.168516023 -6.119147731 0.423529 0.541176 0.298039
v -1.537319442 -0.197904339 -6.118172480 0.431373 0.549020 0.305882
v -1.599903408 -0.256772417 -6.113762236 0.450980 0.572549 0.321569
v -1.469591226 -0.153125722 -6.115051030 0.454902 0.584314 0.305882
v -1.347946410 -0.069601323 -6.111148489 0.356863 0.447059 0.215686
v -1.510923114 -0.173480915 -6.117065348 0.427451 0.541176 0.313725
v -1.427696222 -0.120284613 -6.112015040 0.466667 0.592157 0.317647
v -1.440719699 -0.128178201 -6.110904701 0.466667 0.592157 0.321569
v -1.456230929 -0.140823334 -6.109512570 0.454902 0.576471 0.290196
v -1.533687933 -0.189429333 -6.112664278 0.435294 0.552941 0.313725
v -1.571394501 -0.220130509 -6.111559932 0.435294 0.564706 0.313725
v -1.611893483 -0.260785536 -6.107601312 0.450980 0.552941 0.321569
v -1.547146961 -0.198269951 -6.112669372 0.450980 0.568627 0.309804
v -1.488203107 -0.159128984 -6.110417294 0.423529 0.545098 0.309804
v -1.342259473 -0.062674159 -6.104696270 0.235294 0.274510 0.164706
v -1.591695383 -0.243013710 -6.107262576 0.447059 0.564706 0.317647
v -1.390422132 -0.082133863 -6.109707034 0.466667 0.596078 0.317647
v -1.418836079 -0.109308321 -6.107103529 0.427451 0.560784 0.274510
v -1.518996567 -0.173303497 -6.111618324 0.415686 0.537255 0.313725
v -1.555728662 -0.201889516 -6.108943848 0.474510 0.588235 0.345098
v -1.499083101 -0.161130018 -6.107942579 0.435294 0.556863 0.290196
v -1.601308527 -0.247563945 -6.103517243 0.443137 0.556863 0.313725
v -1.380405379 -0.070684513 -6.106748984 0.419608 0.537255 0.294118
v -1.429415848 -0.115060904 -6.103528486 0.474510 0.600000 0.325490
v -1.478758572 -0.148342608 -6.103072900 0.423529 0.556863 0.262745
v -1.568640479 -0.211324209 -6.104955597 0.431373 0.552941 0.301961
v -1.443266928 -0.124354301 -6.100533027 0.474510 0.596078 0.321569
v -1.581867452 -0.219850921 -6.104118492 0.415686 0.533333 0.298039
v -1.411169951 -0.098841312 -6.100069353 0.490196 0.611765 0.349020
v -1.399613108 -0.082853369 -6.102819143 0.482353 0.611765 0.356863
v -1.363317368 -0.060106169 -6.100045229 0.215686 0.239216 0.176471
v -1.613352256 -0.250854488 -6.098047174 0.447059 0.560784 0.317647
v -1.421411839 -0.105721660 -6.097502076 0.423529 0.549020 0.266667
v -1.489588946 -0.149121805 -6.099911486 0.396078 0.529412 0.231373
v -1.560747001 -0.198874430 -6.101061922 0.427451 0.545098 0.298039
v -1.569716053 -0.204992849 -6.101295467 0.419608 0.541176 0.290196
v -1.505377873 -0.161091150 -6.099299932 0.415686 0.541176 0.266667
v -1.591344414 -0.220807347 -6.098764857 0.454902 0.572549 0.341176
v -1.381765762 -0.057204176 -6.098706056 0.231373 0.254902 0.196078
v -1.462029209 -0.132726248 -6.092794901 0.458824 0.592157 0.301961
v -1.516180572 -0.165600795 -6.095166093 0.419608 0.545098 0.298039
v -1.428981335 -0.108016808 -6.090681410 0.454902 0.580392 0.317647
v -1.627832103 -0.250846303 -6.092352788 0.329412 0.352941 0.298039
v -1.497203286 -0.152088360 -6.091634841 0.447059 0.564706 0.313725
v -1.528090634 -0.169726998 -6.092816041 0.427451 0.545098 0.301961
v -1.576936861 -0.208610864 -6.091840609 0.427451 0.549020 0.298039
v -1.399986854 -0.069026163 -6.093540413 0.505882 0.623529 0.392157
v -1.564966707 -0.196168078 -6.091555880 0.431373 0.549020 0.305882
v -1.526348665 -0.163359406 -6.091644886 0.423529 0.541176 0.301961
v -1.616122615 -0.239045802 -6.087662896 0.439216 0.556863 0.290196
v -1.412695997 -0.086227514 -6.085403079 0.513725 0.635294 0.384314
v -1.592695092 -0.212044364 -6.089020293 0.450980 0.568627 0.325490
v -1.428288848 -0.102266318 -6.082240268 0.415686 0.541176 0.282353
v -1.573593629 -0.201016342 -6.086575988 0.411765 0.533333 0.282353
v -1.418962725 -0.092693130 -6.081904853 0.454902 0.576471 0.329412
v -1.486249361 -0.139393016 -6.082716283 0.427451 0.552941 0.270588
v -1.556855515 -0.180520695 -6.086085100 0.439216 0.560784 0.313725
v -1.511818604 -0.156599076 -6.081831221 0.423529 0.541176 0.298039
v -1.404283989 -0.068794218 -6.083454986 0.435294 0.537255 0.341176
v -1.627078863 -0.235032401 -6.084807519 0.364706 0.435294 0.266667
v -1.521911873 -0.161934851 -6.081321828 0.388235 0.521569 0.219608
v -1.606777701 -0.216761976 -6.083089036 0.415686 0.541176 0.298039
v -1.466548532 -0.125255959 -6.076735742 0.431373 0.560784 0.282353
v -1.594171818 -0.206520557 -6.081621246 0.403922 0.521569 0.274510
v -1.550478065 -0.172276832 -6.081732758 0.403922 0.529412 0.250980
v -1.534564488 -0.163805987 -6.080100220 0.407843 0.529412 0.298039
v -1.563460614 -0.178567000 -6.082628132 0.427451 0.545098 0.309804
v -1.586400653 -0.202109175 -6.080114732 0.392157 0.509804 0.266667
v -1.408994911 -0.067331578 -6.079590711 0.525490 0.615686 0.392157
v -1.572077878 -0.186381488 -6.079479794 0.419608 0.541176 0.305882
v -1.625460405 -0.226817797 -6.078616202 0.376471 0.478431 0.266667
v -1.460782865 -0.117795582 -6.069568425 0.423529 0.552941 0.258824
v -1.426616163 -0.083242213 -6.072628450 0.349020 0.392157 0.305882
v -1.613360825 -0.215575266 -6.076182744 0.403922 0.525490 0.282353
v -1.499787168 -0.139719948 -6.071801593 0.419608 0.541176 0.282353
v -1.529506687 -0.159579031 -6.072784630 0.427451 0.552941 0.278431
v -1.452468074 -0.110932174 -6.068895130 0.447059 0.580392 0.282353
v -1.544047644 -0.163828160 -6.072067176 0.450980 0.568627 0.333333
v -1.420046897 -0.082372346 -6.066764865 0.466667 0.584314 0.341176
v -1.411692500 -0.073535849 -6.067550762 0.533333 0.627451 0.439216
v -1.529073928 -0.151894635 -6.070982951 0.388235 0.525490 0.223529
v -1.635160377 -0.224593357 -6.073349848 0.290196 0.333333 0.239216
v -1.491746954 -0.130524963 -6.067481026 0.419608 0.533333 0.305882
v -1.597247039 -0.199356398 -6.070402328 0.415686 0.529412 0.301961
v -1.440115660 -0.086666264 -6.065903127 0.388235 0.501961 0.282353
v -1.524997467 -0.149495939 -6.066435037 0.439216 0.564706 0.290196
v -1.431290317 -0.085882631 -6.063104706 0.458824 0.576471 0.305882
v -1.613066620 -0.212298401 -6.065838569 0.454902 0.580392 0.294118
v -1.569287525 -0.171254700 -6.068119389 0.423529 0.545098 0.294118
v -1.467145420 -0.107688716 -6.061528645 0.427451 0.564706 0.254902
v -1.481698399 -0.116813972 -6.060719561 0.435294 0.568627 0.290196
v -1.519830081 -0.139152224 -6.062560546 0.403922 0.525490 0.286275
v -1.493172718 -0.121931601 -6.059839212 0.462745 0.588235 0.309804
v -1.569846335 -0.165661526 -6.065315976 0.415686 0.541176 0.298039
v -1.561541745 -0.165515541 -6.062755283 0.400000 0.525490 0.258824
v -1.460004126 -0.096012468 -6.057177275 0.360784 0.494118 0.192157
v -1.445484792 -0.085088408 -6.056377234 0.427451 0.552941 0.258824
v -1.530538690 -0.140105414 -6.059941070 0.454902 0.576471 0.345098
v -1.588283748 -0.180216208 -6.061325374 0.443137 0.556863 0.329412
v -1.420526614 -0.078364781 -6.051213931 0.192157 0.243137 0.109804
v -1.608883423 -0.200455970 -6.059117747 0.415686 0.537255 0.270588
v -1.510175604 -0.122112252 -6.059763581 0.423529 0.545098 0.313725
v -1.470045753 -0.100408139 -6.056078646 0.360784 0.486275 0.192157
v -1.540606678 -0.146401377 -6.058217636 0.435294 0.568627 0.290196
v -1.521132099 -0.124740944 -6.057152852 0.435294 0.568627 0.301961
v -1.519253811 -0.129537771 -6.053815513 0.454902 0.584314 0.305882
v -1.609113921 -0.191912907 -6.055735862 0.462745 0.584314 0.349020
v -1.479234478 -0.095134407 -6.054760394 0.392157 0.501961 0.286275
v -1.576408059 -0.166067273 -6.055202988 0.419608 0.537255 0.305882
v -1.478194278 -0.094395710 -6.050494457 0.388235 0.505882 0.278431
v -1.534974553 -0.131004173 -6.052513415 0.454902 0.584314 0.305882
v -1.587444855 -0.169505140 -6.052115416 0.435294 0.556863 0.321569
v -1.544092192 -0.140867387 -6.050031649 0.431373 0.552941 0.317647
v -1.448548218 -0.084495045 -6.043655598 0.411765 0.525490 0.231373
v -1.630892333 -0.205485066 -6.050301233 0.345098 0.443137 0.219608
v -1.488912047 -0.094143088 -6.050324145 0.415686 0.537255 0.313725
v -1.600518130 -0.177049098 -6.050947445 0.415686 0.537255 0.298039
v -1.512019766 -0.108218475 -6.050290994 0.423529 0.537255 0.317647
v -1.498727451 -0.108914591 -6.045645724 0.419608 0.541176 0.309804
v -1.623486912 -0.195569182 -6.048111514 0.423529 0.545098 0.298039
v -1.526222693 -0.121802799 -6.046990115 0.431373 0.556863 0.309804
v -1.538432473 -0.133624229 -6.045438824 0.466667 0.596078 0.313725
v -1.507695472 -0.107924632 -6.045878305 0.411765 0.537255 0.309804
v -1.440312790 -0.082966166 -6.034747477 0.176471 0.203922 0.125490
v -1.619396314 -0.184797745 -6.047486037 0.494118 0.619608 0.388235
v -1.564012875 -0.150723430 -6.044119034 0.462745 0.584314 0.356863
v -1.475231041 -0.084875255 -6.042519347 0.388235 0.509804 0.223529
v -1.608484800 -0.173793797 -6.046702130 0.423529 0.552941 0.313725
v -1.462263152 -0.083643204 -6.037961150 0.368627 0.447059 0.239216
v -1.487458048 -0.087256090 -6.043668049 0.423529 0.572549 0.247059
v -1.600370670 -0.167566016 -6.045005960 0.427451 0.552941 0.305882
v -1.589971316 -0.160909749 -6.042270471 0.423529 0.545098 0.274510
v -1.580092950 -0.153696544 -6.041569129 0.435294 0.556863 0.305882
v -1.530560160 -0.109053704 -6.040571483 0.423529 0.545098 0.313725
v -1.454974919 -0.078828618 -6.029263110 0.160784 0.200000 0.094118
v -1.497014378 -0.083763653 -6.038036873 0.450980 0.541176 0.321569
v -1.486419712 -0.077485503 -6.035638504 0.431373 0.517647 0.337255
v -1.500492480 -0.091992924 -6.033965515 0.384314 0.494118 0.215686
v -1.622801206 -0.177708908 -6.036690394 0.427451 0.525490 0.270588
v -1.621445210 -0.171436043 -6.038431226 0.478431 0.592157 0.364706
v -1.639995909 -0.194050772 -6.034938502 0.305882 0.337255 0.278431
v -1.463215486 -0.081267376 -6.025940050 0.380392 0.498039 0.231373
v -1.547625881 -0.121137402 -6.034574264 0.447059 0.568627 0.333333
v -1.553152110 -0.117772446 -6.034832670 0.466667 0.600000 0.360784
v -1.528271508 -0.096162223 -6.035350305 0.388235 0.505882 0.270588
v -1.510526955 -0.090311624 -6.031524131 0.407843 0.521569 0.286275
v -1.565828485 -0.135021041 -6.029896939 0.513725 0.631373 0.411765
v -1.591794841 -0.146489049 -6.031933661 0.356863 0.474510 0.235294
v -1.496808673 -0.078152355 -6.030308528 0.486275 0.552941 0.384314
v -1.477104196 -0.079151982 -6.023723946 0.462745 0.556863 0.305882
v -1.531420928 -0.092223062 -6.034390376 0.372549 0.490196 0.254902
v -1.558131263 -0.127085769 -6.028151840 0.411765 0.549020 0.247059
v -1.546469459 -0.108295347 -6.031558320 0.458824 0.580392 0.349020
v -1.617201543 -0.156171063 -6.033498119 0.372549 0.490196 0.247059
v -1.608992139 -0.151462500 -6.032813183 0.349020 0.470588 0.207843
v -1.563730829 -0.127403515 -6.028670860 0.501961 0.631373 0.345098
v -1.633340071 -0.176689026 -6.029304155 0.356863 0.400000 0.309804
v -1.541469691 -0.097620957 -6.031256977 0.439216 0.560784 0.325490
v -1.555828952 -0.107488639 -6.030687625 0.513725 0.639216 0.407843
v -1.491600380 -0.081985034 -6.020726919 0.494118 0.552941 0.403922
v -1.520331872 -0.089040408 -6.024754051 0.443137 0.521569 0.301961
v -1.568429064 -0.133518163 -6.020561949 0.482353 0.600000 0.372549
v -1.593680181 -0.139365804 -6.025626825 0.333333 0.443137 0.203922
v -1.630236320 -0.160539439 -6.027126960 0.321569 0.372549 0.262745
v -1.515576587 -0.084576870 -6.022575972 0.262745 0.305882 0.176471
v -1.564405908 -0.118682870 -6.022133306 0.423529 0.545098 0.250980
v -1.528396106 -0.084449746 -6.023032472 0.407843 0.470588 0.282353
v -1.575774083 -0.134293168 -6.017284820 0.427451 0.545098 0.294118
v -1.500983723 -0.085383325 -6.013900999 0.650980 0.729412 0.533333
v -1.622700122 -0.144993610 -6.026119976 0.196078 0.227451 0.145098
v -1.546639851 -0.089228080 -6.024204973 0.282353 0.329412 0.180392
v -1.586172897 -0.137252866 -6.015094662 0.419608 0.525490 0.239216
v -1.556234427 -0.103858112 -6.018348414 0.458824 0.584314 0.282353
v -1.563022219 -0.117053979 -6.012606612 0.525490 0.643137 0.384314
v -1.551303706 -0.100832106 -6.012878562 0.305882 0.360784 0.239216
v -1.506110277 -0.090435157 -6.001340750 0.380392 0.423529 0.282353
v -1.613373935 -0.133480513 -6.016090877 0.278431 0.317647 0.231373
v -1.530812270 -0.091055588 -6.008169891 0.380392 0.458824 0.231373
v -1.520171630 -0.089735149 -6.004339488 0.203922 0.231373 0.160784
v -1.571996802 -0.127867933 -6.004688358 0.466667 0.564706 0.305882
v -1.562497509 -0.102580763 -6.011027883 0.168627 0.203922 0.113725
v -1.561607742 -0.114455521 -6.004447283 0.160784 0.207843 0.078431
v -1.570121137 -0.118917916 -6.003104157 0.501961 0.576471 0.380392
v -1.586225080 -0.128965887 -6.003806892 0.333333 0.400000 0.219608
v -1.596895417 -0.127846329 -6.006670853 0.262745 0.305882 0.172549
v -1.557455275 -0.101096824 -6.003969984 0.470588 0.564706 0.360784
v -1.568099653 -0.112115481 -6.002689977 0.196078 0.219608 0.164706
v -1.564015437 -0.104466792 -5.993166270 0.541176 0.600000 0.490196
vn -0.234989185 0.779396495 -0.580793584
vn -0.290912348 0.609654880 -0.737354008
vn -0.231732688 0.972389823 0.027531690
vn -0.329203611 0.822213413 -0.464316794
vn -0.627594971 0.639911593 -0.443438503
vn -0.415422355 0.847517717 -0.330360387
vn -0.196945401 0.945609615 0.258911113
vn -0.231262133 0.895972675 0.379144816
vn -0.478813527 0.877573486 0.024543467
vn -0.513304203 0.851946804 -0.103467084
vn -0.247791114 0.947974536 0.199859558
vn -0.529664211 0.803465845 -0.271842712
vn -0.276559814 0.941773154 0.191253749
vn -0.450668176 0.784771861 0.425477757
vn -0.610214911 0.699983738 0.371026317
vn -0.627575006 0.710188122 -0.319033607
vn -0.681503091 0.631405333 -0.369974111
vn -0.576639913 0.638956434 -0.509137591
vn -0.369508890 0.928118299 -0.045382858
vn -0.421908922 0.876099540 0.233329075
vn -0.648516321 0.752884002 0.112215245
vn -0.601382277 0.776153520 0.189539100
vn -0.490530886 0.870436626 -0.041467217
vn -0.645044423 0.735277161 -0.208050929
vn -0.471323959 0.861769509 -0.187635389
vn -0.670943473 0.647051588 -0.362158940
vn -0.672523565 0.632809654 -0.383749913
vn -0.398878812 0.902270150 -0.163720095
vn -0.526502417 0.848501668 -0.053292816
vn -0.716839994 0.599713958 -0.355645317
vn -0.657732217 0.724944510 -0.204557543
vn -0.648647675 0.690025883 -0.321123768
vn -0.696617265 0.684541901 -0.214771441
vn -0.500190699 0.793723638 -0.346138773
vn -0.677611959 0.706457100 -0.204353611
vn -0.421129818 0.841069789 -0.339486799
vn -0.817215237 0.493058378 -0.298416977
vn -0.522012248 0.798075326 -0.300963430
vn -0.663240588 0.717583947 -0.212568112
vn -0.642632475 0.747289635 -0.169061241
vn -0.490283101 0.858822467 -0.148480473
vn -0.674126185 0.723041088 -0.150882312
vn -0.513612672 0.841857398 -0.165765328
vn -0.665989209 0.686137774 -0.292700064
vn -0.778427548 0.597083240 -0.193757983
vn -0.745699369 0.654474906 0.124880137
vn -0.716474174 0.676865165 -0.168873640
vn -0.666467079 0.718025982 -0.200649749
vn -0.722210377 0.676928008 -0.142058591
vn -0.535142296 0.782011121 -0.319501690
vn -0.590620992 0.768280477 -0.246803470
vn -0.808799383 0.576694679 -0.115181618
vn -0.647168924 0.730342406 -0.218568878
vn -0.579400801 0.796846044 -0.171263229
vn -0.576830555 0.815034404 0.054639103
vn -0.567967187 0.794842326 -0.213632749
vn -0.809594131 0.524642554 -0.263263241
vn -0.566129188 0.823766347 0.030112262
vn -0.619862194 0.777816982 -0.103786333
vn -0.706928032 0.699204703 -0.106609292
vn -0.623049141 0.778386401 -0.076969989
vn -0.632807682 0.723916471 -0.274771506
vn -0.677547939 0.732320384 -0.068085582
vn -0.717826668 0.682920780 -0.135440333
vn -0.730244102 0.642279304 -0.232853704
vn -0.592275699 0.805735095 -0.000673206
vn -0.769978648 0.586146099 -0.252122257
vn -0.783390068 0.531328055 -0.322475580
vn -0.713323726 0.657968301 -0.241344104
vn -0.712904476 0.690828661 -0.120511282
vn -0.605277894 0.781223571 -0.152736386
vn -0.679093425 0.687466008 -0.257337536
vn -0.788997771 0.609734744 -0.075538464
vn -0.615156904 0.776026391 -0.139158272
vn -0.756491480 0.652937327 0.037329450
vn -0.557701024 0.788956147 -0.257910382
vn -0.702501343 0.655980939 -0.276008824
vn -0.743591615 0.656042662 -0.129149279
vn -0.504606895 0.832239220 -0.229673165
vn -0.860294221 0.508729335 -0.032989659
vn -0.698404699 0.694749018 -0.171914743
vn -0.708318648 0.664188601 -0.239035970
vn -0.838695542 0.543811439 -0.029307093
vn -0.678948233 0.663392535 -0.314546725
vn -0.505378690 0.848608238 -0.156385544
vn -0.683870456 0.593138655 -0.424862020
vn -0.813825014 0.555440130 -0.170807227
vn -0.445762548 0.816581856 -0.366728543
vn -0.613705874 0.761796163 -0.207440851
vn -0.667906980 0.705276423 -0.237666642
vn -0.602744617 0.686627897 -0.406498532
vn -0.673227991 0.734478592 0.085470874
vn -0.617789368 0.744823637 -0.252138945
vn -0.488139812 0.814060131 0.314683375
vn -0.735667932 0.649359723 -0.192677564
vn -0.650271309 0.759641144 0.009620656
vn -0.481678289 0.871770228 -0.089457789
vn -0.684983268 0.673590577 -0.277621429
vn -0.605620371 0.760823566 -0.233176902
vn -0.659100519 0.716806069 -0.227542446
vn -0.636760788 0.702919126 -0.316923335
vn -0.754478424 0.607648405 0.248043795
vn -0.727983420 0.585168488 0.357236590
vn -0.733912495 0.566227610 -0.375178281
vn -0.598771328 0.741573370 0.302558811
vn -0.538971925 0.746629836 0.389939934
vn -0.615188211 0.781252677 -0.105772018
vn -0.633260371 0.626876327 -0.453880351
vn -0.625059496 0.728638204 -0.279976773
vn -0.730715838 0.664456470 -0.156690662
vn -0.698459374 0.652173109 -0.294660377
vn -0.666161351 0.659220056 -0.348795028
vn -0.387923460 0.860533390 0.330147959
vn -0.767994973 0.584306605 -0.262239418
vn -0.527730860 0.821154542 -0.217267941
vn -0.651444585 0.734484744 0.190137090
vn -0.585717567 0.756106552 -0.291955156
vn -0.743117716 0.476569237 -0.469742293
vn -0.620625645 0.686230537 0.379356637
vn -0.627799074 0.739023151 -0.244362649
vn -0.505178565 0.820721653 -0.266853115
vn -0.528403809 0.840399220 -0.120493011
vn -0.644319573 0.713132187 0.276215083
vn -0.498660399 0.833252055 0.238807075
vn -0.551395404 0.833301120 -0.039652891
vn -0.612765085 0.724782834 -0.314974275
vn -0.770002281 0.585162209 -0.254325925
vn -0.584344362 0.795689107 -0.159438114
vn -0.532071677 0.834839059 -0.141221374
vn -0.703587731 0.643076371 -0.302352585
vn -0.671795020 0.650388232 -0.354523058
vn -0.650475625 0.705596701 -0.281095638
vn -0.559708229 0.822107602 0.104239096
vn -0.604044419 0.754261333 -0.257332821
vn -0.666450018 0.730261132 0.150210025
vn -0.675278294 0.669951069 -0.308487912
vn -0.755973276 0.579472883 -0.304492337
vn -0.633718791 0.713615211 -0.298586377
vn -0.793688518 0.538670323 -0.282653181
vn -0.808612401 0.502414784 -0.306145994
vn -0.784898023 0.537595850 -0.308100301
vn -0.564371677 0.815062402 -0.130988129
vn -0.614786978 0.691414288 -0.379451253
vn -0.476308437 0.859255975 -0.186572885
vn -0.704662273 0.624337051 -0.337126574
vn -0.580621174 0.740153071 -0.339193873
vn -0.611412184 0.709048976 -0.351318504
vn -0.681526251 0.728311376 -0.071305738
vn -0.374486381 0.920084939 -0.114907162
vn -0.536865501 0.768945423 -0.347128751
vn -0.468217936 0.874843457 -0.124180876
vn -0.778245767 0.534889108 -0.328978977
vn -0.584895755 0.742829138 -0.325732755
vn -0.553642394 0.710450575 -0.434442263
vn -0.538364741 0.823307165 -0.179801884
vn -0.749656310 0.502951759 -0.430180131
vn -0.439631279 0.873604447 -0.208661470
vn -0.719928236 0.650103880 -0.243039668
vn -0.612515373 0.692694293 -0.380788044
vn -0.545637218 0.835337924 -0.067011788
vn -0.751216025 0.495911819 -0.435598383
vn -0.550914647 0.816823258 -0.171151443
vn -0.611564611 0.669014777 -0.422383659
vn -0.648031393 0.630671614 -0.426976146
vn -0.548179632 0.834612057 -0.054053716
vn -0.339144065 0.896038129 -0.286525697
vn -0.726281871 0.532968832 -0.434118495
vn -0.598352100 0.790604051 -0.130076899
vn -0.557824769 0.800448334 -0.219349021
vn -0.611236783 0.654033411 -0.445679136
vn -0.506730018 0.751120906 -0.423133634
vn -0.398817316 0.845101441 -0.356017278
vn -0.599520234 0.654144307 -0.461162352
vn -0.511640985 0.834611197 -0.204077566
vn -0.579808960 0.625715460 -0.521825385
vn -0.592531599 0.658780319 -0.463589038
vn -0.505706627 0.822342439 -0.260794403
vn -0.423463207 0.851764522 -0.308506258
vn -0.574818207 0.805037325 -0.146625146
vn -0.622812522 0.741201341 -0.250449863
vn -0.688847005 0.560887939 -0.459232537
vn -0.619544150 0.593130096 -0.514161196
vn -0.505142129 0.809894887 -0.298163885
vn -0.542000338 0.801139009 -0.253795037
vn -0.417756977 0.830999532 -0.367313064
vn -0.604652910 0.723558968 -0.332952367
vn -0.453261639 0.792676366 -0.407698499
vn -0.505281971 0.775834428 -0.377850592
vn -0.613223683 0.711876596 -0.342327951
vn -0.540138644 0.651296053 -0.532976262
vn -0.524724158 0.695164764 -0.491335434
vn -0.755563313 0.439291531 -0.485949618
vn -0.501042317 0.771975320 -0.391165824
vn -0.450649208 0.689340778 -0.567207708
vn -0.728185220 0.514378751 -0.452946780
vn -0.448271908 0.735804868 -0.507585947
vn -0.574351088 0.709484073 -0.408354232
vn -0.446886440 0.730792065 -0.515980103
vn -0.478857083 0.782530961 -0.397921085
vn -0.487520176 0.791663213 -0.368230137
vn -0.534582963 0.670113686 -0.514945341
vn -0.837042369 0.256196159 -0.483449688
vn -0.901544777 0.133681717 -0.411516966
vn -0.476227317 0.759282736 -0.443505658
vn -0.429584891 0.757579412 -0.491457277
vn -0.630220065 0.610440510 -0.479776044
vn -0.467416084 0.673604500 -0.572520028
vn -0.376466844 0.807119968 -0.454785744
vn -0.569880511 0.612770512 -0.547492924
vn -0.647876535 0.548778223 -0.528297698
vn -0.469951012 0.652143484 -0.594857061
vn -0.510851537 0.697967903 -0.501868024
vn -0.745939651 0.519351358 -0.416951080
vn -0.407405007 0.658528521 -0.632741138
vn -0.479995500 0.739276593 -0.472307567
vn -0.470753176 0.702330045 -0.533969994
vn -0.380946314 0.785811316 -0.487217079
vn -0.529600915 0.703069730 -0.474569094
vn -0.879625637 0.110572667 -0.462636384
vn -0.474055499 0.763253940 -0.438992947
vn -0.865791025 0.218158006 -0.450347627
vn -0.445443964 0.762202864 -0.469708919
vn -0.777780766 0.438774918 -0.450037389
vn -0.700046156 0.582792542 -0.412659948
vn -0.477928543 0.765465843 -0.430866976
vn -0.454294500 0.730293308 -0.510184469
vn -0.396889889 0.701509390 -0.591914683
vn -0.497190668 0.695733107 -0.518417673
vn -0.759656591 0.507389758 -0.406789253
vn -0.575724480 0.689950951 -0.438758485
vn -0.497534893 0.694375627 -0.519905298
vn -0.676186864 0.591920412 -0.438636011
vn -0.375401429 0.775592708 -0.507473859
vn -0.542374322 0.705816777 -0.455689338
vn -0.870840836 0.305397204 -0.385186690
vn -0.769215882 0.522870964 -0.367304890
vn -0.521088103 0.740776012 -0.423931703
vn -0.411153575 0.796720246 -0.442932939
vn -0.437672026 0.798219032 -0.413871446
vn -0.491774360 0.777436687 -0.392109904
vn -0.411832203 0.738690582 -0.533601405
vn -0.427296193 0.747765976 -0.508196821
vn -0.435687166 0.795713319 -0.420733892
vn -0.559676698 0.707970263 -0.430743660
vn -0.554828795 0.722876454 -0.411842981
vn -0.636636980 0.668994268 -0.383588353
vn -0.580787747 0.718083409 -0.383460312
vn -0.776417795 0.548248990 -0.310802916
vn -0.636352637 0.654429781 -0.408383378
vn -0.515671819 0.763939133 -0.387916971
vn -0.393348852 0.831375013 -0.392545880
vn -0.569923213 0.673215218 -0.471135652
vn -0.365012226 0.741477297 -0.563007542
vn -0.466165590 0.793601766 -0.391006241
vn -0.771607201 0.493525425 -0.401316561
vn -0.507985217 0.798954271 -0.321905409
vn -0.750908779 0.575283982 -0.324321363
vn -0.614036020 0.599646608 -0.513209228
vn -0.571584067 0.718438858 -0.396405425
vn -0.361952081 0.803092056 -0.473322131
vn -0.459002239 0.782271157 -0.421151732
vn -0.341991567 0.738500805 -0.581083754
vn -0.447928782 0.745020809 -0.494270978
vn -0.660308133 0.613087492 -0.433724448
vn -0.589837477 0.685402265 -0.426984175
vn -0.512519159 0.691981523 -0.508414874
vn -0.547942292 0.728841536 -0.410547513
vn -0.496217471 0.769580034 -0.401889031
vn -0.261095882 0.856249277 -0.445719774
vn -0.527270086 0.734976521 -0.426375151
vn -0.573336478 0.611503078 -0.545297413
vn -0.464606382 0.763570386 -0.448443057
vn -0.763235293 0.547982399 -0.342326129
vn -0.619303379 0.530117706 -0.579170564
vn -0.407270201 0.684823645 -0.604274407
vn -0.589990627 0.669806463 -0.450855146
vn -0.461768895 0.750068699 -0.473462179
vn -0.574167616 0.654860958 -0.491414972
vn -0.519712523 0.654117598 -0.549571707
vn -0.506058710 0.795275618 -0.333828208
vn -0.573051244 0.604308045 -0.553555831
vn -0.548726207 0.633292284 -0.545747591
vn -0.351305113 0.664779582 -0.659282052
vn -0.598308497 0.649959832 -0.468592743
vn -0.689238792 0.501578594 -0.522846824
vn -0.582391411 0.668940820 -0.461885725
vn -0.619205881 0.577168946 -0.532409696
vn -0.203196190 0.750366267 -0.629016513
vn -0.573991911 0.610708072 -0.545498796
vn -0.247109270 0.815735039 -0.522985042
vn -0.533504004 0.618522117 -0.576891557
vn -0.362591405 0.797426433 -0.482326193
vn -0.533278093 0.684638767 -0.496874466
vn -0.525948988 0.652392039 -0.545675993
vn -0.464313039 0.813915060 -0.349221528
vn -0.133897794 0.763980499 -0.631193455
vn -0.419832201 0.747790695 -0.514344242
vn -0.529292507 0.687263849 -0.497511652
vn -0.534154131 0.733998877 -0.419434159
vn -0.506495397 0.728409337 -0.461391646
vn -0.519275101 0.663173838 -0.539030454
vn -0.553570243 0.556988539 -0.619131451
vn -0.439251560 0.626642585 -0.643721320
vn -0.468980204 0.638382826 -0.610348208
vn -0.395957171 0.803972852 -0.443672821
vn -0.097609797 0.720051295 -0.687021440
vn -0.573583453 0.408288265 -0.710142743
vn -0.447512899 0.564077608 -0.693937070
vn -0.557356943 0.695189725 -0.453943260
vn -0.515817646 0.749700879 -0.414585030
vn -0.567293786 0.601961699 -0.561978534
vn -0.459619904 0.765217097 -0.450768608
vn -0.530000031 0.448730991 -0.719541844
vn -0.285105849 0.575615054 -0.766408484
vn -0.547040000 0.716930436 -0.432155051
vn -0.367263203 0.760088925 -0.536080745
vn -0.567200818 0.588650071 -0.575998546
vn -0.528004963 0.720435596 -0.449647985
vn -0.540557083 0.521827433 -0.659919821
vn -0.653871634 0.586625255 -0.477831243
vn -0.700332914 0.433581450 -0.567045797
vn -0.080147705 0.661519839 -0.745632516
vn -0.374908437 0.585948168 -0.718406854
vn -0.585122319 0.687037669 -0.430826083
vn -0.413839094 0.769929584 -0.485742360
vn -0.558275635 0.596557213 -0.576582871
vn -0.634706937 0.595345906 -0.492656429
vn -0.461222934 0.799606984 -0.384580389
vn -0.520531747 0.451136377 -0.724929424
vn -0.363124282 0.580841010 -0.728535844
vn -0.447386126 0.745817870 -0.493559884
vn -0.371691572 0.840567269 -0.394071113
vn -0.532980639 0.725408334 -0.435562152
vn -0.304412076 0.529465973 -0.791832729
vn -0.532013484 0.734275120 -0.421665390
vn -0.464833966 0.690806102 -0.553819748
vn -0.448724442 0.681410046 -0.578209931
vn -0.624773100 0.498174629 -0.601232577
vn -0.590456299 0.537831049 -0.601746725
vn -0.272777266 0.858079953 -0.435076266
vn -0.455889140 0.427327822 -0.780740690
vn -0.751182244 0.474674443 -0.458704053
vn -0.356976918 0.689289281 -0.630434586
vn -0.543016513 0.511106045 -0.666260968
vn -0.560964787 0.547550287 -0.620892254
vn -0.615417719 0.528051619 -0.585168795
vn -0.412340421 0.764998969 -0.494724120
vn -0.447377907 0.647990330 -0.616410204
vn -0.422888750 0.704432299 -0.570035298
vn -0.694793821 0.571667771 -0.436414375
vn -0.245679725 0.499254461 -0.830894973
vn -0.298447809 0.831028846 -0.469382533
vn -0.508328278 0.495036011 -0.704657157
vn -0.405022520 0.735374009 -0.543306383
vn -0.434427857 0.692410351 -0.576055850
vn -0.344710460 0.767273333 -0.540801564
vn -0.357403290 0.831253785 -0.425769929
vn -0.477786266 0.579487335 -0.660238376
vn -0.442137588 0.585500610 -0.679487592
vn -0.899554918 0.279458243 -0.335714224
vn -0.552406869 0.497880588 -0.668551847
vn -0.360578490 0.606952119 -0.708231796
vn -0.415450027 0.684484696 -0.599067588
vn -0.419396586 0.692784393 -0.586648351
vn -0.558995447 0.706474239 -0.434071699
vn -0.388358852 0.610933356 -0.689882480
vn -0.384609300 0.640760573 -0.664455849
vn -0.512419965 0.570600824 -0.641747987
vn -0.342312206 0.723900479 -0.598991194
vn -0.472913245 0.847912859 -0.239576387
vn -0.835062779 0.496073414 -0.237868288
vn -0.373664317 0.630818712 -0.680031419
vn -0.278069848 0.699564211 -0.658245451
vn -0.304316514 0.656771007 -0.689958914
vn -0.539165276 0.595701455 -0.595349125
vn -0.508997969 0.516767096 -0.688384221
vn -0.312284891 0.636734862 -0.705015505
vn -0.207796825 0.957259761 -0.201182082
vn -0.410175661 0.716976170 -0.563649801
vn -0.469508291 0.660992949 -0.585363379
vn -0.257764984 0.437159378 -0.861654740
vn -0.383189105 0.468524591 -0.796021870
vn -0.399161395 0.495475909 -0.771475084
vn -0.057989194 0.666564886 -0.743188069
vn -0.277591125 0.828773461 -0.485878295
vn -0.368273769 0.731145410 -0.574282874
vn -0.332138119 0.669606483 -0.664312748
vn -0.307008055 0.930150334 -0.201411047
vn -0.276419335 0.514034983 -0.812010091
vn -0.490147537 0.566893753 -0.662107895
vn -0.336337042 0.922342741 -0.190161148
vn -0.513462720 0.469079861 -0.718554186
vn -0.203997968 0.484699722 -0.850559233
vn -0.072652662 0.600571073 -0.796263761
vn -0.431355179 0.598324071 -0.675234045
vn -0.629000272 0.370630248 -0.683368039
vn -0.414642538 0.503674099 -0.757881236
vn -0.475017492 0.434615809 -0.765158468
vn -0.183446779 0.441302793 -0.878407152
vn -0.382154031 0.690942029 -0.613642737
vn -0.099962439 0.693041461 -0.713933501
vn -0.441546309 0.617716807 -0.650740197
vn -0.365841103 0.616024607 -0.697620220
vn -0.544106826 0.497913760 -0.675299674
vn -0.200052988 0.914661703 -0.351244604
vn -0.355167619 0.640940254 -0.680478915
vn -0.573626793 0.334262409 -0.747810767
vn -0.383013528 0.520747188 -0.762969857
vn -0.213428254 0.658278062 -0.721885291
vn -0.378265449 0.517329290 -0.767649435
vn -0.533074759 0.429540241 -0.728921452
vn -0.530528651 0.395501577 -0.749745192
vn -0.350705521 0.612821224 -0.708135428
vn -0.077197040 0.642244941 -0.762602159
vn -0.144084046 0.984395030 -0.101025804
vn -0.561549911 0.365901632 -0.742143984
vn -0.391630767 0.647925884 -0.653312628
vn 0.046878301 0.819089711 -0.571746859
vn -0.342033996 0.452450317 -0.823590588
vn -0.079621166 0.894087669 -0.440758108
vn -0.092005755 0.662153557 -0.743698600
vn -0.227671419 0.548392068 -0.804631508
vn -0.254017438 0.596578940 -0.761294102
vn -0.269017098 0.631119986 -0.727542001
vn -0.394230088 0.374523273 -0.839234745
vn -0.062646996 0.942501034 -0.328279082
vn -0.571495087 0.507976671 -0.644478912
vn 0.059618834 0.919935990 -0.387509186
vn -0.498449572 0.419965093 -0.758404473
vn -0.626193576 0.344761684 -0.699300355
vn -0.563261386 0.342528085 -0.751938244
vn -0.507730212 0.477450776 -0.717112814
vn 0.115754325 0.962980663 -0.243452623
vn -0.340455803 0.347797243 -0.873571362
vn -0.502281879 0.331557601 -0.798612842
vn -0.140567345 0.561576448 -0.815397274
vn -0.202818961 0.780195244 -0.591743061
vn -0.334586774 0.678021466 -0.654475808
vn -0.203130961 0.601302097 -0.772770083
vn -0.411391410 0.911049713 -0.027304362
vn 0.027084934 0.982201252 0.185868522
vn -0.091357729 0.677507896 -0.729819715
vn -0.665841513 0.244119911 -0.705025211
vn -0.491632180 0.350616520 -0.797098397
vn -0.365403157 0.429448567 -0.825865886
vn -0.141292115 0.597316543 -0.789461517
vn -0.688633935 0.359256914 -0.629855359
vn -0.518950045 0.334501665 -0.786638092
vn -0.434394247 0.306439752 -0.846992513
vn -0.602667787 0.407240700 -0.686255456
vn -0.071854873 0.911994692 0.403859578
vn 0.028035758 0.762339459 -0.646569830
vn -0.810595255 0.470447211 -0.348733071
vn -0.135737888 0.835288775 -0.532792538
vn -0.565644826 0.261442650 -0.782108479
vn -0.004659885 0.999429052 0.033464238
vn -0.869771331 0.371765118 -0.324481939
vn -0.126327274 0.991811289 -0.018755975
vn -0.214395387 0.928368359 -0.303589867
vn -0.242928088 0.961651098 0.127330713
vn -0.230965811 0.526596463 -0.818138716
vn -0.600382735 0.786695910 -0.143701487
vn 0.031896485 0.879861209 -0.474159115
vn -0.766075685 0.548386723 -0.335261161
vn -0.882535314 0.421851277 -0.207780941
vn -0.467957523 0.865045953 0.180862533
vn -0.069675234 0.953250467 0.294038957
vn -0.001715798 0.764787785 -0.644279985
vn -0.365997881 0.879540318 0.304063117
vn -0.067426628 0.952672129 0.296427841
vn -0.626750466 0.610966329 -0.483636225
vn -0.856297859 0.504547483 -0.110389372
vn -0.842958170 0.476425913 -0.249879716
vn -0.506977429 0.514326999 -0.691694748
vn -0.161277082 0.722511066 -0.672285253
vn 0.162278488 0.754483414 -0.635940619
vn -0.667872785 0.729819510 -0.145977483
vn -0.431298828 0.627812094 -0.647945442
vn -0.573761620 0.577546283 -0.580721874
f 3//3 6//6 1//1
f 30//30 37//37 18//18
f 244//244 256//256 231//231
f 477//477 473//473 479//479
f 15//15 21//21 14//14
f 11//11 15//15 14//14
f 3//3 9//9 6//6
f 282//282 271//271 274//274
f 45//45 52//52 37//37
f 30//30 45//45 37//37
f 45//45 78//78 52//52
f 52//52 49//49 37//37
f 49//49 46//46 37//37
f 104//104 108//108 86//86
f 108//108 84//84 86//86
f 45//45 84//84 78//78
f 330//330 322//322 314//314
f 360//360 342//342 371//371
f 256//256 243//243 231//231
f 256//256 270//270 305//305
f 270//270 256//256 244//244
f 180//180 189//189 179//179
f 196//196 212//212 215//215
f 300//300 318//318 299//299
f 333//333 318//318 368//368
f 472//472 477//477 466//466
f 472//472 473//473 477//477
f 454//454 438//438 439//439
f 400//400 424//424 417//417
f 438//438 424//424 439//439
f 424//424 438//438 417//417
f 456//456 470//470 467//467
f 15//15 22//22 21//21
f 22//22 35//35 21//21
f 35//35 44//44 48//48
f 114//114 110//110 127//127
f 111//111 126//126 101//101
f 126//126 111//111 136//136
f 7//7 19//19 9//9
f 7//7 9//9 3//3
f 21//21 20//20 14//14
f 25//25 20//20 21//21
f 20//20 11//11 14//14
f 271//271 258//258 274//274
f 258//258 264//264 224//224
f 264//264 258//258 271//271
f 159//159 126//126 136//136
f 195//195 156//156 213//213
f 195//195 182//182 181//181
f 156//156 141//141 127//127
f 164//164 167//167 181//181
f 182//182 164//164 181//181
f 164//164 182//182 170//170
f 159//159 164//164 170//170
f 446//446 454//454 439//439
f 446//446 461//461 468//468
f 454//454 446//446 468//468
f 375//375 398//398 390//390
f 365//365 379//379 375//375
f 373//373 351//351 334//334
f 351//351 341//341 334//334
f 406//406 379//379 373//373
f 84//84 65//65 86//86
f 65//65 84//84 45//45
f 46//46 53//53 57//57
f 49//49 53//53 46//46
f 78//78 73//73 52//52
f 73//73 49//49 52//52
f 112//112 104//104 86//86
f 148//148 180//180 179//179
f 322//322 288//288 314//314
f 342//342 370//370 371//371
f 364//364 370//370 342//342
f 346//346 364//364 342//342
f 338//338 321//321 342//342
f 338//338 330//330 314//314
f 321//321 320//320 342//342
f 320//320 346//346 342//342
f 218//218 187//187 217//217
f 133//133 105//105 113//113
f 133//133 160//160 135//135
f 184//184 165//165 174//174
f 200//200 220//220 185//185
f 200//200 184//184 205//205
f 187//187 208//208 217//217
f 208//208 222//222 217//217
f 220//220 208//208 185//185
f 222//222 208//208 220//220
f 172//172 160//160 166//166
f 208//208 172//172 185//185
f 172//172 208//208 187//187
f 221//221 219//219 203//203
f 221//221 235//235 219//219
f 247//247 228//228 215//215
f 228//228 247//247 244//244
f 247//247 270//270 244//244
f 247//247 266//266 270//270
f 182//182 175//175 170//170
f 209//209 175//175 182//182
f 175//175 159//159 170//170
f 159//159 175//175 163//163
f 175//175 173//173 163//163
f 175//175 209//209 190//190
f 173//173 175//175 190//190
f 228//228 198//198 215//215
f 198//198 196//196 215//215
f 196//196 191//191 212//212
f 295//295 316//316 300//300
f 295//295 256//256 305//305
f 316//316 295//295 305//305
f 339//339 361//361 358//358
f 361//361 339//339 345//345
f 365//365 355//355 353//353
f 355//355 365//365 375//375
f 473//473 478//478 479//479
f 478//478 474//474 479//479
f 474//474 478//478 473//473
f 475//475 474//474 471//471
f 474//474 475//475 479//479
f 454//454 459//459 438//438
f 459//459 475//475 471//471
f 363//363 381//381 368//368
f 318//318 363//363 368//368
f 354//354 363//363 318//318
f 316//316 331//331 300//300
f 331//331 318//318 300//300
f 331//331 354//354 318//318
f 331//331 316//316 347//347
f 354//354 331//331 347//347
f 441//441 433//433 428//428
f 433//433 418//418 428//428
f 423//423 424//424 400//400
f 424//424 423//423 439//439
f 423//423 446//446 439//439
f 446//446 423//423 422//422
f 474//474 465//465 471//471
f 465//465 457//457 471//471
f 465//465 474//474 473//473
f 472//472 465//465 473//473
f 348//348 339//339 358//358
f 339//339 348//348 326//326
f 386//386 400//400 417//417
f 270//270 292//292 305//305
f 332//332 336//336 340//340
f 325//325 316//316 305//305
f 316//316 325//325 347//347
f 397//397 396//396 383//383
f 460//460 456//456 467//467
f 60//60 66//66 48//48
f 44//44 60//60 48//48
f 60//60 44//44 64//64
f 44//44 29//29 23//23
f 29//29 44//44 35//35
f 29//29 22//22 23//23
f 22//22 29//29 35//35
f 66//66 55//55 48//48
f 88//88 76//76 89//89
f 109//109 98//98 101//101
f 98//98 109//109 132//132
f 126//126 109//109 101//101
f 109//109 126//126 132//132
f 98//98 77//77 101//101
f 77//77 69//69 63//63
f 5//5 12//12 27//27
f 17//17 5//5 27//27
f 5//5 17//17 2//2
f 13//13 8//8 11//11
f 20//20 13//13 11//11
f 13//13 7//7 8//8
f 7//7 13//13 19//19
f 323//323 341//341 313//313
f 303//303 323//323 313//313
f 341//341 323//323 334//334
f 323//323 303//303 334//334
f 147//147 159//159 163//163
f 126//126 147//147 132//132
f 159//159 147//147 126//126
f 161//161 141//141 156//156
f 167//167 161//161 181//181
f 161//161 195//195 181//181
f 195//195 161//161 156//156
f 111//111 137//137 136//136
f 137//137 111//111 114//114
f 294//294 264//264 271//271
f 294//294 287//287 264//264
f 294//294 271//271 282//282
f 294//294 303//303 313//313
f 303//303 294//294 282//282
f 145//145 159//159 136//136
f 145//145 164//164 159//159
f 137//137 145//145 136//136
f 164//164 145//145 167//167
f 445//445 446//446 422//422
f 446//446 445//445 461//461
f 398//398 408//408 390//390
f 379//379 392//392 375//375
f 392//392 398//398 375//375
f 406//406 392//392 379//379
f 362//362 351//351 373//373
f 379//379 362//362 373//373
f 365//365 362//362 379//379
f 351//351 362//362 341//341
f 341//341 362//362 353//353
f 362//362 365//365 353//353
f 105//105 94//94 113//113
f 165//165 162//162 174//174
f 179//179 177//177 151//151
f 177//177 169//169 151//151
f 67//67 53//53 49//49
f 73//73 67//67 49//49
f 67//67 68//68 57//57
f 53//53 67//67 57//57
f 112//112 118//118 104//104
f 104//104 118//118 108//108
f 118//118 131//131 108//108
f 118//118 112//112 130//130
f 121//121 84//84 108//108
f 121//121 115//115 84//84
f 115//115 121//121 151//151
f 84//84 90//90 78//78
f 115//115 90//90 84//84
f 90//90 73//73 78//78
f 96//96 122//122 116//116
f 288//288 260//260 262//262
f 260//260 251//251 217//217
f 222//222 260//260 217//217
f 381//381 387//387 368//368
f 387//387 376//376 368//368
f 344//344 333//333 368//368
f 376//376 344//344 368//368
f 344//344 376//376 364//364
f 346//346 344//344 364//364
f 360//360 350//350 342//342
f 350//350 338//338 342//342
f 338//338 350//350 330//330
f 320//320 289//289 276//276
f 289//289 320//320 321//321
f 289//289 263//263 276//276
f 263//263 289//289 275//275
f 249//249 268//268 255//255
f 268//268 249//249 251//251
f 235//235 223//223 255//255
f 223//223 249//249 255//255
f 249//249 223//223 218//218
f 221//221 223//223 235//235
f 123//123 133//133 135//135
f 133//133 123//123 105//105
f 172//172 178//178 185//185
f 178//178 172//172 166//166
f 178//178 200//200 185//185
f 200//200 178//178 184//184
f 242//242 222//222 220//220
f 260//260 242//242 262//262
f 242//242 260//260 222//222
f 172//172 168//168 160//160
f 168//168 172//172 187//187
f 168//168 187//187 186//186
f 160//160 168//168 135//135
f 327//327 339//339 326//326
f 339//339 327//327 345//345
f 307//307 294//294 313//313
f 294//294 307//307 287//287
f 287//287 307//307 285//285
f 195//195 210//210 182//182
f 210//210 209//209 182//182
f 210//210 232//232 209//209
f 194//194 189//189 180//180
f 198//198 194//194 180//180
f 214//214 211//211 231//231
f 211//211 198//198 228//228
f 194//194 211//211 214//214
f 211//211 194//194 198//198
f 211//211 244//244 231//231
f 211//211 228//228 244//244
f 176//176 173//173 190//190
f 191//191 176//176 190//190
f 280//280 295//295 300//300
f 280//280 300//300 299//299
f 280//280 243//243 256//256
f 295//295 280//280 256//256
f 359//359 355//355 375//375
f 359//359 361//361 345//345
f 359//359 375//375 390//390
f 361//361 359//359 390//390
f 459//459 453//453 438//438
f 457//457 453//453 471//471
f 453//453 459//459 471//471
f 463//463 459//459 454//454
f 476//476 463//463 468//468
f 463//463 454//454 468//468
f 475//475 463//463 476//476
f 459//459 463//463 475//475
f 418//418 421//421 428//428
f 403//403 423//423 400//400
f 423//423 403//403 422//422
f 403//403 400//400 390//390
f 408//408 403//403 390//390
f 403//403 408//408 422//422
f 465//465 464//464 457//457
f 464//464 472//472 466//466
f 464//464 465//465 472//472
f 437//437 452//452 456//456
f 460//460 437//437 456//456
f 477//477 469//469 466//466
f 456//456 458//458 470//470
f 452//452 458//458 456//456
f 458//458 469//469 470//470
f 348//348 356//356 336//336
f 356//356 348//348 358//358
f 356//356 386//386 369//369
f 400//400 380//380 390//390
f 380//380 361//361 390//390
f 361//361 380//380 358//358
f 380//380 356//356 358//358
f 356//356 380//380 386//386
f 397//397 389//389 402//402
f 389//389 397//397 383//383
f 292//292 312//312 305//305
f 312//312 325//325 305//305
f 310//310 332//332 328//328
f 332//332 310//310 336//336
f 332//332 349//349 328//328
f 396//396 393//393 383//383
f 363//363 382//382 381//381
f 382//382 363//363 354//354
f 382//382 410//410 407//407
f 410//410 382//382 384//384
f 60//60 74//74 66//66
f 95//95 110//110 114//114
f 111//111 95//95 114//114
f 71//71 55//55 66//66
f 55//55 71//71 63//63
f 71//71 77//77 63//63
f 77//77 71//71 101//101
f 74//74 71//71 66//66
f 34//34 36//36 51//51
f 36//36 38//38 51//51
f 43//43 25//25 21//21
f 50//50 34//34 51//51
f 79//79 76//76 88//88
f 79//79 56//56 76//76
f 100//100 98//98 132//132
f 100//100 120//120 89//89
f 173//173 143//143 163//163
f 120//120 143//143 146//146
f 112//112 117//117 130//130
f 171//171 153//153 146//146
f 171//171 191//191 196//196
f 171//171 198//198 180//180
f 198//198 171//171 196//196
f 148//148 158//158 180//180
f 158//158 171//171 180//180
f 171//171 158//158 153//153
f 153//153 158//158 130//130
f 4//4 2//2 1//1
f 4//4 5//5 2//2
f 6//6 4//4 1//1
f 12//12 4//4 6//6
f 4//4 12//12 5//5
f 9//9 10//10 6//6
f 10//10 12//12 6//6
f 10//10 24//24 12//12
f 34//34 24//24 19//19
f 19//19 24//24 9//9
f 24//24 10//10 9//9
f 16//16 30//30 18//18
f 40//40 27//27 39//39
f 139//139 137//137 114//114
f 139//139 114//114 127//127
f 141//141 139//139 127//127
f 145//145 152//152 167//167
f 152//152 145//145 137//137
f 139//139 152//152 137//137
f 152//152 161//161 167//167
f 161//161 152//152 141//141
f 152//152 139//139 141//141
f 445//445 455//455 461//461
f 431//431 455//455 445//445
f 56//56 59//59 39//39
f 59//59 40//40 39//39
f 40//40 59//59 61//61
f 79//79 59//59 56//56
f 94//94 106//106 113//113
f 106//106 103//103 119//119
f 184//184 199//199 205//205
f 199//199 184//184 174//174
f 80//80 67//67 73//73
f 140//140 148//148 131//131
f 118//118 140//140 131//131
f 140//140 118//118 130//130
f 158//158 140//140 130//130
f 140//140 158//158 148//148
f 131//131 129//129 108//108
f 129//129 121//121 108//108
f 121//121 129//129 151//151
f 129//129 179//179 151//151
f 129//129 148//148 179//179
f 148//148 129//129 131//131
f 107//107 90//90 115//115
f 107//107 122//122 96//96
f 142//142 115//115 151//151
f 122//122 142//142 162//162
f 142//142 107//107 115//115
f 107//107 142//142 122//122
f 169//169 142//142 151//151
f 162//162 142//142 169//169
f 125//125 162//162 150//150
f 125//125 122//122 162//162
f 122//122 125//125 116//116
f 125//125 103//103 116//116
f 103//103 125//125 119//119
f 269//269 268//268 251//251
f 260//260 269//269 251//251
f 269//269 260//260 288//288
f 370//370 391//391 371//371
f 387//387 401//401 418//418
f 401//401 421//421 418//418
f 421//421 401//401 407//407
f 415//415 405//405 426//426
f 308//308 289//289 321//321
f 308//308 338//338 314//314
f 338//338 308//308 321//321
f 289//289 308//308 275//275
f 309//309 324//324 320//320
f 320//320 324//324 346//346
f 344//344 324//324 333//333
f 324//324 344//344 346//346
f 318//318 315//315 299//299
f 315//315 318//318 333//333
f 324//324 315//315 333//333
f 315//315 324//324 309//309
f 249//249 238//238 251//251
f 238//238 249//249 218//218
f 251//251 238//238 217//217
f 238//238 218//218 217//217
f 223//223 206//206 218//218
f 187//187 206//206 186//186
f 218//218 206//206 187//187
f 192//192 206//206 223//223
f 206//206 192//192 186//186
f 144//144 149//149 133//133
f 160//160 149//149 166//166
f 133//133 149//149 160//160
f 162//162 155//155 150//150
f 155//155 162//162 165//165
f 124//124 133//133 113//113
f 124//124 144//144 133//133
f 106//106 124//124 113//113
f 124//124 106//106 119//119
f 263//263 253//253 241//241
f 253//253 263//263 275//275
f 242//242 253//253 262//262
f 317//317 327//327 326//326
f 327//327 337//337 345//345
f 337//337 359//359 345//345
f 317//317 337//337 327//327
f 201//201 191//191 190//190
f 191//191 201//201 212//212
f 209//209 201//201 190//190
f 247//247 250//250 266//266
f 250//250 247//247 215//215
f 248//248 246//246 232//232
f 257//257 246//246 248//248
f 248//248 236//236 264//264
f 236//236 195//195 213//213
f 224//224 236//236 213//213
f 264//264 236//236 224//224
f 447//447 443//443 438//438
f 453//453 447//447 438//438
f 443//443 447//447 457//457
f 447//447 453//453 457//457
f 450//450 443//443 457//457
f 464//464 450//450 457//457
f 409//409 425//425 414//414
f 409//409 393//393 396//396
f 393//393 409//409 384//384
f 410//410 409//409 414//414
f 409//409 410//410 384//384
f 412//412 397//397 402//402
f 413//413 412//412 402//402
f 409//409 412//412 425//425
f 397//397 412//412 396//396
f 412//412 409//409 396//396
f 437//437 436//436 452//452
f 425//425 436//436 414//414
f 436//436 437//437 414//414
f 421//421 427//427 428//428
f 427//427 421//421 407//407
f 356//356 357//357 336//336
f 357//357 356//356 369//369
f 367//367 357//357 369//369
f 336//336 357//357 340//340
f 386//386 385//385 400//400
f 385//385 380//380 400//400
f 380//380 385//385 386//386
f 395//395 367//367 369//369
f 395//395 386//386 417//417
f 386//386 395//395 369//369
f 389//389 395//395 402//402
f 312//312 297//297 328//328
f 297//297 310//310 328//328
f 297//297 312//312 292//292
f 310//310 297//297 291//291
f 297//297 266//266 291//291
f 266//266 297//297 270//270
f 297//297 292//292 270//270
f 352//352 332//332 340//340
f 352//352 349//349 332//332
f 357//357 352//352 340//340
f 352//352 357//357 367//367
f 349//349 377//377 383//383
f 377//377 389//389 383//383
f 377//377 395//395 389//389
f 366//366 349//349 383//383
f 393//393 366//366 383//383
f 325//325 335//335 347//347
f 335//335 366//366 347//347
f 366//366 335//335 349//349
f 349//349 335//335 328//328
f 335//335 312//312 328//328
f 312//312 335//335 325//325
f 70//70 74//74 60//60
f 74//74 70//70 81//81
f 70//70 60//60 64//64
f 70//70 95//95 81//81
f 110//110 70//70 64//64
f 95//95 70//70 110//110
f 93//93 74//74 81//81
f 93//93 111//111 101//101
f 71//71 93//93 101//101
f 93//93 71//71 74//74
f 93//93 95//95 111//111
f 95//95 93//93 81//81
f 36//36 28//28 38//38
f 28//28 20//20 25//25
f 28//28 34//34 19//19
f 28//28 36//36 34//34
f 13//13 28//28 19//19
f 28//28 13//13 20//20
f 58//58 55//55 63//63
f 56//56 62//62 76//76
f 50//50 62//62 56//56
f 62//62 50//50 51//51
f 76//76 62//62 69//69
f 91//91 112//112 86//86
f 91//91 79//79 88//88
f 117//117 91//91 88//88
f 91//91 117//117 112//112
f 138//138 100//100 132//132
f 100//100 138//138 120//120
f 138//138 143//143 120//120
f 143//143 138//138 163//163
f 147//147 138//138 132//132
f 138//138 147//147 163//163
f 77//77 82//82 69//69
f 82//82 76//76 69//69
f 82//82 77//77 98//98
f 100//100 82//82 98//98
f 76//76 82//82 89//89
f 82//82 100//100 89//89
f 176//176 154//154 173//173
f 154//154 143//143 173//173
f 143//143 154//154 146//146
f 154//154 171//171 146//146
f 154//154 176//176 191//191
f 171//171 154//154 191//191
f 134//134 120//120 146//146
f 134//134 117//117 120//120
f 153//153 134//134 146//146
f 134//134 153//153 130//130
f 117//117 134//134 130//130
f 120//120 99//99 89//89
f 117//117 99//99 120//120
f 99//99 88//88 89//89
f 99//99 117//117 88//88
f 12//12 26//26 27//27
f 24//24 26//26 12//12
f 27//27 26//26 39//39
f 31//31 17//17 27//27
f 40//40 31//31 27//27
f 33//33 45//45 30//30
f 31//31 33//33 17//17
f 16//16 33//33 30//30
f 33//33 16//16 17//17
f 42//42 61//61 65//65
f 42//42 40//40 61//61
f 42//42 65//65 45//45
f 33//33 42//42 45//45
f 42//42 31//31 40//40
f 42//42 33//33 31//31
f 419//419 408//408 398//398
f 408//408 419//419 422//422
f 419//419 445//445 422//422
f 419//419 431//431 445//445
f 392//392 411//411 398//398
f 411//411 392//392 406//406
f 411//411 406//406 432//432
f 72//72 59//59 79//79
f 72//72 91//91 86//86
f 91//91 72//72 79//79
f 59//59 72//72 61//61
f 65//65 72//72 86//86
f 61//61 72//72 65//65
f 97//97 94//94 75//75
f 97//97 106//106 94//94
f 193//193 177//177 179//179
f 226//226 227//227 243//243
f 243//243 227//227 231//231
f 227//227 214//214 231//231
f 272//272 280//280 299//299
f 183//183 162//162 169//169
f 162//162 183//183 174//174
f 183//183 199//199 174//174
f 80//80 87//87 96//96
f 87//87 107//107 96//96
f 107//107 87//87 90//90
f 90//90 87//87 73//73
f 87//87 80//80 73//73
f 85//85 97//97 75//75
f 67//67 83//83 68//68
f 80//80 83//83 67//67
f 68//68 83//83 75//75
f 83//83 85//85 75//75
f 269//269 290//290 268//268
f 394//394 387//387 381//381
f 394//394 401//401 387//387
f 420//420 387//387 418//418
f 420//420 405//405 387//387
f 405//405 420//420 426//426
f 420//420 433//433 426//426
f 433//433 420//420 418//418
f 387//387 388//388 376//376
f 405//405 388//388 387//387
f 391//391 388//388 415//415
f 388//388 405//405 415//415
f 308//308 283//283 275//275
f 283//283 288//288 262//262
f 288//288 283//283 314//314
f 283//283 308//308 314//314
f 253//253 283//283 262//262
f 283//283 253//253 275//275
f 202//202 223//223 221//221
f 202//202 192//192 223//223
f 202//202 221//221 203//203
f 157//157 149//149 144//144
f 157//157 155//155 165//165
f 149//149 157//157 166//166
f 157//157 144//144 150//150
f 155//155 157//157 150//150
f 157//157 178//178 166//166
f 184//184 157//157 165//165
f 178//178 157//157 184//184
f 128//128 124//124 119//119
f 124//124 128//128 144//144
f 144//144 128//128 150//150
f 128//128 125//125 150//150
f 125//125 128//128 119//119
f 253//253 233//233 241//241
f 241//241 233//233 205//205
f 233//233 200//200 205//205
f 200//200 233//233 220//220
f 233//233 242//242 220//220
f 233//233 253//253 242//242
f 311//311 317//317 326//326
f 319//319 317//317 302//302
f 319//319 337//337 317//317
f 319//319 302//302 285//285
f 307//307 319//319 285//285
f 284//284 257//257 285//285
f 302//302 284//284 285//285
f 246//246 284//284 259//259
f 284//284 246//246 257//257
f 317//317 284//284 302//302
f 311//311 284//284 317//317
f 273//273 287//287 285//285
f 257//257 273//273 285//285
f 287//287 273//273 264//264
f 273//273 248//248 264//264
f 273//273 257//257 248//248
f 229//229 210//210 195//195
f 236//236 229//229 195//195
f 210//210 229//229 232//232
f 229//229 248//248 232//232
f 229//229 236//236 248//248
f 434//434 412//412 413//413
f 412//412 434//434 425//425
f 444//444 450//450 464//464
f 434//434 444//444 425//425
f 444//444 434//434 450//450
f 442//442 458//458 452//452
f 436//436 442//442 452//452
f 440//440 460//460 451//451
f 440//440 437//437 460//460
f 427//427 440//440 428//428
f 440//440 441//441 428//428
f 440//440 451//451 441//441
f 404//404 395//395 417//417
f 438//438 404//404 417//417
f 404//404 413//413 402//402
f 395//395 404//404 402//402
f 443//443 404//404 438//438
f 352//352 372//372 349//349
f 372//372 377//377 349//349
f 372//372 352//352 367//367
f 395//395 372//372 367//367
f 377//377 372//372 395//395
f 374//374 393//393 384//384
f 374//374 366//366 393//393
f 366//366 374//374 347//347
f 382//382 374//374 384//384
f 374//374 354//354 347//347
f 374//374 382//382 354//354
f 58//58 47//47 55//55
f 47//47 58//58 43//43
f 55//55 47//47 48//48
f 47//47 35//35 48//48
f 35//35 47//47 21//21
f 47//47 43//43 21//21
f 69//69 54//54 63//63
f 54//54 58//58 63//63
f 62//62 54//54 69//69
f 54//54 62//62 51//51
f 58//58 54//54 43//43
f 32//32 26//26 24//24
f 32//32 50//50 56//56
f 32//32 56//56 39//39
f 26//26 32//32 39//39
f 50//50 32//32 34//34
f 32//32 24//24 34//34
f 419//419 416//416 431//431
f 416//416 419//419 398//398
f 411//411 416//416 398//398
f 189//189 197//197 179//179
f 197//197 193//193 179//179
f 193//193 197//197 226//226
f 278//278 286//286 276//276
f 286//286 320//320 276//276
f 286//286 309//309 320//320
f 298//298 315//315 309//309
f 286//286 298//298 309//309
f 298//298 286//286 278//278
f 315//315 298//298 299//299
f 272//272 277//277 261//261
f 277//277 298//298 278//278
f 277//277 272//272 299//299
f 298//298 277//277 299//299
f 216//216 234//234 241//241
f 216//216 241//241 205//205
f 199//199 216//216 205//205
f 234//234 252//252 241//241
f 263//263 252//252 276//276
f 252//252 263//263 241//241
f 106//106 92//92 103//103
f 92//92 83//83 103//103
f 83//83 92//92 85//85
f 97//97 92//92 106//106
f 85//85 92//92 97//97
f 102//102 80//80 96//96
f 102//102 83//83 80//80
f 83//83 102//102 103//103
f 102//102 96//96 116//116
f 103//103 102//102 116//116
f 296//296 269//269 288//288
f 296//296 290//290 269//269
f 290//290 296//296 306//306
f 296//296 322//322 306//306
f 296//296 288//288 322//322
f 401//401 399//399 407//407
f 394//394 399//399 401//401
f 399//399 382//382 407//407
f 382//382 399//399 381//381
f 399//399 394//394 381//381
f 388//388 378//378 376//376
f 378//378 388//388 391//391
f 378//378 391//391 370//370
f 378//378 370//370 364//364
f 376//376 378//378 364//364
f 329//329 319//319 307//307
f 329//329 307//307 313//313
f 329//329 341//341 353//353
f 341//341 329//329 313//313
f 319//319 329//329 337//337
f 201//201 237//237 212//212
f 245//245 237//237 201//201
f 237//237 245//245 250//250
f 212//212 237//237 215//215
f 237//237 250//250 215//215
f 230//230 201//201 209//209
f 230//230 245//245 201//201
f 245//245 230//230 259//259
f 230//230 246//246 259//259
f 232//232 230//230 209//209
f 246//246 230//230 232//232
f 250//250 279//279 266//266
f 266//266 279//279 291//291
f 279//279 281//281 291//291
f 301//301 348//348 336//336
f 310//310 301//301 336//336
f 301//301 310//310 291//291
f 281//281 301//301 291//291
f 267//267 245//245 259//259
f 245//245 267//267 250//250
f 267//267 279//279 250//250
f 279//279 267//267 281//281
f 450//450 435//435 443//443
f 434//434 435//435 450//450
f 435//435 404//404 443//443
f 435//435 434//434 413//413
f 404//404 435//435 413//413
f 458//458 462//462 469//469
f 442//442 462//462 458//458
f 469//469 462//462 466//466
f 462//462 464//464 466//466
f 462//462 444//444 464//464
f 440//440 429//429 437//437
f 429//429 440//440 427//427
f 437//437 429//429 414//414
f 429//429 410//410 414//414
f 410//410 429//429 407//407
f 429//429 427//427 407//407
f 38//38 41//41 51//51
f 41//41 54//54 51//51
f 54//54 41//41 43//43
f 28//28 41//41 38//38
f 43//43 41//41 25//25
f 41//41 28//28 25//25
f 416//416 430//430 431//431
f 455//455 430//430 448//448
f 431//431 430//430 455//455
f 430//430 416//416 411//411
f 448//448 430//430 432//432
f 430//430 411//411 432//432
f 207//207 227//227 226//226
f 197//197 207//207 226//226
f 227//227 207//207 214//214
f 207//207 197//197 189//189
f 194//194 207//207 189//189
f 207//207 194//194 214//214
f 204//204 193//193 226//226
f 272//272 254//254 280//280
f 254//254 272//272 261//261
f 240//240 254//254 261//261
f 265//265 278//278 276//276
f 252//252 265//265 276//276
f 277//277 265//265 261//261
f 265//265 277//277 278//278
f 265//265 252//252 234//234
f 265//265 240//240 261//261
f 240//240 265//265 234//234
f 329//329 343//343 337//337
f 359//359 343//343 355//355
f 337//337 343//343 359//359
f 355//355 343//343 353//353
f 343//343 329//329 353//353
f 293//293 301//301 281//281
f 267//267 293//293 281//281
f 284//284 293//293 259//259
f 293//293 267//267 259//259
f 462//462 449//449 444//444
f 449//449 462//462 442//442
f 444//444 449//449 425//425
f 449//449 436//436 425//425
f 449//449 442//442 436//436
f 193//193 188//188 177//177
f 204//204 188//188 193//193
f 177//177 188//188 169//169
f 188//188 183//183 169//169
f 204//204 239//239 240//240
f 239//239 254//254 240//240
f 239//239 204//204 226//226
f 239//239 226//226 243//243
f 280//280 239//239 243//243
f 254//254 239//239 280//280
f 293//293 304//304 301//301
f 304//304 311//311 326//326
f 304//304 284//284 311//311
f 304//304 293//293 284//284
f 348//348 304//304 326//326
f 301//301 304//304 348//348
f 183//183 225//225 199//199
f 188//188 225//225 183//183
f 225//225 240//240 234//234
f 225//225 204//204 240//240
f 225//225 188//188 204//204
f 225//225 216//216 199//199
f 216//216 225//225 234//234
