v -3.252963198 -0.171550124 -7.274312229 0.223529 0.215686 0.149020
v -3.254935562 -0.182293458 -7.270433161 0.282353 0.262745 0.211765
v -3.251683143 -0.163026495 -7.281416684 0.317647 0.286275 0.215686
v -3.257089984 -0.203786292 -7.266149638 0.305882 0.301961 0.219608
v -3.258815214 -0.217837977 -7.264619976 0.290196 0.294118 0.196078
v -3.251708170 -0.191341330 -7.274963072 0.486275 0.529412 0.376471
v -3.246146108 -0.160245524 -7.295240633 0.584314 0.596078 0.498039
v -3.252524930 -0.210241348 -7.272569580 0.486275 0.545098 0.368627
v -3.258505269 -0.238708951 -7.263690311 0.384314 0.396078 0.286275
v -3.248355969 -0.202429862 -7.278086714 0.466667 0.533333 0.349020
v -3.252918936 -0.221054442 -7.272939419 0.447059 0.501961 0.321569
v -3.242077255 -0.183077514 -7.290554988 0.517647 0.576471 0.415686
v -3.237790343 -0.153270208 -7.308874728 0.325490 0.317647 0.231373
v -3.258637316 -0.262521519 -7.263162549 0.309804 0.313725 0.203922
v -3.254238605 -0.245095748 -7.269753274 0.443137 0.501961 0.325490
v -3.237457488 -0.175303995 -7.299503691 0.498039 0.552941 0.392157
v -3.234516819 -0.165541166 -7.308186479 0.517647 0.564706 0.411765
v -3.252325877 -0.258672850 -7.271072048 0.439216 0.505882 0.313725
v -3.238039105 -0.205665322 -7.289742395 0.447059 0.529412 0.325490
v -3.274191018 -0.320046995 -7.256098409 0.545098 0.427451 0.360784
v -3.257441074 -0.278175213 -7.264570787 0.313725 0.329412 0.203922
v -3.233609201 -0.184357536 -7.300179687 0.435294 0.513725 0.309804
v -3.229541792 -0.145544895 -7.321311417 0.411765 0.372549 0.266667
v -3.238811585 -0.215383826 -7.287934516 0.411765 0.498039 0.301961
v -3.267632354 -0.311627257 -7.258583007 0.317647 0.262745 0.200000
v -3.253310292 -0.270246143 -7.269463557 0.443137 0.498039 0.325490
v -3.242609254 -0.230232483 -7.283975025 0.403922 0.490196 0.294118
v -3.232835292 -0.199842802 -7.296170845 0.415686 0.494118 0.298039
v -3.226630410 -0.164222762 -7.315806412 0.470588 0.541176 0.364706
v -3.254626010 -0.297518684 -7.265626755 0.262745 0.231373 0.149020
v -3.221484282 -0.155305340 -7.323603261 0.458824 0.505882 0.345098
v -3.241749105 -0.252164021 -7.283755050 0.431373 0.513725 0.309804
v -3.255871138 -0.308370438 -7.264268235 0.509804 0.415686 0.337255
v -3.247482286 -0.280583817 -7.273974961 0.454902 0.509804 0.329412
v -3.230822684 -0.225032574 -7.295449228 0.372549 0.466667 0.270588
v -3.220782145 -0.192131687 -7.309974518 0.431373 0.517647 0.301961
v -3.234733559 -0.250244096 -7.290313970 0.384314 0.470588 0.266667
v -3.249975761 -0.319988134 -7.264186971 0.349020 0.282353 0.227451
v -3.221495372 -0.209468525 -7.306148307 0.372549 0.466667 0.258824
v -3.212985572 -0.172735652 -7.324795849 0.431373 0.517647 0.305882
v -3.217408517 -0.201798104 -7.311121323 0.392157 0.486275 0.274510
v -3.220180033 -0.219929199 -7.305496887 0.376471 0.474510 0.270588
v -3.236409639 -0.277982267 -7.286166114 0.368627 0.435294 0.243137
v -3.209425486 -0.156639946 -7.335462279 0.462745 0.529412 0.345098
v -3.223768452 -0.238615146 -7.300675253 0.380392 0.474510 0.258824
v -3.240340252 -0.309138603 -7.273312095 0.486275 0.490196 0.325490
v -3.225527393 -0.250213310 -7.297905397 0.380392 0.470588 0.266667
v -3.213337028 -0.212100463 -7.313506503 0.400000 0.494118 0.282353
v -3.226974995 -0.265232409 -7.294850358 0.372549 0.454902 0.247059
v -3.208892617 -0.194020858 -7.321989121 0.415686 0.513725 0.286275
v -3.205210883 -0.172731851 -7.333823657 0.419608 0.505882 0.274510
v -3.209189445 -0.204418292 -7.319062803 0.388235 0.482353 0.258824
v -3.202578962 -0.159797760 -7.344116584 0.450980 0.513725 0.317647
v -3.232372735 -0.323439438 -7.272465289 0.286275 0.282353 0.184314
v -3.203678852 -0.190780413 -7.329700544 0.423529 0.517647 0.290196
v -3.210292610 -0.225707752 -7.314345200 0.384314 0.474510 0.262745
v -3.229643581 -0.308297408 -7.283914996 0.443137 0.509804 0.309804
v -3.225365312 -0.287018965 -7.295154071 0.541176 0.600000 0.396078
v -3.220973288 -0.274890675 -7.299831010 0.388235 0.466667 0.262745
v -3.225661010 -0.316804170 -7.281885422 0.482353 0.541176 0.317647
v -3.210139474 -0.245066127 -7.312248686 0.388235 0.478431 0.270588
v -3.224413577 -0.329987965 -7.274857870 0.227451 0.215686 0.109804
v -3.211760321 -0.256762573 -7.309354275 0.400000 0.486275 0.282353
v -3.200580309 -0.212133231 -7.326605544 0.415686 0.509804 0.286275
v -3.197383071 -0.197921726 -7.335041880 0.423529 0.513725 0.286275
v -3.195091121 -0.160370467 -7.358591553 0.474510 0.517647 0.341176
v -3.220139164 -0.298119302 -7.296406940 0.411765 0.486275 0.266667
v -3.194775175 -0.180468321 -7.346650530 0.435294 0.525490 0.290196
v -3.216186079 -0.284408553 -7.304067302 0.521569 0.584314 0.376471
v -3.200436442 -0.230847399 -7.323226797 0.388235 0.482353 0.266667
v -3.192675963 -0.206934347 -7.337439072 0.403922 0.501961 0.266667
v -3.193894905 -0.216613975 -7.332839098 0.384314 0.474510 0.235294
v -3.215224781 -0.316785780 -7.292775112 0.447059 0.513725 0.290196
v -3.208622307 -0.276689565 -7.312017513 0.509804 0.580392 0.376471
v -3.189893720 -0.159844125 -7.368273634 0.356863 0.337255 0.247059
v -3.188496147 -0.180503922 -7.356534502 0.419608 0.505882 0.274510
v -3.203763759 -0.269640849 -7.316862562 0.411765 0.490196 0.290196
v -3.200140574 -0.260643121 -7.320355088 0.376471 0.466667 0.254902
v -3.209235168 -0.302659137 -7.303599663 0.396078 0.482353 0.254902
v -3.186314518 -0.173222835 -7.365960913 0.462745 0.541176 0.309804
v -3.186020780 -0.197848947 -7.350165752 0.431373 0.525490 0.290196
v -3.184485192 -0.217961002 -7.342179048 0.423529 0.521569 0.270588
v -3.183355565 -0.208298598 -7.347516590 0.415686 0.513725 0.262745
v -3.195500647 -0.268896744 -7.324095796 0.501961 0.580392 0.372549
v -3.184516934 -0.230246143 -7.338333515 0.419608 0.521569 0.290196
v -3.206460425 -0.348382458 -7.285938938 0.243137 0.235294 0.149020
v -3.188401057 -0.250282536 -7.331878820 0.376471 0.474510 0.247059
v -3.179517794 -0.189565161 -7.363066860 0.419608 0.505882 0.258824
v -3.199113709 -0.298052462 -7.314147255 0.403922 0.494118 0.278431
v -3.200653706 -0.316195430 -7.306000946 0.403922 0.494118 0.254902
v -3.176430866 -0.200454278 -7.359967798 0.423529 0.517647 0.250980
v -3.177321504 -0.219889408 -7.349230561 0.443137 0.541176 0.262745
v -3.175114733 -0.212082618 -7.355418772 0.454902 0.549020 0.282353
v -3.177224862 -0.231503722 -7.345900306 0.435294 0.533333 0.286275
v -3.196512209 -0.325838258 -7.306374974 0.407843 0.490196 0.262745
v -3.197727132 -0.338102349 -7.301125985 0.447059 0.525490 0.286275
v -3.198115402 -0.349164453 -7.295708614 0.439216 0.494118 0.305882
v -3.189939075 -0.298027962 -7.321125929 0.388235 0.486275 0.270588
v -3.177775780 -0.246995341 -7.342571765 0.407843 0.498039 0.258824
v -3.185951083 -0.289730654 -7.326200429 0.384314 0.478431 0.270588
v -3.170734749 -0.171270470 -7.387863227 0.227451 0.200000 0.137255
v -3.182445138 -0.280629454 -7.331088085 0.380392 0.466667 0.239216
v -3.188601137 -0.319471243 -7.315281437 0.392157 0.482353 0.243137
v -3.167717424 -0.181652827 -7.383558893 0.486275 0.541176 0.349020
v -3.170906458 -0.239286695 -7.350573033 0.435294 0.529412 0.258824
v -3.168460530 -0.229619576 -7.355239486 0.439216 0.537255 0.250980
v -3.162655336 -0.193430685 -7.377869820 0.435294 0.517647 0.250980
v -3.164425558 -0.222480252 -7.361540558 0.443137 0.537255 0.266667
v -3.161792481 -0.204375938 -7.371832290 0.447059 0.537255 0.270588
v -3.181887724 -0.317483578 -7.322130916 0.392157 0.490196 0.258824
v -3.174078828 -0.280636149 -7.338232776 0.388235 0.478431 0.254902
v -3.184411005 -0.332335650 -7.316251635 0.427451 0.513725 0.262745
v -3.166673965 -0.250204907 -7.352792922 0.447059 0.541176 0.282353
v -3.161013289 -0.234724184 -7.361354514 0.439216 0.533333 0.258824
v -3.172340887 -0.298124077 -7.335208201 0.376471 0.474510 0.258824
v -3.183595382 -0.357507042 -7.310262613 0.400000 0.474510 0.254902
v -3.163985492 -0.261296058 -7.352058703 0.407843 0.501961 0.262745
v -3.152955964 -0.184257668 -7.392065053 0.435294 0.490196 0.262745
v -3.163594473 -0.271560423 -7.350364571 0.388235 0.482353 0.231373
v -3.169627010 -0.312963132 -7.335075820 0.392157 0.486275 0.243137
v -3.156526826 -0.252180434 -7.361393040 0.435294 0.529412 0.254902
v -3.172573764 -0.331650132 -7.329614093 0.396078 0.494118 0.239216
v -3.146178210 -0.196600763 -7.388528124 0.474510 0.564706 0.278431
v -3.151492102 -0.238635579 -7.368641905 0.462745 0.552941 0.270588
v -3.148825645 -0.229571807 -7.373081007 0.454902 0.549020 0.254902
v -3.173217398 -0.345867698 -7.325733668 0.407843 0.501961 0.254902
v -3.174835041 -0.358855468 -7.319603721 0.423529 0.509804 0.262745
v -3.177100159 -0.376242588 -7.310874473 0.341176 0.309804 0.223529
v -3.160878275 -0.291569054 -7.348290755 0.380392 0.478431 0.247059
v -3.162987435 -0.305173971 -7.343295514 0.388235 0.490196 0.243137
v -3.153368365 -0.267705430 -7.360821196 0.396078 0.494118 0.227451
v -3.168277614 -0.340095210 -7.332432930 0.396078 0.490196 0.235294
v -3.154828140 -0.280662706 -7.356469673 0.396078 0.490196 0.247059
v -3.139576530 -0.206913724 -7.388384580 0.462745 0.552941 0.258824
v -3.140635336 -0.222503617 -7.381699342 0.462745 0.552941 0.254902
v -3.136554416 -0.198552318 -7.393769925 0.466667 0.549020 0.266667
v -3.133333307 -0.181877246 -7.402198726 0.290196 0.262745 0.188235
v -3.146224621 -0.252834752 -7.370479801 0.427451 0.521569 0.243137
v -3.167465969 -0.352342168 -7.330323698 0.419608 0.513725 0.254902
v -3.156512781 -0.316157727 -7.349099581 0.400000 0.498039 0.247059
v -3.163067026 -0.363999369 -7.332391375 0.439216 0.525490 0.286275
v -3.146840839 -0.290311967 -7.363339943 0.380392 0.478431 0.219608
v -3.139792226 -0.260595462 -7.375679921 0.431373 0.529412 0.243137
v -3.131168884 -0.228885651 -7.387731817 0.470588 0.564706 0.258824
v -3.126195653 -0.215351702 -7.394396752 0.482353 0.568627 0.262745
v -3.149558190 -0.311664575 -7.357659900 0.376471 0.474510 0.219608
v -3.141586688 -0.278016708 -7.371656004 0.388235 0.486275 0.215686
v -3.131402454 -0.238624827 -7.386033746 0.478431 0.572549 0.258824
v -3.146518986 -0.302653709 -7.361734024 0.384314 0.482353 0.227451
v -3.157972000 -0.352380838 -7.342162311 0.419608 0.517647 0.266667
v -3.133954839 -0.251543531 -7.382768336 0.458824 0.556863 0.254902
v -3.153449135 -0.336871056 -7.350564386 0.403922 0.505882 0.247059
v -3.137406454 -0.270328200 -7.377178783 0.423529 0.521569 0.239216
v -3.121276621 -0.208291265 -7.399824376 0.494118 0.576471 0.262745
v -3.158601287 -0.380167638 -7.332451177 0.364706 0.384314 0.223529
v -3.116478198 -0.194667174 -7.407298875 0.486275 0.556863 0.258824
v -3.153393045 -0.346554215 -7.349860682 0.396078 0.494118 0.235294
v -3.154675612 -0.363355208 -7.345325803 0.431373 0.529412 0.278431
v -3.145922751 -0.324511342 -7.362415092 0.400000 0.494118 0.250980
v -3.120178238 -0.230301903 -7.396793544 0.474510 0.564706 0.250980
v -3.139140569 -0.309710553 -7.370505332 0.388235 0.486275 0.227451
v -3.122672175 -0.245148300 -7.394760837 0.454902 0.541176 0.235294
v -3.129382978 -0.268337270 -7.387243420 0.439216 0.533333 0.235294
v -3.113166030 -0.215331491 -7.403983588 0.494118 0.580392 0.262745
v -3.145654155 -0.336217339 -7.362802413 0.396078 0.498039 0.239216
v -3.150775304 -0.380278864 -7.345966093 0.211765 0.211765 0.082353
v -3.129990070 -0.286424741 -7.384617953 0.407843 0.501961 0.235294
v -3.132105140 -0.296152772 -7.380921959 0.411765 0.509804 0.247059
v -3.118783314 -0.252130032 -7.400548561 0.470588 0.556863 0.254902
v -3.100035025 -0.187106739 -7.423195343 0.431373 0.415686 0.317647
v -3.141226730 -0.342698030 -7.370010239 0.388235 0.486275 0.235294
v -3.120694831 -0.263757713 -7.398581464 0.450980 0.541176 0.254902
v -3.133600637 -0.318164968 -7.378544980 0.396078 0.494118 0.235294
v -3.147481840 -0.373553854 -7.358147844 0.423529 0.486275 0.278431
v -3.109192101 -0.234054900 -7.407116991 0.466667 0.545098 0.254902
v -3.121764835 -0.274826729 -7.395785595 0.439216 0.529412 0.258824
v -3.142483957 -0.352385101 -7.369327935 0.396078 0.490196 0.243137
v -3.097234964 -0.206849224 -7.418416347 0.529412 0.600000 0.286275
v -3.101885695 -0.227032691 -7.410808621 0.474510 0.545098 0.266667
v -3.120661897 -0.285849302 -7.395979682 0.419608 0.498039 0.243137
v -3.124754970 -0.304508168 -7.391014282 0.411765 0.494118 0.243137
v -3.138924284 -0.360076720 -7.376100227 0.427451 0.498039 0.290196
v -3.141689912 -0.374975678 -7.370468797 0.262745 0.278431 0.160784
v -3.113141060 -0.276075650 -7.405896773 0.447059 0.494118 0.309804
v -3.104054981 -0.249321327 -7.413578316 0.266667 0.243137 0.164706
v -3.130879974 -0.339986769 -7.386143464 0.423529 0.474510 0.294118
v -3.091257513 -0.222057065 -7.419594914 0.286275 0.254902 0.184314
v -3.088861745 -0.201684581 -7.430723815 0.572549 0.627451 0.345098
v -3.112540596 -0.286549625 -7.405314988 0.286275 0.270588 0.176471
v -3.124401445 -0.326537705 -7.392606642 0.435294 0.486275 0.309804
v -3.092123844 -0.231793723 -7.418528525 0.282353 0.247059 0.180392
v -3.115171574 -0.296774333 -7.402758662 0.447059 0.474510 0.325490
v -3.133082859 -0.358133810 -7.385121145 0.360784 0.356863 0.254902
v -3.118509412 -0.313472063 -7.399620295 0.274510 0.250980 0.172549
v -3.083398023 -0.208986908 -7.434334683 0.321569 0.298039 0.192157
v -3.080440232 -0.204265791 -7.444275859 0.321569 0.274510 0.227451
v -3.118240569 -0.337582163 -7.400025542 0.380392 0.329412 0.262745
vn 0.864060901 0.131189115 0.485991949
vn 0.841313097 0.033016294 0.539538875
vn 0.880319155 0.233553881 0.412905279
vn 0.813105695 0.019730595 0.581781602
vn 0.812344467 -0.003314756 0.583168483
vn 0.827532059 0.058158116 0.558397998
vn 0.808167993 0.254420672 0.531163456
vn 0.773061694 -0.014023651 0.634175807
vn 0.825103627 0.025409143 0.564409763
vn 0.783188530 0.090290806 0.615193707
vn 0.772498171 0.010105382 0.634936577
vn 0.811972020 0.165499553 0.559742205
vn 0.715395196 0.261112551 0.648097176
vn 0.787547904 0.019370987 0.615948913
vn 0.773402121 0.036575188 0.632859712
vn 0.756705961 0.271638183 0.594650138
vn 0.721275026 0.273923420 0.636182598
vn 0.744164097 0.058124452 0.665463255
vn 0.728840774 0.105147548 0.676561246
vn 0.316573713 0.033144743 0.947988666
vn 0.618551537 0.039184019 0.784766595
vn 0.695931903 0.264802078 0.667501794
vn 0.661397320 0.332467101 0.672323740
vn 0.732678122 0.017445195 0.680351700
vn 0.403327814 0.066695408 0.912621716
vn 0.728576308 0.053311223 0.682886869
vn 0.721436262 0.030742434 0.691798109
vn 0.707839968 0.164700620 0.686903403
vn 0.656389192 0.286419426 0.697937777
vn 0.544449065 0.080164204 0.834954439
vn 0.653274085 0.309209892 0.691102172
vn 0.710769394 0.062255429 0.700664777
vn 0.458780733 0.151055851 0.875615423
vn 0.669576399 0.140971082 0.729242484
vn 0.685570111 0.055569115 0.725882701
vn 0.684849391 0.228184990 0.692035347
vn 0.664002998 0.063015827 0.745069812
vn 0.419303378 0.206088352 0.884144936
vn 0.696349376 0.103750566 0.710164323
vn 0.695331863 0.254650034 0.672061723
vn 0.698549910 0.144314259 0.700857630
vn 0.677604968 0.088256439 0.730111162
vn 0.696422842 0.123795315 0.706873359
vn 0.720206419 0.299699544 0.625685942
vn 0.665634931 0.068689213 0.743109636
vn 0.606488403 0.229938540 0.761117655
vn 0.654300782 0.087499998 0.751155268
vn 0.702610624 0.116576937 0.701960205
vn 0.653265484 0.066606741 0.754193443
vn 0.734023842 0.199144193 0.649269274
vn 0.789005128 0.230326699 0.569579248
vn 0.734225418 0.161991809 0.659296360
vn 0.833163723 0.260870961 0.487631574
vn 0.534181898 0.359173521 0.765273861
vn 0.778231722 0.220017930 0.588173017
vn 0.690567880 0.095401098 0.716948138
vn 0.671358082 0.270213671 0.690118032
vn 0.685407320 0.164178035 0.709409880
vn 0.682268905 0.032313278 0.730386879
vn 0.622105060 0.415842527 0.663370400
vn 0.681286420 0.081634704 0.727450747
vn 0.686816939 0.360414780 0.631176424
vn 0.683863139 0.049609186 0.727921792
vn 0.722487518 0.156540093 0.673429273
vn 0.763631937 0.231463896 0.602736036
vn 0.836348875 0.298401806 0.459866199
vn 0.629234224 0.269539191 0.728980738
vn 0.810549230 0.262963308 0.523316581
vn 0.642829233 0.186994901 0.742834763
vn 0.686379617 0.105394603 0.719565840
vn 0.734215859 0.254405758 0.629447998
vn 0.701878073 0.185364747 0.687755102
vn 0.670091600 0.317893578 0.670761449
vn 0.639867154 0.130339220 0.757351776
vn 0.784962220 0.303379448 0.540180733
vn 0.794364705 0.330023885 0.509969559
vn 0.680165559 0.021212691 0.732751550
vn 0.680954619 0.062966137 0.729613646
vn 0.625806221 0.272994178 0.730644067
vn 0.762238409 0.367104842 0.533129105
vn 0.754646286 0.306870452 0.579947850
vn 0.713109979 0.229816760 0.662312927
vn 0.720878377 0.306439895 0.621634101
vn 0.605565027 0.139009369 0.783560715
vn 0.694109736 0.139546157 0.706214234
vn 0.714619820 0.325214734 0.619317277
vn 0.654993255 0.115780586 0.746711921
vn 0.701528627 0.411851593 0.581580477
vn 0.613860686 0.231665673 0.754656262
vn 0.636296178 0.266226385 0.724051577
vn 0.675899697 0.363050913 0.641368564
vn 0.704319084 0.250271309 0.664303319
vn 0.683836744 0.311935286 0.659593575
vn 0.708454044 0.167102814 0.685689082
vn 0.657594592 0.229138867 0.717680104
vn 0.703203842 0.259368924 0.661991025
vn 0.751314444 0.256480232 0.608066195
vn 0.613844008 0.216608288 0.759128700
vn 0.683950508 0.151119201 0.713704903
vn 0.601073645 0.187630154 0.776856099
vn 0.625844009 0.363221863 0.690209500
vn 0.605388320 0.159809176 0.779721751
vn 0.639615032 0.230762813 0.733240162
vn 0.638317886 0.470128689 0.609532028
vn 0.695575572 0.138535562 0.704969873
vn 0.697168975 0.190084174 0.691247732
vn 0.587442309 0.470195521 0.658655984
vn 0.668188963 0.266557361 0.694601096
vn 0.616034627 0.327089569 0.716598739
vn 0.677318403 0.164508599 0.717061156
vn 0.670059088 0.167273981 0.723215206
vn 0.716710690 0.174106061 0.675287247
vn 0.679735146 0.167593609 0.714053579
vn 0.664085574 0.169316250 0.728232352
vn 0.657451055 0.175467358 0.732781903
vn 0.735051363 0.213581161 0.643492487
vn 0.677839569 0.171561268 0.714912757
vn 0.464332393 0.417453407 0.781106959
vn 0.680181774 0.159461905 0.715489102
vn 0.717412704 0.101572152 0.689203968
vn 0.659742490 0.167153602 0.732666036
vn 0.736308096 0.104937471 0.668459808
vn 0.542970720 0.431310753 0.720523304
vn 0.657424478 0.139403280 0.740513187
vn 0.632351283 0.228653869 0.740168402
vn 0.739726341 0.176157105 0.649441002
vn 0.745082470 0.209510783 0.633211927
vn 0.752879217 0.220654686 0.620068057
vn 0.708417341 0.137745377 0.692221845
vn 0.732193995 0.116603941 0.671040591
vn 0.697357236 0.135354781 0.703826661
vn 0.751437976 0.148369716 0.642905433
vn 0.710887086 0.142942592 0.688626870
vn 0.566447707 0.316079297 0.761072186
vn 0.593114110 0.238210337 0.769071835
vn 0.479698013 0.327604344 0.813981087
vn 0.463557234 0.345267763 0.816029940
vn 0.682249269 0.142119152 0.717173676
vn 0.756502293 0.176365485 0.629761460
vn 0.757468643 0.066764092 0.649448852
vn 0.778615934 0.191767858 0.597479971
vn 0.757626584 0.099738377 0.645022647
vn 0.727005798 0.083760596 0.681503289
vn 0.621571113 0.138027464 0.771101661
vn 0.574127046 0.213997333 0.790305812
vn 0.756334712 0.055524785 0.651824211
vn 0.747756625 0.096203285 0.656966481
vn 0.660495719 0.094516172 0.744857099
vn 0.744785630 0.081402837 0.662320121
vn 0.789431368 0.125002734 0.600976232
vn 0.721423067 0.048667495 0.690782334
vn 0.781059590 0.081584524 0.619104096
vn 0.764511141 0.068324152 0.640979349
vn 0.533702965 0.252669145 0.807043647
vn 0.801231774 0.203976828 0.562513198
vn 0.552480428 0.292044609 0.780689006
vn 0.863014297 0.033475256 0.504069172
vn 0.867737660 0.115862238 0.483329385
vn 0.805083847 -0.003994616 0.593147573
vn 0.659741513 0.054522351 0.749512141
vn 0.793200148 0.026655333 0.608377365
vn 0.726241730 -0.042752472 0.686108720
vn 0.771279395 0.060511052 0.633613847
vn 0.601691045 0.134583566 0.787308802
vn 0.852342426 -0.010866825 0.522871209
vn 0.883791215 0.201706261 0.422170194
vn 0.775562864 0.049678760 0.629312533
vn 0.794616360 0.052235495 0.604860557
vn 0.701667942 -0.067912321 0.709260189
vn 0.651643257 0.334118015 0.680974462
vn 0.833362347 -0.061236532 0.549324391
vn 0.733379331 0.006835937 0.679785280
vn 0.819130447 -0.043594212 0.571948297
vn 0.901038938 0.087899248 0.424738220
vn 0.649800057 -0.065841588 0.757248157
vn 0.768095644 0.072999877 0.636160436
vn 0.877378766 0.004479562 0.479777484
vn 0.652336296 0.223889170 0.724107034
vn 0.582797408 0.012805725 0.812516581
vn 0.767702739 0.024340636 0.640343687
vn 0.800711901 -0.010362954 0.598959983
vn 0.859987592 0.004457247 0.510295478
vn 0.888984627 0.058500116 0.454185061
vn 0.721909285 0.028937336 0.691382394
vn 0.639185502 -0.073174834 0.765563412
vn 0.804760599 -0.071123900 0.589323145
vn 0.721044243 0.144694461 0.677612509
vn 0.779976900 0.318952780 0.538428417
vn 0.755156047 0.025233164 0.655059259
vn 0.793254927 -0.042611951 0.607396775
vn 0.682544873 -0.082287153 0.726196475
vn 0.775250565 -0.023112468 0.631230842
vn 0.815642685 -0.050223044 0.576371977
vn 0.782847688 -0.024811312 0.621718503
vn 0.797851500 0.218131788 0.562006680
vn 0.811029882 0.398764468 0.428039051
vn 0.750023804 -0.033285152 0.660572776
f 86//86 73//73 62//62
f 103//103 98//98 89//89
f 112//112 103//103 95//95
f 31//31 44//44 23//23
f 192//192 181//181 194//194
f 181//181 192//192 180//180
f 156//156 178//178 170//170
f 184//184 185//185 172//172
f 11//11 5//5 9//9
f 155//155 141//141 128//128
f 108//108 125//125 109//109
f 148//148 125//125 124//124
f 137//137 156//156 170//170
f 148//148 162//162 160//160
f 144//144 148//148 160//160
f 13//13 7//7 17//17
f 140//140 152//152 159//159
f 152//152 140//140 122//122
f 90//90 73//73 95//95
f 90//90 103//103 89//89
f 103//103 90//90 95//95
f 79//79 90//90 89//89
f 90//90 79//79 73//73
f 38//38 46//46 33//33
f 141//141 127//127 128//128
f 140//140 120//120 122//122
f 120//120 140//140 130//130
f 18//18 26//26 43//43
f 18//18 14//14 26//26
f 51//51 53//53 44//44
f 40//40 51//51 44//44
f 31//31 40//40 44//44
f 180//180 189//189 184//184
f 192//192 189//189 180//180
f 164//164 178//178 156//156
f 154//154 164//164 156//156
f 40//40 36//36 50//50
f 4//4 6//6 2//2
f 12//12 3//3 1//1
f 12//12 7//7 3//3
f 2//2 12//12 1//1
f 6//6 12//12 2//2
f 161//161 142//142 149//149
f 161//161 168//168 142//142
f 168//168 173//173 181//181
f 161//161 173//173 168//168
f 173//173 161//161 159//159
f 139//139 127//127 141//141
f 158//158 155//155 166//166
f 155//155 158//158 141//141
f 94//94 85//85 99//99
f 125//125 114//114 124//124
f 114//114 125//125 108//108
f 107//107 91//91 109//109
f 91//91 107//107 88//88
f 80//80 101//101 75//75
f 135//135 134//134 109//109
f 125//125 135//135 109//109
f 135//135 125//125 148//148
f 144//144 135//135 148//148
f 136//136 154//154 156//156
f 137//137 136//136 156//156
f 107//107 104//104 88//88
f 80//80 104//104 101//101
f 104//104 80//80 88//88
f 185//185 169//169 172//172
f 169//169 162//162 172//172
f 145//145 136//136 134//134
f 136//136 145//145 154//154
f 135//135 145//145 134//134
f 145//145 135//135 144//144
f 145//145 144//144 160//160
f 164//164 145//145 160//160
f 145//145 164//164 154//154
f 163//163 176//176 172//172
f 176//176 184//184 172//172
f 176//176 180//180 184//184
f 151//151 162//162 148//148
f 162//162 151//151 172//172
f 151//151 163//163 172//172
f 151//151 148//148 124//124
f 138//138 151//151 124//124
f 121//121 138//138 124//124
f 114//114 121//121 124//124
f 121//121 114//114 113//113
f 121//121 131//131 138//138
f 63//63 77//77 78//78
f 61//61 63//63 78//78
f 45//45 61//61 56//56
f 29//29 13//13 17//17
f 29//29 40//40 31//31
f 29//29 31//31 23//23
f 13//13 29//29 23//23
f 29//29 36//36 40//40
f 140//140 146//146 130//130
f 146//146 140//140 159//159
f 146//146 161//161 149//149
f 161//161 146//146 159//159
f 46//46 57//57 43//43
f 26//26 34//34 43//43
f 34//34 46//46 43//43
f 127//127 116//116 128//128
f 103//103 110//110 98//98
f 120//120 110//110 122//122
f 110//110 112//112 122//122
f 110//110 103//103 112//112
f 15//15 11//11 9//9
f 14//14 15//15 9//9
f 15//15 14//14 18//18
f 32//32 18//18 43//43
f 32//32 15//15 18//18
f 25//25 38//38 33//33
f 38//38 25//25 20//20
f 65//65 55//55 50//50
f 55//55 40//40 50//50
f 40//40 55//55 51//51
f 167//167 163//163 153//153
f 176//176 167//167 180//180
f 167//167 176//176 163//163
f 167//167 181//181 180//180
f 167//167 168//168 181//181
f 195//195 187//187 191//191
f 187//187 195//195 178//178
f 178//178 188//188 170//170
f 195//195 188//188 178//178
f 188//188 196//196 170//170
f 188//188 195//195 196//196
f 175//175 164//164 160//160
f 175//175 169//169 185//185
f 162//162 175//175 160//160
f 169//169 175//175 162//162
f 39//39 36//36 28//28
f 27//27 32//32 37//37
f 27//27 24//24 11//11
f 15//15 27//27 11//11
f 32//32 27//27 15//15
f 10//10 6//6 4//4
f 10//10 12//12 6//6
f 36//36 22//22 28//28
f 22//22 12//12 28//28
f 22//22 29//29 17//17
f 29//29 22//22 36//36
f 181//181 190//190 194//194
f 173//173 190//190 181//181
f 190//190 173//173 186//186
f 194//194 190//190 197//197
f 190//190 186//186 197//197
f 132//132 152//152 122//122
f 183//183 174//174 166//166
f 174//174 158//158 166//166
f 150//150 158//158 157//157
f 150//150 132//132 139//139
f 150//150 139//139 141//141
f 158//158 150//150 141//141
f 152//152 150//150 157//157
f 132//132 150//150 152//152
f 193//193 182//182 183//183
f 186//186 193//193 197//197
f 171//171 173//173 159//159
f 173//173 171//171 186//186
f 171//171 193//193 186//186
f 113//113 105//105 99//99
f 105//105 94//94 99//99
f 114//114 105//105 113//113
f 80//80 76//76 88//88
f 118//118 104//104 107//107
f 118//118 136//136 137//137
f 118//118 137//137 101//101
f 104//104 118//118 101//101
f 143//143 151//151 138//138
f 131//131 143//143 138//138
f 163//163 143//143 153//153
f 151//151 143//143 163//163
f 129//129 142//142 133//133
f 142//142 129//129 149//149
f 129//129 146//146 149//149
f 146//146 129//129 130//130
f 115//115 120//120 130//130
f 129//129 115//115 130//130
f 115//115 129//129 111//111
f 102//102 115//115 111//111
f 110//110 115//115 98//98
f 115//115 110//110 120//120
f 131//131 119//119 133//133
f 119//119 129//129 133//133
f 129//129 119//119 111//111
f 63//63 74//74 77//77
f 47//47 45//45 37//37
f 47//47 61//61 45//45
f 61//61 47//47 63//63
f 54//54 46//46 38//38
f 21//21 34//34 26//26
f 14//14 21//21 26//26
f 46//46 30//30 33//33
f 34//34 30//30 46//46
f 21//21 30//30 34//34
f 30//30 25//25 33//33
f 30//30 21//21 25//25
f 96//96 112//112 95//95
f 96//96 116//116 112//112
f 73//73 96//96 95//95
f 86//86 96//96 73//73
f 72//72 70//70 85//85
f 61//61 70//70 56//56
f 70//70 61//61 78//78
f 52//52 65//65 50//50
f 168//168 147//147 142//142
f 167//167 147//147 168//168
f 147//147 167//167 153//153
f 143//143 147//147 153//153
f 147//147 143//143 131//131
f 142//142 147//147 133//133
f 147//147 131//131 133//133
f 175//175 179//179 164//164
f 164//164 179//179 178//178
f 179//179 187//187 178//178
f 187//187 179//179 191//191
f 179//179 185//185 191//191
f 179//179 175//175 185//185
f 27//27 35//35 24//24
f 45//45 35//35 37//37
f 35//35 27//27 37//37
f 8//8 10//10 4//4
f 8//8 5//5 11//11
f 8//8 4//4 5//5
f 24//24 8//8 11//11
f 10//10 8//8 24//24
f 19//19 10//10 24//24
f 35//35 19//19 24//24
f 12//12 19//19 28//28
f 10//10 19//19 12//12
f 19//19 39//39 28//28
f 19//19 35//35 39//39
f 16//16 22//22 17//17
f 22//22 16//16 12//12
f 7//7 16//16 17//17
f 12//12 16//16 7//7
f 139//139 126//126 127//127
f 132//132 126//126 139//139
f 116//116 126//126 112//112
f 126//126 116//116 127//127
f 112//112 126//126 122//122
f 126//126 132//132 122//122
f 193//193 177//177 182//182
f 171//171 177//177 193//193
f 158//158 177//177 157//157
f 174//174 177//177 158//158
f 182//182 177//177 183//183
f 177//177 174//174 183//183
f 165//165 152//152 157//157
f 177//177 165//165 157//157
f 165//165 177//177 171//171
f 152//152 165//165 159//159
f 165//165 171//171 159//159
f 92//92 106//106 108//108
f 106//106 92//92 94//94
f 105//105 106//106 94//94
f 106//106 114//114 108//108
f 106//106 105//105 114//114
f 93//93 92//92 108//108
f 93//93 108//108 109//109
f 91//91 93//93 109//109
f 93//93 91//91 83//83
f 92//92 93//93 83//83
f 82//82 92//92 83//83
f 71//71 82//82 83//83
f 82//82 71//71 72//72
f 82//82 72//72 85//85
f 94//94 82//82 85//85
f 92//92 82//82 94//94
f 66//66 76//76 80//80
f 66//66 80//80 75//75
f 76//76 81//81 88//88
f 91//91 81//81 83//83
f 81//81 91//91 88//88
f 81//81 71//71 83//83
f 71//71 81//81 65//65
f 123//123 118//118 107//107
f 134//134 123//123 109//109
f 123//123 107//107 109//109
f 136//136 123//123 134//134
f 118//118 123//123 136//136
f 77//77 84//84 78//78
f 74//74 84//84 77//77
f 87//87 111//111 99//99
f 87//87 102//102 111//111
f 87//87 84//84 102//102
f 84//84 87//87 78//78
f 87//87 70//70 78//78
f 85//85 87//87 99//99
f 70//70 87//87 85//85
f 115//115 100//100 98//98
f 100//100 115//115 102//102
f 84//84 100//100 102//102
f 98//98 100//100 89//89
f 100//100 74//74 89//89
f 100//100 84//84 74//74
f 117//117 131//131 121//121
f 117//117 119//119 131//131
f 117//117 121//121 113//113
f 117//117 113//113 99//99
f 111//111 117//117 99//99
f 119//119 117//117 111//111
f 57//57 58//58 43//43
f 60//60 57//57 46//46
f 54//54 60//60 46//46
f 60//60 54//54 62//62
f 73//73 60//60 62//62
f 57//57 60//60 73//73
f 97//97 96//96 86//86
f 96//96 97//97 116//116
f 116//116 97//97 128//128
f 52//52 64//64 65//65
f 64//64 71//71 65//65
f 71//71 64//64 72//72
f 70//70 64//64 56//56
f 64//64 70//70 72//72
f 64//64 48//48 56//56
f 48//48 64//64 52//52
f 39//39 41//41 36//36
f 36//36 41//41 50//50
f 41//41 52//52 50//50
f 48//48 41//41 39//39
f 41//41 48//48 52//52
f 35//35 42//42 39//39
f 48//48 42//42 56//56
f 42//42 48//48 39//39
f 42//42 45//45 56//56
f 42//42 35//35 45//45
f 81//81 68//68 65//65
f 68//68 81//81 76//76
f 68//68 55//55 65//65
f 55//55 68//68 51//51
f 68//68 53//53 51//51
f 68//68 66//66 53//53
f 66//66 68//68 76//76
f 69//69 79//79 89//89
f 74//74 69//69 89//89
f 69//69 67//67 79//79
f 67//67 69//69 58//58
f 67//67 58//58 57//57
f 79//79 67//67 73//73
f 67//67 57//57 73//73
f 59//59 74//74 63//63
f 59//59 69//69 74//74
f 69//69 59//59 58//58
f 58//58 59//59 43//43
f 47//47 49//49 63//63
f 49//49 59//59 63//63
f 49//49 47//47 37//37
f 59//59 49//49 43//43
f 32//32 49//49 37//37
f 49//49 32//32 43//43
