v -3.807140859 -0.734991901 -8.941926617 0.176471 0.160784 0.156863
v -3.795914832 -0.725753161 -8.949287436 0.250980 0.180392 0.207843
v -3.805961061 -0.724409326 -8.935342381 0.372549 0.341176 0.329412
v -3.805832067 -0.718646162 -8.926464459 0.274510 0.235294 0.235294
v -3.789270767 -0.701247209 -8.940896834 0.384314 0.352941 0.376471
v -3.796954366 -0.707428307 -8.929433162 0.415686 0.396078 0.380392
v -3.802953725 -0.711022394 -8.918527929 0.286275 0.227451 0.231373
v -3.797848508 -0.701876685 -8.915518351 0.262745 0.200000 0.211765
v -3.774405871 -0.678546312 -8.942704783 0.270588 0.223529 0.243137
v -3.790965345 -0.693166668 -8.915299757 0.309804 0.274510 0.258824
v -3.772085317 -0.668708405 -8.938320777 0.352941 0.325490 0.325490
v -3.773455048 -0.663726627 -8.919527974 0.431373 0.435294 0.411765
v -3.769117297 -0.658328219 -8.928487284 0.443137 0.439216 0.419608
v -3.778945088 -0.669304218 -8.902815650 0.388235 0.392157 0.317647
v -3.760641196 -0.647934126 -8.937211166 0.298039 0.258824 0.254902
v -3.781079740 -0.671321520 -8.892309030 0.317647 0.290196 0.258824
v -3.764040729 -0.648012155 -8.926869301 0.400000 0.392157 0.364706
v -3.769247051 -0.652044202 -8.914200820 0.423529 0.423529 0.396078
v -3.757632533 -0.638035402 -8.933869310 0.262745 0.239216 0.235294
v -3.773065068 -0.656412956 -8.900806565 0.380392 0.396078 0.333333
v -3.775854264 -0.660117352 -8.890618647 0.352941 0.384314 0.278431
v -3.760251095 -0.635060446 -8.912929778 0.423529 0.435294 0.384314
v -3.774286592 -0.655647723 -8.877333845 0.305882 0.274510 0.243137
v -3.753965919 -0.622273114 -8.920916087 0.384314 0.380392 0.333333
v -3.761875591 -0.635118626 -8.897992864 0.427451 0.447059 0.376471
v -3.767539777 -0.641579087 -8.885070728 0.372549 0.407843 0.290196
v -3.747546492 -0.612063129 -8.927435428 0.352941 0.345098 0.301961
v -3.770834974 -0.645389663 -8.870045184 0.325490 0.349020 0.250980
v -3.756918320 -0.625699401 -8.901065367 0.415686 0.439216 0.356863
v -3.771462102 -0.648700175 -8.858754464 0.270588 0.223529 0.227451
v -3.753599176 -0.616570731 -8.906362184 0.407843 0.443137 0.329412
v -3.750406715 -0.611115662 -8.915428592 0.356863 0.388235 0.286275
v -3.760127601 -0.625825870 -8.885998055 0.403922 0.439216 0.337255
v -3.765917056 -0.632489213 -8.873613562 0.345098 0.388235 0.262745
v -3.740077607 -0.599795555 -8.928784465 0.360784 0.352941 0.301961
v -3.730627596 -0.593356131 -8.937962379 0.321569 0.235294 0.247059
v -3.752825382 -0.610971686 -8.896244743 0.380392 0.419608 0.298039
v -3.761908542 -0.620285246 -8.872990195 0.360784 0.388235 0.270588
v -3.737508214 -0.588858714 -8.924730636 0.384314 0.400000 0.317647
v -3.747441352 -0.597263901 -8.903292588 0.372549 0.423529 0.290196
v -3.756123257 -0.610149824 -8.880293065 0.376471 0.419608 0.305882
v -3.741634593 -0.589677934 -8.913814728 0.396078 0.431373 0.313725
v -3.720299213 -0.573931867 -8.938822050 0.258824 0.223529 0.207843
v -3.731647409 -0.578742581 -8.927363837 0.415686 0.443137 0.352941
v -3.751736716 -0.600821122 -8.884119799 0.380392 0.419608 0.290196
v -3.747359910 -0.594268586 -8.893510821 0.352941 0.400000 0.270588
v -3.770135066 -0.622167102 -8.843283436 0.364706 0.396078 0.286275
v -3.756845079 -0.604641835 -8.870927888 0.352941 0.392157 0.262745
v -3.772715832 -0.627776850 -8.829287625 0.294118 0.247059 0.243137
v -3.737164562 -0.575737481 -8.912040949 0.368627 0.403922 0.290196
v -3.763706688 -0.608943405 -8.853028018 0.341176 0.388235 0.254902
v -3.715196190 -0.558989530 -8.937191205 0.321569 0.290196 0.282353
v -3.751986371 -0.595197514 -8.874048312 0.376471 0.415686 0.286275
v -3.747787089 -0.588836818 -8.884001916 0.356863 0.403922 0.266667
v -3.724170854 -0.562079736 -8.928259030 0.392157 0.411765 0.325490
v -3.768827880 -0.611143891 -8.840318619 0.352941 0.392157 0.262745
v -3.744195083 -0.579541837 -8.891470241 0.376471 0.415686 0.282353
v -3.772050283 -0.614974315 -8.828964034 0.352941 0.372549 0.270588
v -3.755446240 -0.594333207 -8.863735787 0.341176 0.396078 0.254902
v -3.739526724 -0.571210853 -8.899791955 0.388235 0.435294 0.294118
v -3.760966333 -0.596433135 -8.853073320 0.364706 0.419608 0.274510
v -3.749775282 -0.583933654 -8.870618086 0.392157 0.427451 0.298039
v -3.773420195 -0.616478552 -8.814804269 0.317647 0.290196 0.258824
v -3.713921593 -0.544489094 -8.934718503 0.352941 0.345098 0.301961
v -3.727518143 -0.555449290 -8.915562987 0.349020 0.392157 0.282353
v -3.765951020 -0.599813770 -8.839795714 0.356863 0.415686 0.262745
v -3.721641698 -0.547880875 -8.924198717 0.368627 0.396078 0.294118
v -3.744119221 -0.565662133 -8.884020447 0.345098 0.400000 0.254902
v -3.733339876 -0.553529452 -8.900864811 0.360784 0.403922 0.270588
v -3.717207670 -0.537873214 -8.926624698 0.376471 0.415686 0.313725
v -3.748819460 -0.568424000 -8.870153363 0.368627 0.411765 0.282353
v -3.704529925 -0.527134220 -8.939715074 0.262745 0.207843 0.203922
v -3.762653879 -0.584193497 -8.838617289 0.349020 0.388235 0.247059
v -3.727308138 -0.543456782 -8.907121002 0.345098 0.384314 0.270588
v -3.751937250 -0.571118061 -8.860125580 0.384314 0.427451 0.294118
v -3.712914554 -0.526212521 -8.931448917 0.380392 0.388235 0.321569
v -3.741919285 -0.553704250 -8.883852227 0.360784 0.403922 0.258824
v -3.774708648 -0.599016277 -8.806189909 0.364706 0.384314 0.274510
v -3.771210026 -0.593404145 -8.815558156 0.345098 0.400000 0.254902
v -3.777688058 -0.604980443 -8.795142403 0.207843 0.172549 0.149020
v -3.721256755 -0.533152901 -8.914745657 0.360784 0.396078 0.278431
v -3.765665588 -0.583207457 -8.826684107 0.356863 0.411765 0.258824
v -3.750685401 -0.557537783 -8.864148927 0.380392 0.419608 0.286275
v -3.761036099 -0.573940556 -8.835951689 0.360784 0.419608 0.266667
v -3.780985062 -0.595363587 -8.794042167 0.349020 0.349020 0.262745
v -3.745557322 -0.548852755 -8.872222612 0.372549 0.415686 0.274510
v -3.754568606 -0.561889635 -8.849860925 0.380392 0.427451 0.278431
v -3.704305806 -0.508440123 -8.940107473 0.356863 0.329412 0.313725
v -3.714532603 -0.519314526 -8.921115777 0.345098 0.392157 0.286275
v -3.775880850 -0.587834583 -8.802603624 0.345098 0.388235 0.250980
v -3.788115638 -0.600304274 -8.779555822 0.211765 0.156863 0.156863
v -3.739058020 -0.541443187 -8.879629025 0.368627 0.407843 0.266667
v -3.720300031 -0.523894699 -8.907317818 0.325490 0.368627 0.239216
v -3.700158079 -0.499286371 -8.945452126 0.325490 0.278431 0.286275
v -3.764707497 -0.571169399 -8.822963000 0.352941 0.403922 0.250980
v -3.709253607 -0.507196955 -8.928665390 0.400000 0.415686 0.333333
v -3.769310658 -0.574883974 -8.812755646 0.352941 0.411765 0.258824
v -3.727831598 -0.527571476 -8.891623669 0.364706 0.411765 0.266667
v -3.748430790 -0.543504995 -8.863478450 0.337255 0.380392 0.247059
v -3.756517057 -0.555379583 -8.841566991 0.356863 0.403922 0.247059
v -3.716051039 -0.513603944 -8.912137449 0.345098 0.384314 0.262745
v -3.781838241 -0.583336396 -8.793080280 0.329412 0.384314 0.247059
v -3.733401248 -0.530347825 -8.881435880 0.349020 0.400000 0.254902
v -3.775900249 -0.574857643 -8.800760065 0.317647 0.364706 0.223529
v -3.698433367 -0.489279103 -8.943159677 0.325490 0.266667 0.278431
v -3.794852566 -0.592355882 -8.764825403 0.215686 0.160784 0.176471
v -3.792980575 -0.585183417 -8.772705938 0.313725 0.317647 0.235294
v -3.718494353 -0.508130632 -8.902707871 0.364706 0.407843 0.270588
v -3.786432902 -0.575933176 -8.783794803 0.352941 0.400000 0.250980
v -3.735245435 -0.522937281 -8.873091253 0.368627 0.407843 0.270588
v -3.729913313 -0.517556035 -8.882017793 0.392157 0.431373 0.290196
v -3.724750606 -0.511895157 -8.890550337 0.352941 0.400000 0.258824
v -3.708505547 -0.491399622 -8.924118964 0.325490 0.309804 0.262745
v -3.765420319 -0.554544939 -8.815445966 0.329412 0.376471 0.219608
v -3.773325714 -0.562759599 -8.799932512 0.345098 0.396078 0.250980
v -3.700848516 -0.476871569 -8.940228849 0.270588 0.223529 0.219608
v -3.754612508 -0.535933456 -8.839689400 0.364706 0.407843 0.262745
v -3.800490588 -0.583760976 -8.756048172 0.235294 0.180392 0.184314
v -3.747474682 -0.525670362 -8.853722114 0.333333 0.368627 0.243137
v -3.762671966 -0.545270871 -8.820094283 0.337255 0.384314 0.227451
v -3.781288306 -0.564708414 -8.786776695 0.349020 0.400000 0.258824
v -3.759023733 -0.539695943 -8.828461757 0.337255 0.392157 0.231373
v -3.732590964 -0.511786379 -8.873152266 0.396078 0.423529 0.282353
v -3.716246801 -0.493404856 -8.902516496 0.349020 0.392157 0.254902
v -3.786786105 -0.563561172 -8.777005277 0.360784 0.407843 0.266667
v -3.711226828 -0.482148634 -8.913897448 0.364706 0.396078 0.274510
v -3.722442431 -0.496258796 -8.889402517 0.325490 0.380392 0.231373
v -3.707857506 -0.475811629 -8.923803885 0.388235 0.407843 0.309804
v -3.793282688 -0.567501481 -8.768219877 0.321569 0.368627 0.231373
v -3.805768875 -0.577127261 -8.751780119 0.325490 0.294118 0.274510
v -3.767840544 -0.544208475 -8.806454912 0.356863 0.407843 0.250980
v -3.697588860 -0.463313096 -8.940420761 0.250980 0.215686 0.211765
v -3.774676863 -0.548061380 -8.793202575 0.364706 0.403922 0.270588
v -3.781686196 -0.554414111 -8.781411190 0.372549 0.415686 0.282353
v -3.754360535 -0.522098645 -8.834933940 0.388235 0.431373 0.294118
v -3.750097424 -0.515754446 -8.843929074 0.403922 0.439216 0.309804
v -3.713748527 -0.480360394 -8.902652990 0.356863 0.403922 0.258824
v -3.703902584 -0.462902774 -8.932023191 0.380392 0.396078 0.309804
v -3.735778691 -0.502652319 -8.863634390 0.341176 0.384314 0.239216
v -3.797934977 -0.560083648 -8.761743222 0.349020 0.407843 0.266667
v -3.741475780 -0.504470382 -8.854435182 0.349020 0.392157 0.243137
v -3.806527898 -0.563960986 -8.753076128 0.364706 0.403922 0.282353
v -3.731074868 -0.493404345 -8.868232882 0.341176 0.384314 0.235294
v -3.716983673 -0.479318230 -8.890828905 0.352941 0.403922 0.258824
v -3.780605187 -0.543570363 -8.781811611 0.356863 0.407843 0.274510
v -3.707536708 -0.461994312 -8.919941933 0.376471 0.419608 0.294118
v -3.753024516 -0.510848001 -8.832405333 0.364706 0.411765 0.282353
v -3.748051457 -0.504447533 -8.840579013 0.376471 0.415686 0.278431
v -3.712586084 -0.469301341 -8.898831573 0.329412 0.384314 0.235294
v -3.793211643 -0.548987601 -8.763552384 0.349020 0.407843 0.266667
v -3.697981611 -0.446551746 -8.936956871 0.360784 0.352941 0.305882
v -3.722894173 -0.480390771 -8.877576295 0.341176 0.396078 0.239216
v -3.770770238 -0.526800176 -8.797738549 0.345098 0.380392 0.243137
v -3.759214749 -0.513702306 -8.819288729 0.360784 0.400000 0.254902
v -3.737955303 -0.493303894 -8.853598871 0.352941 0.400000 0.250980
v -3.809519953 -0.554641021 -8.748546299 0.321569 0.372549 0.243137
v -3.776825605 -0.531307034 -8.785006491 0.352941 0.403922 0.254902
v -3.729609647 -0.483112558 -8.863788583 0.333333 0.388235 0.235294
v -3.709873075 -0.459091303 -8.902571055 0.349020 0.411765 0.262745
v -3.800879964 -0.546142608 -8.754410549 0.345098 0.400000 0.254902
v -3.714664513 -0.463683928 -8.889675282 0.313725 0.372549 0.223529
v -3.764136615 -0.510158730 -8.807859616 0.352941 0.376471 0.239216
v -3.791193144 -0.537673694 -8.761142639 0.345098 0.403922 0.262745
v -3.781475448 -0.529449743 -8.774821824 0.356863 0.407843 0.262745
v -3.748514116 -0.494373748 -8.833867324 0.384314 0.419608 0.278431
v -3.701675205 -0.442376063 -8.920245997 0.384314 0.427451 0.309804
v -3.742242571 -0.487831933 -8.842311910 0.337255 0.396078 0.247059
v -3.813942250 -0.548208658 -8.740103999 0.337255 0.380392 0.254902
v -3.704964657 -0.446879344 -8.910300844 0.364706 0.419608 0.286275
v -3.720075624 -0.466501839 -8.876631051 0.341176 0.392157 0.243137
v -3.752962411 -0.496963805 -8.824035257 0.376471 0.411765 0.282353
v -3.694289102 -0.431941470 -8.931828154 0.278431 0.274510 0.239216
v -3.731693485 -0.476567840 -8.854634805 0.333333 0.376471 0.231373
v -3.726492968 -0.470226295 -8.863624869 0.329412 0.384314 0.219608
v -3.802883830 -0.536838232 -8.747997005 0.360784 0.419608 0.278431
v -3.770574077 -0.510862318 -8.791606504 0.384314 0.435294 0.290196
v -3.820822594 -0.548799487 -8.727773996 0.301961 0.274510 0.243137
v -3.715614186 -0.454412158 -8.884127350 0.333333 0.380392 0.239216
v -3.794257163 -0.528571496 -8.754344007 0.333333 0.388235 0.247059
v -3.703058628 -0.436009868 -8.910751331 0.337255 0.392157 0.262745
v -3.706308675 -0.441214153 -8.901237713 0.356863 0.407843 0.278431
v -3.698823925 -0.429422465 -8.920210859 0.388235 0.407843 0.294118
v -3.764525662 -0.499866679 -8.800635861 0.360784 0.396078 0.250980
v -3.719692720 -0.456170286 -8.874115617 0.368627 0.419608 0.282353
v -3.749169874 -0.484013786 -8.826773245 0.337255 0.388235 0.250980
v -3.777264236 -0.512899397 -8.777355189 0.329412 0.380392 0.227451
v -3.735943105 -0.472032435 -8.844255559 0.356863 0.407843 0.247059
v -3.816990111 -0.538874495 -8.730968237 0.333333 0.380392 0.254902
v -3.786719176 -0.520264293 -8.761696221 0.352941 0.403922 0.250980
v -3.724538365 -0.459132178 -8.863575465 0.341176 0.392157 0.239216
v -3.755529968 -0.487751898 -8.814666086 0.376471 0.415686 0.286275
v -3.693314987 -0.419216493 -8.927648557 0.243137 0.223529 0.207843
v -3.771831070 -0.502674071 -8.783903824 0.356863 0.400000 0.243137
v -3.730300634 -0.462787403 -8.850701479 0.349020 0.407843 0.243137
v -3.806081042 -0.526774787 -8.739410711 0.337255 0.392157 0.247059
v -3.742520653 -0.471082107 -8.833180264 0.317647 0.372549 0.215686
v -3.710756238 -0.437790458 -8.889576926 0.337255 0.396078 0.250980
v -3.717792200 -0.444373418 -8.877347793 0.337255 0.376471 0.247059
v -3.797388750 -0.521068692 -8.747102520 0.352941 0.407843 0.266667
v -3.705882351 -0.429512725 -8.901505758 0.337255 0.388235 0.258824
v -3.760868844 -0.486882164 -8.800659759 0.349020 0.392157 0.243137
v -3.726977130 -0.453424026 -8.854594370 0.337255 0.384314 0.235294
v -3.815663754 -0.527621391 -8.727518307 0.321569 0.376471 0.239216
v -3.735803376 -0.460949033 -8.839554673 0.329412 0.388235 0.219608
v -3.790747486 -0.511842220 -8.752586078 0.333333 0.392157 0.250980
v -3.754957635 -0.476778618 -8.811607857 0.415686 0.447059 0.325490
v -3.824195223 -0.531278346 -8.719272040 0.337255 0.345098 0.262745
v -3.749721647 -0.470210076 -8.820105350 0.360784 0.407843 0.266667
v -3.709055793 -0.426632303 -8.889651672 0.329412 0.380392 0.243137
v -3.691329008 -0.404660143 -8.926206694 0.274510 0.258824 0.247059
v -3.722035755 -0.439839346 -8.866040039 0.341176 0.388235 0.254902
v -3.807165992 -0.518394561 -8.733000631 0.364706 0.419608 0.282353
v -3.730909986 -0.451512257 -8.843584838 0.321569 0.380392 0.215686
v -3.715939592 -0.433017301 -8.875018713 0.368627 0.415686 0.270588
v -3.768145743 -0.487842571 -8.782061337 0.364706 0.415686 0.250980
v -3.799710959 -0.511919286 -8.740393061 0.360784 0.411765 0.274510
v -3.745090559 -0.461869604 -8.824739200 0.376471 0.415686 0.262745
v -3.775014744 -0.493305317 -8.771128124 0.341176 0.396078 0.243137
v -3.758566672 -0.475640517 -8.800892061 0.356863 0.396078 0.258824
v -3.762505952 -0.477435110 -8.789885657 0.372549 0.423529 0.258824
v -3.754185407 -0.465620207 -8.808903133 0.400000 0.435294 0.325490
v -3.827013986 -0.521311263 -8.715133743 0.309804 0.341176 0.223529
v -3.724638443 -0.436868676 -8.854358223 0.376471 0.423529 0.278431
v -3.706159212 -0.411836239 -8.894227459 0.360784 0.411765 0.266667
v -3.815201408 -0.513367016 -8.722635100 0.309804 0.368627 0.235294
v -3.735675539 -0.447081574 -8.833005628 0.364706 0.415686 0.247059
v -3.728519336 -0.439604159 -8.844250396 0.325490 0.384314 0.227451
v -3.748270877 -0.456207653 -8.814740985 0.368627 0.411765 0.270588
v -3.718474905 -0.426593594 -8.864706896 0.356863 0.403922 0.247059
v -3.713119098 -0.420981612 -8.873146016 0.360784 0.407843 0.254902
v -3.776240276 -0.483963064 -8.763860838 0.337255 0.396078 0.247059
v -3.806370078 -0.502609171 -8.730284391 0.313725 0.376471 0.235294
v -3.766332498 -0.473006451 -8.778374691 0.329412 0.392157 0.223529
v -3.784500708 -0.486999071 -8.754106076 0.349020 0.403922 0.262745
v -3.691049983 -0.390124595 -8.918156293 0.254902 0.215686 0.203922
v -3.800122896 -0.496988367 -8.736887366 0.325490 0.384314 0.247059
v -3.709338548 -0.411734306 -8.879596278 0.305882 0.360784 0.215686
v -3.791010379 -0.490463251 -8.746227958 0.325490 0.384314 0.247059
v -3.831077451 -0.512190550 -8.710223446 0.325490 0.305882 0.254902
v -3.704098204 -0.400769964 -8.897833712 0.349020 0.400000 0.270588
v -3.758576763 -0.460121743 -8.796739809 0.400000 0.431373 0.294118
v -3.742573785 -0.442343578 -8.817454257 0.356863 0.407843 0.250980
v -3.754172956 -0.451487612 -8.801008377 0.384314 0.427451 0.317647
v -3.736625161 -0.436883796 -8.825603731 0.349020 0.400000 0.243137
v -3.706812937 -0.399859562 -8.886682158 0.360784 0.415686 0.274510
v -3.822890470 -0.499869791 -8.715380969 0.360784 0.415686 0.278431
v -3.727989967 -0.426530152 -8.836103369 0.345098 0.400000 0.239216
v -3.721813782 -0.419274068 -8.847849599 0.372549 0.431373 0.270588
v -3.785087136 -0.476656762 -8.749757289 0.345098 0.400000 0.258824
v -3.778020930 -0.471935714 -8.757338306 0.321569 0.384314 0.227451
v -3.767526241 -0.462746514 -8.772017497 0.349020 0.400000 0.231373
v -3.809445651 -0.488870930 -8.727198413 0.345098 0.407843 0.254902
v -3.708416324 -0.400614340 -8.875892144 0.345098 0.396078 0.247059
v -3.837466877 -0.501550319 -8.703664422 0.243137 0.227451 0.200000
v -3.817815868 -0.491407227 -8.719323862 0.352941 0.407843 0.258824
v -3.695453196 -0.378608899 -8.908803786 0.254902 0.266667 0.215686
v -3.745929946 -0.436873895 -8.808943827 0.364706 0.415686 0.278431
v -3.701820782 -0.384199045 -8.897627352 0.372549 0.415686 0.301961
v -3.802957124 -0.479605569 -8.731830106 0.341176 0.400000 0.250980
v -3.757751768 -0.442490002 -8.791228993 0.400000 0.439216 0.321569
v -3.732446791 -0.421015049 -8.823971759 0.333333 0.396078 0.243137
v -3.792882853 -0.470309319 -8.739300795 0.384314 0.447059 0.294118
v -3.784992652 -0.465561810 -8.746932350 0.360784 0.419608 0.270588
v -3.705168203 -0.382891526 -8.885381118 0.356863 0.392157 0.266667
v -3.810019216 -0.477605876 -8.723770352 0.380392 0.439216 0.278431
v -3.777590844 -0.459072245 -8.754350196 0.372549 0.435294 0.278431
v -3.716824759 -0.402449713 -8.849981111 0.333333 0.396078 0.235294
v -3.843415033 -0.493112233 -8.697367706 0.215686 0.160784 0.160784
v -3.724772841 -0.410889455 -8.834964798 0.325490 0.384314 0.219608
v -3.740576321 -0.423848387 -8.811824089 0.368627 0.419608 0.274510
v -3.753441438 -0.433141865 -8.795092791 0.396078 0.427451 0.333333
v -3.701269014 -0.373910489 -8.894102846 0.372549 0.419608 0.305882
v -3.798740447 -0.467217566 -8.729703234 0.329412 0.396078 0.239216
v -3.748561273 -0.423702731 -8.799129377 0.407843 0.439216 0.329412
v -3.761433755 -0.437627343 -8.774988751 0.360784 0.415686 0.247059
v -3.758257722 -0.431477978 -8.784538830 0.380392 0.411765 0.298039
v -3.840485686 -0.479032117 -8.702429390 0.345098 0.349020 0.270588
v -3.737685051 -0.411830717 -8.811769974 0.345098 0.400000 0.258824
v -3.769906791 -0.442462206 -8.758851428 0.360784 0.423529 0.250980
v -3.724323998 -0.398957761 -8.831966609 0.337255 0.400000 0.239216
v -3.714530078 -0.386810169 -8.852545369 0.364706 0.427451 0.270588
v -3.703167421 -0.367413167 -8.884858566 0.372549 0.423529 0.305882
v -3.719592222 -0.393186885 -8.839782165 0.360784 0.419608 0.262745
v -3.804621623 -0.462502756 -8.719666560 0.325490 0.388235 0.227451
v -3.763309426 -0.432062568 -8.765733878 0.356863 0.419608 0.247059
v -3.776931465 -0.441399099 -8.748920370 0.376471 0.431373 0.274510
v -3.746063844 -0.411820811 -8.798816049 0.368627 0.411765 0.282353
v -3.758033769 -0.421106197 -8.782100202 0.419608 0.443137 0.337255
v -3.816318142 -0.461900555 -8.710706479 0.345098 0.403922 0.250980
v -3.832605682 -0.465943202 -8.703579607 0.376471 0.411765 0.294118
v -3.733223495 -0.396961076 -8.813706296 0.352941 0.415686 0.250980
v -3.706670929 -0.363521943 -8.870384537 0.345098 0.400000 0.266667
v -3.702601848 -0.357128156 -8.880401328 0.388235 0.427451 0.313725
v -3.786147684 -0.441411750 -8.736850355 0.364706 0.427451 0.262745
v -3.771670126 -0.431366052 -8.753247912 0.372549 0.419608 0.258824
v -3.712364031 -0.370210891 -8.856100090 0.321569 0.376471 0.250980
v -3.727776035 -0.390446634 -8.821173534 0.349020 0.400000 0.239216
v -3.760936313 -0.420148994 -8.770113943 0.364706 0.407843 0.262745
v -3.764236155 -0.422796375 -8.760174308 0.345098 0.407843 0.250980
v -3.722031080 -0.380300728 -8.830349470 0.305882 0.368627 0.215686
v -3.696977008 -0.345789889 -8.889159877 0.286275 0.294118 0.235294
v -3.781233928 -0.432217260 -8.741346776 0.360784 0.419608 0.254902
v -3.809706623 -0.449650431 -8.708316274 0.349020 0.403922 0.254902
v -3.742924311 -0.396160357 -8.797715213 0.360784 0.415686 0.262745
v -3.736092979 -0.389526273 -8.805410888 0.352941 0.407843 0.247059
v -3.760181157 -0.407368266 -8.775305754 0.474510 0.494118 0.403922
v -3.710325999 -0.358901958 -8.856460817 0.364706 0.419608 0.290196
v -3.714093729 -0.363755274 -8.847700266 0.349020 0.400000 0.262745
v -3.776497152 -0.422977686 -8.745002276 0.372549 0.427451 0.262745
v -3.824893935 -0.450721476 -8.698775321 0.380392 0.435294 0.301961
v -3.844814711 -0.455236909 -8.688806962 0.192157 0.152941 0.152941
v -3.799519731 -0.439457170 -8.713878639 0.333333 0.396078 0.235294
v -3.762482430 -0.408871110 -8.764855521 0.388235 0.427451 0.286275
v -3.718933757 -0.367409537 -8.832975127 0.321569 0.384314 0.239216
v -3.793046162 -0.433202737 -8.721774417 0.368627 0.427451 0.274510
v -3.698649220 -0.337967736 -8.882611134 0.215686 0.200000 0.180392
v -3.749234238 -0.392262387 -8.786960019 0.305882 0.364706 0.215686
v -3.732023973 -0.378498719 -8.808940364 0.349020 0.415686 0.250980
v -3.726486178 -0.371080024 -8.817291118 0.337255 0.400000 0.243137
v -3.766943061 -0.407988976 -8.753652849 0.356863 0.411765 0.250980
v -3.786797137 -0.422950412 -8.728375546 0.349020 0.423529 0.254902
v -3.737410112 -0.379233938 -8.799113687 0.313725 0.376471 0.219608
v -3.807063806 -0.435025540 -8.704226278 0.325490 0.384314 0.235294
v -3.762787060 -0.398146360 -8.765956654 0.415686 0.443137 0.333333
v -3.773777486 -0.410916324 -8.744105571 0.356863 0.415686 0.247059
v -3.714977612 -0.355191226 -8.837937142 0.384314 0.427451 0.290196
v -3.758745248 -0.392435822 -8.774582987 0.447059 0.466667 0.380392
v -3.780816270 -0.414717586 -8.736510760 0.345098 0.407843 0.243137
v -3.743997477 -0.382224132 -8.790373385 0.352941 0.411765 0.243137
v -3.708094894 -0.342319184 -8.857205014 0.329412 0.380392 0.262745
v -3.712127874 -0.348722993 -8.846243095 0.345098 0.392157 0.258824
v -3.699135927 -0.331122021 -8.873105135 0.121569 0.121569 0.094118
v -3.718812782 -0.357011563 -8.826880602 0.356863 0.419608 0.278431
v -3.793578006 -0.422875316 -8.714620091 0.392157 0.443137 0.286275
v -3.704411331 -0.334210274 -8.864176690 0.294118 0.309804 0.243137
v -3.723970065 -0.359893832 -8.817419401 0.352941 0.415686 0.266667
v -3.768764412 -0.398731043 -8.748077546 0.364706 0.431373 0.258824
v -3.730170081 -0.362746655 -8.808014484 0.349020 0.403922 0.254902
v -3.802363880 -0.422997604 -8.702340724 0.396078 0.450980 0.305882
v -3.742578115 -0.371920485 -8.787804722 0.349020 0.411765 0.247059
v -3.783193069 -0.408098221 -8.726572567 0.341176 0.407843 0.243137
v -3.840714126 -0.434261173 -8.681678931 0.270588 0.258824 0.231373
v -3.810629820 -0.423016431 -8.694891865 0.380392 0.435294 0.290196
v -3.737640065 -0.362732181 -8.794142312 0.329412 0.388235 0.223529
v -3.820430377 -0.424733365 -8.688664809 0.337255 0.384314 0.243137
v -3.713187651 -0.335952196 -8.835664101 0.325490 0.384314 0.243137
v -3.774196348 -0.393439711 -8.736445617 0.368627 0.423529 0.247059
v -3.797404193 -0.413577760 -8.701705589 0.368627 0.423529 0.278431
v -3.751131277 -0.367233171 -8.773082595 0.356863 0.411765 0.266667
v -3.778969789 -0.395020899 -8.725844780 0.364706 0.435294 0.254902
v -3.722898975 -0.341398548 -8.811789410 0.380392 0.431373 0.301961
v -3.814104757 -0.415426231 -8.686890346 0.321569 0.380392 0.235294
v -3.786870456 -0.400692743 -8.710805414 0.337255 0.396078 0.239216
v -3.733755772 -0.348878587 -8.797762551 0.345098 0.403922 0.247059
v -3.699350979 -0.316241264 -8.852823954 0.203922 0.192157 0.176471
v -3.767681712 -0.379311927 -8.746148377 0.368627 0.407843 0.254902
v -3.827999054 -0.417752520 -8.679500685 0.305882 0.349020 0.223529
v -3.757626891 -0.366539798 -8.764296597 0.400000 0.435294 0.333333
v -3.745621500 -0.358880404 -8.776813905 0.321569 0.384314 0.223529
v -3.805061666 -0.409809508 -8.690704656 0.372549 0.431373 0.282353
v -3.837744827 -0.420174354 -8.672771669 0.278431 0.196078 0.200000
v -3.740577751 -0.352499003 -8.784953104 0.321569 0.388235 0.219608
v -3.795177825 -0.403480831 -8.698744092 0.364706 0.419608 0.278431
v -3.773127872 -0.383046964 -8.732194100 0.360784 0.415686 0.243137
v -3.712542222 -0.325687519 -8.828388077 0.349020 0.411765 0.270588
v -3.718485539 -0.332076877 -8.816528626 0.364706 0.415686 0.278431
v -3.706840342 -0.315531594 -8.835732083 0.345098 0.400000 0.282353
v -3.763640271 -0.362954141 -8.752947952 0.458824 0.478431 0.400000
v -3.723999502 -0.331161337 -8.805387853 0.352941 0.407843 0.258824
v -3.734287674 -0.338550131 -8.791534263 0.352941 0.407843 0.258824
v -3.786798210 -0.390518149 -8.703357377 0.376471 0.435294 0.278431
v -3.754349450 -0.355075672 -8.763102659 0.376471 0.419608 0.286275
v -3.767187106 -0.367155827 -8.742651664 0.384314 0.419608 0.282353
v -3.714870090 -0.319080603 -8.818426094 0.337255 0.396078 0.247059
v -3.807524710 -0.399933212 -8.681760945 0.400000 0.439216 0.317647
v -3.795130197 -0.392372958 -8.691308975 0.380392 0.439216 0.294118
v -3.719508753 -0.321859139 -8.809162972 0.364706 0.415686 0.254902
v -3.771033799 -0.367356027 -8.732077464 0.349020 0.400000 0.227451
v -3.729956906 -0.329442925 -8.795864018 0.372549 0.439216 0.290196
v -3.697841103 -0.302490686 -8.840494684 0.152941 0.141176 0.121569
v -3.709259171 -0.309827508 -8.826741295 0.368627 0.419608 0.290196
v -3.825868908 -0.405305032 -8.665441501 0.223529 0.188235 0.164706
v -3.739222359 -0.335002342 -8.781038362 0.333333 0.403922 0.243137
v -3.763298773 -0.351685046 -8.749525680 0.450980 0.466667 0.392157
v -3.747003512 -0.340468343 -8.768245039 0.313725 0.384314 0.215686
v -3.775787943 -0.370105249 -8.717310452 0.345098 0.400000 0.227451
v -3.788724484 -0.383086489 -8.694126158 0.380392 0.435294 0.286275
v -3.768531863 -0.357092245 -8.736845590 0.380392 0.427451 0.282353
v -3.782627064 -0.377428562 -8.701728918 0.368627 0.427451 0.266667
v -3.811660180 -0.395190853 -8.669923905 0.376471 0.419608 0.298039
v -3.758270203 -0.342284005 -8.753490487 0.372549 0.415686 0.294118
v -3.727396953 -0.317341138 -8.795044514 0.356863 0.419608 0.254902
v -3.734584487 -0.321795566 -8.783339654 0.364706 0.427451 0.270588
v -3.772744478 -0.357199576 -8.722740843 0.368627 0.415686 0.247059
v -3.817319992 -0.393076460 -8.660230181 0.337255 0.364706 0.270588
v -3.744542279 -0.328341422 -8.768399538 0.345098 0.407843 0.243137
v -3.793314035 -0.378464530 -8.682987117 0.372549 0.427451 0.270588
v -3.710252346 -0.296383529 -8.819386499 0.231373 0.254902 0.168627
v -3.799288897 -0.381138926 -8.673921897 0.341176 0.407843 0.254902
v -3.776992244 -0.360768614 -8.708178441 0.380392 0.431373 0.262745
v -3.823361409 -0.391336898 -8.651674661 0.301961 0.227451 0.243137
v -3.723916805 -0.302457393 -8.797934736 0.356863 0.411765 0.254902
v -3.783324339 -0.363586797 -8.694203841 0.364706 0.423529 0.270588
v -3.805942527 -0.380169228 -8.663811508 0.380392 0.423529 0.294118
v -3.766590523 -0.334185781 -8.739131898 0.462745 0.474510 0.396078
v -3.814324472 -0.383174325 -8.655968817 0.298039 0.270588 0.227451
v -3.755653570 -0.326490426 -8.751716922 0.352941 0.407843 0.254902
v -3.790745110 -0.367291785 -8.682162753 0.384314 0.439216 0.282353
v -3.770227979 -0.340217412 -8.727953651 0.392157 0.419608 0.298039
v -3.736753781 -0.310832046 -8.777481867 0.356863 0.419608 0.258824
v -3.730619577 -0.305182202 -8.785994300 0.356863 0.415686 0.254902
v -3.717226519 -0.292552464 -8.806650587 0.286275 0.329412 0.215686
v -3.747987513 -0.320068825 -8.759932873 0.333333 0.396078 0.231373
v -3.796405141 -0.369119375 -8.672945411 0.380392 0.435294 0.290196
v -3.742394778 -0.310811157 -8.767329833 0.317647 0.384314 0.227451
v -3.762228497 -0.324614747 -8.742493328 0.388235 0.423529 0.305882
v -3.774035731 -0.340427589 -8.714579490 0.364706 0.407843 0.254902
v -3.786570461 -0.355365140 -8.685641815 0.376471 0.431373 0.278431
v -3.723788987 -0.290443959 -8.795092630 0.341176 0.380392 0.258824
v -3.709127794 -0.280664142 -8.806266588 0.203922 0.172549 0.164706
v -3.792496753 -0.357360630 -8.676102863 0.376471 0.431373 0.278431
v -3.734233372 -0.295012958 -8.779462001 0.349020 0.415686 0.250980
v -3.779460569 -0.344168974 -8.695981063 0.411765 0.450980 0.301961
v -3.769270574 -0.322165213 -8.731670408 0.466667 0.478431 0.400000
v -3.807809656 -0.365576667 -8.655954777 0.270588 0.200000 0.203922
v -3.740209246 -0.294216844 -8.769948105 0.384314 0.443137 0.282353
v -3.799988629 -0.357104555 -8.662692985 0.333333 0.364706 0.254902
v -3.748530211 -0.302324620 -8.754637774 0.356863 0.411765 0.250980
v -3.763520653 -0.311548784 -8.736184937 0.400000 0.435294 0.313725
v -3.727863098 -0.281084446 -8.786931265 0.309804 0.349020 0.223529
v -3.787834956 -0.346012936 -8.675613512 0.380392 0.419608 0.266667
v -3.782426981 -0.338561489 -8.684025857 0.392157 0.427451 0.286275
v -3.737003772 -0.285059177 -8.774374174 0.337255 0.396078 0.243137
v -3.794068315 -0.347930572 -8.665297258 0.356863 0.368627 0.262745
v -3.770595118 -0.310944726 -8.725377286 0.462745 0.474510 0.396078
v -3.776887981 -0.323730162 -8.702568778 0.388235 0.415686 0.282353
v -3.774649600 -0.317342292 -8.713500290 0.388235 0.415686 0.298039
v -3.724398320 -0.271301615 -8.789855011 0.176471 0.156863 0.117647
v -3.746623532 -0.290528096 -8.756014422 0.376471 0.427451 0.266667
v -3.779448429 -0.324713055 -8.691343161 0.415686 0.450980 0.317647
v -3.789575281 -0.338392835 -8.665816098 0.341176 0.341176 0.250980
v -3.784400034 -0.332970937 -8.674818332 0.403922 0.423529 0.290196
v -3.797360780 -0.342475853 -8.656756326 0.200000 0.180392 0.121569
v -3.733692598 -0.269205673 -8.777345135 0.188235 0.203922 0.141176
v -3.768732201 -0.300518234 -8.723970164 0.454902 0.454902 0.376471
v -3.774603300 -0.305308101 -8.713477779 0.443137 0.450980 0.360784
v -3.743174915 -0.278180525 -8.758443238 0.368627 0.415686 0.270588
v -3.749574756 -0.283998488 -8.746831801 0.419608 0.466667 0.309804
v -3.777387175 -0.311557075 -8.700031527 0.411765 0.423529 0.301961
v -3.792645476 -0.332758954 -8.655764341 0.243137 0.188235 0.188235
v -3.781119167 -0.310860461 -8.688473639 0.419608 0.435294 0.309804
v -3.773279269 -0.294290193 -8.714211697 0.505882 0.494118 0.427451
v -3.777940110 -0.300533303 -8.701702661 0.427451 0.435294 0.321569
v -3.760831971 -0.284890552 -8.726512721 0.376471 0.419608 0.274510
v -3.786007387 -0.314737502 -8.670542227 0.337255 0.305882 0.235294
v -3.753907463 -0.276426213 -8.733236124 0.419608 0.447059 0.298039
v -3.784232441 -0.306142611 -8.677516807 0.450980 0.431373 0.321569
v -3.790702286 -0.317265689 -8.658050212 0.274510 0.200000 0.207843
v -3.781084114 -0.295116386 -8.693090497 0.419608 0.415686 0.298039
v -3.774401701 -0.280340413 -8.707819841 0.541176 0.513725 0.458824
v -3.746679206 -0.257155910 -8.746775601 0.321569 0.298039 0.235294
v -3.757517847 -0.269728747 -8.725300948 0.419608 0.415686 0.294118
v -3.751622682 -0.264254057 -8.734403968 0.400000 0.388235 0.286275
v -3.788181245 -0.303990994 -8.665112272 0.454902 0.415686 0.337255
v -3.794585470 -0.301704669 -8.655832567 0.207843 0.129412 0.137255
v -3.765024831 -0.265307598 -8.715629609 0.356863 0.329412 0.254902
v -3.752957888 -0.252575988 -8.733701408 0.223529 0.149020 0.149020
vn -0.799866655 0.378812613 -0.465525872
vn -0.760182536 0.443054352 -0.475210852
vn -0.736288324 0.485669153 -0.471174042
vn -0.830546086 0.490164116 -0.264447233
vn -0.830296030 0.489535111 -0.266390461
vn -0.783734556 0.512104566 -0.351438556
vn -0.796281821 0.547294995 -0.257688668
vn -0.766166205 0.585921832 -0.263979076
vn -0.849421866 0.472751136 -0.234497029
vn -0.831954736 0.514291603 -0.208219749
vn -0.892421508 0.405594367 -0.197679187
vn -0.876188650 0.443942721 -0.187638774
vn -0.866643363 0.447700910 -0.220211666
vn -0.877103977 0.467229212 -0.111290058
vn -0.854729930 0.445670708 -0.266109690
vn -0.853476118 0.505148201 -0.128077363
vn -0.868223871 0.446441439 -0.216511781
vn -0.880257214 0.452311298 -0.143393608
vn -0.896932065 0.392737122 -0.203151232
vn -0.888061386 0.444103723 -0.118822803
vn -0.902264980 0.425848816 -0.067606892
vn -0.893137632 0.428650112 -0.136250693
vn -0.921057525 0.387392250 -0.039752731
vn -0.915344694 0.371613813 -0.155071807
vn -0.881597398 0.454032244 -0.128999026
vn -0.901339024 0.414564926 -0.125394915
vn -0.856423249 0.426791865 -0.290495994
vn -0.937083526 0.346057874 -0.046026215
vn -0.923457865 0.363653704 -0.122399164
vn -0.975087399 0.184706589 -0.122833385
vn -0.942029921 0.319404650 -0.102763311
vn -0.899545119 0.378061040 -0.218834251
vn -0.910216797 0.355638723 -0.212194441
vn -0.944330109 0.274632213 -0.181156818
vn -0.837365169 0.396858866 -0.375929002
vn -0.759572659 0.365034169 -0.538330225
vn -0.933203913 0.321658330 -0.160207288
vn -0.916832102 0.310284033 -0.251282144
vn -0.838838090 0.350761287 -0.416313798
vn -0.930471774 0.325550783 -0.168044531
vn -0.915490809 0.325931108 -0.235892967
vn -0.893702115 0.349922538 -0.280803752
vn -0.732475886 0.329228908 -0.595892107
vn -0.794179385 0.350165205 -0.496652225
vn -0.917411132 0.334149789 -0.216103524
vn -0.946311767 0.287679932 -0.147425562
vn -0.959662248 0.193701667 -0.203784283
vn -0.903556423 0.332821077 -0.269844253
vn -0.987200803 0.094423114 -0.128525679
vn -0.879161873 0.341596779 -0.332243949
vn -0.918357752 0.266250660 -0.292796217
vn -0.758148737 0.262178007 -0.597053753
vn -0.913325578 0.312391445 -0.261243132
vn -0.944172688 0.255730255 -0.207701642
vn -0.809367606 0.322380270 -0.490912457
vn -0.937752084 0.217742790 -0.270571814
vn -0.941642756 0.240616163 -0.235399197
vn -0.974704566 0.139928301 -0.174273003
vn -0.894924988 0.246389657 -0.372023390
vn -0.896242610 0.285998998 -0.339048312
vn -0.913695548 0.218104327 -0.342915365
vn -0.944024550 0.158620122 -0.289235727
vn -0.981807447 0.070945819 -0.176127303
vn -0.794186884 0.171638007 -0.582930173
vn -0.876608792 0.309331107 -0.368607233
vn -0.938552926 0.217329599 -0.268116112
vn -0.851077446 0.257012548 -0.457833737
vn -0.929499348 0.174162255 -0.325113013
vn -0.870314878 0.294175289 -0.394984700
vn -0.883002188 0.226818091 -0.410926622
vn -0.939892495 0.093691598 -0.328365622
vn -0.717081508 0.060831559 -0.694329628
vn -0.927238632 0.228678972 -0.296537431
vn -0.888282491 0.295647606 -0.351492117
vn -0.927199357 0.162089902 -0.337680643
vn -0.847393363 0.163270022 -0.505239931
vn -0.895848474 0.223408044 -0.384115032
vn -0.943066246 0.007146775 -0.332528164
vn -0.951729491 0.147576354 -0.269132300
vn -0.927351134 -0.113885617 -0.356440656
vn -0.893822253 0.281226487 -0.349275597
vn -0.937002517 0.193664654 -0.290723725
vn -0.944463565 0.091991043 -0.315477768
vn -0.936391829 0.162062854 -0.311297243
vn -0.878433397 -0.095374577 -0.468250421
vn -0.895413938 0.188124934 -0.403537965
vn -0.951101117 0.105318703 -0.290369825
vn -0.829178686 0.107557249 -0.548538188
vn -0.916965413 0.244538034 -0.315238927
vn -0.886852945 0.070538363 -0.456635733
vn -0.885957476 -0.075773449 -0.457534410
vn -0.841828876 0.332232867 -0.425376851
vn -0.901420299 0.262142112 -0.344561978
vn -0.878134541 0.162624039 -0.449925717
vn -0.935799845 0.133928324 -0.326100988
vn -0.913590392 0.184847325 -0.362193405
vn -0.907319480 0.141216260 -0.396016828
vn -0.876418656 0.288925891 -0.385243000
vn -0.905973808 0.217736084 -0.363046082
vn -0.943032468 0.118326950 -0.310947741
vn -0.931216193 0.167638098 -0.323626127
vn -0.869295216 0.065992504 -0.489868163
vn -0.862001151 0.288305147 -0.416934236
vn -0.858512623 0.156721310 -0.488256600
vn -0.884773637 0.079740949 -0.459148115
vn -0.915773716 -0.163917650 -0.366728109
vn -0.898858337 -0.006751523 -0.438187296
vn -0.906833166 0.176068121 -0.382953816
vn -0.865311813 0.095892883 -0.491975632
vn -0.842421082 0.266784374 -0.468137606
vn -0.888493001 0.212739475 -0.406598208
vn -0.896812656 0.189735552 -0.399659206
vn -0.921138044 0.107701566 -0.374038870
vn -0.926211949 0.116239736 -0.358635956
vn -0.885307075 0.149803743 -0.440216108
vn -0.891718382 0.032011785 -0.451457167
vn -0.936580680 0.150155298 -0.316654412
vn -0.868862273 -0.050123217 -0.492509912
vn -0.876871273 0.222161140 -0.426311153
vn -0.932899939 0.112138269 -0.342231958
vn -0.850038214 0.197278652 -0.488381171
vn -0.934647632 0.119603848 -0.334856274
vn -0.883404316 0.188311600 -0.429110190
vn -0.930912579 0.160049083 -0.328307877
vn -0.823660810 0.198868665 -0.531068851
vn -0.960528947 0.115088371 -0.253256411
vn -0.896288926 0.206042402 -0.392699236
vn -0.938125438 0.060526309 -0.340965143
vn -0.826989067 0.061523964 -0.558841556
vn -0.832978204 -0.105620188 -0.543131372
vn -0.908111358 0.094810254 -0.407853867
vn -0.788226013 0.139218978 -0.599431254
vn -0.885697896 0.111901409 -0.450574425
vn -0.844926707 0.137556363 -0.516891774
vn -0.925370107 0.140055376 -0.352242326
vn -0.894093110 0.215417163 -0.392674110
vn -0.948216718 0.183630635 -0.259161812
vn -0.905985814 0.170895527 -0.387278225
vn -0.857439424 0.235294067 -0.457639963
vn -0.709862962 0.170644704 -0.683355662
vn -0.851368829 0.239878868 -0.466507499
vn -0.775276077 -0.012802093 -0.631492764
vn -0.882984506 0.238199106 -0.404474409
vn -0.915992043 0.208602997 -0.342700111
vn -0.852674304 0.154988347 -0.498923986
vn -0.956276382 0.192542396 -0.220142925
vn -0.906818097 0.216944151 -0.361408598
vn -0.872673999 0.262818919 -0.411541379
vn -0.960192030 0.158039666 -0.230336122
vn -0.791015113 0.178224609 -0.585261548
vn -0.900720411 0.247103365 -0.357271141
vn -0.889996888 0.243976561 -0.385202514
vn -0.905691060 0.099255134 -0.412155458
vn -0.912061735 0.127092888 -0.389859962
vn -0.857450271 0.281660953 -0.430634578
vn -0.829138855 0.052864585 -0.556537594
vn -0.897243880 0.136923651 -0.419768189
vn -0.880694843 0.267025231 -0.391246877
vn -0.944052190 0.198929251 -0.263044891
vn -0.710674978 0.259661632 -0.653847774
vn -0.933796652 0.137757343 -0.330222239
vn -0.897903680 0.182675082 -0.400498185
vn -0.798068185 0.229837720 -0.557011484
vn -0.867771185 0.175926201 -0.464782899
vn -0.889272364 0.226373120 -0.397429080
vn -0.925940077 0.255590123 -0.278044356
vn -0.849585903 0.258818256 -0.459583403
vn -0.779056124 0.253823220 -0.573275963
vn -0.949092982 0.231576736 -0.213529218
vn -0.912700746 0.165251441 -0.373723575
vn -0.891282234 0.204706582 -0.404612401
vn -0.902970895 0.255097923 -0.345786946
vn -0.867002029 0.256383164 -0.427288140
vn -0.902852710 0.197074561 -0.382123803
vn -0.734641913 0.284986349 -0.615698011
vn -0.910361009 0.174131128 -0.375394704
vn -0.871762157 0.010196130 -0.489823213
vn -0.919638052 0.136410599 -0.368317800
vn -0.764358911 0.233668222 -0.600961411
vn -0.948831329 0.129769083 -0.287887294
vn -0.932165299 0.146749871 -0.330956691
vn -0.914348131 0.172617362 -0.366293246
vn -0.903198944 0.239713427 -0.356046543
vn -0.921966624 0.079058626 -0.379113806
vn -0.879998468 0.198021144 -0.431729456
vn -0.888244992 0.190999305 -0.417779966
vn -0.841903114 0.243972979 -0.481327676
vn -0.775188601 0.249602667 -0.580328478
vn -0.846736788 0.196771879 -0.494284977
vn -0.920995987 0.122315366 -0.369872063
vn -0.895193159 0.200730906 -0.397914955
vn -0.903389154 0.182396263 -0.388097460
vn -0.893876257 0.241525995 -0.377690919
vn -0.892318245 0.197889003 -0.405719229
vn -0.752968487 0.288088273 -0.591644829
vn -0.843760522 0.227378249 -0.486176215
vn -0.914807531 0.133034799 -0.381351444
vn -0.904641917 0.135142082 -0.404177707
vn -0.753549100 0.262320634 -0.602786562
vn -0.939955971 0.096877577 -0.327257556
vn -0.913966471 0.217901763 -0.342321650
vn -0.937235275 0.140279911 -0.319235940
vn -0.711921043 0.254408071 -0.654557073
vn -0.839635739 0.233539183 -0.490378707
vn -0.805987647 0.178786235 -0.564286625
vn -0.909132203 0.161861570 -0.383770073
vn -0.756537227 0.163712014 -0.633127001
vn -0.869666371 0.206448728 -0.448396393
vn -0.943295665 0.159516885 -0.291114500
vn -0.899229553 0.157871490 -0.407998533
vn -0.927223777 0.151071920 -0.342685486
vn -0.749171499 0.229289837 -0.621424361
vn -0.884141690 0.193874607 -0.425095411
vn -0.897830632 0.231301284 -0.374699709
vn -0.891884337 0.240068194 -0.383287870
vn -0.777210719 0.188151988 -0.600451770
vn -0.845746631 0.252909023 -0.469840038
vn -0.851823166 0.217093335 -0.476726104
vn -0.932489718 0.133178436 -0.335747569
vn -0.927845139 0.151785966 -0.340682284
vn -0.889451758 0.195564451 -0.413073984
vn -0.647431635 0.186088776 -0.739055644
vn -0.933656209 0.215543450 -0.286054373
vn -0.931230050 0.127904352 -0.341249280
vn -0.663271622 0.143708843 -0.734451172
vn -0.853114888 0.238501189 -0.464017425
vn -0.903284478 0.219654770 -0.368549771
vn -0.856748386 0.252863386 -0.449491169
vn -0.906965717 0.265052081 -0.327353909
vn -0.921278336 0.220229466 -0.320538936
vn -0.844102189 0.210317836 -0.493211823
vn -0.714542574 0.069359029 -0.696145269
vn -0.897872514 0.152699449 -0.412925935
vn -0.803455654 0.199819628 -0.560830748
vn -0.871908616 0.164531957 -0.461199091
vn -0.750493307 0.107515351 -0.652073803
vn -0.963157445 0.136025348 -0.232001812
vn -0.749706343 0.154870889 -0.643393664
vn -0.614975283 0.103998188 -0.781658351
vn -0.904051639 0.140504736 -0.403669486
vn -0.925407450 0.127547627 -0.356865035
vn -0.848437019 0.256934901 -0.462751642
vn -0.854194801 0.219930956 -0.471149251
vn -0.855905601 0.259147796 -0.447513152
vn -0.970789053 0.110614385 -0.212915645
vn -0.631312586 0.020755698 -0.775250682
vn -0.885876009 0.249131042 -0.391353319
vn -0.918548476 0.238729115 -0.315082699
vn -0.762590211 0.175114949 -0.622728613
vn -0.822029592 0.172109442 -0.542812757
vn -0.901133272 0.172953668 -0.397549814
vn -0.700423805 0.084181523 -0.708745345
vn -0.958335812 0.107080434 -0.264813616
vn -0.659387990 -0.010250303 -0.751732938
vn -0.610528960 0.108371127 -0.784544510
vn -0.886672503 0.164299617 -0.432223910
vn -0.840638806 0.224809285 -0.492734394
vn -0.914007606 0.122942259 -0.386620353
vn -0.708939099 0.185122729 -0.680540175
vn -0.923148536 0.172862339 -0.343388106
vn -0.858890630 0.202827788 -0.470284780
vn -0.745896143 0.215360760 -0.630284608
vn -0.760498885 0.198838198 -0.618146275
vn -0.959202102 0.095972837 -0.265933341
vn -0.611622417 0.290289882 -0.735968616
vn -0.800723327 0.203328603 -0.563471057
vn -0.927881877 0.181196393 -0.325888155
vn -0.880190489 0.012559922 -0.474454373
vn -0.898075606 0.188189182 -0.397548787
vn -0.833920672 0.224334900 -0.504232254
vn -0.850919109 0.197926714 -0.486581633
vn -0.912310190 0.186781210 -0.364421318
vn -0.757828563 0.288477405 -0.585215051
vn -0.834884695 0.206751986 -0.510118772
vn -0.935612965 0.162883813 -0.313204795
vn -0.930833648 0.133029333 -0.340370263
vn -0.672223388 0.097518157 -0.733897762
vn -0.847185752 0.184989384 -0.498051433
vn -0.844779077 0.205816372 -0.493951346
vn -0.877897522 0.164464724 -0.449719130
vn -0.952054230 0.076480087 -0.296215361
vn -0.939182456 0.166943052 -0.300110533
vn -0.917790019 0.118152040 -0.379079907
vn -0.722201875 0.330803103 -0.607448565
vn -0.888771046 0.186720417 -0.418594689
vn -0.784610975 0.179822451 -0.593337597
vn -0.829130966 0.182430907 -0.528451328
vn -0.900656884 0.125497301 -0.416013948
vn -0.490168795 0.438227171 -0.753453050
vn -0.535252368 0.320072686 -0.781702231
vn -0.854304518 0.204315919 -0.477931790
vn -0.945996511 0.142017995 -0.291412922
vn -0.933932103 0.152411329 -0.323328955
vn -0.800306959 0.232791911 -0.552554701
vn -0.789585250 0.171065260 -0.589314695
vn -0.952615419 0.112965970 -0.282422651
vn -0.883925513 0.163870613 -0.437975009
vn -0.965803146 0.039370114 -0.256269931
vn -0.858709320 0.111459244 -0.500195102
vn -0.913181081 0.131577530 -0.385730045
vn -0.904231777 0.193726271 -0.380571972
vn -0.814364011 0.161770627 -0.557352242
vn -0.584205398 0.357781464 -0.728489175
vn -0.819635131 0.211035100 -0.532599699
vn -0.849355411 0.199551529 -0.488645652
vn -0.883313621 0.101615891 -0.457636599
vn -0.944936627 0.135979936 -0.297664623
vn -0.952571132 0.123041168 -0.278332733
vn -0.782819724 0.171644569 -0.598106530
vn -0.494659446 0.398898886 -0.772134516
vn -0.631201848 0.322026073 -0.705608557
vn -0.771220556 0.287037597 -0.568179788
vn -0.952087122 -0.025670360 -0.304747673
vn -0.927523332 0.153988374 -0.340570183
vn -0.846996318 0.233324435 -0.477657769
vn -0.916474262 0.197428498 -0.347989822
vn -0.808420749 0.181974371 -0.559768900
vn -0.873626126 0.150122263 -0.462861425
vn -0.889334229 0.154682751 -0.430299750
vn -0.873912395 0.080645634 -0.479346854
vn -0.861259344 0.219077627 -0.458516451
vn -0.851137675 0.171792466 -0.496036296
vn -0.616669586 0.346009761 -0.707103858
vn -0.933500549 0.103238066 -0.343392817
vn -0.809324149 0.210803369 -0.548230209
vn -0.951744615 0.151257175 -0.267027068
vn -0.828868222 0.209166133 -0.518870889
vn -0.836999799 0.225072526 -0.498772186
vn -0.794886024 0.245242639 -0.554988520
vn -0.934635355 0.217221598 -0.281552005
vn -0.954748426 0.134260949 -0.265385455
vn -0.831860017 0.438871724 -0.339706524
vn -0.921600911 0.165174256 -0.351239556
vn -0.820787532 0.311602239 -0.478760766
vn -0.918842299 0.266436710 -0.291101889
vn -0.873544119 0.200220129 -0.443658170
vn -0.909109435 0.101953995 -0.403887879
vn -0.856748466 0.156135859 -0.491531952
vn -0.699382444 0.385707487 -0.601742413
vn -0.835842394 0.210764409 -0.506898270
vn -0.878415827 0.293404795 -0.377225742
vn -0.484439743 0.413699292 -0.770824903
vn -0.593504721 0.427844126 -0.681690215
vn -0.878185843 0.137663603 -0.458081170
vn -0.504391476 0.414311723 -0.757585002
vn -0.921460414 0.229804379 -0.313210238
vn -0.874044790 0.220154088 -0.433102623
vn -0.743627965 0.375211769 -0.553383752
vn -0.781073076 0.267053936 -0.564452872
vn -0.895173583 0.260433929 -0.361715946
vn -0.852385217 0.196879949 -0.484435474
vn -0.517557952 0.464266034 -0.718742524
vn -0.853427428 0.319083045 -0.412125752
vn -0.852836793 0.190149165 -0.486325713
vn -0.877730490 0.356943410 -0.319656987
vn -0.920900295 0.124739323 -0.369300350
vn -0.539914574 0.557019243 -0.631048188
vn -0.873749233 0.184720385 -0.449934059
vn -0.841056286 0.195929369 -0.504218213
vn -0.662148469 0.415136097 -0.623876130
vn -0.548738881 0.604906878 -0.577038395
vn -0.881416499 0.160260402 -0.444321459
vn -0.773140646 0.350177336 -0.528799939
vn -0.924665670 0.187883985 -0.331199347
vn -0.907558890 0.243829426 -0.341883126
vn -0.912797358 0.189143091 -0.361974964
vn -0.862305631 0.322848845 -0.390125136
vn -0.885037165 0.139431103 -0.444148830
vn -0.837596553 0.212295289 -0.503351493
vn -0.859474185 0.202904560 -0.469184255
vn -0.870333907 0.299303268 -0.391070894
vn -0.792677016 0.222410813 -0.567623624
vn -0.942239597 0.103656919 -0.318496129
vn -0.881845227 0.151997982 -0.446369363
vn -0.637553809 0.536606370 -0.552791772
vn -0.750224597 0.410494058 -0.518321987
vn -0.871720771 0.135533634 -0.470885901
vn -0.944634916 0.114744123 -0.307406345
vn -0.849385712 0.194778147 -0.490515429
vn -0.815309646 0.344894988 -0.465099589
vn -0.857510907 0.246807492 -0.451399055
vn -0.587674446 0.643333986 -0.490673138
vn -0.864820754 0.188043454 -0.465537027
vn -0.879442650 0.128756642 -0.458260137
vn -0.831308800 0.177855116 -0.526586401
vn -0.925156722 0.207169448 -0.318065809
vn -0.833679419 0.290801558 -0.469481715
vn -0.945885425 0.061612110 -0.318598040
vn -0.899260521 0.239906917 -0.365752903
vn -0.676034236 0.550767941 -0.489522612
vn -0.794856283 0.192619242 -0.575414040
vn -0.854768445 0.151780109 -0.496320163
vn -0.858510174 0.170134719 -0.483750409
vn -0.958521491 0.077183122 -0.274370765
vn -0.651247213 0.540091449 -0.533083760
vn -0.846362798 0.163539936 -0.506877405
vn -0.832445238 0.300769469 -0.465373670
vn -0.822486966 0.249463229 -0.511158769
vn -0.757379903 0.428713966 -0.492524129
vn -0.942972109 0.115030144 -0.312364640
vn -0.619477855 0.559041780 -0.551107499
vn -0.868943826 0.111596021 -0.482164862
vn -0.881581144 0.178161448 -0.437119188
vn -0.746020791 0.345322608 -0.569390267
vn -0.884009653 0.107563189 -0.454925372
vn -0.699822692 0.370238467 -0.610877792
vn -0.796467715 0.181141225 -0.576911636
vn -0.857822847 0.200563716 -0.473195688
vn -0.958003107 0.031070699 -0.285069568
vn -0.852264225 0.089743392 -0.515356007
vn -0.856568344 0.098715041 -0.506503714
vn -0.818716490 0.256764791 -0.513590451
vn -0.825753554 0.159583445 -0.540984466
vn -0.820078145 0.213659355 -0.530868643
vn -0.872190702 0.091565422 -0.480519669
vn -0.794404475 0.183124137 -0.579126135
vn -0.963721429 0.023169210 -0.265902603
vn -0.879002399 0.217781347 -0.424176929
vn -0.794699354 0.174901118 -0.581259439
vn -0.698391843 0.344262110 -0.627481022
vn -0.842604794 0.263155871 -0.469857583
vn -0.835179676 0.066639635 -0.545924966
vn -0.944957771 0.097058954 -0.312464990
vn -0.926031367 0.057375082 -0.373060327
vn -0.772979665 0.262605917 -0.577529713
vn -0.880445401 0.082149302 -0.466976860
vn -0.807543788 0.292921632 -0.511927679
vn -0.837838481 0.142184190 -0.527077163
vn -0.812451807 0.217638674 -0.540883969
vn -0.818981863 0.087407500 -0.567123124
vn -0.866739876 0.307083013 -0.393016552
vn -0.933413085 0.176449705 -0.312418813
vn -0.868437191 0.087947808 -0.487936501
vn -0.804625168 0.363051595 -0.469863681
vn -0.898426440 0.133705833 -0.418273453
vn -0.972525645 0.018084351 -0.232092279
vn -0.966988733 0.001254776 -0.254816042
vn -0.730334986 0.149493230 -0.666530256
vn -0.896906752 0.132437838 -0.421922383
vn -0.963957336 0.006382281 -0.265980300
vn -0.876052076 0.228607612 -0.424583703
vn -0.935346493 0.081622068 -0.344187122
vn -0.785146817 0.363138140 -0.501672370
vn -0.879067481 0.088162203 -0.468473895
vn -0.812770144 0.241664085 -0.530097315
vn -0.947117460 0.046835257 -0.317450746
vn -0.900303095 0.110710776 -0.420948288
vn -0.876164505 0.183998514 -0.445511288
vn -0.969019817 -0.034907852 -0.244503652
vn -0.893491335 0.215774710 -0.393845794
vn -0.958191252 -0.063026489 -0.279100674
vn -0.861307716 0.170070975 -0.478774354
vn -0.950084625 0.001166645 -0.311990136
vn -0.798557052 0.244853527 -0.549866698
vn -0.951657205 -0.023784054 -0.306239912
vn -0.863710690 0.210299770 -0.458015121
vn -0.960378996 -0.069253419 -0.269955827
vn -0.914216931 0.018801991 -0.404788696
vn -0.952100493 -0.051239986 -0.301461630
vn -0.847410689 0.141619353 -0.511702142
vn -0.914307794 0.071556223 -0.398648923
vn -0.805754963 0.070555884 -0.588031297
vn -0.913165970 0.057630235 -0.403493083
vn -0.923621515 -0.082064071 -0.374417929
vn -0.830729985 -0.130171061 -0.541242263
vn -0.778966752 0.107844650 -0.617721888
vn -0.843162796 -0.072934773 -0.532688481
f 3//3 2//2 1//1
f 4//4 3//3 1//1
f 462//462 466//466 467//467
f 84//84 100//100 87//87
f 168//168 177//177 188//188
f 49//49 47//47 30//30
f 47//47 34//34 30//30
f 463//463 462//462 467//467
f 460//460 454//454 452//452
f 462//462 454//454 466//466
f 454//454 460//460 466//466
f 464//464 459//459 457//457
f 362//362 359//359 385//385
f 359//359 344//344 340//340
f 344//344 359//359 362//362
f 177//177 207//207 188//188
f 75//75 84//84 87//87
f 65//65 50//50 60//60
f 68//68 69//69 60//60
f 69//69 65//65 60//60
f 233//233 241//241 220//220
f 310//310 311//311 342//342
f 311//311 310//310 290//290
f 294//294 273//273 284//284
f 345//345 310//310 342//342
f 461//461 444//444 447//447
f 461//461 463//463 467//467
f 396//396 385//385 407//407
f 444//444 433//433 447//447
f 448//448 461//461 447//447
f 461//461 448//448 463//463
f 429//429 428//428 407//407
f 448//448 429//429 454//454
f 429//429 448//448 428//428
f 455//455 464//464 457//457
f 455//455 440//440 442//442
f 449//449 446//446 437//437
f 151//151 166//166 172//172
f 100//100 99//99 87//87
f 89//89 81//81 93//93
f 127//127 123//123 143//143
f 190//190 174//174 194//194
f 283//283 281//281 267//267
f 344//344 322//322 340//340
f 381//381 398//398 380//380
f 203//203 207//207 222//222
f 207//207 203//203 188//188
f 277//277 254//254 268//268
f 311//311 277//277 268//268
f 277//277 311//311 290//290
f 255//255 277//277 290//290
f 58//58 49//49 63//63
f 49//49 58//58 47//47
f 145//145 134//134 150//150
f 134//134 145//145 133//133
f 129//129 140//140 150//150
f 142//142 140//140 129//129
f 140//140 160//160 150//150
f 179//179 205//205 189//189
f 205//205 238//238 234//234
f 215//215 233//233 220//220
f 215//215 231//231 233//233
f 205//205 199//199 216//216
f 199//199 205//205 179//179
f 55//55 50//50 65//65
f 55//55 52//52 43//43
f 81//81 74//74 93//93
f 69//69 74//74 65//65
f 205//205 218//218 189//189
f 218//218 215//215 193//193
f 215//215 218//218 231//231
f 231//231 218//218 234//234
f 218//218 205//205 234//234
f 38//38 34//34 47//47
f 51//51 38//38 47//47
f 48//48 38//38 51//51
f 38//38 48//48 41//41
f 56//56 51//51 47//47
f 51//51 56//56 66//66
f 58//58 56//56 47//47
f 56//56 58//58 66//66
f 3//3 6//6 2//2
f 6//6 5//5 2//2
f 6//6 3//3 4//4
f 310//310 289//289 290//290
f 312//312 294//294 284//284
f 266//266 263//263 294//294
f 431//431 441//441 442//442
f 441//441 431//431 434//434
f 450//450 441//441 443//443
f 441//441 434//434 443//443
f 428//428 413//413 407//407
f 413//413 396//396 407//407
f 393//393 396//396 410//410
f 370//370 393//393 379//379
f 433//433 426//426 447//447
f 438//438 430//430 444//444
f 430//430 433//433 444//444
f 398//398 412//412 420//420
f 411//411 393//393 410//410
f 439//439 448//448 447//447
f 448//448 439//439 428//428
f 426//426 439//439 447//447
f 439//439 426//426 428//428
f 463//463 456//456 462//462
f 448//448 456//456 463//463
f 456//456 454//454 462//462
f 456//456 448//448 454//454
f 454//454 445//445 452//452
f 429//429 445//445 454//454
f 445//445 446//446 452//452
f 458//458 455//455 442//442
f 441//441 458//458 442//442
f 458//458 441//441 450//450
f 464//464 458//458 465//465
f 455//455 458//458 464//464
f 451//451 455//455 457//457
f 455//455 451//451 440//440
f 451//451 449//449 440//440
f 459//459 451//451 457//457
f 449//449 453//453 446//446
f 446//446 453//453 452//452
f 453//453 451//451 459//459
f 451//451 453//453 449//449
f 453//453 460//460 452//452
f 453//453 459//459 460//460
f 385//385 391//391 407//407
f 200//200 180//180 181//181
f 166//166 182//182 172//172
f 180//180 182//182 166//166
f 182//182 192//192 172//172
f 200//200 182//182 180//180
f 83//83 75//75 87//87
f 99//99 83//83 87//87
f 92//92 99//99 110//110
f 94//94 96//96 113//113
f 271//271 288//288 274//274
f 280//280 261//261 278//278
f 244//244 261//261 247//247
f 322//322 329//329 340//340
f 329//329 304//304 317//317
f 304//304 329//329 322//322
f 367//367 381//381 380//380
f 332//332 316//316 335//335
f 230//230 209//209 214//214
f 230//230 237//237 209//209
f 281//281 253//253 267//267
f 253//253 230//230 267//267
f 230//230 253//253 237//237
f 277//277 246//246 254//254
f 255//255 246//246 277//277
f 273//273 265//265 284//284
f 265//265 289//289 284//284
f 265//265 255//255 290//290
f 289//289 265//265 290//290
f 236//236 205//205 216//216
f 205//205 236//236 238//238
f 85//85 80//80 91//91
f 107//107 91//91 106//106
f 107//107 109//109 91//91
f 109//109 107//107 129//129
f 118//118 107//107 106//106
f 107//107 118//118 129//129
f 121//121 134//134 133//133
f 115//115 121//121 133//133
f 73//73 82//82 84//84
f 82//82 73//73 66//66
f 75//75 73//73 84//84
f 82//82 95//95 84//84
f 84//84 95//95 100//100
f 79//79 58//58 63//63
f 58//58 79//79 66//66
f 79//79 82//82 66//66
f 160//160 156//156 168//168
f 168//168 156//156 177//177
f 156//156 140//140 142//142
f 156//156 160//160 140//140
f 160//160 163//163 150//150
f 163//163 145//145 150//150
f 163//163 164//164 145//145
f 163//163 179//179 189//189
f 164//164 163//163 189//189
f 130//130 142//142 129//129
f 118//118 130//130 129//129
f 156//156 130//130 177//177
f 130//130 156//156 142//142
f 241//241 219//219 220//220
f 201//201 215//215 220//220
f 219//219 201//201 220//220
f 175//175 168//168 188//188
f 175//175 160//160 168//168
f 175//175 199//199 179//179
f 163//163 175//175 179//179
f 175//175 163//163 160//160
f 199//199 195//195 216//216
f 175//175 195//195 199//199
f 203//203 195//195 188//188
f 195//195 175//175 188//188
f 62//62 71//71 68//68
f 71//71 62//62 75//75
f 83//83 71//71 75//75
f 57//57 68//68 60//60
f 57//57 62//62 68//68
f 50//50 57//57 60//60
f 64//64 76//76 72//72
f 96//96 76//76 89//89
f 74//74 67//67 65//65
f 67//67 74//74 81//81
f 67//67 55//55 65//65
f 55//55 67//67 52//52
f 67//67 64//64 52//52
f 228//228 217//217 208//208
f 48//48 59//59 53//53
f 59//59 48//48 51//51
f 59//59 62//62 53//53
f 62//62 59//59 75//75
f 19//19 24//24 27//27
f 7//7 6//6 4//4
f 12//12 11//11 9//9
f 20//20 12//12 14//14
f 12//12 10//10 14//14
f 6//6 10//10 5//5
f 5//5 10//10 9//9
f 10//10 12//12 9//9
f 34//34 28//28 30//30
f 28//28 23//23 30//30
f 384//384 368//368 373//373
f 288//288 298//298 306//306
f 298//298 313//313 306//306
f 313//313 298//298 299//299
f 294//294 315//315 321//321
f 312//312 315//315 294//294
f 345//345 323//323 310//310
f 294//294 262//262 273//273
f 263//263 262//262 294//294
f 250//250 231//231 234//234
f 266//266 250//250 263//263
f 231//231 250//250 233//233
f 320//320 313//313 299//299
f 309//309 320//320 299//299
f 313//313 324//324 306//306
f 320//320 324//324 313//313
f 324//324 320//320 337//337
f 275//275 298//298 288//288
f 427//427 414//414 425//425
f 427//427 425//425 443//443
f 434//434 427//427 443//443
f 399//399 414//414 397//397
f 431//431 421//421 434//434
f 421//421 427//427 434//434
f 427//427 421//421 414//414
f 393//393 383//383 396//396
f 383//383 393//393 370//370
f 396//396 383//383 385//385
f 383//383 362//362 385//385
f 383//383 370//370 362//362
f 415//415 426//426 410//410
f 426//426 415//415 428//428
f 415//415 413//413 428//428
f 396//396 415//415 410//410
f 413//413 415//415 396//396
f 422//422 426//426 433//433
f 430//430 422//422 433//433
f 426//426 422//422 410//410
f 422//422 411//411 410//410
f 393//393 392//392 379//379
f 411//411 392//392 393//393
f 392//392 411//411 402//402
f 391//391 372//372 384//384
f 372//372 368//368 384//384
f 368//368 372//372 358//358
f 372//372 391//391 385//385
f 359//359 372//372 385//385
f 435//435 424//424 437//437
f 446//446 435//435 437//437
f 445//445 435//435 446//446
f 435//435 445//445 429//429
f 424//424 435//435 429//429
f 416//416 429//429 407//407
f 416//416 424//424 429//429
f 394//394 378//378 386//386
f 378//378 364//364 386//386
f 400//400 394//394 386//386
f 423//423 400//400 403//403
f 105//105 94//94 113//113
f 116//116 105//105 113//113
f 124//124 126//126 113//113
f 126//126 124//124 137//137
f 124//124 108//108 127//127
f 124//124 144//144 137//137
f 144//144 124//124 127//127
f 101//101 89//89 93//93
f 108//108 101//101 93//93
f 101//101 96//96 89//89
f 96//96 101//101 113//113
f 101//101 124//124 113//113
f 124//124 101//101 108//108
f 112//112 123//123 127//127
f 108//108 112//112 127//127
f 112//112 108//108 93//93
f 152//152 127//127 143//143
f 152//152 144//144 127//127
f 146//146 169//169 166//166
f 169//169 146//146 159//159
f 169//169 159//159 181//181
f 180//180 169//169 181//181
f 169//169 180//180 166//166
f 151//151 138//138 166//166
f 138//138 146//146 166//166
f 138//138 151//151 132//132
f 116//116 138//138 132//132
f 237//237 224//224 209//209
f 224//224 200//200 209//209
f 224//224 182//182 200//200
f 192//192 224//224 210//210
f 182//182 224//224 192//192
f 117//117 99//99 100//100
f 131//131 115//115 133//133
f 86//86 83//83 99//99
f 92//92 86//86 99//99
f 86//86 71//71 83//83
f 103//103 92//92 110//110
f 88//88 94//94 72//72
f 88//88 96//96 94//94
f 76//76 88//88 72//72
f 88//88 76//76 96//96
f 144//144 149//149 137//137
f 146//146 149//149 159//159
f 149//149 126//126 137//137
f 149//149 146//146 126//126
f 209//209 197//197 214//214
f 197//197 198//198 214//214
f 197//197 200//200 181//181
f 200//200 197//197 209//209
f 198//198 211//211 214//214
f 248//248 227//227 247//247
f 223//223 227//227 248//248
f 227//227 244//244 247//247
f 244//244 227//227 226//226
f 243//243 241//241 260//260
f 271//271 243//243 260//260
f 354//354 344//344 362//362
f 370//370 354//354 362//362
f 318//318 319//319 297//297
f 261//261 269//269 247//247
f 280//280 269//269 261//261
f 269//269 248//248 247//247
f 248//248 269//269 267//267
f 269//269 283//283 267//267
f 269//269 280//280 283//283
f 291//291 280//280 278//278
f 280//280 291//291 297//297
f 304//304 291//291 278//278
f 242//242 244//244 226//226
f 217//217 242//242 226//226
f 242//242 217//217 228//228
f 329//329 349//349 340//340
f 349//349 359//359 340//340
f 349//349 372//372 359//359
f 372//372 349//349 358//358
f 288//288 287//287 274//274
f 287//287 304//304 278//278
f 304//304 287//287 317//317
f 317//317 287//287 306//306
f 287//287 288//288 306//306
f 367//367 355//355 346//346
f 355//355 367//367 380//380
f 355//355 332//332 335//335
f 377//377 392//392 402//402
f 377//377 374//374 366//366
f 381//381 374//374 398//398
f 374//374 412//412 398//398
f 412//412 374//374 402//402
f 374//374 377//377 402//402
f 330//330 331//331 346//346
f 355//355 330//330 346//346
f 330//330 355//355 335//335
f 351//351 333//333 336//336
f 333//333 366//366 346//346
f 333//333 351//351 366//366
f 264//264 253//253 281//281
f 246//246 239//239 254//254
f 225//225 203//203 222//222
f 239//239 225//225 222//222
f 225//225 239//239 246//246
f 259//259 265//265 273//273
f 262//262 259//259 273//273
f 236//236 259//259 238//238
f 259//259 262//262 238//238
f 85//85 102//102 90//90
f 121//121 102//102 109//109
f 109//109 102//102 91//91
f 102//102 85//85 91//91
f 125//125 109//109 129//129
f 125//125 121//121 109//109
f 121//121 125//125 134//134
f 125//125 129//129 150//150
f 134//134 125//125 150//150
f 102//102 104//104 90//90
f 104//104 121//121 115//115
f 104//104 102//102 121//121
f 80//80 78//78 63//63
f 78//78 79//79 63//63
f 79//79 78//78 90//90
f 78//78 85//85 90//90
f 85//85 78//78 80//80
f 97//97 95//95 82//82
f 79//79 97//97 82//82
f 97//97 104//104 115//115
f 97//97 79//79 90//90
f 104//104 97//97 90//90
f 186//186 164//164 189//189
f 218//218 186//186 189//189
f 186//186 218//218 193//193
f 185//185 206//206 208//208
f 206//206 185//185 191//191
f 201//201 206//206 191//191
f 206//206 201//201 219//219
f 165//165 185//185 167//167
f 45//45 37//37 41//41
f 48//48 45//45 41//41
f 45//45 48//48 53//53
f 39//39 42//42 50//50
f 42//42 57//57 50//50
f 57//57 42//42 40//40
f 55//55 44//44 50//50
f 44//44 39//39 50//50
f 44//44 55//55 43//43
f 36//36 44//44 43//43
f 39//39 44//44 36//36
f 70//70 67//67 81//81
f 67//67 70//70 64//64
f 70//70 76//76 64//64
f 89//89 70//70 81//81
f 76//76 70//70 89//89
f 204//204 217//217 226//226
f 187//187 204//204 194//194
f 155//155 158//158 143//143
f 158//158 152//152 143//143
f 152//152 158//158 174//174
f 187//187 173//173 167//167
f 173//173 155//155 167//167
f 173//173 158//158 155//155
f 158//158 173//173 174//174
f 174//174 173//173 194//194
f 173//173 187//187 194//194
f 119//119 117//117 135//135
f 99//99 119//119 110//110
f 117//117 119//119 99//99
f 61//61 51//51 66//66
f 61//61 59//59 51//51
f 73//73 61//61 66//66
f 61//61 73//73 75//75
f 59//59 61//61 75//75
f 37//37 31//31 29//29
f 31//31 24//24 29//29
f 10//10 16//16 14//14
f 11//11 13//13 15//15
f 13//13 11//11 12//12
f 38//38 33//33 34//34
f 33//33 38//38 41//41
f 37//37 33//33 41//41
f 33//33 37//37 29//29
f 26//26 28//28 34//34
f 28//28 26//26 23//23
f 33//33 26//26 34//34
f 356//356 368//368 358//358
f 324//324 356//356 358//358
f 356//356 324//324 337//337
f 368//368 356//356 373//373
f 356//356 378//378 373//373
f 378//378 356//356 364//364
f 356//356 337//337 347//347
f 364//364 356//356 347//347
f 303//303 289//289 310//310
f 323//323 303//303 310//310
f 303//303 323//323 312//312
f 289//289 303//303 284//284
f 303//303 312//312 284//284
f 343//343 323//323 345//345
f 343//343 360//360 348//348
f 315//315 334//334 321//321
f 334//334 315//315 312//312
f 323//323 334//334 312//312
f 353//353 334//334 348//348
f 238//238 249//249 234//234
f 262//262 249//249 238//238
f 249//249 262//262 263//263
f 249//249 250//250 234//234
f 250//250 249//249 263//263
f 250//250 251//251 233//233
f 251//251 250//250 266//266
f 279//279 251//251 266//266
f 251//251 279//279 275//275
f 251//251 275//275 260//260
f 241//241 251//251 260//260
f 251//251 241//241 233//233
f 325//325 320//320 309//309
f 328//328 325//325 309//309
f 320//320 325//325 337//337
f 337//337 325//325 347//347
f 325//325 328//328 347//347
f 271//271 276//276 288//288
f 276//276 275//275 288//288
f 276//276 271//271 260//260
f 275//275 276//276 260//260
f 286//286 266//266 294//294
f 286//286 279//279 266//266
f 295//295 309//309 299//299
f 286//286 295//295 279//279
f 279//279 285//285 275//275
f 298//298 285//285 299//299
f 275//275 285//285 298//298
f 285//285 295//295 299//299
f 295//295 285//285 279//279
f 389//389 400//400 386//386
f 400//400 389//389 403//403
f 364//364 350//350 386//386
f 350//350 364//364 347//347
f 357//357 382//382 375//375
f 382//382 357//357 361//361
f 361//361 357//357 342//342
f 357//357 345//345 342//342
f 376//376 360//360 375//375
f 376//376 399//399 397//397
f 399//399 376//376 375//375
f 382//382 390//390 375//375
f 390//390 399//399 375//375
f 414//414 404//404 425//425
f 399//399 404//404 414//414
f 390//390 404//404 399//399
f 414//414 408//408 397//397
f 421//421 408//408 414//414
f 411//411 419//419 402//402
f 422//422 419//419 411//411
f 419//419 422//422 430//430
f 419//419 412//412 402//402
f 412//412 419//419 420//420
f 419//419 438//438 420//420
f 419//419 430//430 438//438
f 432//432 431//431 442//442
f 440//440 432//432 442//442
f 423//423 432//432 440//440
f 409//409 388//388 394//394
f 388//388 378//378 394//394
f 388//388 384//384 373//373
f 378//378 388//388 373//373
f 424//424 417//417 437//437
f 409//409 417//417 424//424
f 417//417 400//400 423//423
f 417//417 409//409 394//394
f 400//400 417//417 394//394
f 405//405 391//391 384//384
f 388//388 405//405 384//384
f 405//405 388//388 409//409
f 391//391 405//405 407//407
f 405//405 416//416 407//407
f 416//416 405//405 424//424
f 405//405 409//409 424//424
f 152//152 170//170 144//144
f 190//190 170//170 174//174
f 170//170 152//152 174//174
f 128//128 138//138 116//116
f 126//126 128//128 113//113
f 128//128 116//116 113//113
f 146//146 128//128 126//126
f 138//138 128//128 146//146
f 253//253 245//245 237//237
f 245//245 224//224 237//237
f 264//264 245//245 253//253
f 176//176 186//186 193//193
f 183//183 201//201 191//191
f 162//162 183//183 191//191
f 176//176 183//183 162//162
f 183//183 176//176 193//193
f 215//215 183//183 193//193
f 201//201 183//183 215//215
f 77//77 86//86 92//92
f 77//77 69//69 68//68
f 77//77 92//92 69//69
f 71//71 77//77 68//68
f 86//86 77//77 71//71
f 98//98 112//112 93//93
f 74//74 98//98 93//93
f 103//103 98//98 92//92
f 98//98 74//74 69//69
f 92//92 98//98 69//69
f 111//111 103//103 110//110
f 123//123 111//111 110//110
f 112//112 111//111 123//123
f 98//98 111//111 112//112
f 111//111 98//98 103//103
f 229//229 211//211 223//223
f 229//229 223//223 248//248
f 229//229 230//230 214//214
f 211//211 229//229 214//214
f 229//229 248//248 267//267
f 230//230 229//229 267//267
f 202//202 227//227 223//223
f 202//202 190//190 194//194
f 202//202 211//211 190//190
f 211//211 202//202 223//223
f 354//354 338//338 344//344
f 319//319 338//338 336//336
f 338//338 351//351 336//336
f 351//351 338//338 354//354
f 338//338 319//319 318//318
f 338//338 322//322 344//344
f 338//338 318//318 322//322
f 305//305 304//304 322//322
f 305//305 291//291 304//304
f 318//318 305//305 322//322
f 305//305 318//318 297//297
f 291//291 305//305 297//297
f 243//243 257//257 228//228
f 257//257 242//242 228//228
f 257//257 243//243 271//271
f 257//257 271//271 274//274
f 327//327 324//324 358//358
f 349//349 327//327 358//358
f 327//327 317//317 306//306
f 324//324 327//327 306//306
f 327//327 329//329 317//317
f 327//327 349//349 329//329
f 369//369 351//351 354//354
f 369//369 370//370 379//379
f 369//369 354//354 370//370
f 392//392 369//369 379//379
f 377//377 369//369 392//392
f 351//351 369//369 366//366
f 369//369 377//377 366//366
f 367//367 365//365 381//381
f 365//365 374//374 381//381
f 365//365 367//367 346//346
f 366//366 365//365 346//346
f 374//374 365//365 366//366
f 264//264 292//292 282//282
f 314//314 319//319 336//336
f 333//333 314//314 336//336
f 272//272 264//264 282//282
f 272//272 282//282 301//301
f 256//256 272//272 301//301
f 212//212 195//195 203//203
f 225//225 212//212 203//203
f 195//195 212//212 216//216
f 232//232 246//246 255//255
f 232//232 225//225 246//246
f 232//232 212//212 225//225
f 232//232 236//236 216//216
f 212//212 232//232 216//216
f 221//221 228//228 208//208
f 206//206 221//221 208//208
f 243//243 221//221 241//241
f 221//221 243//243 228//228
f 221//221 219//219 241//241
f 221//221 206//206 219//219
f 154//154 120//120 131//131
f 37//37 46//46 40//40
f 45//45 46//46 37//37
f 46//46 57//57 40//40
f 35//35 42//42 39//39
f 35//35 36//36 27//27
f 35//35 39//39 36//36
f 196//196 204//204 187//187
f 204//204 196//196 217//217
f 196//196 187//187 167//167
f 185//185 196//196 167//167
f 196//196 185//185 208//208
f 217//217 196//196 208//208
f 227//227 213//213 226//226
f 213//213 204//204 226//226
f 202//202 213//213 227//227
f 204//204 213//213 194//194
f 213//213 202//202 194//194
f 123//123 139//139 143//143
f 139//139 155//155 143//143
f 155//155 148//148 167//167
f 148//148 165//165 167//167
f 32//32 37//37 40//40
f 32//32 31//31 37//37
f 42//42 32//32 40//40
f 24//24 32//32 27//27
f 31//31 32//32 24//24
f 32//32 35//35 27//27
f 35//35 32//32 42//42
f 8//8 16//16 10//10
f 7//7 8//8 6//6
f 8//8 10//10 6//6
f 21//21 16//16 23//23
f 26//26 21//21 23//23
f 21//21 26//26 20//20
f 21//21 20//20 14//14
f 16//16 21//21 14//14
f 20//20 18//18 12//12
f 18//18 13//13 12//12
f 339//339 343//343 348//348
f 343//343 339//339 323//323
f 334//334 339//339 348//348
f 339//339 334//334 323//323
f 302//302 286//286 294//294
f 302//302 294//294 321//321
f 295//295 302//302 309//309
f 302//302 295//295 286//286
f 328//328 302//302 321//321
f 302//302 328//328 309//309
f 371//371 389//389 386//386
f 350//350 371//371 386//386
f 371//371 350//350 353//353
f 350//350 341//341 353//353
f 341//341 328//328 321//321
f 328//328 341//341 347//347
f 341//341 350//350 347//347
f 334//334 341//341 321//321
f 341//341 334//334 353//353
f 360//360 352//352 375//375
f 352//352 357//357 375//375
f 357//357 352//352 345//345
f 352//352 343//343 345//345
f 343//343 352//352 360//360
f 360//360 363//363 348//348
f 376//376 363//363 360//360
f 363//363 353//353 348//348
f 363//363 371//371 353//353
f 371//371 363//363 376//376
f 395//395 382//382 401//401
f 395//395 390//390 382//382
f 395//395 404//404 390//390
f 408//408 418//418 403//403
f 418//418 408//408 421//421
f 418//418 421//421 431//431
f 418//418 423//423 403//403
f 432//432 418//418 431//431
f 418//418 432//432 423//423
f 417//417 436//436 437//437
f 436//436 449//449 437//437
f 449//449 436//436 440//440
f 436//436 423//423 440//440
f 436//436 417//417 423//423
f 161//161 149//149 144//144
f 170//170 161//161 144//144
f 149//149 161//161 159//159
f 245//245 240//240 224//224
f 210//210 240//240 235//235
f 224//224 240//240 210//210
f 122//122 117//117 100//100
f 120//120 122//122 100//100
f 117//117 122//122 135//135
f 122//122 154//154 135//135
f 154//154 122//122 120//120
f 95//95 114//114 100//100
f 114//114 120//120 100//100
f 114//114 97//97 115//115
f 97//97 114//114 95//95
f 131//131 114//114 115//115
f 120//120 114//114 131//131
f 186//186 157//157 164//164
f 176//176 157//157 186//186
f 145//145 157//157 133//133
f 164//164 157//157 145//145
f 153//153 176//176 162//162
f 153//153 154//154 131//131
f 154//154 153//153 162//162
f 153//153 157//157 176//176
f 153//153 131//131 133//133
f 157//157 153//153 133//133
f 270//270 257//257 274//274
f 270//270 287//287 278//278
f 287//287 270//270 274//274
f 261//261 270//270 278//278
f 244//244 270//270 261//261
f 242//242 270//270 244//244
f 257//257 270//270 242//242
f 330//330 307//307 331//331
f 292//292 307//307 330//330
f 293//293 330//330 335//335
f 293//293 292//292 330//330
f 316//316 293//293 335//335
f 293//293 316//316 301//301
f 282//282 293//293 301//301
f 292//292 293//293 282//282
f 283//283 300//300 281//281
f 300//300 314//314 281//281
f 300//300 280//280 297//297
f 280//280 300//300 283//283
f 319//319 300//300 297//297
f 314//314 300//300 319//319
f 252//252 232//232 255//255
f 265//265 252//252 255//255
f 259//259 252//252 265//265
f 252//252 259//259 236//236
f 232//232 252//252 236//236
f 46//46 54//54 57//57
f 62//62 54//54 53//53
f 57//57 54//54 62//62
f 54//54 45//45 53//53
f 54//54 46//46 45//45
f 139//139 141//141 155//155
f 141//141 148//148 155//155
f 119//119 141//141 110//110
f 141//141 123//123 110//110
f 141//141 139//139 123//123
f 148//148 147//147 165//165
f 154//154 147//147 135//135
f 26//26 25//25 20//20
f 25//25 18//18 20//20
f 25//25 33//33 29//29
f 25//25 26//26 33//33
f 22//22 24//24 19//19
f 25//25 22//22 18//18
f 24//24 22//22 29//29
f 22//22 25//25 29//29
f 13//13 17//17 15//15
f 18//18 17//17 13//13
f 17//17 19//19 15//15
f 17//17 22//22 19//19
f 22//22 17//17 18//18
f 371//371 387//387 389//389
f 387//387 371//371 376//376
f 387//387 376//376 397//397
f 389//389 387//387 403//403
f 408//408 387//387 397//397
f 387//387 408//408 403//403
f 406//406 395//395 401//401
f 395//395 406//406 404//404
f 404//404 406//406 425//425
f 184//184 170//170 190//190
f 211//211 184//184 190//190
f 184//184 211//211 198//198
f 161//161 178//178 159//159
f 159//159 178//178 181//181
f 178//178 197//197 181//181
f 197//197 178//178 198//198
f 178//178 184//184 198//198
f 178//178 161//161 170//170
f 184//184 178//178 170//170
f 272//272 258//258 264//264
f 258//258 245//245 264//264
f 258//258 240//240 245//245
f 258//258 272//272 256//256
f 258//258 256//256 235//235
f 240//240 258//258 235//235
f 296//296 307//307 292//292
f 296//296 264//264 281//281
f 296//296 292//292 264//264
f 307//307 308//308 331//331
f 296//296 308//308 307//307
f 314//314 308//308 281//281
f 308//308 296//296 281//281
f 136//136 141//141 119//119
f 141//141 136//136 148//148
f 136//136 119//119 135//135
f 147//147 136//136 135//135
f 136//136 147//147 148//148
f 147//147 171//171 165//165
f 171//171 147//147 154//154
f 185//185 171//171 191//191
f 165//165 171//171 185//185
f 171//171 162//162 191//191
f 171//171 154//154 162//162
f 308//308 326//326 331//331
f 331//331 326//326 346//346
f 326//326 333//333 346//346
f 326//326 314//314 333//333
f 326//326 308//308 314//314
