v 0.900213372 -0.037601177 -4.508437722 0.592157 0.533333 0.482353
v 0.906359550 -0.034759568 -4.510313050 0.286275 0.278431 0.254902
v 0.899492100 -0.040209654 -4.495044556 0.650980 0.474510 0.403922
v 0.875133095 -0.053847414 -4.472373413 0.556863 0.509804 0.341176
v 0.885916970 -0.048619477 -4.479809310 0.666667 0.513725 0.392157
v 0.916929376 -0.030636444 -4.504587792 0.470588 0.450980 0.368627
v 0.876901381 -0.055751093 -4.460241522 0.639216 0.541176 0.400000
v 0.923522094 -0.027900177 -4.500822396 0.498039 0.490196 0.415686
v 0.914114285 -0.033336470 -4.491885692 0.721569 0.560784 0.474510
v 0.895156828 -0.042683764 -4.474875814 0.619608 0.482353 0.360784
v 0.912849359 -0.033972929 -4.489986245 0.611765 0.450980 0.364706
v 0.898346344 -0.040822678 -4.475512130 0.619608 0.482353 0.368627
v 0.901590946 -0.039050826 -4.470454908 0.619608 0.494118 0.349020
v 0.882116777 -0.054096257 -4.450761829 0.615686 0.474510 0.380392
v 0.884385745 -0.053660048 -4.446927442 0.639216 0.486275 0.396078
v 0.912605421 -0.033349650 -4.472938615 0.623529 0.462745 0.356863
v 0.894738971 -0.046425475 -4.455189394 0.635294 0.517647 0.372549
v 0.916540295 -0.031041077 -4.472956353 0.611765 0.447059 0.341176
v 0.887116487 -0.051867050 -4.442602881 0.643137 0.470588 0.384314
v 0.902389335 -0.042078345 -4.456463052 0.658824 0.549020 0.388235
v 0.902351472 -0.042648796 -4.450757999 0.694118 0.556863 0.411765
v 0.905488060 -0.041331589 -4.446320880 0.666667 0.525490 0.415686
v 0.924886594 -0.026795227 -4.464738555 0.635294 0.474510 0.380392
v 0.901962716 -0.042830981 -4.442639470 0.698039 0.533333 0.419608
v 0.945612848 -0.018911525 -4.479281122 0.560784 0.533333 0.454902
v 0.931722203 -0.023412825 -4.467254490 0.592157 0.435294 0.341176
v 0.924100340 -0.028441056 -4.457119195 0.658824 0.501961 0.372549
v 0.894464407 -0.050184602 -4.427372215 0.658824 0.466667 0.376471
v 0.945640739 -0.018545900 -4.473502953 0.615686 0.541176 0.439216
v 0.905911717 -0.042665460 -4.434977397 0.705882 0.529412 0.427451
v 0.918800765 -0.034388245 -4.446955911 0.666667 0.533333 0.384314
v 0.918220181 -0.035110421 -4.443796680 0.678431 0.541176 0.400000
v 0.938444795 -0.019844737 -4.460256590 0.635294 0.486275 0.368627
v 0.925736942 -0.031172994 -4.442518858 0.658824 0.521569 0.372549
v 0.904589175 -0.046594038 -4.421588517 0.678431 0.552941 0.482353
v 0.935275611 -0.022786780 -4.450839881 0.662745 0.509804 0.372549
v 0.944490163 -0.015762662 -4.459118468 0.678431 0.537255 0.439216
v 0.913495016 -0.039693838 -4.424760868 0.674510 0.517647 0.450980
v 0.933338470 -0.028204157 -4.435085735 0.662745 0.509804 0.380392
v 0.946235650 -0.026107621 -4.428286891 0.600000 0.505882 0.435294
v 0.938054486 -0.025120240 -4.415161045 0.654902 0.560784 0.545098
v 0.936334592 -0.019688920 -4.409099647 0.560784 0.431373 0.356863
v 0.940475017 -0.017526827 -4.407711360 0.678431 0.529412 0.431373
v 0.951062061 -0.016157316 -4.415453731 0.623529 0.470588 0.443137
v 0.954628207 -0.013679545 -4.410823792 0.219608 0.164706 0.152941
vn 0.374320316 -0.913772656 -0.157809488
vn 0.421219612 -0.899027528 -0.119681002
vn 0.459696859 -0.886948288 -0.044738481
vn 0.317743783 -0.928530942 -0.192013486
vn 0.498446817 -0.864918221 -0.058883294
vn 0.416378381 -0.903695759 -0.099814924
vn 0.483735307 -0.866346532 -0.124273249
vn 0.496758692 -0.867874349 -0.004991604
vn 0.460472314 -0.885677825 -0.059498224
vn 0.527467522 -0.845716057 -0.080884885
vn 0.450100273 -0.892780105 0.018799682
vn 0.450963349 -0.892427965 0.014296326
vn 0.475908559 -0.865256689 -0.157613152
vn 0.480017200 -0.867015924 -0.133667036
vn 0.522255321 -0.848207230 -0.088282929
vn 0.485504016 -0.871068503 -0.074333794
vn 0.501410949 -0.856956424 -0.119217227
vn 0.510864680 -0.859633550 -0.006887624
vn 0.523906026 -0.846340985 -0.096069830
vn 0.489178769 -0.857875472 -0.157333424
vn 0.451169707 -0.891766071 -0.034629042
vn 0.437320014 -0.894163019 -0.096040100
vn 0.471608709 -0.878082526 -0.080970997
vn 0.479332748 -0.870267114 -0.113469232
vn 0.352395922 -0.934088723 0.057405325
vn 0.421995731 -0.906482052 0.014487687
vn 0.515284455 -0.844067816 -0.148429960
vn 0.472734133 -0.861711703 -0.184324118
vn 0.415747173 -0.900590988 0.126846996
vn 0.462265991 -0.872972610 -0.155656594
vn 0.496049891 -0.851910558 -0.167877656
vn 0.466771263 -0.878311414 -0.103410100
vn 0.485100489 -0.874236471 0.019700478
vn 0.497894726 -0.852290487 -0.160317709
vn 0.493912948 -0.846306934 -0.199535895
vn 0.439700130 -0.866705632 -0.235552845
vn 0.447234950 -0.876500559 -0.178122626
vn 0.493385224 -0.867413244 -0.064539018
vn 0.405807170 -0.911433959 -0.067887250
vn 0.349578618 -0.935045400 -0.059032950
vn 0.432365059 -0.877749137 0.206438632
vn 0.144993159 -0.716084096 0.682788804
vn 0.388860939 -0.783770942 0.484241965
vn 0.479182902 -0.772680382 0.416351743
vn 0.305533972 -0.917249216 0.255544259
f 2//2 3//3 1//1
f 3//3 2//2 9//9
f 18//18 26//26 23//23
f 8//8 18//18 9//9
f 2//2 6//6 9//9
f 6//6 8//8 9//9
f 7//7 4//4 5//5
f 18//18 11//11 9//9
f 11//11 3//3 9//9
f 11//11 12//12 3//3
f 10//10 7//7 5//5
f 7//7 10//10 17//17
f 3//3 10//10 5//5
f 12//12 10//10 3//3
f 17//17 10//10 13//13
f 10//10 12//12 13//13
f 20//20 17//17 13//13
f 34//34 39//39 38//38
f 30//30 35//35 28//28
f 35//35 30//30 38//38
f 17//17 24//24 19//19
f 30//30 24//24 22//22
f 19//19 24//24 28//28
f 24//24 30//30 28//28
f 14//14 7//7 17//17
f 29//29 26//26 25//25
f 39//39 41//41 38//38
f 43//43 44//44 45//45
f 41//41 43//43 42//42
f 43//43 41//41 44//44
f 20//20 21//21 17//17
f 21//21 20//20 22//22
f 21//21 24//24 17//17
f 24//24 21//21 22//22
f 27//27 18//18 23//23
f 26//26 27//27 23//23
f 34//34 36//36 39//39
f 27//27 36//36 34//34
f 15//15 17//17 19//19
f 15//15 14//14 17//17
f 29//29 33//33 26//26
f 33//33 29//29 37//37
f 36//36 33//33 37//37
f 33//33 27//27 26//26
f 33//33 36//36 27//27
f 40//40 41//41 39//39
f 41//41 40//40 44//44
f 36//36 40//40 39//39
f 40//40 36//36 37//37
f 27//27 16//16 18//18
f 16//16 27//27 20//20
f 16//16 20//20 13//13
f 16//16 11//11 18//18
f 12//12 16//16 13//13
f 11//11 16//16 12//12
f 20//20 31//31 22//22
f 27//27 31//31 20//20
f 31//31 27//27 34//34
f 32//32 30//30 22//22
f 31//31 32//32 22//22
f 30//30 32//32 38//38
f 32//32 34//34 38//38
f 32//32 31//31 34//34
